<svg width="31" height="31" viewBox="0 0 31 31" fill="none" xmlns="http://www.w3.org/2000/svg">
<circle cx="15.8418" cy="15.916" r="14.5" fill="white" stroke="#595959"/>
<path d="M9.43365 20.6912C7.78187 19.4344 5.8418 17.9583 5.8418 15.3995C5.8418 12.5746 9.07712 10.5713 11.724 13.2871L12.9005 14.4481C13.0728 14.6182 13.3521 14.6181 13.5244 14.448C13.6966 14.2778 13.6966 14.0019 13.5243 13.8318L12.3878 12.71C14.8819 10.9069 17.6063 12.8073 17.6063 15.3995C17.6063 17.9583 15.6662 19.4344 14.0144 20.6912C13.8427 20.8218 13.6742 20.95 13.5112 21.0769C12.9005 21.5523 12.3123 22 11.724 22C11.1358 22 10.5476 21.5523 9.93685 21.0769C9.7739 20.95 9.60534 20.8218 9.43365 20.6912Z" fill="#ED1B1B"/>
<path d="M20.3312 12.3048L19.9435 12.585C18.5815 11.4121 17.06 11.2505 15.8209 11.8098C14.4967 12.4076 13.5781 13.7965 13.5781 15.3995C13.5781 18.2072 15.6995 19.8207 17.3066 21.043C17.3269 21.0584 17.3471 21.0738 17.3672 21.0891C17.5393 21.22 17.7057 21.3466 17.866 21.4714L18.1458 21.112L17.866 21.4714C18.1668 21.7056 18.4935 21.9583 18.8253 22.1498C19.1572 22.3413 19.5409 22.5 19.9604 22.5C20.3798 22.5 20.7636 22.3413 21.0954 22.1498C21.4273 21.9583 21.7539 21.7056 22.0547 21.4714C22.2151 21.3466 22.3814 21.22 22.5535 21.0891C22.5736 21.0738 22.5938 21.0584 22.6141 21.043C24.2212 19.8207 26.3426 18.2072 26.3426 15.3995C26.3426 13.9277 25.5688 12.6381 24.4188 11.9736C23.2508 11.2986 21.7338 11.2908 20.3312 12.3048ZM21.4881 14.0922L21.488 14.0922L21.4881 14.0922Z" fill="#B52929" stroke="white"/>
</svg>
