<svg width="30" height="30" viewBox="0 0 30 30" fill="none" xmlns="http://www.w3.org/2000/svg">
<path d="M19.1606 29.4029V18.3309H22.3722C22.5353 17.0746 22.6949 15.8477 22.8592 14.5831H19.177C19.163 14.4951 19.1465 14.4411 19.1465 14.3859C19.1465 13.5851 19.1348 12.7832 19.1524 11.9825C19.1747 10.9046 19.6593 10.4103 20.7353 10.3704C21.3596 10.3469 21.985 10.3598 22.6104 10.3563C22.716 10.3563 22.8216 10.3563 22.9472 10.3563V6.99127C22.4297 6.95605 21.9076 6.90791 21.3854 6.88795C20.4983 6.85272 19.6077 6.79519 18.7311 6.99949C16.8584 7.43626 15.5747 8.79237 15.3681 10.7085C15.2461 11.8404 15.2942 12.9899 15.2661 14.1311C15.2625 14.2661 15.2661 14.4012 15.2661 14.5702H12.0673V18.3356H15.2473V29.9911C8.46145 30.2389 1.42451 25.2723 0.186563 17.3447C-1.1347 8.88865 4.72297 1.42241 12.6599 0.184887C21.0252 -1.11839 28.5514 4.61954 29.8081 12.6329C31.1094 20.9269 25.5968 27.6769 19.163 29.4041L19.1606 29.4029Z" fill="#EDEDED"/>
</svg>
