<svg width="286" height="645" viewBox="0 0 286 645" fill="none" xmlns="http://www.w3.org/2000/svg">
<path d="M218 627C218 636.941 209.941 645 200 645C190.059 645 182 636.941 182 627C182 617.059 190.059 609 200 609C209.941 609 218 617.059 218 627Z" fill="white"/>
<path d="M174 627C174 636.941 165.941 645 156 645C146.059 645 138 636.941 138 627C138 617.059 146.059 609 156 609C165.941 609 174 617.059 174 627Z" fill="#F5F5F5"/>
<path d="M130 627C130 636.941 121.941 645 112 645C102.059 645 94 636.941 94 627C94 617.059 102.059 609 112 609C121.941 609 130 617.059 130 627Z" fill="#F5F5F5"/>
<path d="M204.5 618C202.76 618 201.09 618.81 200 620.09C198.91 618.81 197.24 618 195.5 618C192.42 618 190 620.42 190 623.5C190 627.28 193.4 630.36 198.55 635.04L200 636.35L201.45 635.03C206.6 630.36 210 627.28 210 623.5C210 620.42 207.58 618 204.5 618ZM200.1 633.55L200 633.65L199.9 633.55C195.14 629.24 192 626.39 192 623.5C192 621.5 193.5 620 195.5 620C197.04 620 198.54 620.99 199.07 622.36H200.94C201.46 620.99 202.96 620 204.5 620C206.5 620 208 621.5 208 623.5C208 626.39 204.86 629.24 200.1 633.55Z" fill="#454F63"/>
<path d="M162 631.12C161.24 631.12 160.56 631.42 160.04 631.89L152.91 627.74C152.96 627.51 153 627.28 153 627.04C153 626.8 152.96 626.57 152.91 626.34L159.96 622.23C160.5 622.73 161.21 623.04 162 623.04C163.66 623.04 165 621.7 165 620.04C165 618.38 163.66 617.04 162 617.04C160.34 617.04 159 618.38 159 620.04C159 620.28 159.04 620.51 159.09 620.74L152.04 624.85C151.5 624.35 150.79 624.04 150 624.04C148.34 624.04 147 625.38 147 627.04C147 628.7 148.34 630.04 150 630.04C150.79 630.04 151.5 629.73 152.04 629.23L159.16 633.39C159.11 633.6 159.08 633.82 159.08 634.04C159.08 635.65 160.39 636.96 162 636.96C163.61 636.96 164.92 635.65 164.92 634.04C164.92 632.43 163.61 631.12 162 631.12ZM162 619.04C162.55 619.04 163 619.49 163 620.04C163 620.59 162.55 621.04 162 621.04C161.45 621.04 161 620.59 161 620.04C161 619.49 161.45 619.04 162 619.04ZM150 628.04C149.45 628.04 149 627.59 149 627.04C149 626.49 149.45 626.04 150 626.04C150.55 626.04 151 626.49 151 627.04C151 627.59 150.55 628.04 150 628.04ZM162 635.06C161.45 635.06 161 634.61 161 634.06C161 633.51 161.45 633.06 162 633.06C162.55 633.06 163 633.51 163 634.06C163 634.61 162.55 635.06 162 635.06Z" fill="#1E73F1"/>
<path d="M86 627C86 636.941 77.9411 645 68 645C58.0589 645 50 636.941 50 627C50 617.059 58.0589 609 68 609C77.9411 609 86 617.059 86 627Z" fill="#F5F5F5"/>
<path d="M78 621C78 619.9 77.1 619 76 619H60C58.9 619 58 619.9 58 621V633C58 634.1 58.9 635 60 635H76C77.1 635 78 634.1 78 633C78 628.314 78 625.687 78 621ZM76 621L68 626L60 621H76ZM76 633H60V623L68 628L76 623V633Z" fill="#454F63"/>
<path d="M115.921 619.5C117.711 619.5 119.341 620.23 120.511 621.41L121.571 620.35C120.131 618.9 118.131 618 115.921 618C113.711 618 111.711 618.9 110.261 620.34L111.321 621.4C112.511 620.23 114.131 619.5 115.921 619.5Z" fill="#454F63"/>
<path d="M115.921 621C114.541 621 113.291 621.56 112.381 622.46L113.441 623.52C114.071 622.89 114.951 622.49 115.911 622.49C116.871 622.49 117.751 622.88 118.381 623.52L119.441 622.46C118.551 621.56 117.301 621 115.921 621Z" fill="#454F63"/>
<path d="M115.921 624C115.371 624 114.871 624.22 114.511 624.59L115.921 626L117.331 624.59C116.971 624.22 116.471 624 115.921 624Z" fill="#454F63"/>
<path d="M119.631 629.87L115.961 629.14C115.461 629.04 115.131 629.34 115.061 629.41L112.541 631.91C110.041 630.48 107.971 628.41 106.541 625.91L109.041 623.39C109.271 623.15 109.371 622.82 109.311 622.49L108.561 618.8C108.471 618.34 108.061 618 107.581 618H103.431C102.871 618 102.401 618.47 102.431 619.03C102.601 621.92 103.481 624.63 104.861 627C106.441 629.73 108.711 631.99 111.431 633.57C113.801 634.94 116.511 635.83 119.401 636C119.951 636.03 120.431 635.57 120.431 635V630.85C120.431 630.37 120.091 629.96 119.631 629.87ZM104.531 620H106.761L107.231 622.35L105.601 624C105.061 622.7 104.701 621.37 104.531 620ZM118.431 633.9C117.061 633.72 115.731 633.37 114.431 632.83L116.081 631.2L118.431 631.67V633.9Z" fill="#454F63"/>
<path d="M201.5 18C201.5 27.9411 193.441 36 183.5 36C173.559 36 165.5 27.9411 165.5 18C165.5 8.05887 173.559 0 183.5 0C193.441 0 201.5 8.05887 201.5 18Z" fill="#F5F5F5"/>
<path d="M286 24.0002C286 22.9002 285.1 22.0002 284 22.0002H268C266.9 22.0002 266 22.9002 266 24.0002V36.0002C266 37.1002 266.9 38.0002 268 38.0002H284C285.1 38.0002 286 37.1002 286 36.0002C286 31.3139 286 28.6865 286 24.0002ZM284 24.0002L276 29.0002L268 24.0002H284ZM284 36.0002H268V26.0002L276 31.0002L284 26.0002V36.0002Z" fill="#454F63"/>
<path d="M36 268C36 277.941 27.9411 286 18 286C8.05887 286 0 277.941 0 268C0 258.059 8.05887 250 18 250C27.9411 250 36 258.059 36 268Z" fill="#F5F5F5"/>
</svg>
