<svg width="21" height="21" viewBox="0 0 21 21" fill="none" xmlns="http://www.w3.org/2000/svg">
<g clip-path="url(#clip0_1818_1564)">
<path d="M4.75855 12.5351L4.05945 15.1449L1.50426 15.199C0.740636 13.7826 0.307495 12.1621 0.307495 10.4401C0.307495 8.77486 0.712471 7.20454 1.43032 5.82184H1.43087L3.7057 6.2389L4.70222 8.50008C4.49365 9.10813 4.37997 9.76086 4.37997 10.4401C4.38005 11.1772 4.51358 11.8835 4.75855 12.5351Z" fill="#FBBB00"/>
<path d="M20.2162 8.56793C20.3316 9.1754 20.3917 9.80275 20.3917 10.4439C20.3917 11.1629 20.3161 11.8642 20.1721 12.5406C19.6833 14.8426 18.4059 16.8526 16.6364 18.275L16.6359 18.2745L13.7706 18.1283L13.3651 15.5968C14.5392 14.9082 15.4568 13.8306 15.9402 12.5406H10.5704V8.56793H16.0185H20.2162Z" fill="#518EF8"/>
<path d="M16.6356 18.2722L16.6361 18.2727C14.9152 19.656 12.7291 20.4836 10.3494 20.4836C6.52511 20.4836 3.20022 18.3461 1.5041 15.2005L4.75838 12.5367C5.60642 14.8 7.78974 16.4111 10.3494 16.4111C11.4496 16.4111 12.4803 16.1137 13.3647 15.5945L16.6356 18.2722Z" fill="#28B446"/>
<path d="M16.7593 2.71186L13.5062 5.37519C12.5908 4.80303 11.5088 4.47251 10.3495 4.47251C7.73199 4.47251 5.50784 6.15757 4.70228 8.50203L1.43089 5.82379H1.43034C3.10163 2.60151 6.46846 0.399994 10.3495 0.399994C12.7861 0.399994 15.0202 1.26792 16.7593 2.71186Z" fill="#F14336"/>
</g>
<defs>
<clipPath id="clip0_1818_1564">
<rect width="20.0841" height="20.0841" fill="white" transform="translate(0.307495 0.399963)"/>
</clipPath>
</defs>
</svg>
