<svg width="44" height="45" viewBox="0 0 44 45" fill="none" xmlns="http://www.w3.org/2000/svg">
<path d="M37.0208 24.3069C37.1355 24.4179 37.3681 24.6433 37.4844 24.756C37.8774 26.4817 38.9024 28.0544 38.9583 29.8478C38.8446 29.6404 38.6189 29.2239 38.5084 29.0166C38.0923 27.421 37.4206 25.9052 37.0209 24.3036L37.0208 24.3069Z" fill="#EDEDED"/>
<path d="M3.2984 14.0675C4.01523 13.7387 4.73446 13.3217 5.5477 13.3568C5.20114 13.7169 4.84822 14.0703 4.47614 14.4068C4.80837 14.2736 5.13885 14.1452 5.47699 14.0351C6.15549 13.854 6.84599 13.7125 7.54567 13.6546C7.46532 13.4824 7.38339 13.3085 7.29986 13.133C8.25407 12.8531 9.23274 12.6966 10.2208 12.6138C10.904 12.562 11.5899 12.5905 12.2709 12.6204C13.0289 12.6409 13.7871 12.7154 14.5377 12.829C15.7813 12.9118 17.017 13.1039 18.2478 13.2942C20.1976 13.6822 22.1486 14.1422 23.9553 14.9842C24.1669 15.0766 24.3707 15.1606 24.574 15.2576C25.0978 15.5351 25.6233 15.8142 26.1215 16.1318C26.2418 16.2152 26.4777 16.3801 26.5948 16.4634C26.723 16.5585 26.848 16.6534 26.9712 16.7499C27.7152 17.5287 28.5806 18.1735 29.3616 18.914C29.3008 18.7456 29.1743 18.407 29.1102 18.2385C29.6469 18.4019 30.0487 18.779 30.3334 19.2543C30.6652 19.86 31.2813 20.171 31.9292 20.3341C31.9958 19.507 32.1282 18.6621 31.9117 17.8453C32.2359 17.6464 32.5585 17.4459 32.8795 17.2437C32.9442 17.6313 33.0138 18.0174 33.0572 18.406L33.1058 18.1213C33.2409 18.2639 33.5146 18.5427 33.6498 18.6821C34.4005 19.273 34.6205 20.2044 34.9442 21.0502C35.2205 21.6512 35.5017 22.2539 35.7434 22.8687C36.5935 25.2215 37.2952 27.6193 38.0035 30.0173C38.2244 30.7345 38.6322 31.3701 39.0771 31.9675C38.9408 32.0488 38.6715 32.2115 38.5354 32.2896L38.5877 32.4087C38.6409 32.5589 38.7472 32.8594 38.8002 33.0129C38.6494 33.0889 38.3443 33.2441 38.1918 33.3217C38.1163 33.5747 38.0392 33.826 37.9587 34.0805C37.5352 34.0233 37.0628 34.0186 36.7396 33.6976C33.4728 31.0552 30.1256 28.4827 26.5836 26.2187C25.7293 25.5285 24.9054 24.7998 24.0461 24.1144C24.0225 23.656 24.1533 23.2361 24.5065 22.9301C24.7187 22.9457 24.9307 22.9645 25.1412 22.9784C25.8825 23.6165 26.7672 24.0329 27.6248 24.4812C28.1015 24.7459 28.587 24.9896 29.0793 25.2237C29.1746 24.847 29.1686 24.4642 29.1037 24.0832C28.7566 23.8007 28.44 23.4799 28.1568 23.1305C27.5163 21.9703 26.2786 21.4299 25.3035 20.6122C22.8727 18.671 20.0091 17.2543 16.9469 16.653C15.6305 16.4227 14.3469 16.0054 13.0065 15.938C10.3379 15.4094 7.59307 15.7045 4.9772 16.3676C4.82981 16.4372 4.68251 16.5035 4.53034 16.568C3.90191 16.8322 3.25988 17.0551 2.61476 17.2714C3.12523 16.8357 3.65468 16.4233 4.14448 15.9657C3.72112 16.0834 3.29502 16.1814 2.86265 16.2694C3.28921 15.9736 3.71718 15.686 4.13103 15.3768C3.66466 15.3919 3.20182 15.4579 2.73863 15.5368C2.08058 16.1697 1.42102 16.7976 0.750347 17.4138C0.704636 17.0496 0.662283 16.6822 0.611717 16.3162C0.805477 16.225 0.995878 16.137 1.18796 16.0474C1.22957 14.9351 2.47001 14.5306 3.29504 14.0707L3.2984 14.0675Z" fill="#EDEDED"/>
</svg>
