<svg width="30" height="31" viewBox="0 0 30 31" fill="none" xmlns="http://www.w3.org/2000/svg">
<path d="M15.0135 30.0909C12.784 30.0368 10.5509 30.0262 8.32377 29.9145C6.03899 29.7993 3.97646 29.0843 2.35136 27.3711C1.12724 26.0811 0.451095 24.5265 0.233553 22.7921C0.0806854 21.5633 0.0101311 20.3168 0.00425161 19.0774C-0.0110351 15.839 0.0171866 12.6005 0.0524637 9.36326C0.0677504 7.94042 0.227673 6.53051 0.763886 5.19468C1.79986 2.61357 3.71188 1.04962 6.39294 0.391112C7.91809 0.0171747 9.47969 0.013647 11.0319 0.00541564C14.1821 -0.0122229 17.3335 0.0159988 20.4838 0.0501C21.9149 0.0653867 23.3389 0.197088 24.6935 0.71331C27.3475 1.72459 28.9656 3.64719 29.6429 6.38587C29.9098 7.46535 29.9886 8.56835 29.9922 9.67487C30.0004 13.1485 30.0051 16.6221 29.991 20.0946C29.9839 21.5927 29.8934 23.0896 29.3783 24.5183C28.3529 27.3616 26.3163 29.0526 23.3895 29.6923C21.7526 30.0509 20.0816 30.0016 18.4213 30.0357C17.2865 30.0592 16.1506 30.0404 15.0158 30.0404C15.0158 30.058 15.0158 30.0756 15.0158 30.0933L15.0135 30.0909ZM14.997 27.3863C14.997 27.3711 14.997 27.3558 14.997 27.3405C15.7896 27.3405 16.5833 27.364 17.3747 27.3358C19.0845 27.2746 20.8025 27.2746 22.4993 27.0888C24.7947 26.8384 26.4433 25.352 26.9595 23.1425C27.1747 22.2182 27.2594 21.2469 27.2758 20.2945C27.3264 17.2724 27.3381 14.2491 27.3193 11.2259C27.3123 10.0065 27.2535 8.77766 27.1006 7.56883C26.7949 5.15705 25.2862 3.51902 22.9073 3.04513C21.8796 2.84052 20.8107 2.7782 19.7594 2.76056C17.1184 2.71705 14.4761 2.72528 11.8338 2.73351C10.3381 2.73822 8.83764 2.72058 7.356 2.98045C5.07475 3.38144 3.51197 4.82662 3.04749 7.09494C2.84759 8.07447 2.77939 9.09163 2.75822 10.0935C2.70648 12.5088 2.68884 14.9265 2.71471 17.3418C2.73353 19.0315 2.77939 20.7272 2.94048 22.4087C3.09806 24.0491 3.8671 25.4061 5.30052 26.3092C6.28593 26.9289 7.39598 27.1759 8.54014 27.2182C10.6909 27.297 12.8428 27.3322 14.9947 27.3852L14.997 27.3863Z" fill="#EDEDED"/>
<path d="M7.28907 15.0202C7.28319 10.7634 10.758 7.291 15.0195 7.29688C19.2915 7.30276 22.751 10.7682 22.7381 15.0285C22.724 19.2911 19.2845 22.7318 15.0265 22.7412C10.7709 22.7506 7.29495 19.2829 7.28907 15.0202ZM14.9995 20.0178C17.7734 20.0249 20.0065 17.8106 20.0182 15.0402C20.0312 12.258 17.8005 10.0167 15.0171 10.0144C12.2467 10.012 10.0183 12.2369 10.0125 15.0073C10.0078 17.7777 12.229 20.0108 14.9983 20.0178H14.9995Z" fill="#EDEDED"/>
<path d="M23.0719 5.19355C24.0785 5.20766 24.8593 6.0155 24.8417 7.02561C24.824 8.02748 24.0115 8.80828 23.0026 8.79181C22.0125 8.77535 21.2234 7.94634 21.2434 6.94094C21.2622 5.96024 22.0783 5.17944 23.0719 5.19355Z" fill="#EDEDED"/>
</svg>
