<svg width="31" height="30" viewBox="0 0 31 30" fill="none" xmlns="http://www.w3.org/2000/svg">
<circle cx="15.1582" cy="15" r="14.5" fill="white" stroke="#595959"/>
<path d="M13.6639 9.83342C13.452 9.88893 13.1896 10.0958 13.1391 10.2472C13.1139 10.3381 13.1038 10.3381 12.9978 10.227C12.9373 10.1614 12.8313 10.0807 12.7657 10.0403C12.6093 9.95454 12.0743 9.90912 11.9078 9.97472C11.8372 9.99995 11.7615 10.0302 11.7312 10.0403C11.6706 10.0605 11.5445 10.1614 11.3477 10.3381C11.0651 10.6005 10.9389 11.3171 11.1054 11.7006C11.3275 12.1951 11.5192 12.4222 12.0087 12.7553C12.3418 12.9874 13.1644 13.3255 13.3309 13.2952C13.4419 13.2801 14.0777 12.942 14.1787 12.8461C14.2342 12.8007 14.2897 12.7603 14.3099 12.7603C14.3301 12.7603 14.4764 12.6241 14.6379 12.4575C15.1829 11.8873 15.3898 11.2111 15.193 10.6156C15.1072 10.3633 14.9053 10.0454 14.8196 10.0403C14.7994 10.0353 14.7136 9.98986 14.6379 9.9293C14.4714 9.80819 13.9667 9.75773 13.6639 9.83342Z" fill="#CD0102"/>
<path d="M16.2729 14.0065C15.4301 14.1175 14.5723 14.6676 14.1837 15.3488L14.0272 15.6264L13.7598 15.369C13.2552 14.8644 12.6143 14.6272 11.7715 14.6272C10.949 14.6272 10.1163 14.8997 9.4704 15.374C8.64784 15.9847 8.16844 17.0343 8.15835 18.2606C8.13816 20.7534 10.2273 22.8981 13.7245 23.9781C14.8851 24.3364 15.1425 24.3414 15.7834 24.0033C16.7371 23.5037 17.7817 22.7316 18.5185 21.9898C19.3108 21.1975 19.8255 20.4355 20.1636 19.5625C20.4159 18.9166 20.4967 18.4775 20.4967 17.7812C20.4967 17.0444 20.3907 16.5751 20.0576 15.914C19.5379 14.8694 18.786 14.2739 17.6859 14.0469C17.3629 13.9813 16.6362 13.956 16.2729 14.0065Z" fill="#CD0102"/>
<path d="M18.5144 8.74422C17.6161 8.93598 17.0358 9.90993 17.2023 10.9444C17.2578 11.2876 17.5051 11.8629 17.7624 12.2262C18.1207 12.7561 18.9231 13.4424 19.4479 13.6745C19.6801 13.7754 19.7002 13.7754 20.0737 13.6947C21.3201 13.4272 22.3445 12.8318 22.8088 12.1051C23.4043 11.1766 23.2226 9.98057 22.4 9.45575C21.8147 9.07728 21.0224 9.07728 20.5077 9.45575C20.4067 9.53145 20.3966 9.52136 20.2654 9.33969C20.0686 9.05205 19.7406 8.8401 19.3722 8.74927C18.9938 8.66348 18.8928 8.66348 18.5144 8.74422Z" fill="#CD0102"/>
<path d="M16.3138 6.09903C16.223 6.15454 16.1221 6.24033 16.0867 6.29584C16.0262 6.39172 16.0262 6.39172 15.9051 6.29584C15.6073 6.06371 14.9614 6.25042 14.7646 6.6289C14.3912 7.35053 15.027 8.20336 16.112 8.43045C16.3744 8.48596 16.3946 8.48091 16.6317 8.34466C16.9547 8.1529 17.318 7.77947 17.4644 7.47669C17.646 7.11335 17.636 6.64404 17.4442 6.3564C17.3635 6.23024 17.2272 6.10913 17.1313 6.06876C16.884 5.96783 16.5056 5.97792 16.3138 6.09903Z" fill="#CD0102"/>
</svg>
