<svg width="47" height="42" viewBox="0 0 47 42" fill="none" xmlns="http://www.w3.org/2000/svg">
<path d="M35.5236 0.139507C36.879 0.297194 38.5127 0.788803 39.5899 1.34534C40.5235 1.83696 41.7443 2.7367 42.5162 3.49731C44.2577 5.23186 45.4246 7.30034 46.0799 9.87898C46.3492 10.9086 46.3581 11.0199 46.3581 12.9863C46.3671 14.9157 46.3581 15.0826 46.1248 16.0288C45.658 17.9025 44.886 19.5164 43.7191 21.0098C43.4767 21.3345 42.0854 22.8371 40.6402 24.3491C39.2039 25.861 35.1915 30.0536 31.7355 33.6711C24.0158 41.7595 24.3838 41.3792 24.0697 41.5555C23.7016 41.7503 23.1361 41.7317 22.7322 41.5184C22.5527 41.4163 22.1397 41.0546 21.8256 40.7021C21.5114 40.3589 19.7341 38.4852 17.8759 36.5466C4.2138 22.262 3.34309 21.3345 2.85836 20.6388C1.16182 18.1622 0.452678 15.936 0.452678 13.0234C0.452678 8.50618 2.58009 4.4156 6.1976 1.97609C7.31965 1.22476 8.71997 0.649671 10.2639 0.315746C10.991 0.148784 11.4937 0.111679 12.7055 0.111679C14.9496 0.102403 16.332 0.445605 18.2709 1.46593C19.5186 2.13378 20.5689 2.97787 22.1038 4.56401L23.4323 5.93681L24.7519 4.57329C26.2689 3.01497 26.4574 2.84801 27.3909 2.18943C28.7554 1.24331 30.2544 0.60329 31.8792 0.278641C32.7858 0.102403 34.6259 0.028199 35.5236 0.139507Z" fill="#FF2F2F"/>
</svg>
