<svg width="26" height="30" viewBox="0 0 26 30" fill="none" xmlns="http://www.w3.org/2000/svg">
<path d="M10.647 11.5292V16.4574C10.3735 16.4069 10.1232 16.3517 9.86947 16.3129C7.58548 15.9664 5.38262 17.5817 4.97124 19.9007C4.55871 22.2256 6.05703 24.5152 8.31553 25.0098C11.0225 25.6019 13.5417 23.6553 13.6425 20.8511C13.6947 19.4061 13.6645 17.9588 13.6657 16.5126C13.6692 11.1369 13.6692 5.7611 13.6703 0.386501C13.6703 0.26315 13.6703 0.139798 13.6703 0H18.4306C18.55 0.673146 18.6184 1.33572 18.7876 1.97127C19.6196 5.10087 22.4551 7.36937 25.6465 7.47627C25.9176 7.48567 26.0034 7.55498 25.9999 7.83928C25.9848 9.23726 25.9929 10.6341 25.9929 12.032C25.9929 12.1284 25.9929 12.2235 25.9929 12.3633C23.2142 12.3551 20.7552 11.4905 18.5013 9.79998C18.5013 9.95505 18.5013 10.0643 18.5013 10.1736C18.5118 13.6427 18.5616 17.113 18.521 20.5821C18.4758 24.4929 16.6786 27.377 13.2195 29.0733C8.07797 31.5968 1.92825 28.7468 0.343015 23.1865C-1.02436 18.3899 1.82743 13.1833 6.5669 11.8124C7.78596 11.4599 9.02123 11.3319 10.2832 11.4658C10.3307 11.4705 10.3793 11.4764 10.4269 11.4846C10.4929 11.4964 10.559 11.5104 10.647 11.5292Z" fill="#EDEDED"/>
</svg>
