<svg width="42" height="30" viewBox="0 0 42 30" fill="none" xmlns="http://www.w3.org/2000/svg">
<path d="M20.9041 0C25.2272 0.173065 29.5502 0.330073 33.8733 0.529902C34.8875 0.57629 35.907 0.713673 36.9054 0.90458C39.3314 1.37025 40.8606 3.02418 41.3195 5.62017C41.9536 9.2135 42.0797 12.8461 41.9589 16.4805C41.8748 18.9962 41.6348 21.5083 41.3966 24.0151C41.2232 25.8456 40.5033 27.4086 38.9303 28.4666C37.9336 29.1374 36.8038 29.3266 35.6565 29.4497C31.3317 29.9136 26.9893 30.0188 22.6488 29.9974C18.2504 29.976 13.8503 29.8386 9.45366 29.6941C8.04534 29.6477 6.63702 29.4657 5.24096 29.2534C2.86223 28.893 1.1719 27.2373 0.756761 24.7359C0.443217 22.8553 0.268046 20.9445 0.136673 19.0408C-0.0840336 15.8703 -0.0262244 12.6927 0.229515 9.52752C0.346875 8.06806 0.516786 6.60325 0.811062 5.17233C1.3313 2.64772 3.10221 1.10262 5.62457 0.779686C9.72516 0.256921 13.8485 0.210535 17.9701 0.140952C18.9458 0.124894 19.9232 0.139166 20.8989 0.139166C20.8989 0.0927771 20.9006 0.0481746 20.9024 0.00178592L20.9041 0ZM16.8403 21.4619C20.496 19.3191 24.0921 17.2102 27.7478 15.0656C24.0799 12.9157 20.482 10.8068 16.8403 8.67111V21.4619Z" fill="#EDEDED"/>
</svg>
