<svg width="195" height="54" viewBox="0 0 195 54" fill="none" xmlns="http://www.w3.org/2000/svg">
<rect width="195" height="54" rx="10" fill="#141414"/>
<path d="M80.6 35L79.4 31.86H72.96L71.78 35H69.16L74.68 21H77.62L83.12 35H80.6ZM73.74 29.82H78.64L76.18 23.34L73.74 29.82ZM90.0573 24.72C92.7173 24.72 94.6173 26.84 94.6173 30C94.6173 33.18 92.7173 35.28 90.0573 35.28C88.5573 35.28 87.3773 34.6 86.6373 33.44V39H84.3573V25H86.6373V26.54C87.3773 25.4 88.5573 24.72 90.0573 24.72ZM89.4173 33.3C91.1173 33.3 92.2373 31.98 92.2373 30C92.2373 28.02 91.1173 26.72 89.4173 26.72C87.7373 26.72 86.6173 28.02 86.6173 30C86.6173 31.98 87.7373 33.3 89.4173 33.3ZM102.03 24.72C104.69 24.72 106.59 26.84 106.59 30C106.59 33.18 104.69 35.28 102.03 35.28C100.53 35.28 99.35 34.6 98.61 33.44V39H96.33V25H98.61V26.54C99.35 25.4 100.53 24.72 102.03 24.72ZM101.39 33.3C103.09 33.3 104.21 31.98 104.21 30C104.21 28.02 103.09 26.72 101.39 26.72C99.71 26.72 98.59 28.02 98.59 30C98.59 31.98 99.71 33.3 101.39 33.3ZM119.006 35.28C115.366 35.28 113.066 33.3 113.286 30.3H115.726C115.606 32.12 116.866 33.2 119.046 33.2C120.906 33.2 122.066 32.4 122.066 31.12C122.066 27.7 113.526 30.48 113.526 25.04C113.526 22.34 115.626 20.72 118.846 20.72C122.386 20.72 124.546 22.72 124.126 25.66H121.706C122.026 23.86 120.806 22.8 118.786 22.8C117.086 22.8 115.986 23.54 115.986 24.8C115.986 28.2 124.546 25.52 124.546 30.9C124.546 33.66 122.306 35.28 119.006 35.28ZM132.824 26.98H129.964V31.84C129.964 32.66 130.164 33.28 131.264 33.28C131.784 33.28 132.184 33.14 132.604 32.92V34.92C132.164 35.14 131.544 35.28 130.824 35.28C127.844 35.28 127.684 32.94 127.684 31.86V26.98H125.784V25H127.684V22.34H129.964V25H132.824V26.98ZM138.978 35.28C135.918 35.28 133.878 33.16 133.878 30C133.878 26.84 135.918 24.72 138.978 24.72C142.018 24.72 144.078 26.84 144.078 30C144.078 33.16 142.018 35.28 138.978 35.28ZM138.978 33.28C140.598 33.28 141.698 31.98 141.698 30C141.698 28.02 140.598 26.72 138.978 26.72C137.338 26.72 136.258 28.02 136.258 30C136.258 31.98 137.338 33.28 138.978 33.28ZM150.803 24.72C152.383 24.72 153.403 25.92 153.403 27.6C153.403 28.32 153.223 29.04 152.923 29.64H150.543C150.883 29.08 151.043 28.54 151.043 28.08C151.043 27.28 150.603 26.74 149.903 26.74C148.823 26.74 148.063 28.08 148.063 30.1V35H145.783V25H148.063V26.7C148.603 25.46 149.563 24.72 150.803 24.72ZM161.768 31.84H164.248C163.668 33.94 161.888 35.28 159.388 35.28C156.268 35.28 154.288 33.18 154.288 30C154.288 26.82 156.288 24.72 159.448 24.72C162.968 24.72 164.788 27.36 163.828 30.64H156.708C156.908 32.3 157.828 33.28 159.428 33.28C160.548 33.28 161.428 32.76 161.768 31.84ZM159.408 26.64C157.908 26.64 156.988 27.48 156.748 29.02H161.668C161.808 27.58 160.988 26.64 159.408 26.64Z" fill="#EDEDED"/>
<path d="M53.1692 22.3803C50.9649 23.7113 49.8385 25.647 50.0517 28.2148C50.2616 30.7486 51.6253 32.5221 54 33.5585C53.7396 34.104 53.5033 34.6561 53.2198 35.1819C52.378 36.743 51.4286 38.2339 50.1814 39.5123C49.6627 40.0436 49.0847 40.5059 48.3803 40.7787C47.3935 41.161 46.443 41.0076 45.5144 40.5749C44.7672 40.2276 44.0067 39.9275 43.1738 39.8475C41.9584 39.7314 40.8112 39.9593 39.7145 40.4785C39.1584 40.7414 38.5848 40.9518 37.964 40.9923C37.0244 41.0536 36.2068 40.7338 35.4695 40.174C34.4124 39.371 33.6376 38.3237 32.9201 37.2294C31.5179 35.0899 30.5684 32.7708 30.1794 30.2381C29.8882 28.3418 29.9146 26.4598 30.5344 24.6195C31.052 23.0814 32.0201 21.8709 33.3058 20.908C34.2717 20.185 35.3464 19.7052 36.5618 19.5792C37.5453 19.4773 38.4892 19.6592 39.4178 19.9659C40.0419 20.1719 40.6595 20.3975 41.2914 20.5772C42.3342 20.8741 43.3507 20.7306 44.3463 20.3395C45.2045 20.0021 46.0737 19.6986 47.0001 19.5913C48.6517 19.3996 50.1275 19.8509 51.4748 20.782C52.1165 21.2257 52.6791 21.7548 53.1703 22.3803H53.1692Z" fill="#EDEDED"/>
<path d="M41.631 19.701C41.0739 17.2241 43.3936 13.4141 47.231 13C47.7958 15.8153 45.1607 19.805 41.631 19.701Z" fill="#EDEDED"/>
</svg>
