<svg width="32" height="76" viewBox="0 0 32 76" fill="none" xmlns="http://www.w3.org/2000/svg">
<path d="M3.47481 3.84549C2.85159 4.6329 2.40325 5.69147 1.58061 6.1769C2.15847 6.91996 2.88442 6.9842 3.59024 7.06008C4.17139 7.82408 4.86155 7.59866 5.38788 7.15209C5.33711 9.06127 6.69001 5.8024 6.4716 7.51954C6.98251 7.0241 7.48563 6.49959 8.15729 6.33521L8.33642 6.36203C8.89178 6.23193 9.47509 6.24087 10.0476 6.17476C10.3847 6.3401 10.7321 6.35302 11.0802 6.36886C10.6501 6.71482 10.2111 7.0538 9.8549 7.5109C9.46756 7.97322 8.93637 8.19348 8.47615 8.52256C7.57701 9.31221 6.91784 10.4772 6.40226 11.7096C6.1211 12.2994 5.84507 12.8909 5.56374 13.4713C5.29049 14.8103 4.20639 15.0572 3.82203 16.1984C3.53477 16.6526 3.23727 17.1033 3.04761 17.653C2.13655 18.5456 2.1747 20.353 2.21877 21.8096C2.40367 23.2628 2.45355 25.2354 3.81354 25.8188C4.77494 27.0826 5.80104 28.3105 7.15514 28.6117C7.8903 28.6236 8.44919 29.3219 9.04455 29.8701C10.1388 30.9705 11.4297 30.9925 12.6576 31.4211C11.7633 32.6366 13.8714 32.0748 14.4411 32.3711C15.1632 32.6983 15.9042 32.8707 16.6377 33.1107C16.7949 34.0444 17.3509 32.9196 17.7671 33.5968C17.9114 34.1007 17.7623 34.2466 17.4039 34.1493C17.8603 35.1588 18.018 36.1983 17.9837 37.2582C18.1647 37.7865 18.7136 37.8577 18.801 38.5046C17.4621 38.5983 17.9808 40.7945 18.3499 42.1547C17.7927 42.8153 17.9283 43.9201 17.751 44.8281C17.5313 46.5144 17.5906 48.3224 17.4552 50.0547C17.5644 50.7051 17.6614 51.3619 17.6456 52.0052C17.5596 53.2193 18.2776 53.4446 18.7739 54.2127C19.2832 56.374 20.5638 58.2132 21.4998 60.1542C21.5115 60.2758 21.5354 60.5125 21.5463 60.6312C20.6269 59.3592 19.2012 61.2191 18.5843 59.3765C17.9694 58.9115 17.3458 58.4831 16.7895 57.8902C16.7172 57.1519 16.181 57.0587 15.7321 57.0917C15.7335 57.4872 15.9532 57.9864 15.7477 58.3034C15.7121 58.5779 15.6931 58.8543 15.699 59.1364C15.1533 59.6318 16.1947 60.5874 15.5698 60.8047C14.6127 61.0051 16.5425 63.004 15.5222 62.6912C14.9022 62.3803 15.2523 63.4182 15.6848 63.2026C16.221 63.6949 17.0602 63.4794 17.2418 64.469C17.4074 64.7489 17.62 64.9787 17.8063 65.2405C17.8934 66.6233 16.6864 64.8766 16.1582 64.7874C18.3259 67.4832 20.8195 69.8861 23.0508 72.646C22.9817 72.2062 22.814 71.771 22.8371 71.3283C24.0032 72.2287 25.059 73.4111 26.281 74.1905C26.4722 74.7222 27.7821 75.344 27.5629 74.4393C28.1515 74.6152 28.72 74.9679 29.306 75.2038C29.6465 74.5233 28.3409 74.2122 28.8391 73.4957C29.209 73.5493 29.5997 73.8281 29.9549 73.7142C30.2394 72.8679 30.1382 71.8662 30.8853 71.6535C30.6557 71.2131 30.5474 70.7308 30.6755 70.2724C31.062 67.9771 30.9151 65.5036 31.2477 63.1978C31.6166 62.4068 31.3582 61.4161 31.1282 60.5143C32.0711 61.0068 31.2616 59.3562 31.7473 58.9486C32.2537 58.6445 31.2108 57.8483 31.9956 57.7939C32.0176 56.7748 31.0445 57.9646 31.0587 56.8384C30.9975 56.6272 30.8802 56.2066 30.8219 55.9977C31.5678 55.5297 30.5162 55.1693 30.4115 54.4491C30.0992 54.645 29.7673 54.8025 29.4402 54.9432C29.173 55.0646 28.9598 55.2839 28.7322 55.4664C28.3456 55.489 27.9306 55.7529 27.5625 55.359C27.3244 54.8086 27.6128 53.2223 26.9528 54.0289C26.7537 53.3029 26.5667 52.5704 26.3927 51.8345C26.3145 50.6146 26.3055 49.4105 26.3249 48.2081C26.3299 47.8451 26.3079 47.4768 26.283 47.1063C26.9179 42.4341 26.4764 37.43 24.4227 32.8267C23.9604 32.1681 23.5322 31.4722 23.1779 30.7222L22.9727 30.7367C21.8969 29.1761 20.4962 28.1547 19.0776 27.2659C19.1742 27.1059 19.6384 26.6791 19.2131 26.5749C17.1049 25.8179 14.9614 25.1638 12.913 24.1445C12.2161 23.8417 11.5974 23.3278 11.4608 22.3325C11.6532 21.5327 11.8021 20.7009 12.0819 19.9587C13.6416 18.5992 14.0318 15.7885 15.7331 14.628C16.5855 14.0193 17.1289 12.9602 17.7718 12.0553C18.3493 10.9153 19.6605 10.2584 19.6844 8.6651C19.2816 6.61556 18.6437 3.78414 16.8593 2.86553C16.3344 2.6757 15.9983 2.2451 15.8935 1.55921C14.9587 0.992862 13.951 1.01345 12.9905 0.906064C12.124 0.820232 11.2432 0.629098 10.3797 0.389696C10.0015 0.47856 9.61718 0.509828 9.22706 0.50213C8.88098 0.520031 8.54425 0.572835 8.20935 0.606452C5.71072 1.0203 3.09021 1.36083 0.974201 2.95978C1.38228 4.46542 2.61373 3.85798 3.47125 3.84956L3.47481 3.84549ZM5.73602 14.0363C6.69887 12.3223 7.73124 10.677 8.97164 9.2877C9.76101 8.73013 10.6538 8.42853 11.5783 8.2276C11.7771 8.81346 11.3217 9.09138 11.2894 9.58641C11.2398 10.8842 9.91402 10.8622 9.42999 11.8742C7.27044 13.7529 5.76635 17.124 5.92839 20.7813C6.53418 20.2324 7.03175 21.7858 6.01513 21.2351C5.65901 21.1809 5.26643 20.9992 5.15171 20.4844C5.50067 20.1477 5.15007 19.2034 4.68031 19.2888C4.57414 17.3749 5.23911 15.694 5.73307 14.0339L5.73602 14.0363ZM27.3756 58.8417C27.1496 59.663 26.9713 60.5151 26.8734 61.3987C26.4638 60.3643 26.1003 59.3112 25.7786 58.2407C25.7321 57.8417 25.6913 57.4379 25.6788 57.036C25.7655 58.4001 26.4675 59.3375 27.3727 58.8393L27.3756 58.8417Z" fill="#EDEDED"/>
</svg>
