<svg width="42" height="59" viewBox="0 0 42 59" fill="none" xmlns="http://www.w3.org/2000/svg">
<path d="M36.7157 42.4807C36.7635 42.695 36.8602 43.1298 36.9085 43.3473C36.0546 45.6272 36.0424 48.2094 34.75 50.3121C34.7763 49.9878 34.832 49.3385 34.862 49.0167C35.5908 46.8689 35.9658 44.6193 36.7183 42.477L36.7157 42.4807Z" fill="#EDEDED"/>
<path d="M5.72076 5.20626C6.79304 5.37079 7.93479 5.43575 8.84251 6.09131C8.17196 6.24285 7.49919 6.38186 6.81716 6.487C7.29963 6.58526 7.7764 6.68778 8.24823 6.817C9.1647 7.12225 10.065 7.48203 10.9126 7.94484C10.9506 7.68621 10.988 7.42446 11.0249 7.15957C12.3328 7.55989 13.5756 8.12036 14.7734 8.77277C15.5974 9.23008 16.3639 9.78158 17.1236 10.3311C17.979 10.9281 18.7937 11.5873 19.5701 12.2855C20.9362 13.3214 22.2105 14.4768 23.4806 15.6266C25.4271 17.5473 27.3206 19.5517 28.7593 21.8857C28.9326 22.1519 29.1031 22.4025 29.2633 22.6679C29.6552 23.3829 30.0477 24.101 30.3798 24.8428C30.455 25.0296 30.6012 25.3976 30.6727 25.5818C30.7481 25.788 30.8198 25.9916 30.8884 26.1958C31.1541 27.6533 31.6606 29.0487 31.9977 30.4903C32.0552 30.2508 32.166 29.7661 32.2198 29.524C32.7129 30.1177 32.8892 30.8548 32.8566 31.6162C32.7796 32.5632 33.2522 33.3865 33.8732 34.064C34.5753 33.1641 35.3667 32.2936 35.7358 31.1914C36.2587 31.2082 36.781 31.2219 37.3027 31.2325C37.0839 31.7267 36.8718 32.2229 36.6277 32.7023L36.8989 32.4119C36.9463 32.6779 37.0497 33.2052 37.0996 33.4676C37.5151 34.7145 37.0633 35.9509 36.7953 37.1675C36.6581 38.067 36.5253 38.9721 36.3378 39.8612C35.5347 43.2073 34.527 46.493 33.5267 49.7838C33.2379 50.7748 33.2256 51.8135 33.2848 52.8363C33.0668 52.8267 32.6343 52.8099 32.4188 52.7966L32.3888 52.9731C32.3363 53.1859 32.2311 53.6115 32.176 53.8279C31.9452 53.8012 31.4773 53.7487 31.2434 53.7225C30.9652 53.956 30.6865 54.1864 30.4015 54.4179C29.9583 54.0318 29.4191 53.6691 29.2906 53.0558C27.5363 47.5488 25.6369 42.0612 23.2803 36.7808C22.8209 35.3416 22.4256 33.8813 21.9569 32.4437C22.2766 31.8992 22.7444 31.5157 23.3817 31.4315C23.6137 31.6098 23.843 31.7919 24.0744 31.9671C24.4433 33.2609 25.1447 34.4085 25.7908 35.5723C26.1383 36.2371 26.5117 36.8843 26.9003 37.5257C27.2946 37.1649 27.5773 36.7207 27.791 36.2338C27.6059 35.6467 27.4848 35.0386 27.4238 34.423C27.5656 32.6056 26.5525 31.0485 26.0508 29.3714C24.7266 25.3024 22.5084 21.5086 19.4452 18.5013C18.107 17.2409 16.9481 15.7905 15.4591 14.699C12.7931 12.0731 9.41646 10.3357 5.90954 9.11871C5.68757 9.08714 5.46818 9.0519 5.24454 9.01094C4.32273 8.83903 3.41649 8.60947 2.51171 8.36995C3.42781 8.25548 4.34801 8.18224 5.25687 8.02707C4.68146 7.842 4.11781 7.63224 3.5545 7.40627C4.26833 7.38912 4.97756 7.38247 5.68692 7.34028C5.13968 7.00489 4.55808 6.7305 3.96618 6.47087C2.73143 6.70013 1.4987 6.92257 0.262081 7.12311C0.485066 6.67012 0.714313 6.21603 0.933055 5.75734C1.22465 5.79913 1.50999 5.84203 1.79845 5.88438C2.68764 4.63803 4.41873 5.11166 5.7145 5.20738L5.72076 5.20626Z" fill="#EDEDED"/>
</svg>
