<svg width="135" height="185" viewBox="0 0 135 185" fill="none" xmlns="http://www.w3.org/2000/svg">
<path d="M119.911 30.0534C119.144 29.963 118.379 29.8657 117.59 29.7695C120.284 28.2323 122.706 26.6958 125.433 25.2811C126.838 24.2341 128.949 28.134 128.87 25.487C128.567 22.6654 132.105 24.9136 133.762 24.7584C133.05 25.5658 132.757 26.3 134.058 26.6429C131.001 27.6122 127.264 26.1393 124.766 28.7487C123.064 27.0659 121.265 28.8341 119.904 30.0515L119.911 30.0534Z" fill="#EDEDED"/>
<path d="M10.9005 123.579C11.5614 120.984 13.7316 119.265 14.6677 116.822C15.1694 114.094 15.2076 110.966 16.7393 108.634C16.4403 107.088 16.7448 105.542 16.9836 104.016C18.0911 100.21 19.699 96.586 21.1526 92.9198L21.7815 93.2663C22.0169 92.1089 22.2644 90.9625 22.473 89.8204C22.1236 88.54 26.9956 79.8244 23.1426 83.2455C23.4238 81.8669 22.4445 80.4357 22.8887 79.1774C25.3727 78.9781 24.1262 73.4452 28.0911 77.4327C28.6578 78.7729 29.0035 80.2862 28.4389 81.7076C28.3165 82.2623 28.0716 83.3718 27.9492 83.9265C27.9242 86.5675 27.4096 89.0964 26.5944 91.6482C26.3412 91.9105 25.8291 92.4561 25.5689 92.7164C26.8147 95.3449 24.7061 97.7446 23.6815 100.126C24.7529 102.593 25.8385 98.8935 26.6851 98.0099C31.2643 92.1408 36.5436 86.7434 41.514 81.1252C43.2809 79.4463 44.5913 77.3701 45.9112 75.3418C47.997 74.8897 48.9702 72.9697 49.9155 71.2609C52.7559 69.1077 55.1854 66.4191 57.6572 63.8779C68.4597 53.2935 80.9285 44.1105 94.6254 37.4832C97.5023 36.4038 100.387 35.3492 103.279 34.3266C107.336 32.6591 111.615 31.5279 115.925 30.7521C113.719 33.0119 117.477 31.3073 117.644 32.7035C117.408 34.3814 119.839 31.8516 120.021 33.2216C120.92 34.9702 118.411 35.4795 117.268 36.0173C114.247 36.6046 111.814 38.8397 108.704 39.0401L108.172 39.1353C107.577 39.7336 106.813 40.0739 106.058 40.432C106.106 40.7772 106.204 41.4907 106.257 41.8448C103.137 43.0156 100.105 44.3843 97.2919 46.1905L96.6213 45.9683C93.4154 44.679 92.6515 48.2784 89.7253 48.0015C86.7189 49.6337 84.7749 52.6143 81.3721 53.549C79.1496 55.2385 76.5124 56.4065 74.8071 58.7663C75.1697 58.9566 75.8987 59.323 76.2612 59.5133C72.6016 62.8895 67.9994 65.003 65.2941 69.298C66.5238 69.6816 64.4846 69.5808 61.8937 71.4027C60.8526 73.1305 58.2833 77.3422 56.247 75.6127C53.1154 77.6179 51.4089 80.8599 48.6071 83.1746C48.0466 83.8955 47.4793 84.6145 46.922 85.3513C43.74 88.5269 40.7445 91.8746 37.8408 95.3003C36.9623 96.1902 35.4393 95.7486 34.5131 96.565C35.9319 96.8648 37.1533 97.2234 35.5763 98.4039C36.9941 99.4201 36.8714 97.2062 38.0112 97.5877C37.7212 99.4919 35.2928 102.286 33.6572 99.9505C30.9843 98.5061 31.712 101.181 31.3516 102.93C30.0638 103.141 28.6789 102.526 27.945 104.097C28.7403 104.195 29.5374 104.286 30.3257 104.383C28.8435 107.988 25.8455 110.769 24.1287 114.295C23.9153 114.742 23.5045 115.632 23.3 116.074C28.8968 112.484 31.6652 105.355 37.3671 101.575C39.5515 99.4749 42.2527 97.0873 42.2298 93.8523C44.1327 93.5987 46.3799 92.5045 45.5455 95.4282C45.0708 98.0587 49.6008 94.59 48.6984 98.2268C47.675 97.9981 47.1107 98.4313 47.0025 99.5104C45.2734 101.079 44.0017 103.234 42.063 104.413C40.4887 105.255 39.3442 106.728 38.0159 107.909C37.3855 107.403 36.7441 106.91 36.1099 106.419C34.7782 106.543 34.8099 107.826 34.6481 108.853C33.5528 109.736 31.977 110.336 32.3267 112.054C28.5997 120.255 22.7854 127.542 19.1944 135.961C16.2261 139.731 16.8763 145.183 13.5407 148.588C13.2274 150.659 12.5324 152.829 13.58 154.807C13.3004 154.919 12.729 155.132 12.4474 155.25C12.5705 156.695 12.6119 158.162 12.1252 159.575C9.89409 159.979 7.65794 160.375 5.38584 160.572C4.92679 159.005 3.536 158.192 2.50814 157.103C3.14109 155.021 3.73038 153.071 4.28284 151.035L3.73297 150.703C3.99664 148.867 4.76109 147.048 4.41041 145.224C5.00636 143.14 5.54461 141.183 6.15826 139.172C6.6672 133.73 8.19676 128.334 10.8866 123.575L10.9005 123.579Z" fill="#EDEDED"/>
</svg>
