<svg width="42" height="56" viewBox="0 0 42 56" fill="none" xmlns="http://www.w3.org/2000/svg">
<path d="M11.0501 54.7239C10.7526 55.0017 10.4637 55.2966 10.1849 55.6003C9.32987 55.2496 10.4009 54.7439 10.6568 54.3262C10.4825 53.7377 10.7513 53.208 10.978 52.6819C10.7613 51.9653 10.5517 51.2314 10.0403 50.6718C10.7063 49.4344 10.5515 51.2741 11.2294 50.5024C12.2662 49.5061 10.9914 51.7135 12.4092 50.8509C12.7164 50.6092 13.0117 50.3668 13.3005 50.1146C12.9273 49.8355 12.5588 49.559 12.192 49.2742C13.9702 47.989 14.4725 45.6643 16.333 44.539C14.4712 44.045 16.8257 42.1781 17.8078 41.7933C17.8636 41.6078 17.9799 41.2393 18.0357 41.0538C18.3995 39.553 19.1353 38.1961 18.7829 36.6559C18.8465 36.5574 18.9737 36.3604 19.0373 36.2619C19.3034 36.2018 19.8364 36.0852 20.1071 36.0278C20.1388 35.8255 20.2069 35.4235 20.2376 35.2176C20.7068 31.9409 25.093 29.3948 28.2198 30.6405C29.0486 30.545 29.0179 31.4057 28.5391 31.8254C28.1711 32.467 28.0007 33.1872 27.8588 33.9113C28.0279 34.6407 28.0502 35.4213 28.3582 36.1132C28.0618 36.8751 27.5471 37.5253 27.1333 38.2297C28.0698 38.0974 28.3788 38.5604 28.2358 39.4553C27.8821 40.4845 26.5271 41.4348 27.171 42.6019C27.7815 42.6854 28.3937 42.7025 29.0001 42.5817C29.3566 42.0865 29.7224 41.5965 30.0958 41.12C30.9722 39.2525 32.2906 37.5991 32.8752 35.6087C33.3173 32.595 35.7711 29.6862 34.209 26.6393C34.0054 24.4003 32.4001 22.5313 31.8193 20.4056C30.775 19.8617 29.7323 19.0035 29.7508 17.7199C29.5109 17.7458 29.0429 17.7983 28.8066 17.8232C29.0835 14.5751 25.16 13.7185 24.2315 10.8844C23.6004 13.8366 22.4078 9.77562 20.5862 10.0419C16.295 7.13766 11.0063 7.16435 6.01549 6.52177C4.79987 6.40382 3.67873 7.40734 2.54023 6.64475C1.98037 6.80728 1.42976 6.97507 0.873788 7.15205C0.95549 6.74254 1.02331 6.32516 1.07748 5.91533C1.5709 5.49172 2.10377 5.12722 2.61983 4.74401C2.78526 4.7033 3.12442 4.6235 3.29447 4.58542L3.63018 4.46393C4.74775 4.05808 5.84366 3.55734 6.99896 3.27694C7.6251 3.06943 8.24951 2.87012 8.86445 2.65013C8.10191 1.63896 5.85767 2.86771 6.5614 1.04285C6.69977 1.03268 6.97118 1.02152 7.10688 1.01595C9.04733 0.841659 10.9538 0.308423 12.91 0.439873C15.4125 0.125717 18.1727 -0.0176485 20.5266 0.963708C21.6871 1.25538 22.9381 1.05379 24.0299 1.58486C24.5031 0.926449 25.1461 0.44702 25.9623 0.304535C26.7054 0.83657 27.471 1.33545 28.2512 1.83037C28.007 2.2333 27.9827 2.9722 28.6147 3.01886C29.6726 3.3808 28.7788 4.31141 28.1339 4.60923C26.5988 4.06206 25.1682 3.27745 23.6306 2.7503C23.5536 2.87181 23.3995 3.11484 23.3262 3.23535C21.2795 2.47732 19.095 2.06638 16.9106 1.94608C16.8399 2.062 16.7032 2.29648 16.6325 2.4124C19.6372 2.76885 22.6986 3.4665 25.2672 5.09908C27.1087 7.11748 28.8511 9.30599 31.1656 10.8249C33.0501 12.421 33.2665 15.3618 35.5146 16.6197C37.2128 20.1569 39.406 23.7273 39.0421 27.8165C39.0808 28.2362 39.1084 28.6588 39.1298 29.087C40.3953 28.343 38.9312 25.9361 40.7939 25.8951C41.4903 25.5989 41.3296 26.8938 41.6575 27.2665C41.6882 28.2386 41.3959 29.2047 41.5596 30.1758C41.5128 30.3512 41.4211 30.7091 41.3753 30.8881C42.14 30.9765 42.177 32.3498 41.6826 32.886C42.1368 33.4805 41.9544 33.9675 41.394 34.4479C39.7143 34.1063 40.3514 36.1936 39.1201 36.4828C39.1016 35.2944 40.8726 33.488 39.4028 32.8922C38.4804 31.9861 37.9538 33.7555 36.9253 33.7498C35.9799 36.3799 34.8948 38.9857 33.2774 41.2893C34.2016 41.4315 33.9857 42.7103 35.401 42.3327C36.4157 42.1561 37.0808 42.9223 36.0758 43.6C37.7249 44.2211 39.1238 45.208 41.019 44.9529C41.174 46.7207 38.9519 46.8972 37.6987 47.018C38.42 47.1491 39.1677 47.1452 39.881 47.3482C37.2017 48.2718 34.8998 50.1593 32.0392 50.6281C29.1341 51.5429 26.1509 52.2114 23.2421 53.1271C21.9113 53.6873 20.5708 54.3858 19.637 55.517C20.0759 53.5388 18.8204 55.5124 17.9355 54.8326C16.59 54.8 15.2143 54.888 13.8855 55.1647C12.7435 56.1197 11.8083 55.9804 11.0572 54.7065L11.0501 54.7239Z" fill="#EDEDED"/>
</svg>
