<svg width="40" height="41" viewBox="0 0 40 41" fill="none" xmlns="http://www.w3.org/2000/svg">
<path d="M24.4372 0.816781C30.8116 2.16687 36.116 7.11373 38.454 13.125C39.7202 16.4466 40.7955 21.1584 38.1001 24.0099C36.5979 27.2984 34.5544 30.3666 31.8289 32.7668C33.1067 33.6566 30.9278 34.3737 31.0906 35.4732C31.0722 35.9876 30.6878 36.3005 30.2796 36.5418C27.874 37.3207 25.6723 38.8154 23.1057 38.9463C21.8882 39.2459 20.2563 38.6903 19.3552 39.7714C18.4217 40.4231 17.3103 40.385 16.2487 40.6313L16.1915 40.8863C14.9983 41.1663 14.6756 39.9335 14.0838 39.1813C12.6794 39.3849 10.8765 37.7587 11.244 36.4719L11.4818 36.4112C13.2241 37.489 13.7967 34.9193 15.3291 34.6911C16.1553 34.603 17.519 33.6884 15.1828 33.1273C16.101 33.2394 17.2862 34.307 17.9311 33.2274C19.202 32.0085 20.2876 30.6152 21.5561 29.3943C22.6397 29.1742 21.7923 29.9377 21.4526 30.3834C21.567 30.4708 21.7942 30.6522 21.909 30.7438C23.4035 29.7631 23.9587 27.8879 25.3025 26.7297C25.5924 26.358 26.1722 25.6146 26.4621 25.2428C26.0614 25.4226 25.6755 25.5271 25.5827 24.9838C26.6655 24.2772 26.9528 22.7284 28.4465 22.7426C27.8039 24.1108 29.3001 22.2632 29.841 22.9331C30.4046 23.9007 30.6591 20.819 31.2298 21.4819C31.0899 22.3331 30.5912 23.0605 30.2558 23.8404C30.0097 24.4558 29.7903 25.0774 29.5994 25.703C28.2364 28.3944 25.6594 30.1578 24.1781 32.7665C27.7445 31.3978 30.7301 28.6806 32.6444 25.3852C33.6078 23.8661 34.6883 22.2496 34.6379 20.3795C35.7742 17.1286 33.732 14.0882 32.565 11.1639C31.1441 7.40668 27.3136 5.05439 23.4908 4.2937C23.2115 4.04101 22.6157 3.84313 22.7775 3.35271C19.7034 2.12866 16.1539 2.60742 13.1766 3.95743C9.1855 5.98387 6.31218 10.3678 6.70623 14.9221C7.56982 16.8726 9.39165 18.1083 11.5183 18.2757C13.0257 18.0107 14.7787 17.6038 15.1965 15.8889C15.2877 15.8415 15.4707 15.751 15.56 15.706C16.1205 16.3763 15.4529 17.2059 15.2488 17.9C14.4747 18.1311 13.6846 18.3288 12.9563 18.7056C13.1466 19.9874 13.9788 18.1718 14.6223 19.0626C17.2664 19.9043 16.7991 15.1177 19.3296 16.3347C21.0841 16.0645 19.0555 18.4363 20.3353 18.1289C21.4729 18.2884 20.4706 16.8914 21.4547 16.5088C22.8812 18.4863 20.0292 20.8329 18.6886 22.1212C18.0441 22.3926 17.4357 22.7498 16.908 23.2061C16.2267 24.2673 15.3305 23.9185 14.3379 23.7285C13.9767 23.9611 13.5614 24.077 13.1521 24.1859C12.1853 24.3997 11.1648 24.2382 10.1855 24.4097C9.79729 24.2733 9.44984 24.0594 9.25911 23.6814C8.32058 23.1062 7.4655 22.3498 6.41492 21.9759C5.68986 21.6225 4.50849 20.7653 5.56621 20.2131C5.18078 19.8918 4.40756 19.2474 4.02213 18.9261C3.87878 18.6633 3.72054 18.4039 3.55447 18.154C2.70726 17.1013 2.2279 15.8176 1.41634 14.7508C2.37384 13.4539 2.31204 16.8157 3.30945 16.0778C2.6722 15.0647 2.35031 13.9122 2.29009 12.7229C0.758389 13.1987 0.931746 15.036 1.34922 16.2602C0.320961 15.9169 0.758224 14.9192 0.311322 14.2321C0.60132 12.9523 1.63674 11.9872 2.35566 10.9096C2.56925 9.81711 2.66454 8.61805 3.39716 7.71519C4.56518 8.92769 4.54035 6.66858 4.88906 5.89182C4.66541 5.51025 4.33023 3.80503 4.97962 4.8322C6.19031 6.41881 7.46372 3.43355 8.2351 2.74222C8.79489 2.66315 9.35895 2.63148 9.92069 2.64564C11.4203 2.00765 12.943 1.36104 14.5867 1.25738C15.3718 0.40623 17.0723 -0.147931 17.9325 0.879649C20.1512 0.841073 22.2248 -0.0792947 24.4325 0.812872L24.4372 0.816781ZM28.5803 32.8751C30.0731 33.1196 30.7898 30.7975 32.0975 30.2704C32.7149 29.4388 34.6333 28.2697 34.3948 27.3181C32.6593 29.3765 30.6793 31.2073 28.5826 32.877L28.5803 32.8751ZM7.96512 20.7468C7.19211 22.1378 10.0392 22.4636 11.091 22.3963C11.1869 22.305 11.375 22.1272 11.4667 22.0363C10.3495 21.5035 9.01763 21.4767 7.96277 20.7449L7.96512 20.7468ZM7.27126 17.4124C7.76767 16.3963 6.13303 16.145 6.01481 15.2021C5.87033 14.4484 5.48413 13.784 5.00862 13.1886C4.33861 14.9242 6.25561 16.2273 7.27126 17.4124Z" fill="#EDEDED"/>
</svg>
