<svg width="59" height="63" viewBox="0 0 59 63" fill="none" xmlns="http://www.w3.org/2000/svg">
<path d="M30.871 51.9827C30.7477 52.1644 30.4973 52.5328 30.3721 52.717C28.1266 53.6576 26.2377 55.4184 23.8207 55.9183C24.075 55.7152 24.5859 55.3108 24.8408 55.1121C26.9045 54.1709 28.7996 52.9022 30.8755 51.982L30.871 51.9827Z" fill="#EDEDED"/>
<path d="M36.7735 3.86563C37.3885 4.75925 38.1237 5.63524 38.2684 6.74554C37.6985 6.36108 37.1362 5.96641 36.5922 5.54178C36.8513 5.96048 37.1034 6.37794 37.3326 6.81011C37.7384 7.68671 38.0934 8.58892 38.3373 9.52336C38.5516 9.37376 38.7679 9.22162 38.986 9.06692C39.5909 10.2938 40.0345 11.5829 40.3802 12.9023C40.6119 13.8158 40.7356 14.752 40.8561 15.6818C41.0075 16.7138 41.0858 17.7589 41.1094 18.8029C41.2913 20.5076 41.3232 22.2274 41.3563 23.9403C41.2915 26.6741 41.1295 29.4267 40.4158 32.0739C40.3407 32.3826 40.275 32.6785 40.1916 32.977C39.9395 33.7525 39.6855 34.5305 39.3729 35.2807C39.2884 35.4635 39.1206 35.8221 39.0354 36.0004C38.937 36.1967 38.8379 36.3884 38.7362 36.5783C37.8568 37.7706 37.1878 39.0957 36.369 40.3292C36.5828 40.207 37.0117 39.9555 37.2249 39.8288C37.1304 40.5947 36.7144 41.2283 36.1377 41.7264C35.3953 42.3193 35.1195 43.2277 35.0518 44.1442C36.1883 44.0388 37.3645 44.0185 38.4202 43.532C38.7663 43.9243 39.1143 44.314 39.4642 44.7012C38.9542 44.8805 38.4475 45.0662 37.9311 45.2169L38.3286 45.2154C38.1672 45.4322 37.8541 45.8689 37.6972 46.0851C37.074 47.2421 35.864 47.7605 34.7943 48.3991C34.0453 48.9156 33.295 49.4392 32.5191 49.912C29.5319 51.6203 26.4486 53.1382 23.3666 54.665C22.447 55.1339 21.6821 55.8368 20.9778 56.5809C20.8354 56.4155 20.5512 56.0891 20.4133 55.923L20.2642 56.0221C20.0732 56.1297 19.6912 56.3447 19.4958 56.4529C19.3571 56.2665 19.0747 55.8898 18.9334 55.7015C18.5728 55.659 18.2139 55.6139 17.8501 55.5651C17.8275 54.9776 17.7221 54.3364 18.0807 53.8226C20.8888 48.771 23.5834 43.627 25.8137 38.292C26.547 36.9711 27.3395 35.6824 28.0652 34.3559C28.6808 34.2156 29.2807 34.2935 29.7788 34.6998C29.8079 34.9909 29.8325 35.2827 29.8635 35.5713C29.1741 36.7267 28.819 38.0239 28.4143 39.292C28.1683 40.0007 27.9529 40.7162 27.7521 41.4386C28.2851 41.4786 28.8024 41.38 29.3034 41.202C29.604 40.6648 29.964 40.1599 30.3704 39.6935C31.7911 38.5513 32.2307 36.7464 33.1082 35.2317C35.1639 31.4788 36.4065 27.2634 36.4972 22.9717C36.498 21.1334 36.7601 19.2954 36.5345 17.4631C36.6196 13.722 35.5708 10.0723 34.0537 6.6844C33.9245 6.50112 33.7998 6.3172 33.6764 6.12627C33.1699 5.33716 32.716 4.51987 32.2703 3.69684C32.9815 4.28552 33.6655 4.90545 34.4013 5.46098C34.1418 4.91511 33.9082 4.36089 33.6868 3.7958C34.1884 4.30388 34.6793 4.81581 35.1962 5.30348C35.0654 4.67511 34.8667 4.06352 34.6501 3.45454C33.6369 2.71247 32.6301 1.9672 31.6366 1.20407C32.1193 1.05602 32.6071 0.911763 33.091 0.756707C33.2604 0.997698 33.4247 1.23489 33.5916 1.47399C35.1086 1.26737 35.9501 2.85261 36.7684 3.86183L36.7735 3.86563Z" fill="#EDEDED"/>
</svg>
