<svg width="146" height="234" viewBox="0 0 146 234" fill="none" xmlns="http://www.w3.org/2000/svg">
<path d="M0.442993 49.9474C2.09329 48.1892 3.8131 46.5176 5.55025 44.8807C4.83801 44.3178 4.12581 43.7635 3.40488 43.2179C3.7002 42.6982 4.30821 41.6416 4.60353 41.1133C3.49174 40.6889 2.38869 40.2645 1.2769 39.8574C1.90228 39.1559 2.55367 38.4457 3.18774 37.7875C2.63185 36.6962 2.05853 35.6222 1.51132 34.5483C3.51775 33.6562 5.58504 32.7901 7.32219 31.3438C6.61864 27.6455 2.37991 29.9234 0 29.7761C1.30287 28.4337 2.64055 27.1173 3.96078 25.7921L4.75981 24.9867C6.53172 23.4277 7.58276 21.0286 9.59787 19.8075C10.2667 19.513 11.6043 18.9327 12.2731 18.6382C12.6466 17.2178 12.9766 15.7975 13.2285 14.3598C11.4566 15.2345 9.6066 15.8754 7.67834 16.3085C9.9106 13.9007 12.8116 12.5323 15.7561 11.545C17.6843 10.9387 19.6387 10.3844 21.6277 10.1159C24.4072 9.91672 27.178 10.1939 29.9401 10.5056C37.0538 11.1379 44.0371 9.06795 51.1334 9.13723C53.7652 9.05928 56.371 9.45769 58.9854 9.7868C59.3329 8.89473 59.6455 8.00265 59.9408 7.10192C57.9518 6.87673 56.7358 5.36975 56.7184 3.1872C55.5285 3.27381 54.3211 3.37775 53.1138 3.49034C52.6708 2.79747 52.2191 2.10459 51.7675 1.42904C52.6968 0.935371 53.6263 0.459027 54.5383 0C57.9692 0.363758 61.3567 1.12589 64.5704 2.49432C69.7038 4.54695 75.2192 5.76815 79.7966 9.19787C87.0927 12.1686 93.9198 16.9234 99.166 23.2718C113.107 36.0466 125.319 52.1819 131.112 71.3484C129.957 70.5256 128.802 69.7202 127.638 68.9147C128.081 71.2705 128.585 73.6089 129.149 75.9474L128.177 75.1939C126.691 74.934 125.197 74.7608 123.686 74.6742C123.617 75.2632 123.486 76.441 123.417 77.03C124.711 80.6069 125.71 84.2878 126.856 87.9254C127.847 90.8614 128.55 93.91 129.019 97.002C130.009 99.1932 131.451 101.081 132.997 102.839C132.606 103.602 132.216 104.39 131.807 105.195C132.65 108.573 131.92 112.02 131.251 115.363L131.173 115.943C130.478 120.352 130.626 124.968 129.019 129.16C128.863 129.602 128.55 130.485 128.394 130.935C127.438 136.262 125.18 142.991 127.291 147.911C126.952 147.755 126.266 147.417 125.918 147.261C125.354 150.578 125.05 153.973 124.65 157.334C124.433 158.884 124.146 160.417 123.764 161.95C124.233 162.383 125.171 163.275 125.649 163.717C125.206 164.791 124.772 165.856 124.329 166.939C125.84 168.186 127.282 169.563 128.628 171.053C133.579 171.009 138.391 171.815 143.299 172.698C144.237 173.677 145.114 174.725 146 175.764C144.636 177.47 143.229 179.159 141.796 180.796C140.997 181.809 140.206 182.831 139.416 183.879C140.276 184.364 141.145 184.832 142.022 185.3C141.44 185.698 140.285 186.512 139.711 186.911C138.122 187.985 136.489 188.998 134.926 190.124C131.99 193.103 128.62 195.537 125.762 198.646C116.538 207.411 106.792 215.526 96.8382 223.226C90.8971 225.781 86.3111 230.735 80.7434 234C80.7695 233.272 80.8216 231.809 80.8477 231.073C80.8129 230.605 80.7434 229.67 80.7087 229.202C77.4254 228.977 78.2418 225.114 78.598 222.654C79.1712 212.738 82.1853 203.271 84.5218 193.701C86.2502 188.738 87.1274 183.498 88.1437 178.319C89.6984 173.114 91.783 168.091 92.9383 162.756C92.9991 162.383 93.1381 161.656 93.2076 161.292C93.8677 157.654 95.1792 154.19 95.9957 150.587C96.2302 149.712 96.4821 148.863 96.7513 148.032C97.6547 144.672 99.6611 141.926 102.058 139.718C102.892 139.969 103.709 140.237 104.517 140.514C104.134 142.489 104.186 144.524 104.404 146.534C104.317 146.612 104.169 146.785 104.1 146.854C103.665 147.244 102.814 148.023 102.388 148.413C102.597 151.089 102.119 153.731 101.563 156.346C101.485 157.559 101.433 158.78 101.39 160.019C101.433 160.14 101.529 160.391 101.581 160.512L101.824 159.36C101.902 159.005 102.05 158.295 102.128 157.94C103.214 156.78 104.438 155.818 105.672 154.891C105.906 157.161 106.089 159.456 105.863 161.734C105.68 163.24 105.489 164.756 105.307 166.28C106.254 164.271 107.192 162.271 108.008 160.201C108.173 159.629 108.503 158.468 108.66 157.897C111.057 150.44 112.646 142.654 112.429 134.703C113.472 122.378 113.367 109.777 110.423 97.7555C109.893 95.8154 110.275 93.0613 108.052 92.3858C109.676 86.8515 103.961 84.0453 104.664 78.8661C102.545 76.571 100.365 74.2412 97.6112 72.916C97.2551 71.7815 96.9077 70.6469 96.5516 69.5383C90.2023 64.1079 85.5467 56.573 79.4058 50.8221C75.6275 47.3578 70.8502 45.7035 66.5594 43.1745C62.0689 40.7322 57.5175 38.1166 52.3408 38.463C42.2391 35.4057 32.5284 41.0613 22.6787 42.7588C20.8981 43.521 19.187 44.5083 17.5107 45.513C16.5813 45.3311 15.6432 45.1406 14.6878 44.9847C14.4011 45.2185 13.8018 45.6862 13.5152 45.9114C10.9094 48.4923 8.23418 51.1166 4.90752 52.5283C5.55894 51.0993 6.19298 49.6789 6.82704 48.2671C6.42749 48.3538 5.62843 48.5183 5.22888 48.5963C3.63937 49.0986 2.04987 49.5403 0.442993 49.982V49.9474Z" fill="#EDEDED"/>
</svg>
