<svg width="1920" height="9990" viewBox="0 0 1920 9990" fill="none" xmlns="http://www.w3.org/2000/svg">
<path d="M2512.18 835.418H2392.97C2387.51 792.34 2377.53 749.956 2363.2 708.965C2263.7 446.808 2080.66 289.111 1810.73 239.63V117.602C1810.73 86.4121 1798.34 56.4996 1776.28 34.4449C1754.23 12.3902 1724.31 0 1693.12 0C1661.93 0 1632.02 12.3902 1609.97 34.4449C1587.91 56.4996 1575.52 86.4121 1575.52 117.602V238.959C1545.22 243.836 1515.22 250.463 1485.68 258.805C1357.14 298.167 1242.45 373.283 1155 475.384C1067.55 577.484 1010.94 702.356 991.802 835.418H874.602C843.412 835.418 813.5 847.808 791.445 869.863C769.39 891.918 757 921.83 757 953.02C757 984.21 769.39 1014.12 791.445 1036.18C813.5 1058.23 843.412 1070.62 874.602 1070.62H997.434C1002.71 1102.59 1010.88 1134 1021.84 1164.49C1121.74 1427.05 1305.05 1585.15 1575.79 1633.83V1755.99C1575.79 1787.18 1588.18 1817.09 1610.24 1839.14C1632.29 1861.2 1662.2 1873.59 1693.39 1873.59C1724.58 1873.59 1754.49 1861.2 1776.55 1839.14C1798.6 1817.09 1810.99 1787.18 1810.99 1755.99V1635.3C1848.16 1630.12 1884.69 1621.14 1920.01 1608.48C2176.94 1511.13 2333.3 1333.18 2386.53 1072.1H2512.18C2543.37 1072.1 2573.29 1059.71 2595.34 1037.65C2617.39 1015.6 2629.78 985.685 2629.78 954.495C2629.78 923.305 2617.39 893.393 2595.34 871.338C2573.29 849.283 2543.37 836.893 2512.18 836.893V835.418ZM1691.92 1508.04C1377.06 1507.1 1118.12 1247.09 1121.07 932.906C1121.79 819.999 1155.93 709.833 1219.19 616.311C1282.45 522.789 1372 450.1 1476.53 407.418C1581.06 364.736 1695.89 353.973 1806.53 376.486C1917.18 399 2018.67 453.782 2098.21 533.919C2177.75 614.056 2231.77 715.958 2253.45 826.766C2275.14 937.573 2263.52 1052.32 2220.05 1156.53C2176.59 1260.74 2103.23 1349.74 2009.24 1412.3C1915.24 1474.86 1804.83 1508.17 1691.92 1508.04Z" fill="white" fill-opacity="0.1"/>
<path d="M1700.23 1199.62C1697.8 1201.95 1695.25 1204.14 1692.59 1206.19C1689.92 1204.14 1687.37 1201.95 1684.94 1199.62C1626.61 1151.08 1427.48 976.486 1435.79 849.229C1444.24 706.685 1628.62 668.334 1692.59 815.973C1757.22 668.468 1940.93 706.685 1949.52 849.229C1957.56 976.486 1758.56 1151.08 1700.23 1199.62Z" fill="white" fill-opacity="0.1"/>
<path d="M2512.18 4893.42H2392.97C2387.51 4850.34 2377.53 4807.96 2363.2 4766.97C2263.7 4504.81 2080.66 4347.11 1810.73 4297.63V4175.6C1810.73 4144.41 1798.34 4114.5 1776.28 4092.44C1754.23 4070.39 1724.31 4058 1693.12 4058C1661.93 4058 1632.02 4070.39 1609.97 4092.44C1587.91 4114.5 1575.52 4144.41 1575.52 4175.6V4296.96C1545.22 4301.84 1515.22 4308.46 1485.68 4316.81C1357.14 4356.17 1242.45 4431.28 1155 4533.38C1067.55 4635.48 1010.94 4760.36 991.802 4893.42H874.602C843.412 4893.42 813.5 4905.81 791.445 4927.86C769.39 4949.92 757 4979.83 757 5011.02C757 5042.21 769.39 5072.12 791.445 5094.18C813.5 5116.23 843.412 5128.62 874.602 5128.62H997.434C1002.71 5160.59 1010.88 5192 1021.84 5222.49C1121.74 5485.05 1305.05 5643.15 1575.79 5691.83V5813.99C1575.79 5845.18 1588.18 5875.09 1610.24 5897.14C1632.29 5919.2 1662.2 5931.59 1693.39 5931.59C1724.58 5931.59 1754.49 5919.2 1776.55 5897.14C1798.6 5875.09 1810.99 5845.18 1810.99 5813.99V5693.3C1848.16 5688.12 1884.69 5679.14 1920.01 5666.48C2176.94 5569.13 2333.3 5391.18 2386.53 5130.1H2512.18C2543.37 5130.1 2573.29 5117.71 2595.34 5095.65C2617.39 5073.6 2629.78 5043.69 2629.78 5012.5C2629.78 4981.31 2617.39 4951.39 2595.34 4929.34C2573.29 4907.28 2543.37 4894.89 2512.18 4894.89V4893.42ZM1691.92 5566.04C1377.06 5565.1 1118.12 5305.09 1121.07 4990.91C1121.79 4878 1155.93 4767.83 1219.19 4674.31C1282.45 4580.79 1372 4508.1 1476.53 4465.42C1581.06 4422.74 1695.89 4411.97 1806.53 4434.49C1917.18 4457 2018.67 4511.78 2098.21 4591.92C2177.75 4672.06 2231.77 4773.96 2253.45 4884.77C2275.14 4995.57 2263.52 5110.32 2220.05 5214.53C2176.59 5318.74 2103.23 5407.74 2009.24 5470.3C1915.24 5532.86 1804.83 5566.17 1691.92 5566.04Z" fill="white" fill-opacity="0.1"/>
<path d="M1700.23 5257.62C1697.8 5259.95 1695.25 5262.14 1692.59 5264.19C1689.92 5262.14 1687.37 5259.95 1684.94 5257.62C1626.61 5209.08 1427.48 5034.49 1435.79 4907.23C1444.24 4764.69 1628.62 4726.33 1692.59 4873.97C1757.22 4726.47 1940.93 4764.69 1949.52 4907.23C1957.56 5034.49 1758.56 5209.08 1700.23 5257.62Z" fill="white" fill-opacity="0.1"/>
<path d="M2512.18 8951.42H2392.97C2387.51 8908.34 2377.53 8865.96 2363.2 8824.97C2263.7 8562.81 2080.66 8405.11 1810.73 8355.63V8233.6C1810.73 8202.41 1798.34 8172.5 1776.28 8150.44C1754.23 8128.39 1724.31 8116 1693.12 8116C1661.93 8116 1632.02 8128.39 1609.97 8150.44C1587.91 8172.5 1575.52 8202.41 1575.52 8233.6V8354.96C1545.22 8359.84 1515.22 8366.46 1485.68 8374.81C1357.14 8414.17 1242.45 8489.28 1155 8591.38C1067.55 8693.48 1010.94 8818.36 991.802 8951.42H874.602C843.412 8951.42 813.5 8963.81 791.445 8985.86C769.39 9007.92 757 9037.83 757 9069.02C757 9100.21 769.39 9130.12 791.445 9152.18C813.5 9174.23 843.412 9186.62 874.602 9186.62H997.434C1002.71 9218.59 1010.88 9250 1021.84 9280.49C1121.74 9543.05 1305.05 9701.15 1575.79 9749.83V9871.99C1575.79 9903.18 1588.18 9933.09 1610.24 9955.14C1632.29 9977.2 1662.2 9989.59 1693.39 9989.59C1724.58 9989.59 1754.49 9977.2 1776.55 9955.14C1798.6 9933.09 1810.99 9903.18 1810.99 9871.99V9751.3C1848.16 9746.12 1884.69 9737.14 1920.01 9724.48C2176.94 9627.13 2333.3 9449.18 2386.53 9188.1H2512.18C2543.37 9188.1 2573.29 9175.71 2595.34 9153.65C2617.39 9131.6 2629.78 9101.69 2629.78 9070.5C2629.78 9039.31 2617.39 9009.39 2595.34 8987.34C2573.29 8965.28 2543.37 8952.89 2512.18 8952.89V8951.42ZM1691.92 9624.04C1377.06 9623.1 1118.12 9363.09 1121.07 9048.91C1121.79 8936 1155.93 8825.83 1219.19 8732.31C1282.45 8638.79 1372 8566.1 1476.53 8523.42C1581.06 8480.74 1695.89 8469.97 1806.53 8492.49C1917.18 8515 2018.67 8569.78 2098.21 8649.92C2177.75 8730.06 2231.77 8831.96 2253.45 8942.77C2275.14 9053.57 2263.52 9168.32 2220.05 9272.53C2176.59 9376.74 2103.23 9465.74 2009.24 9528.3C1915.24 9590.86 1804.83 9624.17 1691.92 9624.04Z" fill="white" fill-opacity="0.1"/>
<path d="M1700.23 9315.62C1697.8 9317.95 1695.25 9320.14 1692.59 9322.19C1689.92 9320.14 1687.37 9317.95 1684.94 9315.62C1626.61 9267.08 1427.48 9092.49 1435.79 8965.23C1444.24 8822.69 1628.62 8784.33 1692.59 8931.97C1757.22 8784.47 1940.93 8822.69 1949.52 8965.23C1957.56 9092.49 1758.56 9267.08 1700.23 9315.62Z" fill="white" fill-opacity="0.1"/>
<path d="M1046.18 2864.42H926.971C921.508 2821.34 911.53 2778.96 897.202 2737.97C797.703 2475.81 614.662 2318.11 344.726 2268.63V2146.6C344.726 2115.41 332.336 2085.5 310.281 2063.44C288.227 2041.39 258.314 2029 227.124 2029C195.934 2029 166.021 2041.39 143.967 2063.44C121.912 2085.5 109.522 2115.41 109.522 2146.6V2267.96C79.2162 2272.84 49.218 2279.46 19.6776 2287.81C-108.863 2327.17 -223.554 2402.28 -311.004 2504.38C-398.455 2606.48 -455.055 2731.36 -474.198 2864.42H-591.398C-622.588 2864.42 -652.5 2876.81 -674.555 2898.86C-696.61 2920.92 -709 2950.83 -709 2982.02C-709 3013.21 -696.61 3043.12 -674.555 3065.18C-652.5 3087.23 -622.588 3099.62 -591.398 3099.62H-468.566C-463.286 3131.59 -455.118 3163 -444.16 3193.49C-344.259 3456.05 -160.95 3614.15 109.79 3662.83V3784.99C109.79 3816.18 122.18 3846.09 144.235 3868.14C166.29 3890.2 196.202 3902.59 227.392 3902.59C258.582 3902.59 288.495 3890.2 310.55 3868.14C332.604 3846.09 344.995 3816.18 344.995 3784.99V3664.3C382.158 3659.12 418.691 3650.14 454.015 3637.48C710.943 3540.13 867.298 3362.18 920.534 3101.1H1046.18C1077.37 3101.1 1107.29 3088.71 1129.34 3066.65C1151.39 3044.6 1163.78 3014.69 1163.78 2983.5C1163.78 2952.31 1151.39 2922.39 1129.34 2900.34C1107.29 2878.28 1077.37 2865.89 1046.18 2865.89V2864.42ZM225.917 3537.04C-88.9401 3536.1 -347.879 3276.09 -344.929 2961.91C-344.214 2849 -310.071 2738.83 -246.809 2645.31C-183.547 2551.79 -94.0009 2479.1 10.5302 2436.42C115.061 2393.74 229.893 2382.97 340.535 2405.49C451.177 2428 552.671 2482.78 632.21 2562.92C711.75 2643.06 765.77 2744.96 787.454 2855.77C809.139 2966.57 797.516 3081.32 754.052 3185.53C710.588 3289.74 637.231 3378.74 543.238 3441.3C449.244 3503.86 338.827 3537.17 225.917 3537.04Z" fill="white" fill-opacity="0.1"/>
<path d="M234.231 3228.62C231.804 3230.95 229.252 3233.14 226.588 3235.19C223.923 3233.14 221.371 3230.95 218.944 3228.62C160.612 3180.08 -38.5202 3005.49 -30.2062 2878.23C-21.7582 2735.69 162.624 2697.33 226.588 2844.97C291.222 2697.47 474.933 2735.69 483.516 2878.23C491.561 3005.49 292.563 3180.08 234.231 3228.62Z" fill="white" fill-opacity="0.1"/>
<path d="M1046.18 6922.42H926.971C921.508 6879.34 911.53 6836.96 897.202 6795.97C797.703 6533.81 614.662 6376.11 344.726 6326.63V6204.6C344.726 6173.41 332.336 6143.5 310.281 6121.44C288.227 6099.39 258.314 6087 227.124 6087C195.934 6087 166.021 6099.39 143.967 6121.44C121.912 6143.5 109.522 6173.41 109.522 6204.6V6325.96C79.2162 6330.84 49.218 6337.46 19.6776 6345.81C-108.863 6385.17 -223.554 6460.28 -311.004 6562.38C-398.455 6664.48 -455.055 6789.36 -474.198 6922.42H-591.398C-622.588 6922.42 -652.5 6934.81 -674.555 6956.86C-696.61 6978.92 -709 7008.83 -709 7040.02C-709 7071.21 -696.61 7101.12 -674.555 7123.18C-652.5 7145.23 -622.588 7157.62 -591.398 7157.62H-468.566C-463.286 7189.59 -455.118 7221 -444.16 7251.49C-344.259 7514.05 -160.95 7672.15 109.79 7720.83V7842.99C109.79 7874.18 122.18 7904.09 144.235 7926.14C166.29 7948.2 196.202 7960.59 227.392 7960.59C258.582 7960.59 288.495 7948.2 310.55 7926.14C332.604 7904.09 344.995 7874.18 344.995 7842.99V7722.3C382.158 7717.12 418.691 7708.14 454.015 7695.48C710.943 7598.13 867.298 7420.18 920.534 7159.1H1046.18C1077.37 7159.1 1107.29 7146.71 1129.34 7124.65C1151.39 7102.6 1163.78 7072.69 1163.78 7041.5C1163.78 7010.31 1151.39 6980.39 1129.34 6958.34C1107.29 6936.28 1077.37 6923.89 1046.18 6923.89V6922.42ZM225.917 7595.04C-88.9401 7594.1 -347.879 7334.09 -344.929 7019.91C-344.214 6907 -310.071 6796.83 -246.809 6703.31C-183.547 6609.79 -94.0009 6537.1 10.5302 6494.42C115.061 6451.74 229.893 6440.97 340.535 6463.49C451.177 6486 552.671 6540.78 632.21 6620.92C711.75 6701.06 765.77 6802.96 787.454 6913.77C809.139 7024.57 797.516 7139.32 754.052 7243.53C710.588 7347.74 637.231 7436.74 543.238 7499.3C449.244 7561.86 338.827 7595.17 225.917 7595.04Z" fill="white" fill-opacity="0.1"/>
<path d="M234.231 7286.62C231.804 7288.95 229.252 7291.14 226.588 7293.19C223.923 7291.14 221.371 7288.95 218.944 7286.62C160.612 7238.08 -38.5202 7063.49 -30.2062 6936.23C-21.7582 6793.69 162.624 6755.33 226.588 6902.97C291.222 6755.47 474.933 6793.69 483.516 6936.23C491.561 7063.49 292.563 7238.08 234.231 7286.62Z" fill="white" fill-opacity="0.1"/>
</svg>
