<svg width="368" height="762" viewBox="0 0 368 762" fill="none" xmlns="http://www.w3.org/2000/svg">
<path d="M316.273 325.185C316.241 325.127 316.221 325.062 316.214 324.994C316.173 324.563 316.131 324.13 316.088 323.697C315.886 321.633 315.683 319.554 315.537 317.517C314.807 309.524 314.037 301.534 312.308 293.739C310.837 287.424 310.431 280.986 310.041 274.592L310.025 274.328C309.64 268.009 309.258 261.734 307.888 255.584C307.886 255.577 307.885 255.57 307.884 255.564C304.179 235.012 298.27 214.956 290.536 195.622C290.524 195.59 290.514 195.557 290.508 195.523C289.543 189.99 287.901 184.565 286.249 179.109C285.594 176.947 284.938 174.78 284.322 172.6C282.177 165.008 280.535 157.296 281.255 149.258C276.261 142.883 272.949 135.592 269.694 128.353L269.531 127.989C266.297 120.794 263.093 113.666 258.32 107.419L258.314 107.411C256.407 104.807 254.436 102.231 252.46 99.6487C247.163 92.7275 241.832 85.761 237.623 78.0976C237.618 78.0893 237.614 78.0809 237.61 78.0724C237.201 77.2177 236.802 76.3602 236.404 75.5047C234.348 71.0889 232.317 66.7256 229.165 63.0604C224.266 57.4216 219.798 51.4576 215.673 45.272C214.432 43.4536 213.175 41.5857 211.979 39.7743C211.976 39.7691 211.973 39.7638 211.969 39.7585C206.306 30.44 200.266 21.3824 193.489 12.8773C192.202 14.0323 190.111 15.9061 188.999 16.9001C188.932 16.9605 188.849 17.0013 188.76 17.0184C180.675 18.5712 173.18 22.0708 166.731 27.1742C169.063 28.3647 171.399 29.5386 173.756 30.716C173.88 30.778 173.973 30.8888 174.012 31.0218C174.051 31.1548 174.033 31.2982 173.963 31.4176C173.573 32.0784 172.982 33.0679 172.392 34.0558C171.893 34.8903 171.396 35.7236 171.019 36.359C173.469 38.8717 175.616 41.75 177.683 44.6863C178.275 45.5283 178.86 46.3739 179.444 47.2174C180.979 49.4353 182.504 51.6388 184.127 53.7244C188.598 59.4683 193.728 64.1955 201.523 65.4993C201.79 65.5441 201.973 65.794 201.935 66.0626C200.996 72.7 200.522 79.3892 200.63 86.1051C200.827 86.2146 201.044 86.3355 201.275 86.4645C202.731 87.276 204.765 88.4098 205.877 89.0511L205.886 89.0566L205.886 89.0567C206.522 89.4415 207.595 90.1444 208.439 90.697C208.734 90.8907 209.002 91.0658 209.212 91.2024C209.229 91.2133 209.245 91.2252 209.261 91.238C214.834 95.8882 219.192 101.533 223.15 107.453C224.968 110.173 226.706 112.958 228.437 115.732C228.589 115.976 228.742 116.221 228.895 116.465C230.779 119.484 232.665 122.484 234.657 125.386C234.661 125.391 234.664 125.396 234.667 125.402C242.276 137.409 248.697 150.2 254.221 163.304C254.306 163.504 254.251 163.736 254.087 163.877C253.922 164.019 253.685 164.038 253.5 163.925C249.235 161.314 245.505 157.947 241.98 154.468C244.336 160.184 246.914 165.822 250.003 171.197C250.008 171.205 250.013 171.214 250.017 171.223C250.893 172.979 252.63 176.47 253.482 178.251C253.487 178.262 253.492 178.274 253.497 178.286C253.5 178.294 253.503 178.301 253.505 178.309C255.361 183.902 257.71 189.296 260.067 194.708C260.746 196.267 261.425 197.827 262.094 199.394C265.069 206.366 267.819 213.454 269.266 221.042C273.067 228.316 275.034 236.128 276.534 244.035C277.046 246.733 277.503 249.436 277.959 252.133C278.848 257.392 279.733 262.63 281.016 267.765C281.049 267.897 281.026 268.037 280.954 268.153C280.492 268.887 279.803 270.02 279.137 271.114C278.608 271.985 278.093 272.83 277.721 273.43C277.613 273.604 277.409 273.695 277.207 273.658C277.006 273.622 276.847 273.466 276.806 273.265C276.587 272.183 276.391 271.092 276.195 270.001C275.796 267.784 275.396 265.566 274.807 263.406C274.067 260.693 273.04 258.134 271.376 255.909C271.795 261.811 272.871 267.634 273.991 273.482C274.058 273.836 274.126 274.191 274.194 274.545C275.343 280.535 276.499 286.558 276.981 292.675C276.981 292.678 276.981 292.681 276.981 292.683L277.061 293.408C277.062 293.411 277.062 293.415 277.063 293.418C278 299.504 278.587 305.636 278.97 311.795C279.318 311.569 279.667 311.341 280.016 311.113C281.472 310.163 282.938 309.207 284.405 308.3C284.552 308.209 284.737 308.2 284.892 308.278C285.047 308.356 285.15 308.508 285.166 308.68C285.797 315.723 286.38 322.794 286.561 329.896L286.561 329.907C286.636 355.517 285.969 381.633 276.365 405.887C276.347 405.934 276.321 405.979 276.289 406.018C274.081 408.737 271.891 411.482 269.701 414.229C270.032 414.673 270.461 415.24 270.895 415.813L270.916 415.84C271.464 416.564 272.017 417.295 272.382 417.79C272.494 417.943 272.51 418.145 272.425 418.313C271.351 420.423 270.271 422.577 269.21 424.756C269.113 424.955 268.897 425.067 268.679 425.03L268.674 425.03L268.668 425.029L268.663 425.028L268.658 425.027L268.653 425.026L268.648 425.025L268.643 425.025L268.638 425.024L268.632 425.023L268.627 425.022L268.622 425.021L268.617 425.02L268.611 425.019L268.606 425.018L268.601 425.018L268.595 425.017L268.59 425.016L268.585 425.015L268.579 425.014L268.574 425.013L268.568 425.012L268.563 425.011L268.557 425.01L268.552 425.009L268.546 425.009L268.541 425.008L268.535 425.007L268.53 425.006L268.524 425.005L268.519 425.004L268.513 425.003L268.507 425.002L268.502 425.001L268.496 425L268.49 424.999L268.485 424.998L268.479 424.997L268.473 424.996L268.468 424.996L268.462 424.995L268.456 424.994L268.45 424.993L268.445 424.992L268.439 424.991L268.433 424.99L268.427 424.989L268.421 424.988L268.415 424.987L268.41 424.986L268.404 424.985L268.398 424.984L268.392 424.983L268.386 424.982L268.38 424.981L268.374 424.98L268.368 424.979L268.362 424.978L268.356 424.977L268.35 424.976L268.344 424.975L268.338 424.974L268.332 424.973L268.326 424.972L268.32 424.971L268.313 424.97L268.307 424.969L268.301 424.968L268.295 424.967L268.289 424.966L268.283 424.965L268.276 424.964L268.27 424.963L268.264 424.962L268.258 424.961L268.251 424.96L268.245 424.959L268.239 424.958L268.233 424.957L268.226 424.956L268.22 424.954L268.214 424.953L268.207 424.952L268.201 424.951L268.195 424.95L268.188 424.949L268.182 424.948L268.175 424.947L268.169 424.946L268.163 424.945L268.156 424.944L268.15 424.943L268.143 424.942L268.137 424.941L268.13 424.94L268.124 424.939L268.117 424.937L268.111 424.936L268.104 424.935L268.098 424.934L268.091 424.933L268.085 424.932L268.078 424.931L268.071 424.93L268.065 424.929L268.058 424.928L268.052 424.927L268.045 424.925L268.038 424.924L268.032 424.923L268.025 424.922L268.018 424.921L268.012 424.92L268.005 424.919L267.998 424.918L267.991 424.917L267.985 424.915L267.978 424.914L267.971 424.913L267.964 424.912L267.958 424.911L267.951 424.91L267.944 424.909L267.937 424.908L267.93 424.906L267.924 424.905L267.917 424.904L267.91 424.903L267.903 424.902L267.896 424.901L267.889 424.9L267.883 424.899L267.876 424.897L267.869 424.896L267.862 424.895L267.855 424.894L267.848 424.893L267.841 424.892L267.834 424.89L267.827 424.889L267.82 424.888L267.813 424.887L267.806 424.886L267.799 424.885L267.792 424.884L267.785 424.882L267.778 424.881L267.771 424.88L267.764 424.879L267.757 424.878L267.75 424.877L267.743 424.875L267.736 424.874L267.729 424.873L267.722 424.872L267.715 424.871L267.708 424.87L267.701 424.868L267.694 424.867L267.687 424.866L267.68 424.865L267.672 424.864L267.665 424.863L267.658 424.861L267.651 424.86L267.644 424.859L267.637 424.858L267.63 424.857L267.623 424.855L267.615 424.854L267.608 424.853L267.601 424.852L267.594 424.851L267.587 424.849L267.579 424.848L267.572 424.847L267.565 424.846L267.558 424.845L267.551 424.843L267.543 424.842L267.536 424.841L267.529 424.84L267.522 424.839L267.514 424.837L267.507 424.836L267.5 424.835L267.493 424.834L267.485 424.833L267.478 424.831L267.471 424.83L267.464 424.829L267.456 424.828L267.449 424.827L267.442 424.825L267.434 424.824L267.427 424.823L267.42 424.822L267.412 424.821L267.405 424.819L267.398 424.818L267.391 424.817L267.383 424.816L267.376 424.815L267.369 424.813L267.361 424.812L267.354 424.811L267.347 424.81L267.339 424.808L267.332 424.807L267.324 424.806L267.317 424.805L267.31 424.804L267.302 424.802L267.295 424.801L267.288 424.8L267.28 424.799L267.273 424.797L267.266 424.796L267.258 424.795L267.251 424.794L267.243 424.793L267.236 424.791L267.229 424.79L267.221 424.789L267.214 424.788L267.206 424.786L267.199 424.785L267.192 424.784L267.184 424.783L267.177 424.782L267.169 424.78L267.162 424.779L267.155 424.778L267.147 424.777L267.14 424.775L267.132 424.774L267.125 424.773L267.117 424.772L267.11 424.77L267.103 424.769L267.095 424.768L267.088 424.767L267.08 424.766L267.073 424.764L267.066 424.763L267.058 424.762L267.051 424.761L267.043 424.759L267.036 424.758L267.028 424.757L267.021 424.756L267.014 424.754L267.006 424.753L266.999 424.752L266.991 424.751L266.984 424.75L266.976 424.748L266.969 424.747L266.962 424.746L266.954 424.745L266.947 424.743L266.939 424.742L266.932 424.741L266.924 424.74L266.917 424.738L266.91 424.737L266.902 424.736L266.895 424.735L266.887 424.734L266.88 424.732L266.873 424.731L266.865 424.73L266.858 424.729L266.85 424.727L266.843 424.726L266.835 424.725L266.828 424.724L266.821 424.722L266.813 424.721L266.806 424.72L266.798 424.719L266.791 424.718L266.784 424.716L266.776 424.715L266.769 424.714L266.762 424.713L266.754 424.711L266.747 424.71L266.739 424.709L266.732 424.708L266.725 424.707L266.717 424.705L266.71 424.704L266.702 424.703L266.695 424.702L266.688 424.7L266.68 424.699L266.673 424.698L266.666 424.697L266.658 424.696L266.651 424.694L266.644 424.693L266.636 424.692L266.629 424.691L266.622 424.689L266.614 424.688L266.607 424.687L266.6 424.686L266.592 424.685L266.585 424.683L266.578 424.682L266.57 424.681L266.563 424.68L266.556 424.679L266.549 424.677L266.541 424.676L266.534 424.675L266.527 424.674L266.519 424.673L266.512 424.671L266.505 424.67L266.498 424.669L266.49 424.668L266.483 424.667L266.476 424.665L266.469 424.664L266.462 424.663L266.454 424.662L266.447 424.661L266.44 424.659L266.433 424.658L266.425 424.657L266.418 424.656L266.411 424.655L266.404 424.653L266.397 424.652L266.39 424.651L266.382 424.65L266.375 424.649L266.368 424.647L266.361 424.646L266.354 424.645L266.347 424.644L266.34 424.643L266.332 424.642L266.325 424.64L266.318 424.639L266.311 424.638L266.304 424.637L266.297 424.636L266.29 424.634L266.283 424.633L266.276 424.632L266.269 424.631L266.262 424.63L266.255 424.629L266.248 424.627L266.24 424.626L266.233 424.625L266.226 424.624L266.219 424.623L266.212 424.622L266.205 424.62L266.198 424.619L266.192 424.618L266.185 424.617L266.178 424.616L266.171 424.615L266.164 424.614L266.157 424.612L266.15 424.611L266.143 424.61L266.136 424.609L266.129 424.608L266.122 424.607L266.115 424.606L266.109 424.604L266.102 424.603L266.095 424.602L266.088 424.601L266.081 424.6L266.074 424.599L266.068 424.598L266.061 424.596L266.054 424.595L266.047 424.594L266.04 424.593L266.034 424.592L266.027 424.591L266.02 424.59L266.013 424.589L266.007 424.588L266 424.586L265.993 424.585L265.987 424.584L265.98 424.583L265.973 424.582L265.967 424.581L265.96 424.58L265.953 424.579L265.947 424.578L265.94 424.576L265.933 424.575L265.927 424.574L265.92 424.573L265.914 424.572L265.907 424.571L265.901 424.57L265.894 424.569L265.888 424.568L265.881 424.567L265.875 424.566L265.868 424.565L265.862 424.563L265.855 424.562L265.849 424.561L265.842 424.56L265.836 424.559L265.829 424.558L265.823 424.557L265.817 424.556L265.81 424.555L265.804 424.554L265.798 424.553L265.791 424.552L265.785 424.551L265.779 424.55L265.772 424.549L265.766 424.548L265.76 424.547L265.753 424.546L265.747 424.544L265.741 424.543L265.735 424.542L265.728 424.541L265.722 424.54L265.716 424.539L265.71 424.538L265.704 424.537L265.698 424.536L265.691 424.535L265.685 424.534L265.679 424.533L265.673 424.532L265.667 424.531L265.662 424.53C263.672 428.677 261.549 432.766 259.429 436.848C258.226 439.165 257.024 441.479 255.849 443.8C257.594 452.528 254.636 460.094 250.711 467.326C249.608 469.359 248.409 471.398 247.214 473.431C246.286 475.009 245.36 476.584 244.484 478.148C242.46 481.759 240.648 485.4 239.482 489.195C239.417 489.406 239.221 489.55 239 489.548C238.779 489.546 238.585 489.399 238.524 489.187C237.825 486.766 237.123 484.363 236.418 481.978C230.022 489.615 224.636 498.041 220.118 506.916C222.022 507.091 223.94 507.289 225.852 507.524C226.02 507.544 226.165 507.647 226.24 507.798C226.315 507.949 226.308 508.128 226.223 508.273C218.389 521.631 209.051 534.053 199.217 545.983L199.21 545.992C198.235 547.121 197.255 548.243 196.275 549.365C194.838 551.011 193.398 552.658 191.967 554.338C187.735 559.394 183.169 564.208 178.346 568.744C171.075 576.804 163.065 584.107 155.069 591.399C153.857 592.504 152.645 593.609 151.436 594.717C151.312 594.829 151.141 594.873 150.978 594.833C150.816 594.793 150.684 594.675 150.628 594.517C149.887 592.461 149.148 590.407 148.403 588.385C146.217 590.652 143.938 592.862 141.554 594.976C141.475 595.046 141.377 595.089 141.273 595.1C139.543 595.279 136.069 595.683 134.353 595.889C134.183 595.909 134.013 595.841 133.905 595.707C133.797 595.574 133.765 595.394 133.821 595.231C136.223 588.191 138.404 581.09 140.56 574C142.862 564.857 145.926 555.936 149.395 547.203C144.759 543.352 139.994 539.678 134.982 536.383C132.483 540.43 130.069 544.529 127.657 548.639L127.119 549.556C124.8 553.507 122.478 557.465 120.081 561.386C116.473 567.411 113.306 573.637 110.128 579.883C108.073 583.923 106.014 587.971 103.828 591.98C103.815 592.003 103.8 592.026 103.783 592.048C98.8163 598.41 94.8913 605.438 90.9395 612.513C90.7135 612.918 90.4874 613.322 90.261 613.727C86.0867 621.192 81.817 628.666 76.2168 635.335C72.7163 640.328 68.3895 644.642 63.0702 647.703C49.5151 665.452 32.4685 679.389 14.7528 692.507C14.7311 692.523 14.708 692.537 14.684 692.549C13.7634 693.023 11.9344 693.942 10.835 694.48C10.7827 695.265 10.6877 696.397 10.6077 697.349C10.5705 697.792 10.5365 698.196 10.5117 698.509C10.4991 698.666 10.4131 698.808 10.2795 698.892C8.62142 699.935 6.97132 701.024 5.31936 702.113C5.15992 702.218 5.00047 702.324 4.84099 702.429C5.86677 702.852 7.17938 703.383 8.19371 703.792C8.48438 703.91 8.75056 704.017 8.97848 704.11C9.18872 704.195 9.31531 704.411 9.28684 704.636L9.25433 704.893C8.99383 706.951 8.72787 709.052 8.50668 711.165L10.1946 710.659C10.1959 710.659 10.1972 710.658 10.1985 710.658L10.342 711.137C12.5576 710.453 14.7659 709.815 17.0119 709.23L316.273 325.185ZM316.273 325.185C317.457 336.595 316.222 347.812 314.355 359.017C313.713 362.871 312.995 366.73 312.276 370.595C310.905 377.961 309.531 385.349 308.67 392.768C305.986 397.5 304.229 402.582 302.754 407.738C302.116 409.967 301.536 412.193 300.957 414.411C300.184 417.375 299.414 420.326 298.517 423.254C295.225 429.179 293.992 435.999 292.787 442.668C292.497 444.271 292.209 445.865 291.894 447.437C290.257 455.609 287.9 463.215 281.02 468.647L281.019 468.649C276.105 472.562 272.88 477.697 270.055 483.055C269.216 484.647 268.414 486.253 267.615 487.855C265.71 491.672 263.82 495.459 261.476 498.94L261.473 498.945L261.467 498.954C260.914 499.84 260.365 500.75 259.815 501.662C259.509 502.169 259.203 502.677 258.895 503.181L258.892 503.187C258.469 503.903 258.047 504.62 257.625 505.337C253.867 511.722 250.123 518.084 245.418 523.797C245.409 523.808 245.4 523.819 245.392 523.831C220.174 560.408 189.167 592.186 156.991 622.722C156.834 622.871 156.791 623.105 156.884 623.301C156.978 623.497 157.188 623.609 157.403 623.58L161.418 623.031C161.483 623.022 161.546 623.001 161.603 622.967C172.038 616.854 182.701 610.946 194.296 607.583M316.273 325.185L194.296 607.583M194.296 607.583C190.12 613.7 183.611 617.551 176.946 620.808C176.739 620.909 176.628 621.139 176.677 621.365C176.727 621.59 176.924 621.752 177.155 621.757C183.113 621.882 188.279 619.187 193.339 616.49L193.64 616.329C198.21 613.892 202.71 611.493 207.766 610.954" stroke="#EDEDED" stroke-linejoin="round"/>
<path d="M254.88 208.885L254.88 208.885L254.878 208.88C252.237 203.084 249.083 197.583 245.95 192.117C245.886 192.005 245.822 191.893 245.757 191.781C245.817 191.142 245.901 190.247 245.985 189.352L245.985 189.351C246.028 188.889 246.071 188.426 246.111 187.999C252.638 196.401 256.266 206.482 259.882 216.532C260.231 217.5 260.579 218.468 260.929 219.433L259.257 219.086C258.511 217.439 257.809 215.776 257.109 214.109C257.032 213.926 256.955 213.743 256.878 213.559C256.223 211.999 255.567 210.435 254.88 208.885Z" stroke="#EDEDED" stroke-linejoin="round"/>
</svg>
