<svg width="1920" height="2671" viewBox="0 0 1920 2671" fill="none" xmlns="http://www.w3.org/2000/svg">
<path d="M2614.19 708.339H2513.12C2508.48 671.814 2500.02 635.877 2487.88 601.122C2403.51 378.842 2248.31 245.133 2019.44 203.178V99.7132C2019.44 73.2676 2008.93 47.9052 1990.23 29.2053C1971.53 10.5055 1946.17 0 1919.73 0C1893.28 0 1867.92 10.5055 1849.22 29.2053C1830.52 47.9052 1820.01 73.2676 1820.01 99.7132V202.61C1794.32 206.745 1768.88 212.364 1743.84 219.437C1634.85 252.811 1537.6 316.502 1463.45 403.071C1389.31 489.641 1341.32 595.517 1325.09 708.339H1225.71C1199.27 708.339 1173.91 718.844 1155.21 737.544C1136.51 756.244 1126 781.606 1126 808.052C1126 834.498 1136.51 859.86 1155.21 878.56C1173.91 897.26 1199.27 907.765 1225.71 907.765H1329.86C1334.34 934.866 1341.26 961.505 1350.55 987.354C1435.26 1209.97 1590.68 1344.02 1820.24 1385.3V1488.88C1820.24 1515.32 1830.75 1540.68 1849.45 1559.38C1868.15 1578.08 1893.51 1588.59 1919.95 1588.59C1946.4 1588.59 1971.76 1578.08 1990.46 1559.38C2009.16 1540.68 2019.67 1515.32 2019.67 1488.88V1386.55C2051.18 1382.16 2082.15 1374.54 2112.1 1363.81C2329.95 1281.26 2462.52 1130.39 2507.66 909.016H2614.19C2640.64 909.016 2666 898.51 2684.7 879.811C2703.4 861.111 2713.91 835.748 2713.91 809.303C2713.91 782.857 2703.4 757.495 2684.7 738.795C2666 720.095 2640.64 709.589 2614.19 709.589V708.339ZM1918.7 1278.65C1651.74 1277.85 1432.19 1057.39 1434.69 790.997C1435.3 695.265 1464.25 601.857 1517.88 522.561C1571.52 443.265 1647.45 381.634 1736.08 345.444C1824.71 309.254 1922.07 300.128 2015.89 319.217C2109.7 338.306 2195.75 384.755 2263.19 452.702C2330.63 520.65 2376.44 607.051 2394.82 701.003C2413.21 794.955 2403.35 892.247 2366.5 980.604C2329.65 1068.96 2267.45 1144.42 2187.75 1197.47C2108.06 1250.51 2014.44 1278.76 1918.7 1278.65Z" fill="white" fill-opacity="0.1"/>
<path d="M1925.75 1017.14C1923.69 1019.11 1921.53 1020.97 1919.27 1022.71C1917.01 1020.97 1914.85 1019.11 1912.79 1017.14C1863.33 975.983 1694.49 827.949 1701.54 720.049C1708.7 599.188 1865.04 566.67 1919.27 691.852C1974.07 566.784 2129.84 599.188 2137.12 720.049C2143.94 827.949 1975.21 975.983 1925.75 1017.14Z" fill="white" fill-opacity="0.1"/>
<path d="M694.194 1790.34H593.116C588.484 1753.81 580.024 1717.88 567.875 1683.12C483.511 1460.84 328.313 1327.13 99.4393 1285.18V1181.71C99.4393 1155.27 88.9338 1129.91 70.2339 1111.21C51.5341 1092.51 26.1716 1082 -0.273987 1082C-26.7195 1082 -52.082 1092.51 -70.7819 1111.21C-89.4817 1129.91 -99.9871 1155.27 -99.9871 1181.71V1284.61C-125.683 1288.75 -151.118 1294.36 -176.165 1301.44C-285.153 1334.81 -382.397 1398.5 -456.545 1485.07C-530.693 1571.64 -578.684 1677.52 -594.915 1790.34H-694.287C-720.732 1790.34 -746.095 1800.84 -764.795 1819.54C-783.495 1838.24 -794 1863.61 -794 1890.05C-794 1916.5 -783.495 1941.86 -764.795 1960.56C-746.095 1979.26 -720.732 1989.77 -694.287 1989.77H-590.139C-585.663 2016.87 -578.737 2043.5 -569.446 2069.35C-484.741 2291.97 -329.316 2426.02 -99.7597 2467.3V2570.88C-99.7597 2597.32 -89.2543 2622.68 -70.5544 2641.38C-51.8546 2660.08 -26.4921 2670.59 -0.0465088 2670.59C26.399 2670.59 51.7615 2660.08 70.4613 2641.38C89.1611 2622.68 99.6666 2597.32 99.6666 2570.88V2468.55C131.177 2464.16 162.153 2456.54 192.103 2445.81C409.949 2363.26 542.521 2212.39 587.659 1991.02H694.194C720.639 1991.02 746.002 1980.51 764.702 1961.81C783.401 1943.11 793.907 1917.75 793.907 1891.3C793.907 1864.86 783.401 1839.49 764.702 1820.79C746.002 1802.09 720.639 1791.59 694.194 1791.59V1790.34ZM-1.29724 2360.65C-268.26 2359.85 -487.811 2139.39 -485.31 1873C-484.703 1777.27 -455.754 1683.86 -402.115 1604.56C-348.476 1525.27 -272.551 1463.63 -183.921 1427.44C-95.2905 1391.25 2.07355 1382.13 95.8853 1401.22C189.697 1420.31 275.752 1466.76 343.193 1534.7C410.633 1602.65 456.436 1689.05 474.822 1783C493.208 1876.95 483.353 1974.25 446.501 2062.6C409.648 2150.96 347.45 2226.42 267.754 2279.47C188.059 2332.51 94.4368 2360.76 -1.29724 2360.65Z" fill="white" fill-opacity="0.1"/>
<path d="M5.75107 2099.14C3.69304 2101.12 1.5296 2102.98 -0.729706 2104.71C-2.98903 2102.98 -5.15247 2101.12 -7.21049 2099.14C-56.6691 2057.98 -225.511 1909.95 -218.461 1802.05C-211.298 1681.19 -54.9637 1648.67 -0.729706 1773.85C54.0728 1648.79 209.839 1681.19 217.116 1802.05C223.938 1909.95 55.2097 2057.98 5.75107 2099.14Z" fill="white" fill-opacity="0.1"/>
</svg>
