<svg width="99" height="112" viewBox="0 0 99 112" fill="none" xmlns="http://www.w3.org/2000/svg">
<path d="M87.854 42.2153C87.3397 41.6858 87.0996 41.013 86.8289 40.2996C86.9654 39.2025 86.9654 38.0766 86.8862 36.9808C86.3686 36.0585 85.368 35.5264 85.1714 34.4214C85.2574 33.9274 85.3542 33.4083 85.4455 32.8593C85.2706 32.4136 85.1105 31.965 84.9146 31.5308C84.6941 31.0472 85.0184 30.4243 84.4792 29.9688C83.9587 29.8645 83.3805 29.7401 82.94 29.6519C82.4063 29.2262 82.4653 28.5444 81.8181 28.2553C81.8135 28.9811 81.9975 29.5177 82.3531 30.0226C82.6896 30.5079 83.0973 31.0032 83.2604 31.5514C83.605 32.7061 84.1772 33.757 84.6206 34.8626C84.6637 34.9703 84.6634 35.0937 84.6978 35.2802C84.5978 35.6148 84.4864 36.0133 84.4112 36.274C84.5199 37.4877 84.6086 38.5509 84.7068 39.6664C84.8882 39.9798 85.0927 40.3353 85.2754 40.6562C85.2041 41.0627 85.1454 41.4129 85.0694 41.8357C85.4737 42.5629 85.3589 43.4016 85.3266 44.1864C85.5443 44.8633 85.7524 45.488 85.9646 46.1351C85.897 46.8956 85.8158 47.6664 85.7659 48.439C85.7307 48.9159 85.6969 49.4003 85.7451 49.8695C85.8514 50.9449 85.8166 52.0078 85.7072 53.0845C85.6078 54.09 85.6881 55.1085 85.6986 56.1245C85.7059 56.5395 85.7445 56.9565 85.7717 57.4373C85.4304 58.0942 85.0696 58.7701 84.698 59.4712C84.6812 60.0064 84.672 60.5402 84.6525 61.0604C84.4726 61.4638 84.3375 61.859 84.1358 62.2279C83.9327 62.5893 83.6705 62.9231 83.3909 63.3295C83.0642 64.5236 82.7126 65.7916 82.4154 66.8953C82.4743 67.5476 82.5225 68.0168 82.5638 68.4487C81.9928 70.0734 81.4345 71.6419 80.8688 73.2117C80.7665 73.4928 80.5801 73.7355 80.4764 74.0091C80.0334 75.1166 79.2522 76.0631 78.9111 77.2212C78.3196 79.2353 77.4618 81.1444 76.5776 83.0352C75.9819 84.3175 75.4814 85.6979 74.353 86.6854C74.1406 86.8712 74.0452 87.1896 73.9001 87.4478C72.8626 89.3438 71.3291 90.6839 69.5368 91.5011C68.8799 91.5763 68.412 91.6319 67.9144 91.6931C66.7813 92.6969 65.4349 93.3391 64.2061 93.8671C63.2776 93.8922 62.5099 93.9108 61.7347 93.9307L61.7638 93.8791C61.4684 94.2421 61.055 94.3417 60.6281 94.2433C59.1207 93.8897 57.5884 93.61 56.189 92.8817C55.1823 92.3584 54.1675 91.8751 53.144 91.3857C52.3907 91.0238 51.6902 90.6135 51.0422 90.0701C49.6667 88.9286 48.1669 87.949 46.5362 87.1786C46.0546 86.9515 45.5269 86.7251 45.1515 86.3627C43.8625 85.105 42.0742 84.5257 40.867 83.168C39.9274 82.6323 39.1546 81.8729 38.3136 81.2033C37.2272 80.3323 36.2504 79.387 35.7068 78.1148C34.8243 77.4297 33.9847 76.7676 33.0921 76.0689C32.3797 75.0516 31.6324 73.9714 30.7306 72.6806C30.5674 72.3406 30.2815 71.7535 30.0072 71.1873C29.525 71.207 29.1262 71.219 28.7125 71.2338C27.7398 69.8097 27.21 68.1957 26.1792 66.8748C25.5702 65.2909 24.2496 64.1547 23.4363 62.5083C23.3622 61.774 23.0037 60.9612 22.5645 60.1709C22.1008 59.3313 21.6954 58.4732 21.4457 57.54C21.4306 57.458 21.2765 57.4171 21.197 57.3624C20.9095 57.3924 20.8193 57.864 20.3913 57.6347C20.1421 57.2875 19.9251 56.8649 19.8965 56.3766C19.8853 56.2322 19.9886 56.082 20.0397 55.9415C20.2976 56.0018 20.4829 56.0446 20.7171 56.1016C20.6477 55.351 20.0201 55.0429 19.7946 54.4908C19.5521 53.8878 19.2796 53.2904 19.0583 52.7607C19.0411 52.2086 19.0315 51.74 19.0193 51.2565C18.5225 50.9473 18.07 50.6685 17.6072 50.3762C17.5035 49.9404 17.3755 49.54 17.316 49.1345C17.2258 48.4803 17.1818 47.8253 17.1229 47.173C17.0387 46.2169 16.926 45.2738 16.551 44.3715C16.4649 44.156 16.3732 43.9108 16.3692 43.6802C16.365 42.7402 15.9645 41.9505 15.4666 41.2175C15.3156 39.9421 15.0047 38.7195 15.2403 37.4498C15.2876 37.1635 15.2311 36.8577 15.1909 36.5567C15.0986 35.8489 14.9839 35.1452 14.8593 34.3045C14.6465 33.9043 14.3641 33.3782 14.1759 33.0274C14.053 32.0707 13.911 31.3027 13.8687 30.5317C13.8008 29.3721 14.2396 28.4504 15.3096 27.8979C15.5288 27.9576 15.71 27.978 15.8574 28.0665C16.0123 28.1535 16.1247 28.3024 16.3375 28.4943C16.4857 29.0453 16.6551 29.6695 16.7668 30.0653C16.7293 30.905 16.2873 31.434 16.511 32.1021C16.6339 32.1411 16.7819 32.1908 17.0365 32.2748C17.3116 31.26 17.0703 30.1634 17.7349 29.2539C18.379 28.942 19.0637 28.5995 19.7153 28.2863C20.8715 28.4504 21.8304 28.8822 22.7559 29.4668C23.7093 30.0771 24.7114 30.6168 25.6648 31.2271C27.0116 32.0885 28.574 32.6556 29.4032 33.7207C30.4063 34.3912 31.2093 34.8134 31.879 35.3913C32.9235 36.2855 34.0423 37.0811 35.1624 37.8842C36.5136 38.8528 38.0022 39.6881 38.8004 41.2524C38.8249 41.3019 38.8658 41.356 38.9113 41.3939C40.36 42.5141 41.3046 44.036 42.3047 45.5244C42.4416 45.7228 42.5785 45.9211 42.7351 46.1004C43.5511 47.0522 44.2122 48.1253 45.0959 49.0261C45.4667 49.4048 45.7198 49.8978 46.0317 50.3337C46.2722 50.6748 46.5052 51.0173 46.7354 51.3448C47.2917 51.643 47.8081 51.9331 48.2537 52.1746C48.7758 52.7875 49.2393 53.3342 49.5653 53.7211C50.4298 54.3093 51.3557 54.3541 51.9735 55.2346C52.1363 55.6981 52.3505 56.3139 52.5632 56.9224C53.1819 57.4326 53.7741 57.9246 54.2297 58.303C55.2434 58.4472 56.0779 58.5397 56.897 58.6736C57.9875 58.8575 59.0449 58.6543 60.0894 58.4226C60.6594 58.2941 61.0382 57.9233 61.2054 57.368C61.437 56.5772 61.6435 55.7756 61.8608 54.9488C61.0346 53.9834 60.2246 53.0227 59.3964 52.0885C59.1228 51.7766 58.7633 51.5424 58.4762 51.2408C58.104 50.8546 57.6885 50.4841 57.4125 50.0339C56.5667 48.6711 56.104 47.2529 56.6485 45.6099C57.5694 42.8332 58.3763 40.0235 59.2973 37.2467C59.6986 36.039 60.0179 34.8463 59.8804 33.5608C60.5112 32.6344 60.7523 31.6028 60.8514 30.5126C60.916 29.8606 61.0117 29.2105 61.1312 28.5638C61.2227 28.0996 61.378 27.6467 61.4861 27.272C61.8427 26.9902 62.1106 26.771 62.4402 26.5096C62.5407 25.635 62.6384 24.7455 62.7524 23.8607C62.8922 22.7399 62.9417 21.5894 63.2104 20.4987C63.5643 19.076 63.8328 17.6923 63.2361 16.3837C63.4233 14.56 63.4594 12.7951 64.8058 11.4434C65.8802 10.7898 66.9978 10.9533 68.0863 11.3767C69.3656 11.8727 70.6427 12.3152 71.9684 12.687C74.8418 13.5053 76.7064 15.5819 78.0868 18.1259C78.7155 19.2744 79.2603 20.4692 79.8606 21.6306C80.053 22.0038 80.3219 22.3319 80.5204 22.6962C80.71 23.0544 80.859 23.4433 81.0174 23.7996C81.2914 23.7798 81.5206 23.7683 81.7274 23.7609C82.1835 24.1007 82.2872 24.7447 82.9353 24.8716C83.4401 24.7243 83.8754 24.451 84.1667 23.8574C84.1239 23.6262 84.0851 23.3326 84.0178 23.052C83.8674 22.4475 83.2691 22.1726 82.9124 21.745C83.105 21.4935 83.2428 21.3215 83.4368 21.0774C83.0264 19.9425 82.5719 18.7773 82.1682 17.595C81.7447 16.3469 81.2148 15.1493 80.6984 13.9415C80.107 12.578 79.5278 11.1968 79.2534 9.71294C79.1362 9.07913 78.8461 8.46953 78.5737 7.87213C78.2508 7.16839 77.8575 6.50083 77.3753 5.60291C77.0893 5.43216 76.6353 5.14596 76.1632 4.88624C75.8534 4.71217 75.5193 4.57343 75.1973 4.41704C73.8471 3.78757 72.4955 3.15066 71.0006 2.44769C70.5176 2.42132 69.857 2.4355 69.2083 2.34723C68.046 2.19198 66.9568 2.43191 65.8761 2.80138C65.3171 2.98956 64.7493 3.17167 64.1671 3.31787C63.7625 3.42353 63.3483 3.47699 62.9293 3.54674C62.0765 3.689 61.3239 3.99782 60.7576 4.6886C60.6441 4.82527 60.4924 4.92271 60.3178 5.06295C59.9854 5.01647 59.638 4.97273 59.2655 4.91823L56.4469 5.43937C56.3595 5.71771 56.2871 5.99326 56.234 6.16502C56.4288 6.67651 56.7331 6.82075 57.26 6.79273C57.7177 6.51532 58.2668 6.19018 58.8429 5.84459C58.9818 6.01171 59.0826 6.13961 59.201 6.27966C58.9879 6.92056 58.7693 7.53162 58.2086 8.04401C57.9699 8.08813 57.6764 8.12698 57.3883 8.19567C57.0196 8.28697 56.7313 8.4791 56.658 8.91679C56.7412 9.53375 56.8923 10.1844 56.8888 10.8328C56.8812 11.6671 56.7738 12.5043 56.6413 13.3308C56.3784 15.0374 55.982 16.7302 56.19 18.4808C56.2142 18.6536 56.1551 18.8342 56.1257 19.0093C55.7861 20.8843 55.3128 22.7455 55.3918 24.6742C55.0595 25.8384 55.1045 27.0407 54.9771 28.2287C54.7852 30.0687 54.611 31.9208 54.3316 33.7462C54.0408 35.6353 53.6299 37.5003 53.2754 39.3781C53.1965 39.786 53.0581 40.2048 53.0789 40.6097C53.1393 41.9789 52.5256 43.1642 52.0809 44.3878C52.0096 44.586 51.7801 44.721 51.6125 44.8986C50.4636 44.2319 49.4704 43.4901 48.5698 42.6232C47.153 41.2581 45.7361 39.8929 44.2408 38.604C43.076 37.6009 41.8333 36.6354 40.9646 35.3154C40.7159 34.9295 40.2979 34.629 39.897 34.3792C39.1821 33.933 38.5444 33.4032 37.9234 32.8394C37.5712 32.5189 37.1675 32.2543 36.8091 31.9426C35.6416 30.9247 34.403 29.9815 33.4346 28.6646C31.7351 27.8143 30.8221 25.9627 29.1119 24.9294C28.1199 24.8198 27.2397 24.3965 26.4575 23.6697C25.9835 23.2329 25.3843 22.9119 24.8103 22.6016C23.705 22.004 22.5721 21.4654 21.4621 20.8841C20.7271 20.4956 20.0244 20.0317 19.2725 19.6772C18.5709 19.3443 17.8997 18.9671 17.2317 18.5662C15.5569 17.5572 13.7537 16.9807 11.7622 17.3874C10.0737 17.7228 8.31346 17.8786 6.94917 19.1333C6.78481 19.2871 6.51363 19.3218 6.30372 19.4378C5.03071 20.1435 3.99044 21.107 3.09786 22.2437C3.02962 22.3335 3.02323 22.4657 2.96878 22.63C3.08327 23.0407 3.21211 23.4873 3.34647 23.9637C3.00278 24.4822 2.66988 24.9756 2.35051 25.4588C1.85934 27.0148 2.76889 28.3889 2.87287 29.8272C3.12158 30.213 3.41284 30.5371 3.56793 30.9171C4.26419 32.6391 4.9008 34.3722 4.91186 36.2672C4.91363 36.8606 5.02255 37.4497 5.0589 37.8131C5.51627 38.5768 5.916 39.1121 6.17348 39.7123C6.42959 40.305 6.55092 40.9612 6.75589 41.6944C7.42481 42.4344 7.89429 43.3887 8.06575 44.4829C8.17216 45.1418 8.45064 45.7304 8.91334 46.2309C9.1549 46.4947 9.35586 46.7891 9.50631 46.9772C9.71712 47.6169 9.77359 48.1308 9.55748 48.672C9.45247 48.9382 9.4093 49.2469 9.4244 49.5372C9.43456 49.7589 9.58307 49.9783 9.65896 50.1802C10.0651 50.375 10.4462 50.559 10.709 50.6877C11.5514 51.3648 11.7704 52.2574 12.0571 53.099C12.5593 54.5638 12.7491 56.1327 13.5488 57.4963C13.6374 57.6419 13.6359 57.8427 13.6751 58.0128C13.8919 59.06 14.1208 60.0896 14.6811 61.0348C14.9831 61.5419 15.1978 62.1191 15.3487 62.685C15.6218 63.745 16.1272 64.6849 16.6759 65.609C17.9895 67.8338 19.7031 69.7611 21.2528 71.8034C22.4056 73.3253 23.6877 74.754 24.9278 76.2058C25.6649 77.0643 26.3912 77.9479 27.2203 78.72C28.1038 79.536 28.9392 80.3841 29.6887 81.3097C30.1414 81.8814 30.6293 82.3928 31.2773 82.7279C31.8235 83.0125 32.3041 83.4017 32.6183 83.8912C33.3208 84.9797 34.299 85.7242 35.3416 86.4414C36.0823 86.9445 36.7367 87.5638 37.441 88.1199C38.3275 88.8274 39.1958 89.5614 40.1263 90.2145C41.2144 90.9695 42.2531 91.7492 42.936 92.8567C44.2512 93.3384 45.3459 94.046 46.3597 94.8996C47.09 95.5126 47.852 96.0889 48.6141 96.6651C50.0191 97.7163 50.4793 98.2867 51.0958 99.8692C51.2497 99.8254 51.4109 99.7801 51.5648 99.7363C51.7335 99.6896 51.8962 99.6519 52.1097 99.597C53.5783 100.366 55.0484 101.143 56.6026 101.959C57.5932 102.061 58.5654 102.606 59.6835 102.523C60.1318 102.486 60.6451 102.677 61.0507 102.91C62.1921 103.578 63.3468 103.442 64.5219 103.124C65.6747 102.811 66.8247 102.483 67.983 102.199C68.7502 102.011 69.4465 101.689 70.0881 101.239C70.3331 101.063 70.5693 100.88 70.83 100.747C72.156 100.078 73.4922 99.4221 74.8691 98.7356C75.0564 98.3308 75.2573 97.9159 75.4507 97.5022C75.7598 97.422 76.0478 97.3533 76.3657 97.2791C77.127 96.4751 78.0338 95.7908 78.54 94.7332C78.6856 94.4364 79.0499 94.238 79.3063 93.9978C79.4375 93.8733 79.551 93.7366 79.6687 93.6223C79.8008 93.3357 79.9207 93.0668 80.0528 92.7801C80.1616 92.6598 80.2724 92.5082 80.4064 92.3986C81.0748 91.8432 81.5232 91.1819 81.6922 90.3024C81.7663 89.9108 82.023 89.5472 82.1537 89.2531C82.547 89.003 82.8442 88.817 83.1488 88.6295C83.2179 88.3777 83.2484 88.1253 83.3495 87.9215C83.4783 87.6587 83.675 87.4295 83.8289 87.1774C84.0408 86.8221 84.2602 86.4653 84.4442 86.0843C84.8553 85.2217 85.2414 84.3483 85.7238 83.2875C85.6488 81.0881 86.0888 78.755 86.3634 76.4448C86.7197 76.2864 86.992 76.1743 87.248 76.0576C87.5309 75.6274 87.6537 75.1652 87.6251 74.6769C87.5738 73.6068 87.5001 72.5408 87.4562 71.4693C87.4397 71.1716 87.4931 70.8764 87.5141 70.6566C87.7407 70.2137 87.9275 69.8475 88.0866 69.5405C88.0758 68.8562 88.074 68.2627 88.0648 67.6707C88.28 67.2915 88.4831 66.9301 88.7334 66.4906C88.5793 65.532 88.8375 64.5511 89.1119 63.7832C89.2068 62.3776 88.5822 61.2515 88.7427 60.0343C88.8195 59.8659 88.8637 59.688 88.9596 59.5392C89.3707 58.8848 89.3957 58.1862 89.201 57.4665C89.1359 57.2395 89.0409 57.0179 88.9819 56.7821C88.9626 56.6777 89.009 56.5534 89.037 56.3709C89.3518 56.197 89.7012 56.0013 90.0865 55.7913C90.101 55.4107 90.1061 55.0628 90.12 54.7209C89.7851 54.3278 89.4795 53.9679 89.1535 53.5809C89.3022 53.1755 89.4387 52.7879 89.5658 52.4328C89.1179 50.3024 88.3624 48.2597 88.558 46.0643C88.4018 45.5534 88.2531 45.0411 88.1113 44.566C88.1859 44.344 88.2478 44.1784 88.2934 44.008C88.3391 43.8376 88.3684 43.6625 88.3864 43.5512C88.3454 42.9959 88.2016 42.5521 87.856 42.1841L87.854 42.2153ZM19.6794 66.5883C19.5558 66.295 19.4545 65.9975 19.3518 65.6926C19.697 65.891 19.9129 66.1827 20.0497 66.5892C19.8727 66.5911 19.7012 66.6228 19.6868 66.5869L19.6794 66.5883ZM21.1384 68.2232C21.0873 68.1556 21.0274 68.0819 20.9675 68.0081C21.1669 68.0021 21.1415 68.1147 21.1384 68.2232ZM21.6739 69.2424C21.5176 68.9397 21.3703 68.6431 21.214 68.3404C21.5951 68.5244 21.666 68.866 21.6739 69.2424ZM21.7258 69.3562C22.051 69.4889 22.1943 69.7632 22.2834 70.0783C21.9852 69.9252 21.8345 69.6523 21.7258 69.3562ZM22.3789 70.2611C22.4777 70.4202 22.5691 70.5807 22.6665 70.7323C22.5122 70.6066 22.4357 70.4434 22.3789 70.2611ZM59.1208 99.3957C59.5152 99.2765 60.0428 99.4051 60.7036 99.7816C59.6492 100.085 59.5826 100.058 59.1208 99.3957ZM66.6488 101.489C66.756 101.069 66.7547 101.061 67.2779 101.18C67.1649 101.487 66.9898 101.665 66.6488 101.489ZM86.5861 72.8948C86.5033 72.8639 86.4235 72.7244 86.4233 72.6396C86.4244 72.5623 86.5592 72.4988 86.6316 72.4315C86.7296 72.5444 86.8187 72.6513 86.9358 72.7839C86.7698 72.8454 86.6541 72.9285 86.5861 72.8948ZM84.1109 31.5638C84.1109 31.5638 84.014 31.5817 83.9889 31.5709C83.8801 31.4831 83.8975 31.4105 84.0304 31.3782C84.0602 31.3727 84.1071 31.418 84.1425 31.4423C84.1344 31.4823 84.138 31.5433 84.1123 31.5712L84.1109 31.5638Z" fill="#EDEDED"/>
<path d="M81.9026 26.0879C81.9814 26.5977 82.289 26.9264 82.7763 27.06C82.9067 27.0976 83.084 26.9722 83.2155 26.9325C83.2399 26.4807 83.0911 26.1766 82.7046 25.9628C82.4624 25.9459 82.1655 25.8002 81.9039 26.0954L81.9026 26.0879Z" fill="#EDEDED"/>
</svg>
