<svg width="103" height="119" viewBox="0 0 103 119" fill="none" xmlns="http://www.w3.org/2000/svg">
<path d="M27.562 76.9767C27.562 76.9767 27.5405 76.9971 27.5341 76.999C27.5341 76.999 27.5361 77.0054 27.538 77.0117L27.5556 76.9786L27.562 76.9767Z" fill="#EDEDED"/>
<path d="M43.3242 44.3896C43.3242 44.3896 43.3339 44.4214 43.3396 44.4404C43.3441 44.4321 43.3485 44.4239 43.3592 44.4136L43.3242 44.3896Z" fill="#EDEDED"/>
<path d="M68.1403 86.4708L68.1442 86.4835C68.1442 86.4835 68.1288 86.4327 68.1211 86.4073C68.1268 86.4264 68.1244 86.441 68.1238 86.462C68.1257 86.4683 68.1213 86.4765 68.1188 86.4912C68.1315 86.4873 68.1379 86.4854 68.1506 86.4815C68.1506 86.4815 68.1505 86.4815 68.1403 86.4708Z" fill="#EDEDED"/>
<path d="M21.2343 70.1827L21.2519 70.1496L21.2139 70.1611C21.2139 70.1611 21.2197 70.1802 21.2279 70.1846L21.2343 70.1827Z" fill="#EDEDED"/>
<path d="M70.6783 105.671C70.9781 104.97 71.5516 104.463 71.9707 103.767C72.003 102.711 72.642 101.872 73.2132 101.061C73.4344 100.945 73.588 100.926 73.7471 101.176C73.7045 101.355 73.6705 101.608 73.5805 101.836C73.4767 102.111 73.3024 102.358 73.1903 102.627C73.0625 102.936 72.8992 103.242 73.0505 103.626C73.1508 103.637 73.2576 103.646 73.4164 103.667C73.507 103.418 73.6116 103.192 73.6767 102.951C73.8327 102.37 74.1128 101.855 74.426 101.358C74.5617 101.143 74.7242 100.948 74.8702 100.744C75.2336 100.253 75.4552 99.7281 75.3735 99.0946C75.3545 98.941 75.4199 98.7687 75.4442 98.6435C75.567 98.523 75.6415 98.4033 75.7499 98.3496C76.4852 97.9875 76.7146 97.3287 76.7951 96.5904C76.8123 96.4189 76.7114 96.2694 76.4929 96.2803C76.2844 96.3922 76.2496 96.5969 76.2459 96.8128C76.2373 97.058 76.2287 97.3031 76.2109 97.655C75.5642 97.7615 75.2807 98.4021 74.6999 98.6341C74.8517 98.1306 75.0055 97.6334 75.1662 97.1133C75.5543 96.7944 75.8666 96.4084 76.0452 95.9244C76.2307 95.4176 76.4162 94.9108 76.6337 94.3041C77.0968 94.0039 77.3965 93.4624 77.6096 92.864C77.6662 92.7082 77.7622 92.5681 77.8436 92.4256C77.8901 92.647 77.8004 92.9446 78.2292 92.9875C78.3603 92.712 78.4837 92.4112 78.6421 92.1343C78.8112 91.8473 79.0154 91.5842 79.203 91.3124C79.445 90.9686 79.481 90.5626 79.5272 90.1674C79.1931 90.3452 79.0209 90.6678 78.8551 90.9885C78.6848 91.3175 78.5451 91.6787 78.1615 91.83L78.1835 91.7886C78.1709 91.7925 78.1645 91.7944 78.1538 91.8046C78.1557 91.811 78.1596 91.8236 78.1615 91.83C78.0467 92.045 77.9363 92.2519 77.8215 92.4669C77.8186 92.1837 77.9003 91.951 78.1538 91.8046C78.0381 91.424 78.2591 91.0796 78.2876 90.7175C78.3004 90.5542 78.2965 90.3821 78.1198 90.325C77.6795 90.7915 77.2149 91.2238 76.816 91.7123C76.3911 92.2296 76.1369 92.8751 75.6023 93.2594C75.5162 93.5004 75.4356 93.6912 75.3798 93.8953C75.2443 94.3384 75.1024 94.7835 74.7269 95.0986C74.3938 95.872 73.7756 96.4827 73.4921 97.2827C73.3966 97.5612 73.247 97.8215 73.0955 98.0755C73.0539 98.1436 72.9047 98.1543 72.748 98.2088C72.7269 97.6608 72.8319 97.1854 73.1348 96.8369C73.587 96.3183 73.7993 95.6716 74.1935 95.1221C74.5379 94.6363 74.7187 94.0685 74.7349 93.4607C74.7416 93.2092 74.7775 92.9626 74.8052 92.7117C75.1271 92.3574 75.5122 92.074 75.6776 91.6149C76.0585 90.5428 76.4579 89.4858 76.87 88.425C76.8857 88.3856 76.8868 88.3437 76.8879 88.3017C76.8869 88.1843 76.9029 88.0546 76.7118 88.0642C76.458 88.3008 76.3531 88.6168 76.2584 88.9435C76.133 89.3974 75.9021 89.8003 75.5641 90.1248C75.5167 90.1739 75.41 90.1647 75.3256 90.1835C74.9776 90.019 75.0444 89.7145 75.0749 89.3588C75.6035 88.7269 75.7185 87.8742 75.9645 87.0648C76.0749 86.6986 76.123 86.3097 76.2913 85.9744C76.7237 85.0946 76.7881 84.0979 77.2453 83.2313C77.338 83.0575 77.3632 82.8212 77.3561 82.6155C77.333 81.6731 77.5641 80.792 77.9725 79.9472C77.761 78.9096 78.0862 78.0415 78.8167 77.2304C79.026 77.4856 79.0358 77.7459 79.0005 77.9715C78.8026 79.2582 78.6003 80.5533 78.3878 81.8375C78.2082 82.9108 77.897 83.9618 77.8344 85.0549C77.8105 85.478 77.7994 85.8972 77.7609 86.3177C77.713 86.7758 77.6423 87.227 77.5798 87.6825C77.8721 87.7323 78.0084 87.6562 78.084 87.4946C78.3089 87.0035 78.0835 86.4899 78.1757 86.0184C78.7421 84.7582 78.9279 84.0018 78.7086 82.3914C78.848 81.9609 78.9657 81.4817 78.9523 80.9591C78.9332 80.4174 79.0944 79.8764 79.3257 79.3833C79.5009 79.1845 79.6653 78.996 79.7886 78.8545C79.8914 78.4629 79.9734 78.14 80.0642 77.8006C79.4607 77.2287 79.3222 76.5223 79.4924 75.6459C80.096 75.0328 80.16 74.1263 80.4093 73.3506C80.2922 72.7833 80.192 72.294 80.1124 71.8955C80.3713 71.1515 80.5938 70.5156 80.837 69.8111C80.7826 69.3356 80.7132 68.7884 80.6437 68.172C80.8563 67.4352 80.7261 66.5738 81.0598 65.7794C81.1473 65.5657 81.0814 65.2808 81.0608 65.0307C81.035 64.7406 80.9736 64.4474 80.9397 64.222C81.045 63.6564 81.1988 63.1592 81.2204 62.6606C81.2557 61.8876 81.4512 61.1629 81.7738 60.4689C81.7524 60.1705 81.7329 59.8784 81.7115 59.58C81.9704 58.9954 81.9618 58.3743 81.8914 57.7097C82.1725 57.3124 82.4581 56.9068 82.7519 56.5056C82.7607 56.4891 82.8231 56.5117 82.8669 56.5191C83.0475 56.7484 82.936 56.9971 82.9108 57.2335C82.8308 58.1102 82.6607 58.9865 82.6689 59.8572C82.6789 60.665 82.6182 61.4457 82.463 62.2344C82.405 62.5223 82.3972 62.8157 82.3684 63.1086C82.3206 63.5667 82.3331 64.041 82.2102 64.4803C81.9921 65.2673 81.9816 66.0536 81.996 66.8531C82.0046 67.3148 82.0343 67.777 81.9864 68.235C81.9087 69.0279 81.8017 69.8158 81.6655 70.5987C81.5312 71.388 81.6217 72.1643 81.7205 72.9451C82.0917 72.8669 82.2526 72.5754 82.3053 72.2475C82.4841 71.126 82.8301 70.0298 82.7706 68.8768C82.747 68.5028 82.797 68.1203 82.8426 67.7461C82.8711 67.5434 82.9396 67.3355 83.0367 67.1535C83.0784 67.0854 83.2441 67.0835 83.3456 67.0526C83.4801 67.3582 83.5947 67.6214 83.7017 67.8591C83.8445 67.8504 83.9182 67.8418 84.061 67.8331C84.1039 67.5636 84.1346 67.2771 84.1945 66.9955C84.2682 66.6682 84.3731 66.3522 84.4521 66.0649C84.4143 65.2794 84.3798 64.5276 84.3384 63.6393C84.2687 63.5011 84.1331 63.2374 83.9854 62.9566C84.1454 61.0438 84.3015 59.1183 84.4635 57.2119C84.5695 57.0133 84.8232 56.9362 84.8178 56.6676L84.6288 56.0459C85.0179 55.297 85.0777 54.468 85.0752 53.6164C85.0688 53.0709 85.1442 52.5213 85.186 51.975C85.2065 51.6777 85.2753 51.3796 85.2495 51.0894C85.1621 50.2775 85.25 49.4954 85.5809 48.8057C85.4759 48.4149 85.3478 48.1074 85.1024 47.8701C84.7221 47.8957 84.8102 48.3679 84.4842 48.4808C84.4324 48.3788 84.3406 48.2819 84.337 48.1791C84.3074 47.7168 84.286 47.259 84.2837 46.7954C84.2795 46.1661 84.3635 45.5307 84.1828 44.9134C84.1597 44.8373 84.1809 44.7477 84.1774 44.6448C84.2806 44.3917 84.3844 44.1176 84.4945 43.8416C84.3163 43.0503 84.3737 42.2359 84.113 41.4697C84.0667 41.3174 84.0737 41.1352 84.0864 40.9719C84.1955 39.8715 84.0187 38.7887 83.8732 37.7173C83.7006 37.5826 83.5363 37.4524 83.4477 37.3892C83.1828 37.0193 83.1981 36.682 83.1651 36.3456C83.1209 35.8809 83.0532 35.4302 82.7406 35.0401C82.4949 34.7337 82.4655 34.3407 82.4064 33.9636C82.3472 33.5866 82.3344 33.2025 82.2327 32.8453C82.0666 32.2305 81.9863 31.6243 81.9699 30.9779C81.955 30.3587 81.7406 29.7448 81.6208 29.1228C81.604 29.0448 81.6044 28.9546 81.6129 28.8688C81.6672 28.09 81.3078 27.4093 81.1572 26.6858C80.8654 26.6151 80.6302 26.5481 80.3531 26.4799C80.0346 25.5233 79.5638 24.6131 79.6242 23.7631C79.3765 23.0623 79.1867 22.5518 79.0095 22.0374C78.9235 21.8002 78.906 21.5144 78.7599 21.3302C78.2245 20.6405 78.0474 19.8073 77.7347 19.0292C77.7052 18.955 77.6484 18.8822 77.5883 18.7758C77.3476 18.5994 77.0802 18.4036 76.8044 18.2033C76.2389 17.0724 75.3569 16.2455 74.3287 15.5533C74.1304 15.5165 73.9046 15.5713 73.7348 15.3319C73.4898 14.845 73.4943 14.1992 73.0006 13.7602C72.7733 13.6284 72.5194 13.4768 72.2941 13.3513C72.2035 13.2125 72.118 13.1138 72.0687 12.9971C71.9585 12.7257 71.8463 12.4479 71.7614 12.1688C71.5088 11.3378 71.0465 10.6606 70.3702 10.1455C70.0988 10.0963 69.9051 10.4394 69.6338 10.2308C69.1845 9.51267 68.8075 9.1006 68.5027 8.9946C68.4993 9.12035 68.4667 9.24114 68.4932 9.35091C68.5788 9.6783 68.6962 9.99605 68.7736 10.319C68.8072 10.4751 68.8149 10.6599 68.6006 10.7528C68.1626 10.6572 67.7101 10.5592 67.243 10.4587C66.9545 10.2622 66.6457 10.0442 66.3242 9.83008C66.2032 9.02144 66.0879 8.23183 65.9739 7.46952C65.6854 6.88504 65.4089 6.31768 65.1242 5.74589C64.4485 5.75726 64.0674 5.02768 63.3627 5.10329C63.1407 5.17079 62.944 5.38999 62.6627 5.23987C62.3423 4.98384 62.0137 4.72341 61.7838 4.5369C61.0251 4.4349 60.4024 4.34699 59.8026 4.26599C59.2397 4.37475 58.7003 4.46945 58.1685 4.58952C57.928 4.64184 57.6864 4.73609 57.4652 4.85185C57.3992 4.88575 57.389 5.03439 57.3368 5.18191C57.8575 5.16222 58.309 5.1428 58.6995 5.12803C59.0595 5.46902 58.6312 5.72398 58.7133 5.94849C58.8128 6.0707 58.8715 6.14986 58.9244 6.21C58.2849 6.91029 57.3391 6.51173 56.6313 6.94173C56.6514 7.21283 56.691 7.45719 56.6887 7.70043C56.6878 7.97098 56.3336 8.19649 56.6226 8.53138C56.8708 8.50443 57.0798 8.37156 57.2831 8.21966C57.4801 8.0697 57.6815 7.91148 57.8785 7.76151C58.2348 7.771 58.5638 7.78184 58.903 7.80346C58.9156 7.7996 58.9305 7.87134 58.9683 7.94995C57.9653 8.59441 57.0627 9.40932 55.8226 9.82094C55.5615 9.78253 55.2336 9.72977 54.9222 9.68582C54.6552 9.78777 54.418 9.87375 54.2189 9.94815C53.9336 10.2636 53.6972 10.5572 53.4219 10.8141C52.7681 11.4217 52.2149 12.1096 51.6987 12.8279C51.3 13.3857 50.8426 13.8643 50.3113 14.2822C50.172 14.3939 50.009 14.4504 49.8822 14.1701C50.1411 13.5855 50.4546 12.9982 50.9164 12.5113C50.9556 12.2984 50.9968 12.0919 51.031 11.9082C51.4422 11.2774 51.9503 10.7833 52.5202 10.3329C53.2485 9.76499 53.9403 9.1458 54.6259 8.52853C54.886 8.29006 55.0055 7.97653 54.8325 7.54404C54.6849 7.49187 54.496 7.41761 54.3072 7.34336C54.0852 7.25146 53.9482 6.96047 53.6272 7.0442C53.262 7.21066 53.1083 7.54846 52.9901 7.88929C52.9975 8.16425 53.0035 8.41189 53.0034 8.5713C52.6391 9.33345 51.8697 9.40103 51.3072 9.80763C51.2993 10.4199 51.06 10.9777 50.7099 11.4445C50.2144 12.0941 49.9409 12.8356 49.6077 13.6091C48.9937 14.1423 48.6029 14.7946 48.6881 15.6904C48.7093 15.9196 48.5909 16.1912 48.4678 16.4019C48.0917 17.0567 47.6724 17.6832 47.2734 18.3312C47.0366 18.715 46.7127 19.0629 46.6954 19.5533C47.0104 19.5407 47.3196 19.3497 47.7001 19.5528C47.9587 20.084 47.9712 20.7178 48.1122 21.2501C48.0268 21.6987 47.9101 22.0669 47.9063 22.4422C47.9023 22.9077 47.8798 23.3581 47.7106 23.8045C47.5345 24.2738 47.4621 24.7879 47.2364 25.2307C46.9621 25.7646 46.7672 26.3089 46.6805 26.7303C46.6819 27.4644 46.6853 28.0455 46.6893 28.6056C46.9289 28.6644 47.1101 28.7133 47.2747 28.7533C47.375 29.0832 47.2709 29.2881 46.9598 29.4728C46.7775 29.4658 46.5092 29.3811 46.2568 29.6449C46.2457 29.7453 46.2266 29.9105 46.2119 30.0674L46.1789 30.0497C46.1789 30.0497 46.1593 30.0765 46.1524 30.0994C46.1714 30.0936 46.1968 30.0859 46.2139 30.0737C46.5092 30.2473 46.8001 30.4291 47.0871 30.5983C47.1624 30.5269 47.2537 30.4853 47.2827 30.421C47.5027 29.7998 47.7145 29.1741 47.9116 28.5459C48.0052 28.261 47.9032 27.994 47.7886 27.7309C47.6865 27.7827 47.5825 27.8282 47.4507 27.896C47.4171 27.7399 47.3492 27.608 47.3813 27.5082C47.606 26.7885 47.8536 26.0756 48.0954 25.3438C48.3605 25.2355 48.6275 25.1336 48.8501 25.0451C49.0052 24.7346 49.1274 24.4757 49.2535 24.2295C49.3826 24.2665 49.4576 24.2852 49.5866 24.3222C49.4596 24.839 49.3282 25.3641 49.2061 25.8516C49.3222 26.142 49.4189 26.369 49.5035 26.5789C49.5283 27.4584 49.3973 28.2813 49.0471 29.0669C48.8417 29.5313 48.7528 30.0365 48.7769 30.5489C48.7777 30.5972 48.8687 30.6457 48.928 30.704C49.1264 30.1031 49.3332 29.5066 49.5171 28.9033C49.6915 28.3374 49.8743 27.776 49.9966 27.1982C50.1284 26.583 50.2017 25.9578 50.2904 25.3834C50.5257 24.9723 50.7327 24.6044 50.9239 24.276C50.9508 23.9768 50.9638 23.7234 50.9998 23.4768C51.0432 23.1864 51.1158 22.901 51.187 22.5883C51.1218 22.123 50.8387 21.6478 51.1037 21.1515C51.3462 21.4935 51.6848 21.6955 52.1558 21.8087C52.3749 21.6174 52.6198 21.3974 52.8344 21.2143C52.9225 20.8203 53.0046 20.4973 53.0946 20.1096C53.8966 19.2144 54.4689 18.0425 55.6371 17.4171C55.8158 17.3212 55.9549 17.1403 56.1055 16.9975C56.3808 16.7406 56.63 16.4431 56.9378 16.2248C57.8594 15.5635 58.7636 14.8451 60.008 14.9034C60.2043 15.0932 60.4006 15.283 60.5561 15.4297C61.3019 15.1476 61.9672 14.8968 62.5221 14.6935C63.1153 14.7072 63.5783 14.7258 63.9556 14.7358C64.4241 14.8637 64.7032 15.0976 64.9273 15.4245C65.2644 15.918 65.5083 16.4467 65.6501 17.0273C65.7713 17.5172 65.8989 18.005 66.0071 18.4295C66.36 18.7242 66.6492 18.9689 66.9283 19.2028C67.0666 19.5211 67.1992 19.8204 67.3292 20.1343C67.4357 20.0742 67.508 20.0384 67.6037 19.9885C67.6613 19.0839 67.7151 18.1667 67.7816 17.2456C67.7877 17.1744 67.863 17.103 67.9154 17.0247C68.0691 17.0057 68.2353 16.9829 68.3972 16.9684C68.5528 16.9557 68.7122 16.9558 68.8341 16.9464C68.9209 17.0725 68.9885 17.1351 69.0116 17.2112C69.3232 18.35 69.6265 19.4845 69.9317 20.6252C69.9567 20.7077 69.9837 20.7965 69.9713 20.8696C69.8527 21.6194 70.2088 22.2665 70.362 22.8159C70.3701 23.4579 70.3313 23.9687 70.3915 24.4632C70.4953 25.2147 70.6707 25.9514 70.8081 26.6997C70.8871 27.1192 71.0023 27.5207 71.2892 27.8493C71.5762 28.1778 71.7231 28.5698 71.7894 28.9931C71.8934 29.6545 71.9994 30.3222 72.0717 30.9932C72.1204 31.4496 72.0974 31.9209 72.146 32.3774C72.2651 33.4985 72.2446 34.662 72.8461 35.5464C72.8641 36.1299 72.8728 36.5916 72.8878 37.0513L72.9068 37.0456C72.7338 38.3456 73.085 39.5693 73.4045 40.8027C73.2594 41.7616 73.4723 42.667 73.8052 43.5568C73.8664 43.462 73.9506 43.3741 73.9743 43.2698C74.1798 42.3273 74.377 41.3802 74.5596 40.4308C74.6008 40.2242 74.5771 40.0097 74.5764 39.802C74.5752 39.2965 74.5529 38.7904 74.5664 38.2874C74.603 36.5161 74.5134 34.7623 74.1381 33.0261C73.9649 32.2056 73.8551 31.3658 73.7473 30.5323C73.599 29.4062 73.4717 28.2807 73.338 27.1571C73.3275 27.0772 73.2708 27.0044 73.2292 26.9131C73.0921 26.7815 72.943 26.6328 72.8385 26.5398C72.482 25.276 72.2209 24.0526 72.1364 22.817C72.2492 22.755 72.3151 22.7211 72.4279 22.6591C72.7336 23.2314 72.8539 23.8324 72.8474 24.472C72.8496 24.5475 72.9191 24.6165 72.9568 24.6951C73.128 24.8024 73.3056 24.9078 73.4603 25.0063C73.8213 25.7836 73.7347 26.593 73.759 27.3341C73.9093 27.6002 74.0314 27.8195 74.0774 27.9026C74.213 28.3257 73.9385 28.6308 74.2519 28.9098C74.3355 28.8428 74.4128 28.7777 74.5071 28.7005C74.4868 28.5196 74.4639 28.3533 74.4474 28.1851C74.4257 27.9769 74.3976 27.7705 74.3969 27.5629C74.3999 27.5273 74.5141 27.4926 74.6611 27.4063C74.9294 28.5167 75.0763 29.6155 75.0671 30.7479C75.5928 30.5395 75.2516 29.9642 75.6513 29.6833C75.722 30.2577 75.7748 30.7961 75.8612 31.3311C76.0002 32.1759 76.0399 32.2609 76.3974 32.7759C76.5966 32.5421 76.4229 32.29 76.4189 32.0486C76.4057 31.7546 76.3862 31.4626 76.3733 31.2378C76.5373 30.9108 76.6187 30.6088 77.0134 30.5166C77.6187 32.2799 77.8134 34.1056 77.9659 35.861C77.7581 36.34 77.5989 36.728 77.4156 37.151C77.4381 37.4075 77.462 37.6912 77.4826 37.9414C77.6875 38.0454 77.8281 38.1205 77.9687 38.1955C78.0196 38.7276 78.0672 39.2259 78.1103 39.7325C77.8702 40.2421 77.6306 40.7307 77.4178 41.2389C77.3058 41.5086 77.237 41.8067 77.4692 42.0688C77.6906 42.1816 77.9037 42.2901 78.1334 42.4074C78.1513 42.6029 78.1888 42.7717 78.1824 42.933C78.1368 43.8547 78.0932 44.7827 78.0204 45.7057C77.9584 46.4591 77.8481 47.2134 78.0293 47.9691C78.0693 48.1233 78.0496 48.3094 78.0223 48.4702C77.9109 49.1069 77.9323 49.7242 78.25 50.3136C78.3261 50.4499 78.3147 50.6404 78.3312 50.8087C78.3631 51.1871 78.3804 51.5629 78.4048 51.9852C78.3388 52.1785 78.2678 52.401 78.1905 52.6255L78.1467 52.6181L78.1748 52.6649L78.1988 52.6299C78.1847 52.9253 78.1369 53.224 78.169 53.5122C78.3085 54.6548 78.1234 55.7783 78.0287 56.9713C77.5368 57.5643 77.5288 58.336 77.5925 59.0927C77.6271 59.5257 77.6038 59.9278 77.5069 60.3384C77.4787 60.451 77.511 60.5798 77.5217 60.729C77.6312 60.7927 77.7299 60.8666 77.8424 60.8948C77.911 60.9155 78.0004 60.8676 78.0867 60.8552C78.2931 60.6677 78.4931 60.4821 78.6994 60.2947C78.5107 61.3153 78.2636 62.326 78.1461 63.3527C77.9984 64.645 77.6099 65.9203 77.7843 67.2464C77.8 67.3663 77.7878 67.5087 77.7451 67.6187C77.545 68.123 77.7456 68.6234 77.7029 69.1214C77.6041 69.5257 77.5593 69.9482 77.4604 70.3524C77.4016 70.5921 77.2906 70.8198 77.1612 71.0324C77.0602 71.2017 76.8926 71.1973 76.763 71.0218C76.775 70.6509 76.8441 70.2626 76.7843 69.9066C76.7089 69.4305 76.7562 68.9934 76.9089 68.5382C77.0591 68.0975 77.1946 67.6544 77.2926 67.2018C77.3664 66.8745 77.3963 66.5397 77.4135 66.2088C77.4176 66.1313 77.3024 66.0485 77.2131 65.9371C76.8504 66.6363 76.5378 67.2719 76.491 68.0069C76.4793 68.1282 76.4423 68.2573 76.3932 68.3692C76.1216 68.9576 76.1278 69.5933 76.0628 70.2229C75.9798 70.9758 75.8759 71.7281 75.7115 72.4641C75.4248 73.7778 74.9901 75.0604 74.9274 76.1536C74.6825 76.921 74.4698 77.4292 74.3612 77.9612C74.2209 78.6622 74.1892 79.3787 74.0781 80.0846C74.0253 80.4125 73.9306 80.7393 73.8194 81.0572C73.4448 82.1274 73.2407 83.2567 72.7268 84.2792C72.7092 84.3123 72.7099 84.3605 72.7025 84.4044C72.5779 85.0659 72.1742 85.6529 72.2206 86.3526C72.228 86.4682 72.1326 86.5873 72.0936 86.71C71.8869 87.3065 71.6801 87.9029 71.4817 88.5038C71.3649 88.8719 71.201 89.199 70.9353 89.4876C70.1143 90.3886 69.5296 91.4742 68.7003 92.3708C68.5339 92.553 68.437 92.8042 68.3324 93.0301C68.0854 93.5625 67.855 94.1038 67.5357 94.8315C67.2653 95.9255 66.9841 96.4822 66.2389 97.2908C66.1372 97.2525 66.0012 97.2384 65.9171 97.1669C65.5929 96.8982 65.299 96.5925 65.1058 96.2078C65.0361 96.0696 64.9068 95.9633 64.8315 95.8753C64.3406 95.879 64.0904 96.2184 63.7409 96.3455C63.4295 96.4609 63.1065 96.5383 62.827 96.3253C62.8059 95.9367 63.0665 95.8367 63.291 95.7546C63.6829 95.6077 64.0884 95.5053 64.4563 95.3934C64.6503 95.1196 64.5789 94.8849 64.4847 94.6433C64.1584 93.8208 63.8849 92.9892 63.7616 92.105C63.7198 91.7851 63.7645 91.522 64.0152 91.321C64.603 91.0661 65.1864 90.8195 65.7552 90.5703C65.8738 90.368 65.9792 90.1904 66.043 90.0809C66.0426 89.6237 65.68 89.2973 65.9369 88.8658L66.5776 88.671C66.757 88.2353 67.1145 87.8841 67.4886 87.5417C67.7937 87.2688 68.0624 86.9445 68.1244 86.5099C67.8077 86.5854 67.4911 86.6608 67.1706 86.7236C67.1199 86.739 67.0446 86.6511 66.9497 86.5898C67.1117 86.2564 67.2883 85.9255 67.4319 85.577C67.5999 85.1725 67.6003 84.9229 67.4957 84.4419C67.0286 84.8888 66.928 85.5153 66.4974 86.0135C66.3264 86.1348 66.0869 86.3046 65.8646 86.4623C65.696 86.7284 65.5426 86.976 65.4043 87.2051L64.7446 87.4057C64.4752 87.2034 64.2078 87.0075 63.9753 86.8357C63.7499 86.3221 63.7768 85.8635 64.0229 85.4421C64.2804 84.9897 64.4126 84.5129 64.487 84.0052C64.4925 83.955 64.4021 83.8854 64.3536 83.817C63.9666 84.0941 63.7712 84.5 63.5631 84.9097C63.3393 85.3589 63.1069 85.8938 62.6179 86.0633C61.9322 86.2925 61.4563 86.9154 60.7464 86.951C60.5519 87.2458 60.3902 87.4889 60.2569 87.6888C60.1116 87.7122 60.0316 87.7227 59.9453 87.7351C59.5523 87.7645 59.6203 87.0993 59.1178 87.2243C59.0706 87.3426 59.0058 87.494 58.9409 87.6454C59.1575 88.1756 59.3517 88.6778 59.7413 89.093C59.9574 89.3253 59.9915 89.6198 59.9683 89.7031C59.6071 90.4297 59.3499 90.9514 59.1369 91.3904C59.1681 91.9491 59.1915 92.4133 59.2197 92.8482C59.6782 93.3533 60.1201 93.8496 60.6762 94.4705C61.0203 94.6223 61.5934 94.6838 62.019 95.2404C62.0675 95.4682 62.1302 95.7887 62.1969 96.1219C62.0507 96.2564 61.9323 96.3686 61.8032 96.491C61.6176 96.4504 61.4436 96.4479 61.2986 96.3811C60.8736 96.1915 60.4619 95.9771 60.0478 95.7773C59.9752 95.7439 59.8851 95.7436 59.8018 95.7204C59.5613 95.7727 59.3145 95.827 59.0676 95.8812C58.6877 95.6572 58.3242 95.4419 57.971 95.2375C56.9419 94.9751 55.9053 94.7567 55.0933 94.1373C54.6179 94.0323 54.2028 93.9437 53.7713 93.8462C53.1286 93.1684 52.268 92.7994 51.4612 92.3794C51.0349 92.3219 50.6148 92.2624 50.2972 92.2204C49.8185 91.9224 49.449 91.6189 49.0299 91.4483C48.5153 91.2375 48.0502 90.9839 47.6772 90.5775C47.2651 90.6127 46.8887 90.6509 46.5147 90.6745C46.4392 90.6767 46.3545 90.6262 46.2776 90.6011C46.0791 90.3357 45.887 90.0684 45.6846 89.7904C45.3421 89.7351 45.0186 89.6741 44.6971 89.6194C44.7549 89.8097 44.8128 90 44.5852 90.2771C43.8303 90.3471 43.1435 89.9114 42.4205 89.6531C41.9322 89.164 41.4555 88.7129 40.815 88.4295C40.2469 88.1794 39.6938 87.8417 39.2287 87.4287C38.8374 87.0764 38.4148 86.803 37.9443 86.6688C37.1491 86.4462 36.4978 86.0136 35.8824 85.4938C35.7181 85.2042 35.5621 84.919 35.4259 84.6762C35.1094 84.5923 34.8614 84.5291 34.6428 84.4708C34.398 84.2126 34.1716 83.9695 33.9472 83.7329C33.2658 83.5658 32.6161 83.3891 32.0104 82.901C31.9062 82.7179 31.7617 82.4707 31.6275 82.2343C31.7503 82.1138 31.8344 82.0259 31.9142 81.9462C31.8847 81.872 31.8684 81.773 31.813 81.7275C31.585 81.5474 31.3418 81.3857 31.1361 81.2334C30.846 81.2592 30.5978 81.2861 30.3413 81.3087C29.6187 80.6413 28.8949 80.0159 28.4851 79.101C28.3743 78.8505 28.1127 78.6737 27.9679 78.5167C27.6249 78.4824 27.3822 78.4591 27.1605 78.4364C26.9497 77.6065 26.9616 77.5544 27.5611 77.0188C27.142 76.5294 26.6019 76.257 26.0032 76.1341C25.8608 76.2814 25.7678 76.3858 25.5951 76.57C25.5313 76.132 25.4812 75.8077 25.4363 75.5234C25.0763 75.023 24.7304 74.546 24.4106 74.1096C24.4639 73.9202 24.4901 73.8013 24.5291 73.6786C24.0554 73.3514 23.5797 73.0178 23.1143 72.695C22.8875 72.1541 22.533 71.7629 21.9759 71.5719C21.7826 71.5059 21.5993 71.3815 21.4413 71.2493C21.1584 71.0027 20.9015 70.7274 20.9113 70.2809L21.2412 70.1806C21.0151 69.8474 20.8062 69.502 20.565 69.1873C20.3825 68.9517 20.2698 68.6949 20.2249 68.4106C20.3185 68.2851 20.4304 68.1748 20.3643 67.9801C20.1824 67.5642 19.6694 67.7686 19.3846 67.5156C19.1762 67.3087 18.9316 67.1197 18.7808 66.8745C18.409 66.2669 18.0841 65.6311 17.742 65.0074C17.7324 64.9757 17.7588 64.9261 17.7732 64.8593C17.9566 64.8244 18.1483 64.7938 18.3971 64.7459C18.3051 64.261 18.0413 63.8492 17.6981 63.5863C17.1905 63.1931 16.8418 62.6616 16.3629 62.2944L16.1391 61.5585C16.2829 61.4385 16.4905 61.4378 16.5154 61.1323C16.4923 61.0561 16.4549 60.8873 16.3724 60.753C15.9342 60.0408 15.3938 59.3804 15.3696 58.4799C15.3641 58.3707 15.2475 58.2606 15.1918 58.1459C15.0005 57.7675 14.8175 57.3934 14.6345 57.0194C14.7364 56.2908 14.6728 55.504 14.4436 54.6589C14.3767 54.4159 14.3478 54.1614 14.3081 53.917C14.2209 53.3337 14.142 52.7548 14.0506 52.0896C14.048 51.7162 14.0539 51.257 14.0516 50.7934C14.0511 50.4956 14.017 50.201 14.0458 49.9081C14.1758 48.6489 14.4145 47.4052 14.7281 46.1803C14.824 45.8116 14.9573 45.4523 15.2577 45.1184C15.5126 44.9993 15.8163 44.8585 16.0306 44.7656C16.288 44.4726 16.1284 44.0845 16.5254 43.9084C16.6321 43.9175 16.7998 43.922 16.9625 43.9557C17.9616 44.1648 18.8563 44.6689 19.79 45.0503C20.4413 45.3236 21.0209 45.7711 21.6898 46.1706C22.5062 46.0749 23.1878 46.4706 23.8134 47.0012C24.2975 47.4084 24.7469 47.8608 25.2746 48.2063C26.7255 49.172 27.9366 50.3977 29.1693 51.603C29.4453 51.8725 29.7262 52.1128 30.085 52.2671C30.1969 52.3162 30.2931 52.4047 30.3797 52.4616C30.6292 52.7807 30.8646 53.0765 31.0656 53.3272C31.4348 53.5615 31.7607 53.7673 32.0287 53.9423C32.6664 54.6493 33.1695 55.3695 33.5037 56.1272C33.8969 56.4859 34.2517 56.7869 34.5743 57.1185C34.9275 57.4823 35.2483 57.8768 35.5888 58.2445C36.8531 59.5996 38.0377 61.0343 39.6386 62.0376C40.1625 62.3703 40.5854 62.8724 41.034 63.2766C41.1012 63.5888 41.167 63.8737 41.2212 64.1205C41.6645 64.6441 42.0563 65.1349 42.4841 65.6077C42.9203 66.0849 43.2588 66.6057 43.4541 67.2255C43.4772 67.3016 43.5448 67.3642 43.6156 67.4605C43.8365 67.5943 44.0904 67.7458 44.2763 67.8557C44.687 68.3406 44.9365 68.8192 45.0858 69.3559C45.1706 69.635 45.2891 69.9108 45.393 70.1842C45.7882 71.256 46.1687 72.3254 46.5765 73.3933C46.7234 73.7853 46.8868 74.186 47.1211 74.5237C47.8546 75.5689 48.1184 76.8469 48.8266 77.8998C48.8751 77.9682 48.8875 78.0546 48.8999 78.1409C48.9797 78.6086 49.244 78.9995 49.4766 79.4C50.2123 80.6801 50.8313 82.0096 51.3408 83.4348C51.6576 83.5879 51.9993 83.7544 52.2436 83.8741C52.8108 83.9165 53.2683 83.9853 53.7281 83.9703C54.2278 83.95 54.7215 83.8416 55.0795 83.7882C55.5453 83.8614 55.6196 84.3793 56.0313 84.275C56.1456 84.0808 56.2446 83.9052 56.3677 83.6945C56.6642 83.6668 56.9463 83.7057 57.2526 83.9383C57.4084 84.1543 57.6024 84.4279 57.7518 84.6459C58.4194 85.0181 59.0513 84.8399 59.5959 84.7852C59.9564 84.8766 60.2355 84.9512 60.4147 84.9937C61.0722 84.877 61.2133 84.3836 61.5047 83.9971C61.5569 83.6901 61.616 83.3603 61.6671 83.0953L61.2795 81.8202C61.3286 81.7083 61.3675 81.5855 61.4332 81.4824C61.6106 81.1998 61.8065 80.9323 61.979 80.6789C62.0207 80.292 61.8691 79.9986 61.6902 79.7065C61.443 79.3035 60.9314 79.3758 60.6345 79.1057C60.5419 78.8012 60.4868 78.5061 60.3659 78.2449C60.2449 77.9837 60.0497 77.752 59.9284 77.581C59.7611 77.1675 59.9786 76.7202 59.519 76.4165C59.3286 76.4743 59.1066 76.5418 58.8782 76.6112C58.8529 76.619 58.8146 76.5613 58.7693 76.5266C58.7653 76.2852 58.7656 76.0356 58.7632 75.7315C58.3702 74.8946 57.9701 74.0114 57.5382 73.1378C57.3731 72.8 57.1724 72.459 56.9111 72.192C56.5331 71.8149 56.3675 71.3385 56.1594 70.882C56.0781 70.7058 56.1135 70.4802 56.0962 70.2637C56.7651 69.9564 57.3734 70.2705 57.9431 70.2982C58.2184 70.2007 58.4493 70.1166 58.6186 70.0582C59.136 70.1643 59.4883 70.6393 60.0808 70.2859C60.3323 70.1332 60.3165 69.6253 60.7727 69.5074C61.0087 69.6227 61.2651 69.7596 61.531 69.8589C61.8051 69.9627 62.0841 70.0373 62.3671 70.1245C62.6873 69.9925 62.9841 69.8746 63.2789 69.7503C63.5243 69.9875 63.7288 70.1818 63.9213 70.3589L64.2956 70.2451C64.6024 69.9093 64.8851 69.6085 64.9673 69.5142C65.4057 69.2008 65.7352 69.3501 65.8919 68.9767C65.8906 68.79 65.91 68.5346 65.864 68.2922C65.8296 68.0879 65.7299 67.8964 65.669 67.7417C65.4236 67.5044 65.2171 67.3039 65.0291 67.1185C65.0471 66.8358 65.062 66.5887 65.082 66.3124C64.2931 65.9285 63.9012 65.2091 63.462 64.6081C63.0598 64.3561 62.7007 64.1327 62.3519 63.9199C62.176 63.911 62.0083 63.9066 61.7822 63.8921C61.4773 63.5275 61.1241 63.1636 60.8457 62.7493C60.5494 62.2988 60.3278 61.7979 60.0963 61.3555C59.9157 61.2857 59.7999 61.2238 59.681 61.1976C59.5183 61.1639 59.355 61.1512 59.1752 61.1296C58.5288 60.2797 57.8925 59.4406 57.25 58.6033C56.8384 58.0701 56.4331 57.535 56.0045 57.0139C55.3908 56.2718 54.5435 55.7186 54.1293 54.812C53.5561 54.3625 53.1931 53.7383 52.7294 53.1932C52.339 52.7298 52.0311 52.2412 51.8512 51.6722C51.6765 51.1432 51.4017 50.6724 51.0124 50.3264C50.6046 50.1247 50.2298 49.9406 49.8157 49.7408C49.6945 49.251 49.5816 48.7656 49.47 48.3075C49.3448 48.2831 49.2718 48.2707 49.1631 48.2553C49.1589 48.4921 49.1547 48.7291 49.1546 49.0479C48.8725 48.8495 48.7587 48.6346 48.6683 48.4057C48.3222 47.5407 47.8291 46.762 47.3384 45.9687C47.0509 45.5017 46.8059 45.0149 46.616 44.6637C46.5371 43.9254 46.4689 43.3363 46.3966 42.6653C46.6496 42.2211 46.6045 41.7081 46.3651 41.1711C46.2005 40.8122 46.1571 40.3958 46.0668 40.0075C46.0157 40.1131 45.9456 40.2244 45.9428 40.3292C45.9373 41.0863 45.808 41.8463 45.9746 42.5995C45.9972 42.6966 45.9101 42.8201 45.8717 42.9219C45.6861 42.8813 45.5297 42.8457 45.3588 42.8075C45.1997 43.4241 45.1995 44.0618 44.9997 44.6354C44.7324 44.6681 44.5877 44.3517 44.2812 44.5973C44.242 44.8102 44.205 45.0987 44.1285 45.3714C44.1053 45.4547 43.9842 45.5123 43.8576 45.6201C43.6718 45.1915 43.5098 44.818 43.3497 44.4509C43.1331 44.787 43.4184 45.1784 43.2854 45.4475C43.1085 45.8686 42.9547 46.2064 42.7213 46.4644C42.1825 46.3788 42.4234 45.7581 42.0222 45.6236C41.8722 45.7455 41.7177 45.8756 41.5182 46.0402C41.064 45.2982 40.6257 44.5859 40.1753 43.8566C40.0198 43.8693 39.8223 43.8808 39.5722 43.9014C39.4369 43.5475 39.3098 43.198 39.1668 42.8188C38.673 42.5393 38.1626 42.2509 37.6089 41.9342C37.2478 41.4757 36.927 40.9218 36.3548 40.5899C35.7763 40.2598 35.3399 39.7134 34.6748 39.4859C34.4046 39.3948 34.1777 39.1727 33.9389 39.0027C33.6237 38.7867 33.3257 38.5586 33.008 38.3571C32.6203 38.1077 32.2068 37.8869 31.8235 37.6292C30.9519 37.0418 30.0892 36.4378 29.222 35.8421C28.9788 35.6804 28.7354 35.4495 28.4641 35.4004C27.6836 35.2495 27.09 34.7786 26.4567 34.3821C25.9407 34.3033 25.4457 34.2251 24.9443 34.1488C24.2758 34.0471 23.6107 33.9791 22.9355 34.1289C22.6569 34.1928 22.3506 34.1196 22.12 34.1135C21.8413 33.9487 21.6267 33.813 21.3645 33.6571C20.944 33.6186 20.4884 33.5561 20.0273 33.5439C19.8723 33.5355 19.6936 33.6314 19.7732 33.8706C20.0905 34.1622 20.7263 33.8372 20.9484 34.4766C20.7258 34.565 20.533 34.6375 20.3402 34.71C20.1049 34.8023 19.876 34.8927 19.6026 34.9965C19.3178 35.6098 18.7987 36.0448 18.3082 36.5058C17.6329 37.1338 16.8938 37.7119 16.3983 38.5209C16.2512 38.7665 16.0316 38.9788 15.6869 39.0074C15.6848 38.7724 15.6846 38.5438 15.6805 38.3025C15.5285 38.2586 15.4078 38.226 15.3245 38.2028C14.9083 38.3155 14.6693 38.7832 14.1341 38.641C14.3571 37.8247 15.1518 37.5208 15.5053 36.9282C15.8685 36.7554 16.1722 36.6146 16.4334 36.4936C16.6745 36.2609 16.9018 36.074 17.0902 35.8504C17.3046 35.5981 17.482 35.3155 17.6539 35.0831C18.1127 34.7912 18.6741 34.8145 19.0714 34.3888C18.9752 34.3003 18.8928 34.1659 18.8007 34.1593C18.4697 34.1421 18.1159 34.118 17.7993 34.1935C17.4655 34.281 17.1586 34.2288 16.8498 34.1703C16.7862 34.5083 16.7188 34.8337 16.6658 35.0924C16.1198 35.6673 15.3697 35.6389 14.8059 36.0182C14.1331 36.4722 13.7847 36.7167 13.2442 37.4007C13.241 37.9145 13.7566 37.536 13.9107 37.8149C13.8692 38.271 13.3611 38.2869 13.1539 38.5855C13.1343 38.6122 13.0753 38.6232 13.0354 38.6285C12.9954 38.6337 12.9496 38.6199 12.914 38.6169C12.6437 38.5258 12.7967 37.9803 12.2967 38.0907C11.9469 38.4673 11.8347 39.0558 11.3685 39.3916C10.8916 39.7376 10.4268 40.1006 9.9752 40.4388C9.27562 41.8989 8.74682 44.0347 8.86152 45.0047C8.97697 45.3161 9.10397 45.6655 9.2175 45.9706C9.2207 46.323 9.21922 46.6145 9.21998 46.8222C9.40654 47.2991 9.56608 47.6872 9.71544 48.0645C9.66484 48.4679 9.61289 48.8441 9.57833 49.118C9.68536 49.9031 9.99872 50.5009 10.3162 51.1805C10.2951 51.4988 10.2769 51.8716 10.2459 52.2483C10.1858 53.0081 10.1091 53.759 10.3513 54.5101C10.4111 54.7067 10.4157 54.9271 10.4437 55.1334C10.5538 55.883 10.6176 56.6398 10.772 57.3759C11.0427 58.6311 11.1552 58.8186 11.8278 59.7091C11.9128 60.3762 11.9272 61.0163 12.0831 61.6203C12.2487 62.2561 12.1872 62.9885 12.7535 63.4609C12.9722 63.5191 13.168 63.5705 13.2513 63.5937C13.5562 64.1178 13.8409 64.5302 14.047 64.9803C14.2551 65.4368 14.3909 65.9291 14.5391 66.3484C14.6392 66.4496 14.6916 66.5307 14.7578 66.566C15.657 67.0619 16.0629 67.9641 16.5847 68.7688C16.6875 68.9246 16.7569 69.153 16.5354 69.3589C15.9729 69.2181 16.1728 68.3257 15.5267 68.2519C15.3884 68.481 15.4014 68.7058 15.4782 68.8903C15.6378 69.2784 15.7752 69.7078 16.0462 70.0066C16.7994 70.8656 17.4265 71.8115 18.0321 72.7777C18.1427 72.959 18.238 73.1587 18.3897 73.2928C18.9325 73.7791 19.2487 74.4315 19.6737 75.0091C19.8984 75.315 20.0996 75.635 20.2713 75.8808C21.0274 76.4756 21.8088 76.9033 22.3814 77.5331C22.56 77.9154 22.4035 78.358 22.9091 78.7448C23.0376 78.8028 23.3575 78.9204 23.6338 79.0997C23.9101 79.2791 24.1364 79.5221 24.3231 79.6802C24.8084 79.7267 24.8941 79.1878 25.3662 79.2591C25.4707 79.3521 25.6395 79.474 25.7803 79.6183C25.8925 79.7367 25.9851 79.8817 26.0714 80.0288C26.4234 80.594 27.0046 80.9786 27.32 81.5827C27.4217 81.7804 27.7755 81.8046 27.8281 82.1143C27.8453 82.4902 27.3604 82.5821 27.3118 82.9919C27.3247 83.0573 27.3423 83.1836 27.3663 83.308C27.9034 83.7753 28.436 84.251 28.9839 84.7081C29.0495 84.7644 29.1847 84.7302 29.346 84.7366C28.9438 84.1659 28.5818 83.6592 28.2433 83.1384C28.1929 83.0636 28.2362 82.9326 28.2399 82.7167C28.5349 82.9805 28.7306 83.1912 28.9611 83.3568C29.2349 83.5507 29.5327 83.7097 29.8363 83.8877C29.9716 84.2415 30.0986 84.591 30.216 84.9087C30.433 85.0298 30.6087 85.1289 30.8257 85.2501C30.7859 85.4839 30.7574 85.6866 30.7143 85.8868C30.6781 86.0641 30.8879 86.2983 30.4739 86.4866C30.4058 86.4449 30.274 86.3533 30.2142 86.316C30.0637 85.9807 29.9689 85.76 29.8799 85.5584C29.5013 85.521 29.3788 85.7107 29.3387 86.0348C29.4638 86.2185 29.6011 86.4193 29.7422 86.6328C29.8814 86.8399 30.0079 87.051 30.1408 87.2601C30.3391 87.2968 30.4999 87.3241 30.5685 87.3449C30.9442 87.2584 31.0519 86.8376 31.4862 86.9897C32.1557 88.0751 33.3596 88.5476 34.4091 89.1503C34.8717 89.5779 35.2993 89.9815 35.7065 90.3636C36.1695 90.5416 36.6702 90.2508 37.1383 90.6282C37.3065 90.9306 37.5021 91.3007 37.724 91.7114C38.1153 91.9043 38.525 92.1124 38.9825 92.3406C39.0855 92.5657 39.166 92.8531 39.3339 93.0862C39.528 93.3598 39.7841 93.5869 39.9351 93.7419C40.3128 94.3686 40.2444 95.124 40.9829 95.4331C41.3508 95.3212 41.7628 95.2861 42.1806 95.4293C42.2118 95.4407 42.2838 95.3356 42.3464 95.268C41.8201 94.7905 41.5627 94.0579 40.8734 93.7962L40.7596 93.422C41.2703 93.4608 41.6571 93.8214 42.1187 93.9721C42.1874 93.9928 42.2743 93.9594 42.3562 93.9553C42.4517 93.8362 42.5535 93.7152 42.649 93.5961C43.2336 93.6955 43.6535 94.0738 44.1288 94.3381C44.3541 94.4637 44.5717 94.5639 44.8359 94.5667C45.1762 94.7058 45.5253 94.8284 45.6487 95.2344C45.6699 95.3041 45.634 95.3913 45.6185 95.4999C45.5228 95.5498 45.4125 95.5972 45.3592 95.6273C44.7528 95.6384 44.4764 95.071 43.9882 94.9699C43.9168 95.054 43.8605 95.1196 43.7979 95.1872L44.0062 95.8723C43.9242 96.0358 43.8574 96.1808 43.7755 96.3443C44.2495 96.5814 44.6986 96.8052 45.1395 97.0246C45.4832 97.0379 45.8122 97.0488 46.1139 97.061C46.2229 96.8269 46.0112 96.5864 46.2564 96.4356C46.8561 96.676 46.9639 96.8026 47.4622 97.7807C47.3938 97.9886 47.0736 98.1206 47.1954 98.4301C47.5416 98.9762 48.2053 99.1764 48.6946 99.783C49.2908 100.946 50.2935 101.965 51.2598 102.932C51.3187 103.24 51.3647 103.483 51.4087 103.719C52.1122 103.844 52.5528 104.313 53.0185 104.705C53.2416 104.755 53.4506 104.782 53.6459 104.854C54.4726 105.157 55.3081 105.444 56.1146 105.795C56.6413 106.023 57.1498 106.145 57.705 106.011C58.2202 105.882 58.7001 105.979 59.1884 106.149C59.8224 106.365 60.466 106.613 61.1218 106.719C61.8652 106.839 62.5957 107.054 63.3845 107.05C63.5588 106.803 63.7225 106.566 63.8728 106.354C64.115 106.239 64.3337 106.137 64.5461 106.038C64.4794 105.864 64.432 105.754 64.3731 105.606C64.5129 105.473 64.6655 105.337 64.801 105.212C65.5067 105.254 66.0087 105.698 66.6077 105.89C66.7991 105.949 66.9761 106.076 67.1341 106.208C67.3411 106.387 67.5504 106.483 67.8397 106.409C68.048 106.228 68.269 106.043 68.4513 105.891C69.2208 105.823 69.9273 105.754 70.6422 105.689L70.6783 105.671ZM60.5342 5.30484C60.2135 5.2984 59.8869 5.2729 59.6072 4.83128C60.1139 4.62874 60.4564 4.68401 60.7855 5.0829C60.6824 5.17663 60.6054 5.3109 60.5361 5.31115L60.5342 5.30484ZM62.2813 6.33297C62.1676 6.34673 62.0369 6.2132 62.0792 6.12413C62.0924 6.09932 62.1349 6.07946 62.197 6.03287C62.2493 6.11397 62.3081 6.19312 62.3604 6.27422C62.3604 6.27422 62.3149 6.32968 62.2813 6.33297ZM54.1686 13.0195C54.7812 12.436 55.3828 12.1052 55.9736 12.0273C56.0176 12.4228 55.7109 12.5992 55.4913 12.8115C55.2805 13.0072 55.0513 13.1878 54.8303 13.3727C54.5815 13.58 54.3327 13.7874 53.9788 14.0821C53.8849 13.5909 54.0559 13.3102 54.1749 13.0176L54.1686 13.0195ZM51.7419 14.7482C51.512 14.4023 51.589 14.268 52.232 13.83C52.3514 13.9947 52.4707 14.1594 52.6246 14.369C52.5749 14.5019 52.5227 14.6494 52.4302 14.8924C52.0985 14.8269 51.8983 14.7838 51.7502 14.7526L51.7419 14.7482ZM48.2279 24.07L48.1959 24.1698L48.1353 24.0843L48.2216 24.0719L48.2279 24.07ZM48.7927 23.2607C48.7246 22.9303 48.8389 22.5237 49.1356 22.0408C49.2438 22.6246 48.9793 22.8714 48.7927 23.2607ZM51.9069 20.7617C51.8633 20.8235 51.8216 20.8916 51.778 20.9534C51.7449 20.9357 51.6845 20.9194 51.687 20.9048C51.6995 20.8317 51.7201 20.7631 51.7389 20.6881C51.7949 20.7126 51.8509 20.7372 51.9005 20.7637L51.9069 20.7617ZM55.6875 15.0526C55.6875 15.0526 55.6897 15.1281 55.6833 15.1301C55.658 15.1378 55.6224 15.1347 55.5931 15.1297C55.5918 15.1024 55.5909 15.0542 55.5973 15.0522C55.6227 15.0445 55.6602 15.0539 55.6938 15.0506L55.6875 15.0526ZM56.9304 14.2173C56.8918 14.2498 56.8532 14.2824 56.8063 14.3105C56.8201 14.2647 56.8339 14.219 56.8541 14.1713C56.8789 14.1845 56.9037 14.1977 56.9304 14.2173ZM50.3292 18.6496C50.1683 18.941 49.9578 19.206 49.7639 19.4798C49.7443 19.5065 49.6877 19.5029 49.6053 19.528C49.4065 19.1934 49.5087 18.8228 49.4928 18.4742C49.3568 18.6195 49.2271 18.7628 49.0652 18.9368C48.857 18.7991 48.6902 18.6835 48.4884 18.5439C48.4009 18.5982 48.3008 18.6563 48.2026 18.7208C48.1342 18.7694 48.074 18.8223 48.0076 18.8772C47.9673 18.8132 47.8852 18.7481 47.8971 18.6959C47.9562 18.3661 48.0299 18.0388 48.1073 17.6549C48.5046 17.0698 48.9259 16.4497 49.4777 15.8939C49.9605 16.1144 49.9134 16.7801 50.4117 16.892C50.6169 16.9059 50.7396 16.7854 50.7943 16.6233C50.8898 16.3447 50.9478 16.0568 51.0204 15.7714C51.0483 15.7491 51.0767 15.7058 51.1148 15.6942C51.3939 15.6094 51.673 15.5245 52.0029 15.4242C52.0318 15.5194 52.0996 15.6512 52.0682 15.7301C51.9164 16.0742 51.799 16.4633 51.5548 16.7316C51.0362 17.3051 50.6932 17.9776 50.3273 18.6432L50.3292 18.6496ZM73.2494 38.5145L73.1821 38.5211L73.2072 38.4442L73.2558 38.5126L73.2494 38.5145ZM73.1621 37.3837C72.9663 37.3324 72.9561 37.1622 72.9137 37.0226L73.2118 36.932C73.3326 37.124 73.2829 37.2569 73.1557 37.3857L73.1621 37.3837ZM75.6561 28.3997C75.6561 28.3997 75.6368 28.3363 75.6272 28.3046C75.671 28.3121 75.7129 28.3132 75.7568 28.3206C75.7455 28.3518 75.7424 28.3874 75.7311 28.4185C75.7019 28.4135 75.6619 28.4188 75.6498 28.4017L75.6561 28.3997ZM79.4905 39.9643C79.6422 40.0984 79.7367 40.2499 79.6765 40.4622C79.4868 40.3397 79.4747 40.1632 79.4905 39.9643ZM83.4494 41.817C83.0925 41.669 83.0843 41.6646 83.2777 41.2524C83.5576 41.3752 83.5501 41.5785 83.4494 41.817ZM79.872 43.2025C79.84 43.1429 79.8632 43.0596 79.8544 42.9168C79.9634 43.0015 80.0587 43.0417 80.1092 43.1165C80.1334 43.1507 80.0639 43.2411 80.0349 43.3054C79.977 43.2745 79.8938 43.2513 79.872 43.2025ZM81.2594 42.455C81.2929 42.223 81.2582 41.9495 81.4996 41.786C81.5346 41.81 81.595 41.8263 81.6027 41.8517C81.6255 42.1774 81.4709 42.4669 81.4247 43.0215C81.3206 42.6789 81.242 42.5573 81.2594 42.455ZM81.4832 44.6045C81.3109 44.5391 81.2596 44.4161 81.367 44.2449C81.5586 44.2143 81.6612 44.301 81.6498 44.4915C81.6487 44.5334 81.5227 44.6202 81.4832 44.6045ZM81.0858 47.2409C81.1286 47.1309 81.1421 47.0159 81.2046 46.7197C81.4504 47.2548 81.3513 47.5899 81.4121 47.904C81.4342 48.0221 81.4283 48.1624 81.3855 48.2724C81.3295 48.4073 81.236 48.5327 81.1488 48.6563C81.1363 48.1819 80.8863 47.7243 81.0858 47.2409ZM81.1524 48.7591C81.2006 48.9177 81.2278 49.0758 81.1712 49.2316C81.1649 49.0741 81.1586 48.9166 81.1524 48.7591ZM81.1174 52.9069C81.0903 53.1369 81.0632 53.3669 81.0305 53.6471C80.7449 53.3459 80.8018 53.0999 81.1174 52.9069ZM82.1674 55.9279C82.3144 56.001 82.2294 56.0407 82.1757 56.0917C82.1729 56.0371 82.1702 55.9825 82.1674 55.9279ZM78.6582 58.2213C78.6643 58.1502 78.7434 58.0914 78.7851 58.0233C79.0006 58.436 79.0045 58.4487 78.5831 59.2282C78.6047 58.889 78.6219 58.5581 78.6518 58.2233L78.6582 58.2213ZM78.5692 59.4334L78.6818 60.1684C78.5622 59.9345 78.5352 59.6863 78.5692 59.4334ZM81.2881 59.8057C81.4219 59.7443 81.56 59.6745 81.7002 59.6111C81.595 59.8579 81.4816 60.1003 81.3764 60.3471C81.0127 60.2221 81.2596 60.0084 81.2881 59.8057ZM79.7919 73.8502C79.6359 73.5649 79.7942 73.4475 79.9443 73.3257C79.9564 73.5022 79.9786 73.6894 79.7919 73.8502ZM79.5785 72.8062C79.5785 72.8062 79.5559 72.8686 79.5382 72.9017C79.5026 72.8986 79.4582 72.9121 79.4378 72.8906C79.4174 72.869 79.4146 72.8145 79.4279 72.7896C79.4828 72.6967 79.5457 72.6984 79.5785 72.8062ZM78.656 70.1137C78.7536 69.3633 78.8073 68.6055 78.8986 67.857C78.9644 67.2757 79.0429 66.6905 79.1443 66.1122C79.1791 65.9076 79.287 65.7154 79.5397 65.6802C79.5989 65.7384 79.6963 65.7851 79.7009 65.846C79.732 66.1761 79.7504 66.5101 79.7624 66.846C79.7706 67.0099 79.8114 67.2123 79.7407 67.3446C79.3679 68.0331 79.5227 68.8385 79.2312 69.5439C79.1349 69.7741 79.0838 70.0391 79.0815 70.2824C79.0766 71.0184 78.7633 71.675 78.6065 72.3671C78.5852 72.4568 78.4578 72.5163 78.3678 72.5852C78.3711 71.7526 78.5397 70.9391 78.6516 70.122L78.656 70.1137ZM75.4058 78.1149C75.4062 77.8653 75.3734 77.598 75.4571 77.3716C75.6514 76.8483 75.7117 76.3171 75.7096 75.7633C75.7027 74.92 75.9132 74.1076 76.1498 73.3357C76.4096 73.1874 76.5066 73.3243 76.5314 73.4969C76.5771 73.8295 76.5954 74.1635 76.618 74.42C76.3975 75.6097 76.2182 76.5928 76.0326 77.5778C75.9765 77.8721 75.881 78.1506 75.5652 78.2743C75.5059 78.2161 75.4066 78.1631 75.4039 78.1085L75.4058 78.1149ZM74.2906 81.5585C74.3802 81.4203 74.4351 81.3274 74.492 81.2408C74.661 81.432 74.5647 81.5029 74.2906 81.5585ZM73.9859 84.0212C74.1628 84.3069 74.0433 84.461 73.8571 84.6008C73.7808 84.3953 73.7712 84.2042 73.9859 84.0212ZM73.4507 85.9995C73.645 86.5018 73.6362 86.5183 72.9804 87.279C73.0365 86.8253 73.1073 86.3742 73.4507 85.9995ZM73.3593 90.6911C73.1445 90.8049 72.9252 90.927 72.6571 91.0709C72.6152 90.9104 72.5551 90.8039 72.5706 90.6953C72.5905 90.5784 72.6567 90.4542 72.7306 90.3555C73.5457 89.2069 74.0789 87.9291 74.2796 86.5375C74.3614 85.986 74.6365 85.5004 74.7197 84.9762C74.8078 84.4227 75.041 83.936 75.2309 83.4209C75.2882 82.9253 75.3435 82.4234 75.4051 81.9196C75.5168 81.0332 75.7659 80.1883 76.1605 79.3892C76.6042 78.4782 76.9876 77.5508 77.2488 76.5636C77.3634 76.1199 77.5676 75.6975 77.7446 75.2764C77.7628 75.2223 77.8764 75.2086 77.9487 75.1728C78.2183 75.4442 77.9926 75.7277 77.9644 75.9996C77.9282 76.3363 77.8544 76.6636 77.8245 76.9984C77.7958 77.2913 77.8025 77.5872 77.7911 77.9372C77.3243 78.6127 77.3262 79.4853 77.1221 80.2958C77.002 80.7897 76.8717 81.2728 76.6148 81.7043C76.6191 82.0149 76.6259 82.3108 76.6302 82.6213C76.2732 83.2704 76.1814 84.0398 75.7531 84.6828C75.6439 84.8477 75.625 85.0821 75.5756 85.2842C75.4607 85.8181 75.2893 86.3484 75.2538 86.8928C75.1532 88.3856 74.4744 89.6175 73.5987 90.8401C73.514 90.7896 73.4357 90.7372 73.353 90.693L73.3593 90.6911ZM74.485 91.1112C74.5272 91.0222 74.6419 90.9665 74.7388 90.8746C74.8514 91.4502 74.8009 91.5349 74.1734 91.8643C74.2702 91.613 74.3652 91.3555 74.4786 91.1132L74.485 91.1112ZM74.1595 91.91C74.1595 91.91 74.1576 91.9037 74.162 91.8954L74.1959 91.9614L74.1595 91.91ZM55.277 68.8911C55.1184 69.0987 55.0042 68.9741 54.9621 68.9037C54.7837 68.5906 54.6352 68.2616 54.4739 67.9364C54.9813 68.1009 55.0915 68.5317 55.277 68.8911ZM49.8046 62.128C50.1453 62.5649 50.3548 63.0487 50.2997 63.6199C50.3011 63.6472 50.2376 63.6664 50.1116 63.7533C49.8561 63.1864 49.6384 62.6982 49.4309 62.2208C49.5233 61.9778 49.6891 61.976 49.8046 62.128ZM45.9482 55.324C46.4164 55.8608 47.0097 56.2625 47.5297 56.742C47.6832 56.8824 47.8001 57.0617 47.9686 57.2739C47.9825 57.7755 47.9553 58.3243 48.0144 58.8607C48.0683 59.3572 48.2885 59.8308 48.242 60.3161C48.1882 60.3671 48.1573 60.425 48.1281 60.4201C48.015 60.4129 47.9044 60.391 47.7977 60.3819C47.4859 59.8807 47.423 59.3316 47.2163 58.743C47.057 58.5835 46.8549 58.3747 46.5852 58.1032C46.299 57.2755 45.9896 56.3717 45.6845 55.4596C45.6749 55.4279 45.7033 55.3846 45.719 55.3451C45.799 55.3347 45.9221 55.2834 45.9463 55.3176L45.9482 55.324ZM44.35 54.6941C44.5824 54.866 44.8515 54.999 45.087 55.1353C45.5248 55.7091 45.5657 56.2996 45.3242 56.9412C45.191 56.9817 45.0729 57.0038 44.9714 57.0346C44.5534 56.8221 44.3627 56.4227 44.1411 56.0812C43.9354 55.7695 43.7855 55.4132 43.6629 55.0554C43.5692 54.7929 43.5624 54.4969 43.465 53.9029C43.9155 54.3134 44.1175 54.5222 44.35 54.6941ZM42.076 52.662L42.0541 52.7725L41.9916 52.6807L42.0741 52.6556L42.076 52.662ZM41.6036 51.6552C41.5944 51.7619 41.5536 51.8783 41.4923 51.9731C41.4728 51.9999 41.2872 51.9593 41.2852 51.9529C41.2861 51.8418 41.2997 51.7268 41.3196 51.6098C41.3245 51.5806 41.3835 51.5696 41.4177 51.5454C41.4839 51.5807 41.6022 51.6279 41.6036 51.6552ZM23.4468 41.0766C22.5477 40.4213 21.4535 40.0818 20.4286 39.5826C20.0373 39.3897 19.6319 39.3327 19.2099 39.267C19.0346 39.2371 18.9116 39.129 18.8639 38.9494C19.2817 38.2264 19.4654 38.1013 21.0288 37.5221C21.2767 37.5853 21.5527 37.6955 21.8392 37.7262C22.1321 37.7549 22.4311 37.7126 22.725 37.6994C22.9371 37.6904 23.1492 37.6813 23.3569 37.6806C24.307 37.6828 25.1905 37.8993 25.9832 38.4553C26.6008 38.8912 27.2356 39.315 27.8747 39.7305C28.3324 40.028 28.8293 40.2719 29.2503 40.6083C30.0739 41.2657 30.8671 41.9601 31.6559 42.6628C32.4077 43.3351 33.1248 44.0527 33.8849 44.7294C34.5138 45.2936 35.1427 45.8578 35.7696 46.4156C36.8063 47.3409 37.7759 48.3421 38.7955 49.2795C39.1046 49.5667 39.4092 49.8622 39.7271 50.1328C40.2482 50.5704 40.5062 51.1226 40.4693 51.7991C40.4512 52.0817 40.4186 52.3619 40.3887 52.6967C40.025 52.5717 39.707 52.4604 39.4203 52.3605C38.7514 51.8015 38.1067 51.2768 37.629 50.5489C37.3148 50.0623 36.7954 49.7212 36.3937 49.289C35.8147 48.6611 35.1676 48.1509 34.358 47.8357C34.0591 47.7187 33.7889 47.4682 33.5562 47.2271C32.352 45.9785 30.9334 44.9822 29.5686 43.9349C29.2438 43.6871 28.828 43.5502 28.2814 43.2798C27.6545 42.5625 26.8305 41.7666 25.7183 41.3909C25.0011 41.1516 24.2731 40.9225 23.4404 41.0786L23.4468 41.0766ZM12.4056 57.0733C12.3902 57.0225 12.4489 56.9423 12.4779 56.8781C12.5397 56.9217 12.6312 56.9493 12.6549 57.0044C12.6704 57.0552 12.618 57.1335 12.5972 57.2022C12.5355 57.1586 12.4376 57.1329 12.4139 57.0777L12.4056 57.0733ZM14.2131 62.2895C14.1472 62.164 14.1668 62.1373 14.3928 61.9231C14.6123 62.0296 14.6516 62.2047 14.5914 62.417C14.395 62.546 14.2867 62.4404 14.2131 62.2895ZM18.0952 67.97C18.4617 67.9903 18.4763 67.9928 18.442 68.3358C18.2203 68.3131 18.0866 68.2152 18.0952 67.97ZM18.0688 71.8726C17.776 71.6845 17.5838 71.4172 17.6052 71.0087C17.6596 70.9368 17.7335 70.838 17.7923 70.7578C18.1045 70.6906 18.2937 70.8341 18.4872 71.1287C18.5422 71.4238 18.5463 71.6651 18.4342 71.9348C18.29 71.9163 18.1554 71.9295 18.0688 71.8726ZM20.7283 71.4799C20.8943 71.5473 20.8778 71.6979 20.9081 71.8203C20.7991 71.7356 20.6668 71.665 20.7283 71.4799ZM20.7308 74.9303C19.6505 73.5193 19.4818 73.2379 19.4204 72.7854C19.4979 72.7895 19.6014 72.765 19.6422 72.808C20.3559 73.4919 20.7631 74.0335 21.1214 74.7561C21.0491 74.9514 20.9057 74.9811 20.7308 74.9303ZM22.8805 74.2283C23.0017 73.8519 23.2552 73.8649 23.4755 73.8603C24.022 74.2901 24.022 74.2901 24.1693 74.9799C23.7783 74.6968 23.1602 74.8293 22.8805 74.2283ZM21.9306 76.3465C21.6643 76.1087 21.5882 75.8131 21.6697 75.3517C21.7991 75.2985 21.9031 75.2531 22.0344 75.2062C22.1198 75.305 22.2141 75.3872 22.264 75.4829C22.2979 75.5488 22.2976 75.639 22.2934 75.7165C22.2713 75.9172 22.2409 76.1136 22.2174 76.2871C22.0867 76.313 22.015 76.3278 21.9369 76.3446L21.9306 76.3465ZM23.2783 78.2722C23.0169 78.0052 22.707 77.8291 22.7741 77.4345C22.861 77.4012 22.9383 77.3361 23.0031 77.3441C23.7154 77.4533 24.3049 77.8423 24.8765 78.1952C24.9498 78.4363 24.8466 78.53 24.6245 78.5975C24.2285 78.5031 23.7931 78.3929 23.2827 78.264L23.2783 78.2722ZM31.5702 86.1949C31.546 86.1607 31.509 86.1303 31.5038 86.0903C31.4295 85.7318 31.3571 85.3796 31.2866 85.0337C31.6093 84.8871 31.7821 85.091 32.0394 85.2761C32.1157 85.4816 32.224 85.7466 32.3069 86.0194C32.3397 86.1273 32.3173 86.2588 32.3165 86.37C32.0864 86.4491 31.837 86.3886 31.5683 86.1885L31.5702 86.1949ZM32.9111 87.1178C33.5411 86.9332 33.996 87.176 34.4963 87.2942C34.7017 87.5367 34.909 87.7856 35.1571 88.0774C35.063 88.2238 34.984 88.3518 34.9032 88.4734C34.0731 88.296 33.2845 88.1408 32.9111 87.1178ZM36.223 89.874C36.223 89.874 36.2864 89.8547 36.3244 89.8431C36.3448 89.8646 36.3881 89.893 36.3895 89.9203C36.3972 89.9457 36.358 89.9992 36.3371 89.9986C36.2317 90.0168 36.1871 89.9611 36.2274 89.8657L36.223 89.874ZM40.7229 92.4352C40.4849 92.4729 40.245 92.5043 39.9733 92.5453C39.7743 92.1415 39.5869 91.7757 39.3937 91.3909C38.5045 90.8366 37.8214 90.0256 36.6674 89.4893C37.0276 89.3521 37.6221 89.4994 38.451 89.9312C38.5161 90.0084 38.5952 90.1091 38.6743 90.2098C38.7471 90.3124 38.8198 90.415 38.9251 90.5563C39.7376 90.6073 40.4267 90.9591 40.8556 91.7089C41.3174 91.9288 41.8632 91.9916 42.1462 92.4668C42.2005 92.5543 42.1719 92.6878 42.1895 92.8141C41.6213 92.8828 41.179 92.6361 40.7274 92.4269L40.7229 92.4352ZM44.5724 94.0647C44.825 93.8701 44.9602 93.9953 45.077 94.1746C45.1032 94.3745 44.9669 94.4506 44.8307 94.5267C44.7063 94.3913 44.5693 94.2597 44.5724 94.0647ZM49.8069 99.8399C49.3037 99.4385 49.3017 99.4321 49.1671 98.7385C49.7337 99.28 50.1862 99.5375 50.4654 100C50.1346 100.212 49.9795 99.9745 49.8049 99.8336L49.8069 99.8399ZM74.0349 94.6229C74.0349 94.6229 74.0244 94.7023 74.0029 94.7227C73.9877 94.7412 73.9375 94.7357 73.9102 94.737L73.8812 94.6419C73.9339 94.6328 73.9822 94.632 74.0349 94.6229ZM68.3461 97.6343C68.5733 97.0594 68.6013 96.3994 68.9633 95.8805C69.1465 95.6169 69.1673 95.2295 69.511 95.0834C69.5543 95.1118 69.6166 95.1344 69.6161 95.1554C69.6277 95.9003 69.6539 96.6477 69.435 97.3865C69.4782 97.5743 69.5253 97.7748 69.5666 97.9563C69.4771 98.4824 69.0576 98.7209 68.7304 99.0351C68.5861 99.176 68.4126 99.3119 68.181 99.1883C68.1451 99.116 68.0635 99.03 68.0817 98.9759C68.2421 98.546 68.1667 98.07 68.3398 97.6362L68.3461 97.6343ZM67.0665 99.2153C67.0891 99.153 67.1678 99.1152 67.2216 99.0642C67.2662 99.1199 67.3611 99.1811 67.3555 99.2313C67.3425 99.3254 67.273 99.4158 67.1199 99.7326C67.0772 99.3644 67.0458 99.2839 67.0684 99.2216L67.0665 99.2153ZM72.2074 98.5048C72.3838 98.8116 72.2348 99.0509 72.0245 99.3851C71.8675 98.9824 71.8786 98.7226 72.2074 98.5048ZM73.7874 100.055C73.7687 99.9706 73.729 99.8856 73.7497 99.817C73.8723 99.3085 74.3236 99.0604 74.6455 98.7061C74.823 99.1303 74.8455 99.5462 74.5707 99.9416C74.3199 100.143 74.0797 100.264 73.7874 100.055Z" fill="#EDEDED"/>
<path d="M45.319 31.3237C45.1717 31.1813 45.0416 31.0268 44.9173 30.8914C44.9673 30.6683 44.999 30.4992 45.0327 30.3365C45.2758 29.2439 45.5125 28.1533 45.8159 27.077C45.6981 27.1682 45.5511 27.2545 45.4829 27.3723C45.3 27.7051 45.1647 28.058 45.0759 28.2444C44.7686 28.4418 44.6279 28.5262 44.4955 28.6149C44.2858 29.0875 44.0804 29.5519 43.9154 29.9209C43.8571 31.1652 44.0473 32.2924 44.099 33.4201C44.0205 34.0053 43.9566 34.5929 43.9264 35.1773C43.9181 35.3323 43.9867 35.5124 44.2923 35.3779C44.3603 34.8722 44.425 34.3328 44.4815 33.7889C44.5293 33.3309 44.642 32.8808 44.7546 32.4308C44.7803 32.3329 44.9122 32.2651 44.9811 32.1956C45.2081 32.2583 45.3051 32.3951 45.3172 32.5716C45.3326 32.7817 45.306 32.9908 45.3004 33.2004C45.2568 34.1284 45.2113 35.05 45.1804 35.9742C45.1765 36.1209 45.2007 36.3145 45.4936 36.3433C45.75 34.9071 46.0419 33.4739 45.8193 31.9893C45.8036 31.8693 45.7479 31.7546 45.7055 31.615C45.5801 31.5215 45.4419 31.4318 45.317 31.3173L45.319 31.3237Z" fill="#EDEDED"/>
<path d="M45.326 25.7629C45.389 25.6051 45.3998 25.4355 45.4461 25.269C45.4945 25.1088 45.551 24.9529 45.6057 24.7908C45.6579 24.6433 45.7145 24.4875 45.7617 24.3692C45.5274 24.0315 45.0228 24.3097 44.8865 23.8383C44.912 23.5118 44.9386 23.1433 44.961 22.8524C44.6939 22.4069 44.1254 22.7253 43.8843 22.0917C44.0877 21.4616 44.2967 20.7813 44.5369 20.1123C44.6683 19.7467 44.7533 19.3882 44.7341 19.0059C44.7314 18.9513 44.6404 18.9028 44.5569 18.8103C44.3168 19.1605 44.0812 19.5024 43.8892 19.7825C43.7064 20.5034 43.5424 21.1492 43.404 21.6972C43.5918 22.5202 43.8533 23.1752 44.2809 23.7383C44.2598 24.0565 44.2437 24.3455 44.2166 24.7349C44.5888 25.093 44.4099 25.8266 45.0647 26.2027C45.1721 26.0314 45.2719 25.904 45.3241 25.7565L45.326 25.7629Z" fill="#EDEDED"/>
<path d="M42.2855 88.0029C41.9864 87.6572 41.7422 87.3781 41.496 87.0926C41.1067 86.906 40.7407 86.7054 40.3528 86.5462C40.1079 86.4473 39.8597 86.4743 39.7038 86.7365C39.6678 86.9831 39.8106 87.1337 39.9901 87.2454C40.4873 87.5586 41.0515 87.7959 41.4689 88.1888C42.0972 88.7739 42.8036 89.1829 43.6311 89.5342C43.817 89.4846 44.0493 89.4279 44.2796 89.3648C44.1804 89.1524 44.0811 88.94 44.01 88.7745C43.3676 88.4847 42.7976 88.2284 42.2836 87.9965L42.2855 88.0029Z" fill="#EDEDED"/>
<path d="M40.8079 33.0338C40.5908 34.0977 40.3693 35.1698 40.5098 36.2705C40.5209 36.3296 40.6036 36.3737 40.6973 36.4769C40.9087 36.1008 41.1049 35.7432 41.173 35.6254C41.2574 34.8999 41.276 34.4368 41.3716 33.9989C41.5191 33.3443 41.5719 32.6975 41.4488 32.042C41.0552 32.2517 40.8833 32.6436 40.8035 33.0421L40.8079 33.0338Z" fill="#EDEDED"/>
<path d="M76.1333 41.8234C76.1333 41.8234 76.0365 41.7558 75.9621 41.7161C75.8374 41.9896 75.717 42.2549 75.5702 42.5698C75.6077 43.6048 75.5318 44.5634 75.3765 45.5115C75.3162 45.8832 75.2477 46.2506 75.1938 46.6204C75.1839 46.6788 75.268 46.7503 75.3146 46.8124C75.5483 46.6997 75.7659 46.5111 75.9673 46.2466C76.1071 45.2478 76.0824 44.2089 75.8885 43.2977C75.9792 42.7296 76.0582 42.2828 76.1206 41.8272L76.1333 41.8234Z" fill="#EDEDED"/>
<path d="M45.5195 21.0196C45.3887 21.3643 45.2413 21.7001 45.0934 22.0569C45.2792 22.1668 45.4243 22.2336 45.5434 22.329C45.6727 22.4352 45.5355 22.7819 45.8985 22.6992C46.1695 21.9724 46.2167 21.1472 46.7739 20.5412C46.7225 20.1895 46.6826 19.876 46.6408 19.5561C46.3942 19.6795 46.1539 19.8011 45.9137 19.9226C45.769 20.3131 45.6465 20.6622 45.5093 21.0088L45.5195 21.0196Z" fill="#EDEDED"/>
<path d="M46.6493 19.5605C46.6493 19.5605 46.6746 19.5528 46.6854 19.5426C46.6835 19.5363 46.6815 19.5299 46.6859 19.5217C46.6732 19.5255 46.6586 19.523 46.644 19.5205C46.6479 19.5332 46.6517 19.5459 46.6556 19.5586L46.6493 19.5605Z" fill="#EDEDED"/>
<path d="M83.3266 71.0912C83.6524 71.6159 83.4697 72.1773 83.2798 72.6924C83.3023 72.9489 83.3177 73.159 83.3458 73.3653C83.37 73.5589 83.2654 73.7848 83.4603 73.9473C83.7049 73.8175 83.7497 73.5544 83.8143 73.3338C84.1034 72.3242 84.1605 71.2812 84.1294 70.2442C84.1221 69.9693 84.1222 69.6505 83.7229 69.363C83.69 69.7333 83.6979 69.9874 83.6372 70.2207C83.569 70.4978 83.4423 70.765 83.3266 71.0912Z" fill="#EDEDED"/>
<path d="M35.8878 83.4823C35.6322 83.3937 35.4039 83.3038 35.1648 83.224C34.8882 83.1348 34.7118 82.8281 34.1875 82.9043C34.3946 83.0839 34.4781 83.1763 34.5729 83.2376C35.1688 83.6247 35.7368 84.0341 36.2499 84.5365C36.8222 85.0971 37.5493 85.4374 38.3306 85.6365C38.3681 85.6458 38.4357 85.549 38.5173 85.4757C37.8471 84.8895 36.9509 84.6768 36.2952 84.0931C36.156 83.8859 36.0232 83.6768 35.8859 83.476L35.8878 83.4823Z" fill="#EDEDED"/>
<path d="M47.2902 42.2766C47.357 42.2909 47.4593 42.3083 47.6093 42.3459C47.6211 41.5869 47.2802 40.9213 47.3582 40.1977C47.4356 39.495 47.4229 38.792 47.4432 38.1067C47.3374 37.9865 47.2538 37.894 47.1805 37.8124C47.124 37.8088 47.0509 37.7963 47.0402 37.8065C46.6894 38.6131 47.1281 39.4638 46.8982 40.1435C47.0389 40.9254 47.1619 41.581 47.2839 42.2785L47.2902 42.2766Z" fill="#EDEDED"/>
<path d="M48.0643 14.369C48.3632 13.6198 48.8188 12.9755 49.3074 12.3487C49.4876 12.1207 49.676 11.8971 49.8459 11.6584C49.8851 11.6049 49.8606 11.5014 49.8703 11.3737C49.8207 11.3472 49.7589 11.3037 49.7423 11.2948C49.6218 11.3315 49.5736 11.3323 49.5457 11.3546C48.6472 12.0921 48.1734 13.1093 47.7244 14.1398C47.6129 14.3885 47.5549 14.6764 47.6753 14.9585C47.899 14.8281 47.9807 14.5954 48.0643 14.369Z" fill="#EDEDED"/>
<path d="M49.6117 102.525C49.4168 102.363 49.1995 102.172 48.9676 101.979C48.834 101.722 48.7003 101.465 48.5487 101.171C48.2206 101.049 48.0748 100.615 47.6713 100.565C47.6385 100.616 47.5974 100.664 47.6032 100.683C47.7671 101.062 47.9374 101.44 48.1078 101.818C48.2693 101.894 48.4227 101.965 48.4933 101.992C48.9297 102.538 49.2359 102.93 49.5593 103.31C49.5816 103.338 49.6983 103.289 49.77 103.274C49.863 103.01 49.76 102.785 49.6117 102.525Z" fill="#EDEDED"/>
<path d="M79.4798 85.6358L79.4531 85.6162C79.4531 85.6162 79.4608 85.6416 79.4647 85.6543C79.471 85.6523 79.4818 85.6421 79.4862 85.6339L79.4798 85.6358Z" fill="#EDEDED"/>
<path d="M78.5561 87.3375C78.4045 88.0696 78.4713 88.7908 78.5527 89.5145C78.6602 89.4125 78.7678 89.3105 78.8216 89.2595C78.9953 88.486 79.1668 87.7963 79.2881 87.1011C79.3721 86.6251 79.5317 86.147 79.4568 85.65C78.9332 86.0933 78.6934 86.672 78.5542 87.3311L78.5561 87.3375Z" fill="#EDEDED"/>
<path d="M78.5535 89.5631C78.5535 89.5631 78.5439 89.5313 78.5464 89.5167C78.5337 89.5206 78.5248 89.5371 78.5204 89.5454L78.5535 89.5631Z" fill="#EDEDED"/>
<path d="M25.8162 80.4873C25.7283 80.4032 25.5747 80.2628 25.3925 80.0964C25.241 80.1909 25.1111 80.2651 25.011 80.3233C24.991 80.759 25.3989 80.8013 25.5174 81.0772C25.5741 81.3094 25.6284 81.5562 25.7116 81.8982C25.8908 81.9408 26.0052 81.9753 26.1552 82.0128C26.0671 81.5406 25.9906 81.1065 25.9077 80.6743C25.8961 80.6363 25.8719 80.6021 25.8162 80.4873Z" fill="#EDEDED"/>
<path d="M82.4654 77.1056C82.4317 77.2683 82.5091 77.4319 82.6873 77.5163C82.7595 77.4805 82.8459 77.4681 82.8978 77.4108C82.9579 77.3578 82.9874 77.2726 83.0746 77.1491C82.9461 76.3843 83.3721 75.6658 83.5516 74.9113C83.4504 74.8519 83.3925 74.821 83.2932 74.768C83.0862 75.2953 82.903 75.7183 82.7426 76.1482C82.6294 76.4598 82.5265 76.7821 82.4591 77.1075L82.4654 77.1056Z" fill="#EDEDED"/>
<path d="M45.5213 37.256C45.2915 37.4575 45.3413 37.7127 45.4127 37.9474C45.6113 38.6008 45.829 39.2484 46.0467 39.896C46.0949 39.029 45.9451 38.1944 45.7008 37.3678C45.6854 37.317 45.5875 37.2913 45.5213 37.256Z" fill="#EDEDED"/>
<path d="M46.0468 39.8956C46.0468 39.8956 46.0482 39.9229 46.0458 39.9375C46.0515 39.9565 46.0554 39.9692 46.0612 39.9882C46.0656 39.9799 46.07 39.9717 46.0744 39.9634C46.0686 39.9444 46.0609 39.919 46.0551 39.8999L46.0468 39.8956Z" fill="#EDEDED"/>
<path d="M42.183 40.8625C42.258 40.8813 42.333 40.9001 42.5561 40.9501C42.3202 40.3565 42.5934 39.8646 42.6995 39.3473C42.7307 39.1992 42.6762 39.0425 42.6429 38.6369C42.2366 39.2455 42.0854 39.9867 42.1893 40.8606L42.183 40.8625Z" fill="#EDEDED"/>
<path d="M69.6703 79.6507C69.6827 79.737 69.796 79.8135 69.9848 80.0471C70.1353 79.3569 70.4899 78.8818 70.3624 78.0751C69.803 78.6055 69.5703 79.0712 69.6703 79.6507Z" fill="#EDEDED"/>
<path d="M48.4979 33.8489C48.6809 33.3567 48.814 32.9282 48.6878 32.4676C48.6608 32.3787 48.5514 32.315 48.4552 32.2264C48.2441 32.8542 48.2583 33.3951 48.4979 33.8489Z" fill="#EDEDED"/>
<path d="M47.3193 31.886C47.3014 32.7161 47.0524 33.4016 47.0938 34.1306C47.4538 33.7647 47.5359 33.2824 47.6052 32.8039C47.6481 32.5345 47.6895 32.2378 47.3256 31.8841L47.3193 31.886Z" fill="#EDEDED"/>
<path d="M75.2565 37.5024C75.0186 37.9282 75.0262 38.2724 75.1838 38.6541C75.2735 38.6754 75.386 38.7035 75.5798 38.7485C75.623 38.2295 75.5735 37.8842 75.2545 37.4961L75.2565 37.5024Z" fill="#EDEDED"/>
<path d="M52.7924 84.4491C52.6467 84.5627 52.5289 84.6539 52.439 84.7228C52.3928 85.118 52.4959 85.3431 52.8486 85.4091C53.072 85.3689 53.2444 85.2749 53.2638 84.8602C53.1224 84.7369 52.9707 84.6028 52.7924 84.4491Z" fill="#EDEDED"/>
<path d="M32.4492 88.6309C33.1525 89.3942 33.2314 89.4257 33.8451 89.3015C33.4869 88.9668 33.1456 88.7102 32.4492 88.6309Z" fill="#EDEDED"/>
<path d="M81.8392 82.5212C81.9421 82.677 82.0686 82.7286 82.3196 82.5969C82.4544 82.0523 82.4115 81.7974 82.1911 81.8321C81.9119 82.1295 81.7925 82.3598 81.8329 82.5231L81.8392 82.5212Z" fill="#EDEDED"/>
<path d="M81.2547 78.4092C81.2547 78.4092 81.2451 78.3775 81.2393 78.3585C81.2349 78.3668 81.226 78.3833 81.2216 78.3916L81.2483 78.4111L81.2547 78.4092Z" fill="#EDEDED"/>
<path d="M81.5191 76.5683C81.2958 77.156 81.0876 77.7251 81.2449 78.3565C81.504 77.8411 81.5279 77.2586 81.7038 76.7201C81.7107 76.6972 81.6095 76.6379 81.5191 76.5683Z" fill="#EDEDED"/>
<path d="M49.5773 81.4625C49.7178 80.9901 49.7115 80.9921 49.0669 80.3079C49.1186 80.8882 49.2887 81.2731 49.5773 81.4625Z" fill="#EDEDED"/>
<path d="M43.7763 97.3286C44.0923 97.7523 44.2825 98.0133 44.4834 98.264C44.5038 98.2855 44.6078 98.2401 44.7366 98.2079C44.5258 97.8562 44.4423 97.4449 43.7744 97.3223L43.7763 97.3286Z" fill="#EDEDED"/>
<path d="M48.8405 47.2175C48.7413 47.0051 48.6573 46.7743 48.4061 46.6774C48.3781 47.0185 48.4737 47.2874 48.7913 47.4889C48.8137 47.3573 48.8642 47.2727 48.8405 47.2175Z" fill="#EDEDED"/>
<path d="M47.0893 34.2772C47.0893 34.2772 47.091 34.2144 47.0877 34.1807C47.0819 34.1617 47.0844 34.1471 47.0849 34.1261C47.0742 34.1363 47.0634 34.1465 47.0527 34.1567C47.0642 34.1948 47.0758 34.2328 47.0893 34.2772Z" fill="#EDEDED"/>
<path d="M47.3793 35.388C47.2763 35.0035 47.1854 34.6361 47.0901 34.277C47.0836 34.7572 47.079 35.2437 47.0662 35.7257C47.1591 35.6213 47.2585 35.5148 47.3793 35.388Z" fill="#EDEDED"/>
<path d="M77.3786 47.3554C77.3786 47.3554 77.4021 47.3414 77.4065 47.3331C77.4007 47.3141 77.393 47.2887 77.3872 47.2697C77.3847 47.2843 77.3822 47.2989 77.3734 47.3154C77.3772 47.3281 77.3811 47.3408 77.3786 47.3554Z" fill="#EDEDED"/>
<path d="M76.788 48.1247C77.0557 48.2304 77.2499 48.1852 77.4373 47.8441C77.4235 47.7305 77.4012 47.5432 77.3809 47.3623C77.1326 47.5487 76.878 47.737 76.7943 48.1228L76.788 48.1247Z" fill="#EDEDED"/>
<path d="M80.149 76.4165C80.1914 76.5561 80.2402 76.6937 80.289 76.8314C80.4659 76.4103 80.5253 75.9903 80.344 75.5534C80.0839 75.7919 80.0404 76.0822 80.1407 76.4121L80.149 76.4165Z" fill="#EDEDED"/>
<path d="M80.368 75.5392L80.335 75.5215C80.335 75.5215 80.3427 75.5469 80.3465 75.5595C80.3529 75.5576 80.3573 75.5494 80.3617 75.5411L80.368 75.5392Z" fill="#EDEDED"/>
<path d="M47.0582 35.8388C47.0582 35.8388 47.0632 35.8096 47.0656 35.795C47.0662 35.774 47.0667 35.7531 47.0654 35.7258C47.0502 35.7443 47.0395 35.7544 47.0243 35.7729C47.032 35.7983 47.0378 35.8173 47.0518 35.8408L47.0582 35.8388Z" fill="#EDEDED"/>
<path d="M47.0006 36.7649C47.1313 36.739 47.2767 36.7156 47.4283 36.6903C47.3079 36.4081 47.1792 36.1215 47.0588 35.8394C46.9798 36.1267 46.723 36.3988 47.0006 36.7649Z" fill="#EDEDED"/>
<path d="M37.5868 93.4719C37.5977 93.6903 37.718 93.8201 37.9476 93.8611C38.0421 93.4651 38.0319 93.4543 37.5868 93.4719Z" fill="#EDEDED"/>
<path d="M42.8295 37.4299C42.7304 37.6056 42.7202 37.7542 42.978 37.9184C43.1116 37.6283 43.1351 37.4549 42.8295 37.4299Z" fill="#EDEDED"/>
<path d="M42.7683 33.921C43.0254 33.7181 42.9306 33.4974 42.7939 33.2756C42.6206 33.4807 42.6589 33.6978 42.7683 33.921Z" fill="#EDEDED"/>
<path d="M79.3646 81.7901C79.7859 81.3294 79.782 81.3167 79.6506 80.9755C79.3847 81.195 79.4017 81.5017 79.3646 81.7901Z" fill="#EDEDED"/>
<path d="M69.7278 89.7787C69.9176 89.5824 70.0211 89.3984 69.6557 89.1769C69.4993 89.4601 69.3845 89.6751 69.7278 89.7787Z" fill="#EDEDED"/>
<path d="M44.6325 27.1512C44.6152 27.0941 44.5363 27.0626 44.4872 27.0152C44.4544 27.0667 44.4152 27.1202 44.3804 27.1654C44.4339 27.2046 44.4893 27.2502 44.5428 27.2893C44.5757 27.2378 44.6466 27.1746 44.6369 27.1429L44.6325 27.1512Z" fill="#EDEDED"/>
<path d="M46.5867 33.6952C46.5663 33.5143 46.5314 33.3309 46.4901 33.1494C46.4026 33.3631 46.3589 33.5843 46.4176 33.8229C46.4797 33.7763 46.59 33.7289 46.5848 33.6889L46.5867 33.6952Z" fill="#EDEDED"/>
<path d="M73.7861 43.562C73.7861 43.562 73.7957 43.5937 73.7996 43.6064C73.804 43.5981 73.8147 43.5879 73.8191 43.5797C73.8153 43.567 73.8095 43.5479 73.8056 43.5353C73.8012 43.5435 73.7905 43.5537 73.7861 43.562Z" fill="#EDEDED"/>
<path d="M73.7163 44.3815C73.9993 44.1499 74.0101 44.1397 73.7998 43.6076C73.6299 43.8464 73.5622 44.1026 73.7163 44.3815Z" fill="#EDEDED"/>
<path d="M77.3891 47.2765C77.5542 46.7481 77.5459 46.7437 77.3687 46.5481C77.2026 46.7996 77.3031 47.0393 77.3891 47.2765Z" fill="#EDEDED"/>
<path d="M46.9124 31.3929C46.6001 31.6195 46.723 31.8871 46.7563 32.1334C46.9588 31.9332 47.0508 31.7112 46.9124 31.3929Z" fill="#EDEDED"/>
<path d="M33.6801 90.3075C33.6716 90.2339 33.6503 90.1641 33.6145 90.0918C33.6087 90.0728 33.5541 90.0756 33.5185 90.0725C33.5221 90.1754 33.5256 90.2783 33.5438 90.3836C33.5476 90.3963 33.6042 90.3999 33.6334 90.4049C33.6511 90.3718 33.6814 90.3349 33.6737 90.3095L33.6801 90.3075Z" fill="#EDEDED"/>
<path d="M77.3586 44.8956C77.3432 44.8448 77.2687 44.8051 77.2279 44.7621C77.2155 44.8351 77.1904 44.9121 77.2034 44.9775C77.2188 45.0282 77.2869 45.0698 77.3359 45.1173C77.3464 45.0379 77.3716 44.9609 77.3586 44.8956Z" fill="#EDEDED"/>
<path d="M82.1678 80.7992C82.2051 80.7393 82.2443 80.6858 82.2732 80.6216C82.2777 80.6133 82.2101 80.5507 82.212 80.557C82.1285 80.624 82.0405 80.6993 82.1634 80.8074L82.1678 80.7992Z" fill="#EDEDED"/>
<path d="M57.3503 90.6442C57.3037 90.7415 57.342 90.7991 57.4455 90.7746C57.4708 90.7669 57.5056 90.7217 57.5023 90.6881C57.5009 90.6608 57.464 90.6304 57.4397 90.5962C57.408 90.6058 57.3553 90.6149 57.3484 90.6378L57.3503 90.6442Z" fill="#EDEDED"/>
<path d="M41.6732 31.5723C41.6732 31.5723 41.5788 31.4901 41.5253 31.4509C41.3615 31.6185 41.4009 31.7937 41.4675 31.9674C41.5382 31.8351 41.6171 31.7071 41.6732 31.5723Z" fill="#EDEDED"/>
<path d="M41.4609 31.9689C41.4609 31.9689 41.4477 31.9937 41.4433 32.0019C41.4471 32.0146 41.451 32.0273 41.4529 32.0336C41.4656 32.0298 41.4719 32.0279 41.4827 32.0177C41.4769 31.9987 41.473 31.986 41.4673 31.9669L41.4609 31.9689Z" fill="#EDEDED"/>
<path d="M43.9145 28.5274C43.8608 28.2596 43.6672 28.2838 43.4805 28.2852C43.5946 28.4098 43.6538 28.6274 43.9145 28.5274Z" fill="#EDEDED"/>
<path d="M43.4786 28.2794C43.4786 28.2794 43.4582 28.2579 43.448 28.2472C43.4276 28.2256 43.4135 28.2022 43.4033 28.1914C43.4091 28.2104 43.4207 28.2485 43.4303 28.2802C43.443 28.2764 43.4659 28.2833 43.4786 28.2794Z" fill="#EDEDED"/>
<path d="M79.5615 90.053C79.5615 90.053 79.5414 90.1007 79.5345 90.1236C79.5383 90.1363 79.5295 90.1528 79.527 90.1674C79.5397 90.1636 79.5523 90.1597 79.5631 90.1495C79.5598 90.1159 79.5585 90.0886 79.5552 90.0549L79.5615 90.053Z" fill="#EDEDED"/>
<path d="M79.5486 89.6903C79.5433 89.8097 79.5526 89.9316 79.5619 90.0535C79.6185 89.8977 79.6688 89.7438 79.7279 89.5734C79.6531 89.6238 79.5516 89.6547 79.5486 89.6903Z" fill="#EDEDED"/>
<path d="M46.8785 15.1874C46.6786 15.2135 46.6487 15.3889 46.5717 15.5232C46.7099 15.4535 46.8787 15.416 46.8785 15.1874Z" fill="#EDEDED"/>
<path d="M45.9954 16.6128C45.832 16.7595 45.733 16.9351 45.7395 17.1618C45.9194 17.024 46.0102 16.8439 45.9954 16.6128Z" fill="#EDEDED"/>
<path d="M45.705 17.1855L45.74 17.2096C45.74 17.2096 45.7367 17.1759 45.7392 17.1613C45.7265 17.1651 45.7177 17.1817 45.705 17.1855Z" fill="#EDEDED"/>
<path d="M67.9639 86.0049C68.0267 86.166 68.0779 86.289 68.1209 86.4076C68.1058 86.2667 68.0537 86.0954 67.9639 86.0049Z" fill="#EDEDED"/>
<path d="M45.5688 17.6712C45.6334 17.4506 45.666 17.3299 45.6961 17.2237C45.5756 17.2603 45.4297 17.3047 45.5688 17.6712Z" fill="#EDEDED"/>
<path d="M45.7056 17.1866C45.7056 17.1866 45.6987 17.2095 45.6962 17.2241C45.7152 17.2183 45.7279 17.2145 45.7469 17.2087L45.7119 17.1847L45.7056 17.1866Z" fill="#EDEDED"/>
<path d="M45.9027 30.3275C46.0932 30.3389 46.0933 30.1795 46.1361 30.0695C46.0175 30.1125 45.8887 30.1447 45.9027 30.3275Z" fill="#EDEDED"/>
<path d="M47.4354 36.7148C47.4354 36.7148 47.4553 36.7573 47.4674 36.7744C47.4578 36.7427 47.4481 36.711 47.4467 36.6837C47.4404 36.6856 47.4341 36.6875 47.4277 36.6895C47.4316 36.7021 47.4335 36.7085 47.4374 36.7212L47.4354 36.7148Z" fill="#EDEDED"/>
<path d="M47.6251 37.1085C47.5713 37.0001 47.5176 36.8917 47.4702 36.7814C47.4923 36.8994 47.5206 37.0155 47.5426 37.1336C47.568 37.1258 47.5997 37.1162 47.6251 37.1085Z" fill="#EDEDED"/>
<path d="M43.3989 26.626C43.3989 26.626 43.4411 26.6964 43.464 26.7033C43.4869 26.7102 43.5172 26.6732 43.5451 26.6509C43.5228 26.623 43.5048 26.5869 43.4756 26.5819C43.4527 26.575 43.4224 26.612 43.3945 26.6343L43.3989 26.626Z" fill="#EDEDED"/>
<path d="M41.0389 37.6006C41.0389 37.6006 40.9804 37.5906 40.9468 37.5939C40.9418 37.6232 40.9324 37.6607 40.9274 37.6899C40.9566 37.6949 41.0024 37.7087 41.0132 37.6985C41.0347 37.6781 41.0295 37.6381 41.0344 37.6088L41.0389 37.6006Z" fill="#EDEDED"/>
<path d="M40.4466 38.3409C40.4085 38.3524 40.3603 38.3533 40.3451 38.3717C40.3255 38.3985 40.3257 38.4677 40.3442 38.4828C40.4264 38.548 40.4962 38.5267 40.5072 38.4264C40.5122 38.3971 40.4607 38.3643 40.4403 38.3428L40.4466 38.3409Z" fill="#EDEDED"/>
<path d="M40.0098 42.2168C40.0098 42.2168 40.0233 42.2612 40.0291 42.2803C40.0379 42.2637 40.0404 42.2491 40.0511 42.2389L40.018 42.2212L40.0098 42.2168Z" fill="#EDEDED"/>
<path d="M40.1227 42.6808C40.075 42.5013 40.0466 42.3852 40.0202 42.2754C39.9647 42.3893 39.9175 42.5076 40.1227 42.6808Z" fill="#EDEDED"/>
<path d="M75.9111 33.957L75.9285 34.0141C75.9285 34.0141 75.9335 33.9849 75.9423 33.9684L75.9111 33.957Z" fill="#EDEDED"/>
<path d="M75.8534 34.3137C75.8442 34.4204 75.9187 34.4602 76.0461 34.4006L75.9285 34.0137C75.8964 34.1135 75.8581 34.2152 75.8553 34.32L75.8534 34.3137Z" fill="#EDEDED"/>
<path d="M77.4592 38.7528C77.4592 38.7528 77.4054 38.8038 77.4005 38.8331C77.4018 38.8604 77.4305 38.8863 77.4465 38.9161C77.4782 38.9064 77.5226 38.8929 77.5378 38.8745C77.5864 38.7835 77.5563 38.7303 77.4592 38.7528Z" fill="#EDEDED"/>
<path d="M35.4072 91.6809C35.4072 91.6809 35.3782 91.7451 35.365 91.77C35.3873 91.7978 35.4071 91.8403 35.4364 91.8453C35.4656 91.8503 35.4959 91.8133 35.5257 91.7973C35.4868 91.7606 35.448 91.724 35.4072 91.6809Z" fill="#EDEDED"/>
<path d="M85.063 39.2131C85.0618 39.255 85.0798 39.2912 85.0977 39.3273C85.0996 39.3336 85.1547 39.3099 85.1865 39.3003L85.1498 39.1798L85.061 39.2068L85.063 39.2131Z" fill="#EDEDED"/>
<path d="M42.2099 42.8224L42.1931 42.9038L42.2648 42.8889L42.2099 42.8224Z" fill="#EDEDED"/>
<path d="M43.3969 28.1925C43.3663 28.1602 43.3746 28.1646 43.3969 28.1925V28.1925Z" fill="#EDEDED"/>
<path d="M77.2314 43.8175L77.2127 43.8926L77.2716 43.8815L77.2314 43.8175Z" fill="#EDEDED"/>
<path d="M46.7567 32.2232C46.7528 32.3699 46.7445 32.5249 46.7406 32.6716C46.8137 32.5247 46.8094 32.3735 46.7567 32.2232Z" fill="#EDEDED"/>
<path d="M46.756 32.2236C46.756 32.2236 46.7591 32.188 46.7616 32.1734C46.7577 32.1607 46.7538 32.148 46.7544 32.1271C46.7417 32.1309 46.7392 32.1456 46.7284 32.1558C46.7362 32.1811 46.7439 32.2065 46.7497 32.2255L46.756 32.2236Z" fill="#EDEDED"/>
<path d="M45.7607 26.8506C45.7607 26.8506 45.7761 26.9014 45.7838 26.9268C45.7935 26.9585 45.8114 26.9946 45.8274 27.0244C45.8249 27.039 45.8161 27.0555 45.8155 27.0765C45.8282 27.0726 45.8371 27.0561 45.8498 27.0523C45.8222 26.9844 45.7883 26.9185 45.7626 26.857L45.7607 26.8506Z" fill="#EDEDED"/>
<path d="M67.1567 89.0496L67.085 89.0645L67.1315 89.1265L67.1567 89.0496Z" fill="#EDEDED"/>
<path d="M70.561 83.926C70.561 83.926 70.5486 83.9991 70.5405 84.0639L70.5736 84.0815C70.5651 84.0079 70.5648 83.9387 70.561 83.926Z" fill="#EDEDED"/>
<path d="M79.3423 81.9218C79.3423 81.9218 79.3517 81.8843 79.3542 81.8697C79.3592 81.8404 79.3661 81.8176 79.3647 81.7903C79.3496 81.8087 79.3324 81.8209 79.3173 81.8393C79.325 81.8647 79.3346 81.8964 79.3423 81.9218Z" fill="#EDEDED"/>
<path d="M79.3421 81.9217C79.309 82.0635 79.2739 82.1989 79.2408 82.3406C79.3343 82.2151 79.3674 82.0734 79.3421 81.9217Z" fill="#EDEDED"/>
<path d="M79.2503 82.5316C79.2503 82.5316 79.231 82.4682 79.2263 82.4072C79.2332 82.3843 79.2401 82.3615 79.2451 82.3322C79.2363 82.3488 79.2192 82.3609 79.2103 82.3774L79.2547 82.5233L79.2503 82.5316Z" fill="#EDEDED"/>
<path d="M70.8437 76.5568C70.844 76.626 70.8487 76.687 70.8481 76.7079C70.8442 76.6953 70.8605 76.6349 70.8768 76.5745L70.8437 76.5568Z" fill="#EDEDED"/>
<path d="M47.6463 15.0229L47.6849 14.9904C47.6849 14.9904 47.6772 14.965 47.6733 14.9523C47.667 14.9542 47.6543 14.9581 47.6498 14.9664L47.6443 15.0166L47.6463 15.0229Z" fill="#EDEDED"/>
<path d="M80.8157 81.2518C80.7975 81.3058 80.7812 81.3662 80.7699 81.3974C80.7831 81.3725 80.8096 81.3229 80.838 81.2796L80.7958 81.2093L80.8093 81.2537L80.8157 81.2518Z" fill="#EDEDED"/>
<path d="M80.2478 76.8994L80.3113 76.8801C80.3113 76.8801 80.3017 76.8484 80.2959 76.8293C80.2934 76.844 80.2826 76.8542 80.2801 76.8688L80.2478 76.8994Z" fill="#EDEDED"/>
<path d="M46.2159 16.2206C46.2733 16.113 46.3327 16.0118 46.3901 15.9043C46.4392 15.7924 46.4839 15.6887 46.533 15.5767C46.5482 15.5583 46.5634 15.5398 46.5766 15.515C46.5513 15.5227 46.5297 15.5431 46.5063 15.5571C46.4572 15.6691 46.4061 15.7747 46.3633 15.8847C46.3059 15.9923 46.2466 16.0935 46.1892 16.201C46.123 16.3251 46.0631 16.4472 45.9969 16.5713C46.0007 16.584 45.9982 16.5986 45.9957 16.6132C46.0084 16.6094 46.0109 16.5948 46.0236 16.5909C46.0898 16.4668 46.1561 16.3427 46.2159 16.2206Z" fill="#EDEDED"/>
<path d="M75.0568 55.2413L75.0471 55.2096L74.9981 55.1622L75.0363 55.2198L75.0104 55.2485L75.0568 55.2413Z" fill="#EDEDED"/>
<path d="M48.0022 27.3405C48.0039 27.2776 48.0056 27.2147 48.0061 27.1938C47.9992 27.2167 47.9874 27.2688 47.9691 27.3228C47.901 27.4406 47.8265 27.5603 47.7583 27.678C47.7602 27.6843 47.7641 27.697 47.766 27.7034C47.7724 27.7014 47.785 27.6976 47.7914 27.6957C47.8595 27.5779 47.9341 27.4583 48.0022 27.3405Z" fill="#EDEDED"/>
<path d="M81.7059 73.0117L81.7299 72.9766C81.7299 72.9766 81.7241 72.9576 81.7222 72.9513C81.7095 72.9551 81.6968 72.959 81.6904 72.9609L81.7059 73.0117Z" fill="#EDEDED"/>
<path d="M46.4856 33.0887C46.4856 33.0887 46.4972 33.1268 46.4986 33.1541C46.5074 33.1375 46.5099 33.1229 46.5188 33.1064C46.5869 32.9886 46.6633 32.8753 46.7315 32.7576C46.7301 32.7303 46.7351 32.701 46.7357 32.6801C46.7287 32.7029 46.7136 32.7214 46.6984 32.7399C46.6239 32.8596 46.5538 32.971 46.4793 33.0907L46.4856 33.0887Z" fill="#EDEDED"/>
<path d="M44.3057 89.3575C44.3057 89.3575 44.2866 89.3633 44.2803 89.3652C44.2822 89.3716 44.2861 89.3843 44.288 89.3906L44.6412 89.5951C44.6412 89.5951 44.6558 89.5976 44.6704 89.6001C44.6666 89.5874 44.6627 89.5747 44.6589 89.562C44.5411 89.4938 44.4234 89.4257 44.3057 89.3575Z" fill="#EDEDED"/>
<path d="M20.9134 37.8484C20.85 37.8677 20.8142 37.9548 20.7623 38.0122C20.8221 38.0494 20.8756 38.0886 20.9335 38.1195C20.9854 38.0621 21.0392 38.0112 21.091 37.9538C21.0312 37.9166 20.9642 37.8329 20.9198 37.8464L20.9134 37.8484Z" fill="#EDEDED"/>
<path d="M73.3574 90.5943C73.3574 90.5943 73.3436 90.6401 73.3386 90.6694C73.3469 90.6738 73.3571 90.6845 73.3717 90.687C73.3601 90.649 73.3632 90.6134 73.3555 90.588L73.3574 90.5943Z" fill="#EDEDED"/>
<path d="M49.5078 18.3859L49.4876 18.4336C49.4876 18.4336 49.4934 18.4526 49.4909 18.4672C49.4909 18.4672 49.5017 18.4571 49.5061 18.4488L49.5078 18.3859Z" fill="#EDEDED"/>
</svg>
