<svg width="138" height="156" viewBox="0 0 138 156" fill="none" xmlns="http://www.w3.org/2000/svg">
<path d="M30.0836 78.3659C30.0836 78.3659 30.0453 78.3707 30.0372 78.3679C30.0372 78.3679 30.0343 78.376 30.0315 78.3841L30.0755 78.3631L30.0836 78.3659Z" fill="#EDEDED"/>
<path d="M71.623 56.4482C71.623 56.4482 71.6087 56.4889 71.6001 56.5133C71.6111 56.508 71.6221 56.5027 71.6412 56.5004L71.623 56.4482Z" fill="#EDEDED"/>
<path d="M65.1717 119.505L65.166 119.521C65.166 119.521 65.189 119.456 65.2005 119.424C65.1918 119.448 65.178 119.461 65.1612 119.483C65.1583 119.491 65.1474 119.496 65.1335 119.51C65.1498 119.515 65.1579 119.518 65.1741 119.524C65.1741 119.524 65.1741 119.524 65.1717 119.505Z" fill="#EDEDED"/>
<path d="M28.702 66.3987L28.7461 66.3776L28.6973 66.3604C28.6973 66.3604 28.6886 66.3848 28.6939 66.3958L28.702 66.3987Z" fill="#EDEDED"/>
<path d="M53.0509 141.517C53.9033 141.015 54.8926 140.927 55.8657 140.522C56.7122 139.444 58.025 139.059 59.2458 138.651C59.566 138.7 59.7411 138.799 59.7152 139.182C59.5329 139.336 59.3028 139.574 59.0331 139.744C58.7138 139.95 58.3415 140.074 58.017 140.27C57.6456 140.494 57.2395 140.688 57.1023 141.206C57.1987 141.294 57.3032 141.386 57.453 141.53C57.7393 141.339 58.0224 141.184 58.2763 140.982C58.8863 140.495 59.575 140.172 60.2847 139.894C60.5916 139.774 60.9114 139.696 61.2206 139.595C61.9785 139.361 62.6137 138.983 63.0158 138.259C63.1142 138.084 63.3151 137.954 63.4368 137.842C63.6578 137.81 63.8277 137.743 63.9823 137.77C65.0292 137.957 65.7757 137.446 66.4278 136.736C66.5777 136.57 66.5873 136.336 66.3507 136.18C66.0467 136.136 65.8529 136.323 65.6829 136.546C65.4853 136.796 65.2877 137.045 64.9984 137.399C64.2407 137.013 63.4518 137.464 62.6664 137.259C63.2124 136.85 63.7557 136.449 64.3237 136.029C64.9746 135.995 65.5978 135.832 66.1567 135.464C66.7405 135.077 67.3242 134.69 68.0182 134.224C68.733 134.266 69.4628 133.931 70.1458 133.47C70.3248 133.351 70.5329 133.278 70.7276 133.192C70.6058 133.459 70.2832 133.701 70.6982 134.076C71.0471 133.889 71.4074 133.669 71.7859 133.502C72.1834 133.332 72.5991 133.215 73.0043 133.075C73.5217 132.902 73.8716 132.505 74.2239 132.128C73.7381 132.057 73.31 132.261 72.89 132.469C72.459 132.681 72.0352 132.951 71.518 132.814L71.5728 132.788C71.5566 132.782 71.5485 132.779 71.5294 132.782C71.5266 132.79 71.5208 132.806 71.518 132.814C71.2325 132.951 70.9581 133.082 70.6727 133.218C70.8876 132.92 71.152 132.74 71.5294 132.782C71.7014 132.295 72.1973 132.105 72.5057 131.749C72.6446 131.588 72.773 131.406 72.6323 131.21C71.8134 131.358 70.9955 131.453 70.2028 131.656C69.361 131.87 68.5987 132.348 67.7445 132.339C67.4691 132.524 67.2381 132.661 67.0228 132.832C66.5403 133.19 66.0496 133.546 65.4149 133.586C64.4718 134.138 63.356 134.301 62.4444 134.918C62.1303 135.136 61.7738 135.293 61.4201 135.441C61.3242 135.48 61.1601 135.377 60.9545 135.313C61.3541 134.724 61.8295 134.309 62.4141 134.178C63.2855 133.984 64.0049 133.471 64.8396 133.201C65.5731 132.958 66.1989 132.504 66.6834 131.881C66.884 131.624 67.1112 131.394 67.3332 131.153C67.9421 131.031 68.5624 131.031 69.0884 130.678C70.3113 129.851 71.5418 129.054 72.7885 128.263C72.8353 128.234 72.8687 128.191 72.9021 128.148C72.9914 128.025 73.1079 127.902 72.9008 127.765C72.4537 127.817 72.1009 128.066 71.7506 128.334C71.2704 128.712 70.7191 128.955 70.1164 129.034C70.0291 129.049 69.9246 128.957 69.822 128.912C69.585 128.473 69.8891 128.206 70.1946 127.858C71.2331 127.604 72.0093 126.802 72.889 126.146C73.2862 125.848 73.6356 125.479 74.0694 125.258C75.1982 124.671 76.0322 123.68 77.1767 123.126C77.4072 123.016 77.6154 122.788 77.7662 122.568C78.4671 121.566 79.3865 120.823 80.4632 120.255C81.0406 119.008 82.0482 118.351 83.4355 118.066C83.4578 118.493 83.2677 118.773 83.0572 118.981C81.8605 120.174 80.6527 121.371 79.4426 122.549C78.4292 123.532 77.2955 124.391 76.3889 125.485C76.0385 125.908 75.7044 126.337 75.3406 126.747C74.9382 127.189 74.5171 127.606 74.1013 128.034C74.3685 128.311 74.5693 128.336 74.7727 128.225C75.3855 127.885 75.5451 127.175 76.0043 126.754C77.5656 125.873 78.3417 125.226 79.3516 123.375C79.8285 123.032 80.3201 122.622 80.7083 122.066C81.1051 121.485 81.6898 121.044 82.3107 120.707C82.6467 120.634 82.9636 120.563 83.2013 120.51C83.6098 120.18 83.944 119.906 84.3 119.621C84.1096 118.56 84.5083 117.715 85.3604 116.93C86.4628 116.754 87.2271 115.856 88.0844 115.238C88.3986 114.555 88.6703 113.967 88.8938 113.489C89.7367 112.911 90.4584 112.418 91.2546 111.869C91.5635 111.331 91.9121 110.706 92.3137 110.008C93.1027 109.402 93.6294 108.402 94.5893 107.829C94.8451 107.673 94.9955 107.324 95.1665 107.047C95.3627 106.724 95.5241 106.371 95.6621 106.109C96.2073 105.599 96.7505 105.198 97.1567 104.694C97.7884 103.914 98.5502 103.307 99.4212 102.83C99.6284 102.502 99.8328 102.182 100.04 101.853C100.76 101.442 101.229 100.786 101.667 100.038C102.266 99.839 102.877 99.635 103.492 99.442C103.514 99.4315 103.562 99.5031 103.602 99.5446C103.614 99.923 103.307 100.097 103.098 100.325C102.34 101.179 101.488 101.964 100.827 102.88C100.216 103.731 99.5518 104.5 98.7828 105.205C98.5007 105.461 98.2668 105.761 98.0114 106.045C97.6089 106.487 97.2571 106.992 96.7907 107.357C95.9573 108.011 95.3414 108.824 94.7413 109.671C94.3951 110.16 94.0704 110.665 93.668 111.107C92.9768 111.876 92.2588 112.616 91.5141 113.329C90.7666 114.051 90.2638 114.931 89.7662 115.823C90.2142 116.027 90.6065 115.846 90.914 115.544C91.9637 114.51 93.1684 113.631 93.9935 112.381C94.2566 111.972 94.6031 111.611 94.9387 111.255C95.1244 111.065 95.3559 110.901 95.5974 110.785C95.6934 110.746 95.868 110.872 95.9977 110.918C95.9031 111.34 95.8204 111.703 95.7492 112.034C95.9052 112.135 95.9887 112.183 96.1447 112.283C96.3967 112.035 96.6493 111.759 96.9285 111.511C97.2574 111.226 97.6101 110.976 97.9137 110.737C98.4785 109.887 99.0209 109.075 99.6612 108.115C99.6947 107.917 99.7559 107.538 99.8176 107.131C101.456 105.255 103.101 103.364 104.737 101.497C105.001 101.371 105.325 101.485 105.526 101.201L105.807 100.406C106.79 99.9228 107.49 99.1027 108.143 98.2111C108.556 97.6363 109.057 97.1201 109.521 96.5815C109.771 96.2867 110.073 96.0282 110.269 95.7052C110.802 94.7897 111.496 94.0403 112.372 93.5744C112.563 93.0853 112.666 92.6654 112.592 92.2288C112.175 91.9628 111.904 92.524 111.476 92.3911C111.501 92.2447 111.479 92.0729 111.555 91.9627C111.88 91.457 112.209 90.9622 112.564 90.4761C113.044 89.8154 113.62 89.2162 113.906 88.4323C113.941 88.335 114.032 88.2577 114.107 88.1475C114.41 87.9625 114.729 87.756 115.057 87.5523C115.479 86.5886 116.166 85.7819 116.483 84.7809C116.552 84.5862 116.699 84.4011 116.838 84.2404C117.799 83.1747 118.447 81.9075 119.12 80.6761C119.043 80.4026 118.971 80.1402 118.928 80.0061C118.935 79.4158 119.211 79.0752 119.435 78.6983C119.747 78.1787 120.023 77.6558 119.996 77.0078C119.975 76.4986 120.247 76.0654 120.475 75.626C120.704 75.1866 120.986 74.7754 121.154 74.324C121.454 73.554 121.836 72.8588 122.317 72.1709C122.777 71.5126 123.026 70.7062 123.379 69.9643C123.422 69.8699 123.491 69.7759 123.566 69.6929C124.222 68.9211 124.371 67.9333 124.77 67.0616C124.519 66.7633 124.325 66.5122 124.088 66.2278C124.491 64.9834 124.7 63.6702 125.417 62.8287C125.697 61.9059 125.892 61.2265 126.103 60.5528C126.195 60.2389 126.397 59.9269 126.386 59.6219C126.357 58.4895 126.813 57.4828 127.085 56.4293C127.112 56.3291 127.108 56.2093 127.127 56.0519C127.012 55.6825 126.883 55.2721 126.749 54.8507C127.028 53.234 126.743 51.6916 126.201 50.1773C126.023 49.9864 125.744 49.8698 125.751 49.489C125.87 48.7919 126.372 48.1207 126.193 47.2822C126.058 46.9696 125.909 46.6159 125.77 46.3114C125.782 46.0967 125.769 45.9278 125.807 45.768C125.901 45.3996 125.997 45.0231 126.123 44.6662C126.499 43.6037 126.537 42.5405 126.227 41.482C125.981 41.2219 125.515 41.4311 125.392 41.0045C125.475 39.9086 125.398 39.188 125.161 38.8427C125.061 38.9715 124.934 39.0727 124.877 39.2077C124.715 39.6156 124.593 40.0379 124.425 40.4349C124.34 40.6238 124.206 40.8227 123.911 40.7549C123.527 40.3181 123.129 39.8675 122.719 39.403C122.568 38.9759 122.414 38.5105 122.242 38.0395C122.738 37.1015 123.225 36.1879 123.693 35.3038C123.841 34.4712 123.989 33.6658 124.131 32.8494C123.416 32.3414 123.58 31.2859 122.785 30.8227C122.501 30.7224 122.127 30.8 121.949 30.4268C121.811 29.9128 121.668 29.3879 121.571 29.0161C120.857 28.3259 120.274 27.7549 119.71 27.2088C119.038 26.8893 118.402 26.5732 117.754 26.2895C117.463 26.1591 117.138 26.0717 116.817 26.0224C116.722 26.0071 116.597 26.1545 116.429 26.2685C116.988 26.6485 117.475 26.9756 117.894 27.2606C118.008 27.8939 117.365 27.8307 117.278 28.1284C117.288 28.3327 117.288 28.4605 117.297 28.5641C116.09 28.8036 115.409 27.6596 114.338 27.5642C114.151 27.8629 114.004 28.1486 113.815 28.401C113.605 28.6829 113.062 28.646 113.106 29.2182C113.386 29.381 113.707 29.4031 114.036 29.4008C114.357 29.3957 114.689 29.3853 115.01 29.3802C115.375 29.6643 115.711 29.9287 116.049 30.2123C116.065 30.218 116.025 30.3044 116.004 30.4156C114.46 30.3172 112.89 30.474 111.278 29.95C111.035 29.7089 110.733 29.4015 110.441 29.116C110.084 29.0171 109.77 28.9244 109.505 28.8489C108.964 28.959 108.491 29.0838 108.006 29.1404C106.855 29.2722 105.748 29.5652 104.656 29.9184C103.811 30.1944 102.964 30.3425 102.088 30.3703C101.856 30.3798 101.643 30.3134 101.726 29.9231C102.446 29.5115 103.225 29.1391 104.083 28.9858C104.287 28.7936 104.489 28.6094 104.666 28.4439C105.581 28.1012 106.492 27.976 107.434 27.9439C108.632 27.9109 109.831 27.7964 111.022 27.679C111.478 27.63 111.844 27.3944 111.996 26.8094C111.882 26.6414 111.741 26.4185 111.601 26.1956C111.44 25.9288 111.521 25.5194 111.121 25.3599C110.611 25.2528 110.191 25.4874 109.805 25.7526C109.601 26.0455 109.417 26.3088 109.294 26.4753C108.327 26.9913 107.472 26.4699 106.571 26.4619C106.092 27.0954 105.413 27.4941 104.688 27.7124C103.67 28.0098 102.814 28.574 101.871 29.1258C100.819 29.2103 99.9088 29.5912 99.3086 30.5926C99.1544 30.8483 98.8217 31.041 98.531 31.1664C97.6342 31.5612 96.7141 31.893 95.7988 32.2629C95.2561 32.4817 94.65 32.596 94.2547 33.095C94.5934 33.3242 95.0634 33.3626 95.3047 33.8675C95.1661 34.6214 94.6915 35.2931 94.4293 35.9578C93.9949 36.3608 93.5896 36.6556 93.297 37.0449C92.9346 37.5281 92.5646 37.9813 92.0444 38.3175C91.4993 38.6723 91.0281 39.1537 90.4516 39.4426C89.7543 39.7893 89.1319 40.208 88.717 40.5815C88.1537 41.3496 87.7101 41.9593 87.2833 42.5475C87.4884 42.7933 87.6401 42.9837 87.7813 43.1522C87.6323 43.574 87.3659 43.708 86.8988 43.6616C86.7137 43.514 86.4985 43.2191 86.0318 43.3005C85.943 43.3968 85.796 43.5547 85.66 43.7074L85.639 43.6635C85.639 43.6635 85.5979 43.6763 85.5731 43.6949C85.5975 43.7035 85.6299 43.715 85.6571 43.7155C85.8321 44.124 85.9961 44.5378 86.1658 44.9354C86.2994 44.9187 86.4268 44.9455 86.5065 44.9007C87.2144 44.4209 87.917 43.9301 88.6063 43.4255C88.9232 43.1999 89.0221 42.8425 89.1048 42.4794C88.9583 42.455 88.8147 42.4225 88.6248 42.3919C88.7098 42.203 88.7404 42.0131 88.8506 41.9334C89.6391 41.3544 90.4463 40.8002 91.262 40.2217C91.6223 40.3125 91.9796 40.4114 92.2802 40.4902C92.6811 40.2852 93.0081 40.1088 93.3293 39.9486C93.4357 40.0865 93.4996 40.1638 93.6059 40.3017C93.0756 40.7439 92.5343 41.1914 92.0317 41.6068C91.9294 41.9995 91.8558 42.311 91.7827 42.5954C91.132 43.5333 90.362 44.2923 89.3916 44.8435C88.8199 45.1707 88.3382 45.63 87.9692 46.1839C87.9329 46.2349 87.9905 46.3557 88.0077 46.4621C88.6773 45.9871 89.3523 45.523 90.0086 45.0341C90.6262 44.5772 91.2491 44.1313 91.8215 43.6219C92.4325 43.0805 92.99 42.4837 93.5247 41.9519C94.0869 41.7034 94.5861 41.4784 95.0386 41.2824C95.2968 40.9905 95.5055 40.7358 95.7327 40.5058C96.0015 40.2359 96.2969 39.9935 96.612 39.7217C96.9018 39.1854 96.9718 38.4711 97.6304 38.1564C97.6207 38.7004 97.819 39.1719 98.2239 39.6526C98.6 39.6212 99.0252 39.5799 99.3902 39.5537C99.7855 39.2098 100.12 38.9356 100.512 38.5998C102.039 38.2816 103.538 37.4977 105.24 37.7431C105.5 37.7804 105.785 37.6985 106.052 37.6651C106.537 37.6085 107.026 37.4894 107.516 37.4982C108.988 37.5164 110.485 37.4616 111.74 38.4799C111.799 38.8292 111.858 39.1786 111.908 39.4515C112.904 39.7306 113.792 39.9805 114.528 40.195C115.138 40.6657 115.607 41.0414 115.993 41.3422C116.384 41.8363 116.496 42.2953 116.479 42.8093C116.451 43.5842 116.299 44.3243 116.001 45.0399C115.75 45.6449 115.508 46.2528 115.295 46.7795C115.437 47.3589 115.55 47.8371 115.662 48.2962C115.562 48.7351 115.47 49.1498 115.364 49.5778C115.522 49.5969 115.625 49.6151 115.763 49.6366C116.519 48.736 117.281 47.8191 118.059 46.9079C118.121 46.8383 118.254 46.8216 118.369 46.7802C118.544 46.8785 118.736 46.9826 118.916 47.092C119.088 47.1985 119.255 47.3212 119.389 47.4052C119.383 47.6037 119.405 47.7211 119.371 47.8184C118.82 49.2479 118.264 50.6664 117.705 52.093C117.668 52.1984 117.628 52.3119 117.559 52.3787C116.858 53.0709 116.732 54.0209 116.469 54.7127C115.984 55.3897 115.55 55.8934 115.233 56.4564C114.763 57.3214 114.379 58.226 113.947 59.1134C113.707 59.6125 113.518 60.1206 113.565 60.6847C113.612 61.2487 113.464 61.7712 113.208 62.2645C112.808 63.0355 112.405 63.8146 111.964 64.5712C111.664 65.0855 111.277 65.5602 110.977 66.0745C110.238 67.3373 109.322 68.5371 109.27 69.9238C108.84 70.5473 108.493 71.0363 108.155 71.5282L108.18 71.5368C106.999 72.7618 106.424 74.3105 105.809 75.8449C104.919 76.735 104.445 77.8448 104.108 79.0304C104.245 78.9785 104.401 78.9514 104.506 78.8607C105.446 78.0341 106.38 77.1965 107.302 76.3451C107.504 76.161 107.644 75.9186 107.803 75.7011C108.191 75.172 108.557 74.6262 108.958 74.111C110.359 72.2887 111.615 70.3875 112.559 68.2849C113.009 67.2944 113.54 66.3326 114.069 65.3789C114.781 64.0884 115.513 62.8146 116.238 61.5379C116.289 61.4463 116.286 61.3265 116.312 61.1991C116.271 60.9562 116.229 60.6861 116.191 60.5086C116.791 58.914 117.46 57.435 118.322 56.0791C118.488 56.1012 118.583 56.1164 118.748 56.1384C118.627 56.9716 118.291 57.692 117.792 58.3551C117.736 58.4358 117.755 58.5613 117.734 58.6724C117.831 58.9163 117.935 59.1631 118.021 59.385C117.8 60.4748 117.087 61.2538 116.542 62.0467C116.494 62.4403 116.453 62.7634 116.437 62.8855C116.253 63.4319 115.732 63.5395 115.845 64.0721C115.984 64.0664 116.114 64.0579 116.272 64.0498C116.39 63.8451 116.494 63.6538 116.606 63.4654C116.744 63.2311 116.873 62.994 117.032 62.7765C117.063 62.7416 117.209 62.7932 117.429 62.8162C116.855 64.1827 116.163 65.4436 115.282 66.6196C115.992 66.8064 116.078 65.9428 116.711 65.9568C116.343 66.6114 115.984 67.2144 115.663 67.8399C115.158 68.8294 115.134 68.9487 115.112 69.7618C115.499 69.6708 115.512 69.2738 115.693 69.0186C115.906 68.7013 116.11 68.3812 116.27 68.1365C116.693 67.9209 117.01 67.6681 117.493 67.8754C116.769 70.1833 115.568 72.2405 114.376 74.1918C113.791 74.5323 113.326 74.8151 112.809 75.116C112.635 75.4013 112.442 75.7161 112.271 75.9933C112.405 76.2596 112.494 76.4463 112.583 76.6329C112.227 77.2278 111.893 77.785 111.548 78.3475C110.906 78.6951 110.279 79.0213 109.666 79.3885C109.341 79.584 109.04 79.8426 109.081 80.2949C109.226 80.5832 109.365 80.8605 109.515 81.1597C109.383 81.3778 109.292 81.583 109.161 81.7466C108.405 82.6744 107.645 83.6104 106.859 84.5187C106.214 85.2581 105.519 85.9612 105.127 86.8901C105.05 87.0819 104.886 87.2613 104.734 87.4082C104.127 87.9878 103.675 88.649 103.553 89.5093C103.528 89.7102 103.369 89.9005 103.257 90.089C102.999 90.5088 102.728 90.9148 102.429 91.3747C102.211 91.5259 101.966 91.7038 101.712 91.8788L101.672 91.8373L101.666 91.9079L101.718 91.8898C101.476 92.1875 101.196 92.4627 101.008 92.7886C100.274 94.0896 99.2165 95.1209 98.1997 96.2944C97.2294 96.5355 96.6274 97.3355 96.1117 98.1752C95.8148 98.6542 95.481 99.0563 95.0638 99.4107C94.9478 99.5066 94.8824 99.6659 94.7788 99.8301C94.8441 99.9809 94.8904 100.134 94.9862 100.25C95.042 100.325 95.1723 100.343 95.272 100.397C95.6318 100.36 95.9836 100.32 96.3434 100.283C95.361 101.204 94.3251 102.069 93.4124 103.052C92.2638 104.288 90.8767 105.321 90.0387 106.841C89.9627 106.978 89.8405 107.118 89.7112 107.2C89.1141 107.573 88.9387 108.25 88.5109 108.737C88.0966 109.084 87.7248 109.491 87.3105 109.837C87.0646 110.042 86.7735 110.194 86.4747 110.317C86.2389 110.416 86.0672 110.282 86.0669 110C86.3648 109.621 86.7356 109.269 86.9472 108.851C87.2346 108.295 87.6204 107.875 88.1302 107.517C88.6261 107.172 89.1086 106.814 89.5592 106.416C89.8881 106.131 90.177 105.804 90.4496 105.472C90.5136 105.394 90.4568 105.219 90.4492 105.034C89.5324 105.485 88.7167 105.909 88.1023 106.64C87.9968 106.758 87.8589 106.865 87.7214 106.944C86.9849 107.35 86.5023 108.018 85.9499 108.626C85.284 109.349 84.5966 110.055 83.8586 110.697C82.5483 111.849 81.1073 112.855 80.2007 113.948C79.3544 114.562 78.7411 114.929 78.2184 115.401C77.5325 116.026 76.9481 116.75 76.2889 117.402C75.9814 117.704 75.6311 117.972 75.2703 118.219C74.0555 119.049 72.9733 120.071 71.6498 120.744C71.6059 120.765 71.5696 120.816 71.5281 120.856C70.8889 121.452 70.0156 121.754 69.5257 122.521C69.4445 122.647 69.2531 122.698 69.1181 122.797C68.4431 123.261 67.7682 123.725 67.0986 124.2C66.6933 124.495 66.2705 124.71 65.7708 124.807C64.2198 125.117 62.7737 125.801 61.2175 126.1C60.9035 126.162 60.609 126.35 60.326 126.505C59.6582 126.872 59.001 127.26 58.1075 127.774C56.9834 128.709 56.2612 129.075 54.8606 129.346C54.7838 129.228 54.6526 129.108 54.6197 128.969C54.4877 128.439 54.4159 127.893 54.5101 127.343C54.5436 127.145 54.4902 126.934 54.4793 126.784C53.9636 126.411 53.441 126.573 52.9782 126.436C52.5641 126.317 52.1671 126.15 52.0389 125.712C52.3158 125.29 52.6651 125.386 52.9628 125.473C53.4853 125.621 53.9877 125.826 54.4581 125.992C54.8714 125.855 54.9775 125.555 55.0649 125.23C55.3569 124.12 55.7109 123.041 56.2624 122.022C56.4649 121.656 56.7141 121.415 57.1306 121.398C57.9408 121.584 58.7401 121.775 59.526 121.953C59.8056 121.833 60.0524 121.728 60.2032 121.663C60.5546 121.185 60.4269 120.565 61.0273 120.312L61.8466 120.601C62.3692 120.284 63.013 120.192 63.6672 120.122C64.196 120.072 64.7262 119.94 65.1252 119.534C64.7364 119.369 64.3475 119.204 63.9644 119.023C63.8995 119 63.8886 118.85 63.8366 118.713C64.2623 118.49 64.7015 118.28 65.1196 118.026C65.6064 117.733 65.7988 117.472 66.0596 116.889C65.2278 116.997 64.6407 117.574 63.8074 117.763C63.5354 117.758 63.1546 117.752 62.801 117.745C62.4202 117.893 62.0694 118.034 61.7486 118.167L60.9051 117.869C60.7793 117.451 60.6506 117.04 60.54 116.682C60.6997 115.972 61.0806 115.513 61.6619 115.262C62.279 114.988 62.784 114.591 63.2523 114.118C63.2967 114.07 63.2558 113.928 63.2577 113.819C62.6402 113.811 62.1238 114.084 61.5912 114.352C61.0118 114.65 60.3574 115.03 59.7161 114.83C58.8234 114.542 57.847 114.827 57.0779 114.318C56.6479 114.476 56.2919 114.606 55.9989 114.712C55.829 114.625 55.7374 114.574 55.6377 114.521C55.2045 114.249 55.7874 113.606 55.1662 113.35C55.0259 113.438 54.8416 113.546 54.6574 113.654C54.4758 114.375 54.2923 115.049 54.3798 115.782C54.4269 116.191 54.2359 116.525 54.1476 116.594C53.2112 117.076 52.5411 117.423 51.9807 117.717C51.5835 118.325 51.2507 118.828 50.9456 119.304C51.036 120.185 51.1158 121.043 51.219 122.12C51.4617 122.543 52.0132 123.048 52.0295 123.957C51.9049 124.232 51.7239 124.616 51.5371 125.015C51.2809 125.043 51.0709 125.069 50.8419 125.098C50.6792 124.912 50.4994 124.776 50.3992 124.594C50.1012 124.069 49.836 123.529 49.5571 123.001C49.507 122.911 49.413 122.841 49.3438 122.753C49.0523 122.622 48.7527 122.489 48.4531 122.356C48.2286 121.829 48.0145 121.325 47.8028 120.839C46.9294 119.774 46.0146 118.748 45.6428 117.476C45.2269 117.001 44.8616 116.589 44.4857 116.155C44.3358 114.952 43.7206 113.904 43.2009 112.845C42.7997 112.457 42.4066 112.072 42.1071 111.783C41.8363 111.104 41.6838 110.502 41.3772 110.002C41.0018 109.385 40.711 108.763 40.6339 108.051C40.1764 107.771 39.7537 107.521 39.3449 107.258C39.2643 107.202 39.2147 107.084 39.1536 106.999C39.1504 106.569 39.1554 106.142 39.1579 105.696C38.8426 105.374 38.5516 105.062 38.2578 104.757C38.1718 105 38.0858 105.244 37.6349 105.358C36.7923 104.851 36.41 103.867 35.8534 103.041C35.7196 102.154 35.5687 101.316 35.1176 100.527C34.7165 99.8288 34.3985 99.0504 34.2303 98.2611C34.0927 97.592 33.8615 96.9811 33.4732 96.479C32.8136 95.6346 32.4661 94.6815 32.2231 93.665C32.2743 93.236 32.3308 92.818 32.3753 92.4597C32.1091 92.1284 31.8988 91.8716 31.7151 91.6425C31.658 91.1844 31.6086 90.7563 31.5563 90.3363C30.9729 89.6375 30.4301 88.953 30.1728 87.9771C30.2049 87.7056 30.2441 87.3362 30.2858 86.986C30.5067 86.9546 30.6623 86.9275 30.8069 86.9056C30.8332 86.8054 30.8924 86.6894 30.8695 86.5992C30.7699 86.2356 30.6403 85.8796 30.5426 85.5622C30.2196 85.366 29.9396 85.2031 29.6543 85.0293C29.4128 83.7762 29.1379 82.5659 29.4137 81.2948C29.4906 80.9479 29.3534 80.5618 29.3229 80.2864C28.9909 79.9866 28.7553 79.7756 28.5411 79.5813C28.9595 78.5522 29.012 78.5069 30.0504 78.4085C29.9891 77.5748 29.6343 76.8746 29.1034 76.2856C28.8414 76.3299 28.664 76.3675 28.3418 76.427C28.6121 75.9203 28.8093 75.543 28.9812 75.2114C28.9901 74.4116 28.9956 73.6472 28.9973 72.9453C29.1988 72.7883 29.3176 72.6843 29.4527 72.5861C29.2096 71.8798 28.9694 71.1653 28.7315 70.4699C28.9107 69.7304 28.8413 69.0489 28.4063 68.4208C28.2551 68.2031 28.1593 67.932 28.0959 67.6724C27.9902 67.1971 27.9336 66.7118 28.2874 66.2529L28.7092 66.4019C28.7294 65.8799 28.7768 65.3583 28.767 64.8439C28.7576 64.4574 28.8374 64.1024 29.0093 63.7708C29.2036 63.7117 29.4054 63.6826 29.4861 63.4283C29.6162 62.8538 28.9229 62.6728 28.82 62.1893C28.7614 61.8128 28.6513 61.4272 28.6825 61.055C28.7616 60.1341 28.9113 59.2198 29.0338 58.3051C29.0481 58.2646 29.1139 58.2331 29.1803 58.1744C29.3988 58.279 29.6226 58.3946 29.9193 58.5359C30.1963 57.9586 30.2376 57.3254 30.0813 56.7866C29.8535 55.9853 29.8982 55.1617 29.6804 54.4096L30.0129 53.4687C30.2553 53.454 30.4728 53.613 30.7339 53.3129C30.7683 53.2156 30.8591 53.0104 30.8763 52.8066C30.9664 51.7254 30.91 50.6197 31.5775 49.6603C31.6558 49.542 31.6187 49.3373 31.6488 49.1746C31.7401 48.6321 31.8367 48.1005 31.9333 47.569C32.6004 46.8862 33.1393 46.0152 33.5501 44.956C33.6671 44.6507 33.8327 44.3625 33.9793 44.0767C34.337 43.4002 34.7 42.7346 35.1163 41.9694C35.4009 41.5773 35.7603 41.1021 36.1146 40.616C36.3433 40.3044 36.5343 39.9705 36.7897 39.6866C37.8944 38.4712 39.1006 37.3555 40.3708 36.3171C40.7546 36.0056 41.1704 35.7328 41.7411 35.6152C42.099 35.6869 42.5246 35.7734 42.8199 35.8413C43.3143 35.7332 43.4463 35.205 43.9964 35.3264C44.1009 35.418 44.2726 35.5517 44.4166 35.7121C45.2996 36.6992 45.8465 37.9144 46.5284 39.0313C46.9987 39.8178 47.2598 40.7313 47.6512 41.6634C48.5777 42.1915 48.9854 43.1293 49.2307 44.1649C49.4232 44.9628 49.5446 45.7813 49.8302 46.5482C50.6029 48.6734 50.9251 50.8858 51.2856 53.0934C51.3665 53.5873 51.4751 54.0545 51.7312 54.4917C51.8104 54.6292 51.8428 54.7957 51.8895 54.9217C51.9046 55.4471 51.923 55.9372 51.94 56.3538C52.1455 56.8826 52.3276 57.3484 52.473 57.7373C52.5952 58.9666 52.5666 60.1061 52.3329 61.1549C52.4677 61.8321 52.6068 62.4196 52.6886 63.0142C52.7776 63.6661 52.8093 64.325 52.8821 64.9712C53.1604 67.3596 53.2941 69.7699 54.1947 72.0498C54.486 72.8005 54.5414 73.6504 54.6991 74.4178C54.5291 74.7957 54.3787 75.144 54.2454 75.4436C54.3057 76.3317 54.3373 77.1458 54.4206 77.9689C54.509 78.8031 54.4619 79.6076 54.1892 80.4054C54.1548 80.5027 54.1772 80.6201 54.1771 80.7752C54.3049 81.0849 54.4536 81.4386 54.5633 81.6963C54.6193 82.519 54.5117 83.2109 54.2547 83.8865C54.1286 84.2434 54.0402 84.6227 53.9384 84.9882C53.5265 86.412 53.1013 87.8219 52.7056 89.2514C52.5575 89.7739 52.4199 90.3183 52.4049 90.8513C52.367 92.5076 51.6593 94.0458 51.589 95.6907C51.5871 95.7995 51.5336 95.8992 51.4801 95.9989C51.2036 96.549 51.1791 97.1607 51.1139 97.7581C50.8975 99.6615 50.5213 101.527 49.9571 103.408C50.1702 103.811 50.3991 104.248 50.5622 104.561C51.1222 105.042 51.5472 105.466 52.0391 105.804C52.5767 106.167 53.176 106.434 53.5911 106.653C54.0214 107.088 53.7004 107.687 54.211 107.894C54.4797 107.779 54.7183 107.672 55.0089 107.547C55.34 107.746 55.6048 108.004 55.7459 108.482C55.7424 108.828 55.7346 109.263 55.723 109.606C56.134 110.508 56.9313 110.808 57.5424 111.17C57.8486 111.543 58.0828 111.835 58.2374 112.018C59.0141 112.402 59.5411 111.995 60.1429 111.815C60.4336 111.535 60.7491 111.236 61.0064 110.998L61.5825 109.368C61.72 109.289 61.8551 109.19 62.003 109.133C62.4058 108.974 62.8163 108.846 63.1914 108.714C63.5327 108.342 63.6001 107.918 63.638 107.475C63.6897 106.864 63.0996 106.546 62.9972 106.036C63.1348 105.646 63.3043 105.296 63.3789 104.93C63.4534 104.564 63.4278 104.171 63.4327 103.899C63.576 103.339 64.1474 103.039 63.9009 102.368C63.6576 102.282 63.3737 102.181 63.0817 102.078C63.0492 102.067 63.0536 101.977 63.0331 101.906C63.2145 101.651 63.4069 101.39 63.6384 101.071C63.8717 99.894 64.1332 98.6634 64.3541 97.4185C64.4416 96.9385 64.4943 96.4279 64.4267 95.9479C64.322 95.2631 64.5155 94.638 64.6494 94.001C64.7 93.7543 64.9105 93.5459 65.059 93.3064C65.9942 93.5 66.3881 94.2961 66.962 94.7634C67.3246 94.8733 67.6305 94.9632 67.8524 95.0325C68.3112 95.5413 68.3138 96.3086 69.2047 96.3953C69.585 96.4293 69.9593 95.8865 70.5266 96.1143C70.6844 96.4164 70.847 96.7567 71.0483 97.065C71.2548 97.3843 71.489 97.6769 71.7175 97.9858C72.1536 98.0942 72.5544 98.1994 72.958 98.2964C73.0318 98.733 73.0961 99.0934 73.1609 99.4265L73.6394 99.5956C74.2183 99.4808 74.7451 99.3841 74.9036 99.3488C75.6027 99.3586 75.832 99.7682 76.2831 99.4987C76.4254 99.3026 76.6421 99.0508 76.7806 98.7621C76.9019 98.5221 76.945 98.2454 77.0004 98.0369C76.9266 97.6002 76.8651 97.2318 76.8113 96.8935C77.0477 96.612 77.2534 96.3654 77.4869 96.092C76.958 95.084 77.1021 94.0309 77.1058 93.0651C76.8793 92.4924 76.6762 91.9827 76.4755 91.4921C76.2985 91.3474 76.1268 91.2137 75.9016 91.0246C75.8637 90.4091 75.7747 89.7572 75.8026 89.1101C75.8396 88.4115 75.9935 87.7178 76.092 87.0774C75.957 86.8655 75.8836 86.7118 75.7797 86.593C75.6356 86.4326 75.4748 86.2936 75.3036 86.1328C75.2822 84.7475 75.2631 83.3813 75.2359 82.0122C75.2162 81.1385 75.2046 80.2676 75.1577 79.3934C75.0875 78.146 74.6279 76.9161 74.8928 75.6502C74.6397 74.7397 74.7408 73.8082 74.6757 72.882C74.6245 72.0975 74.6787 71.3502 74.9285 70.6173C75.1531 69.9303 75.2283 69.2269 75.0877 68.566C74.8169 68.0414 74.567 67.5608 74.288 67.0334C74.5383 66.4284 74.7938 65.8344 75.0298 65.27C74.9177 65.1482 74.8509 65.0791 74.7493 64.9793C74.5626 65.2235 74.376 65.4678 74.1306 65.8008C73.9885 65.3765 74.0349 65.0644 74.1166 64.7557C74.4205 63.5858 74.5045 62.3928 74.6023 61.1865C74.6613 60.4774 74.7799 59.7803 74.8516 59.2674C75.3372 58.4354 75.7192 57.7674 76.16 57.0107C76.7661 56.7414 77.1137 56.1708 77.2767 55.4255C77.3809 54.924 77.656 54.4555 77.8604 53.9803C77.7258 54.0513 77.5668 54.1138 77.4833 54.2211C76.8951 55.0078 76.1752 55.7023 75.7698 56.6174C75.7187 56.7362 75.5326 56.7982 75.4142 56.875C75.2515 56.6898 75.1156 56.5322 74.9663 56.3608C74.3257 56.8827 73.8349 57.5487 73.1848 57.9941C72.8804 57.8227 72.9727 57.3808 72.4635 57.4016C72.2587 57.5938 71.9981 57.8667 71.7083 58.0928C71.62 58.162 71.4492 58.129 71.234 58.1442C71.3697 57.5535 71.4878 57.0386 71.603 56.5318C71.1181 56.7163 71.115 57.3448 70.769 57.5236C70.2602 57.8274 69.8397 58.062 69.3973 58.152C68.9002 57.648 69.6295 57.1849 69.3138 56.7358C69.0633 56.7476 68.8018 56.7647 68.4668 56.7832C68.5631 55.6585 68.6533 54.5772 68.7439 53.4687C68.5716 53.3622 68.3565 53.2223 68.0793 53.0514C68.2102 52.5776 68.3464 52.1148 68.4888 51.6085C68.1879 50.9365 67.8765 50.2426 67.5418 49.4856C67.5173 48.7288 67.6083 47.9033 67.266 47.1163C66.9155 46.3264 66.8801 45.4198 66.3602 44.6704C66.148 44.3673 66.0818 43.9607 65.9631 43.5994C65.8001 43.1312 65.6642 42.6635 65.4874 42.2087C65.2743 41.6498 65.012 41.101 64.8099 40.5369C64.3513 39.2526 63.9147 37.9578 63.4671 36.6683C63.3374 36.3122 63.2608 35.8837 63.0151 35.6236C62.3159 34.8655 62.058 33.9167 61.7014 33.0152C61.223 32.5359 60.766 32.0734 60.3009 31.6079C59.6808 30.9874 59.0382 30.4045 58.2176 30.0415C57.8774 29.8939 57.6137 29.5818 57.3775 29.398C57.213 29.0114 57.0934 28.7045 56.9394 28.3399C56.5296 27.9761 56.1017 27.5603 55.6294 27.1927C55.4739 27.0648 55.2134 27.0274 55.1126 27.3385C55.2198 27.8873 56.134 28.037 55.8741 28.8759C55.5735 28.797 55.3163 28.7244 55.0591 28.6517C54.7423 28.5672 54.4336 28.4854 54.0681 28.3836C53.2987 28.8052 52.4216 28.8603 51.5546 28.9645C50.3658 29.101 49.149 29.1363 48.0088 29.6001C47.6661 29.7436 47.2734 29.7965 46.8913 29.5611C47.0698 29.314 47.2455 29.075 47.4269 28.8198C47.302 28.657 47.2009 28.53 47.1317 28.4417C46.6102 28.2392 46.0007 28.5439 45.5509 27.9835C46.412 27.3024 47.4761 27.5963 48.3013 27.2492C48.8137 27.3482 49.2393 27.4347 49.6053 27.5092C50.0362 27.4517 50.4175 27.4313 50.7864 27.3426C51.2044 27.244 51.6073 27.0853 51.9657 26.9747C52.6695 27.0227 53.2381 27.4791 53.9807 27.34C53.9483 27.1735 53.9656 26.9697 53.8745 26.8919C53.542 26.6193 53.1908 26.3219 52.802 26.1571C52.3859 25.9919 52.1055 25.7012 51.8279 25.4023C51.5014 25.7067 51.1806 25.9948 50.9262 26.2242C49.9135 26.4047 49.1516 25.7978 48.2708 25.7603C47.2186 25.717 46.6665 25.7044 45.5755 26.0031C45.1769 26.5375 46.0067 26.5387 45.9531 26.9486C45.5588 27.3932 45.0159 27.0189 44.5696 27.1714C44.5286 27.1843 44.4585 27.1504 44.4127 27.1251C44.3669 27.0998 44.3297 27.0501 44.2948 27.0196C44.0826 26.7165 44.6621 26.2643 44.0547 25.995C43.3995 26.1193 42.8295 26.6478 42.0842 26.6399C41.3197 26.6344 40.5548 26.656 39.8228 26.6619C37.9685 27.649 35.7728 29.4735 35.1463 30.5751C35.0273 30.9893 34.8912 31.4521 34.775 31.8581C34.5072 32.2288 34.2814 32.5322 34.1224 32.7497C33.9504 33.3915 33.8185 33.9197 33.6842 34.4288C33.3209 34.8113 32.9772 35.1644 32.7304 35.4239C32.2381 36.3265 32.1056 37.1921 31.9144 38.1464C31.6475 38.4627 31.3415 38.8381 31.0193 39.2078C30.3719 39.9553 29.7141 40.6809 29.3892 41.6518C29.3004 41.9033 29.1356 42.137 29.0062 42.3742C28.5445 43.242 28.0288 44.0817 27.6238 44.9696C26.9409 46.4891 26.9141 46.7716 26.9316 48.2194C26.5071 48.9818 26.0297 49.6616 25.7279 50.4126C25.4117 51.2041 24.7839 51.9221 25.0121 52.8512C25.1957 53.0804 25.3608 53.2847 25.43 53.373C25.3452 54.1551 25.3254 54.805 25.1944 55.4339C25.0606 56.0709 24.8236 56.6897 24.6559 57.2417C24.6826 57.4245 24.6749 57.5495 24.7169 57.6373C25.2748 58.8472 25.0047 60.1021 24.9307 61.3442C24.9182 61.5862 24.815 61.8782 24.4251 61.9229C23.9458 61.3429 24.8413 60.5645 24.2231 59.9902C23.9024 60.1232 23.7429 60.368 23.6813 60.6199C23.5494 61.1481 23.3625 61.7025 23.4158 62.2231C23.5417 63.7001 23.4691 65.1707 23.3583 66.6462C23.3344 66.9205 23.2803 67.2025 23.3356 67.4593C23.5285 68.3851 23.3569 69.3098 23.3565 70.2404C23.3559 70.7328 23.3199 71.2219 23.3102 71.6108C23.6424 72.8139 24.1297 73.862 24.2433 74.9606C24.1357 75.4974 23.6317 75.8393 23.8624 76.6325C23.952 76.7919 24.1957 77.1609 24.3464 77.5608C24.497 77.9607 24.5465 78.3888 24.6198 78.6976C25.0912 79.1196 25.5953 78.6225 26.0336 79.0603C26.0713 79.2378 26.1537 79.495 26.1899 79.7542C26.2161 79.9641 26.2012 80.1869 26.1782 80.4069C26.1111 81.2682 26.4223 82.1173 26.287 82.991C26.2411 83.2758 26.5922 83.5732 26.4088 83.9373C26.1376 84.3433 25.5603 84.0663 25.1942 84.4569C25.1574 84.5352 25.0786 84.6807 25.0079 84.8291C25.2094 85.7305 25.4 86.6373 25.6206 87.5364C25.6458 87.6457 25.8133 87.714 25.977 87.8448C25.9959 86.9391 26.0076 86.1312 26.0547 85.3267C26.0595 85.2098 26.2056 85.1063 26.3755 84.8835C26.4808 85.386 26.5231 85.7568 26.6366 86.1071C26.7734 86.5204 26.9622 86.9156 27.1424 87.3351C27.0115 87.8089 26.8753 88.2717 26.7535 88.694C26.887 88.9875 26.9943 89.2261 27.1278 89.5197C26.9063 89.7334 26.7206 89.9232 26.5215 90.0992C26.3473 90.2566 26.3863 90.6627 25.8089 90.5408C25.7698 90.4449 25.7026 90.2478 25.6688 90.1629C25.7696 89.6967 25.8404 89.3932 25.9025 89.1141C25.5357 88.7838 25.2617 88.8877 24.9705 89.1954C24.9599 89.4836 24.9488 89.799 24.932 90.1306C24.9181 90.4542 24.8879 90.772 24.8658 91.0926C25.0447 91.2836 25.1916 91.4358 25.2474 91.5103C25.7064 91.709 26.1426 91.3522 26.4794 91.8453C26.3437 93.4944 27.2379 94.9143 27.8706 96.3514C28.0249 97.1541 28.1611 97.9047 28.2926 98.6172C28.6393 99.1594 29.386 99.2409 29.5848 99.9954C29.5278 100.441 29.4474 100.978 29.3632 101.578C29.6236 102.08 29.8916 102.613 30.1939 103.203C30.1284 103.518 29.9913 103.88 29.9874 104.253C29.9796 104.688 30.0724 105.122 30.111 105.4C30.0233 106.345 29.3707 107.082 29.9044 107.973C30.3748 108.139 30.8323 108.42 31.1586 108.891C31.1824 108.927 31.3385 108.872 31.4559 108.85C31.2734 107.946 31.5682 106.983 31.0494 106.179L31.2184 105.7C31.7222 106.134 31.8489 106.808 32.2151 107.321C32.2709 107.395 32.3874 107.427 32.4761 107.486C32.6675 107.435 32.867 107.387 33.0584 107.336C33.5926 107.89 33.7403 108.608 34.0335 109.25C34.1723 109.554 34.3225 109.826 34.5963 110.032C34.8448 110.44 35.1152 110.836 34.9317 111.355C34.9002 111.445 34.7957 111.508 34.6959 111.61C34.5575 111.588 34.4058 111.553 34.3271 111.543C33.6849 111.088 33.8327 110.283 33.4005 109.802C33.2612 109.834 33.1519 109.86 33.0345 109.882L32.725 110.758C32.5135 110.866 32.3322 110.966 32.1207 111.074C32.4336 111.686 32.7306 112.266 33.0224 112.834C33.3712 113.112 33.7065 113.377 34.0123 113.622C34.3063 113.461 34.2702 113.047 34.6424 113.078C35.084 113.791 35.0992 114.006 34.8673 115.411C34.6358 115.576 34.1997 115.467 34.0888 115.884C34.0303 116.721 34.5697 117.441 34.6142 118.451C34.342 120.125 34.6057 121.961 34.8708 123.715C34.6956 124.082 34.5571 124.371 34.4215 124.651C35.0597 125.324 35.1591 126.153 35.344 126.92C35.5386 127.144 35.7366 127.333 35.8849 127.559C36.5154 128.511 37.1678 129.454 37.7406 130.441C38.1154 131.084 38.5523 131.603 39.2355 131.89C39.873 132.152 40.2999 132.622 40.679 133.176C41.1751 133.89 41.6567 134.644 42.2606 135.259C42.9446 135.956 43.5428 136.743 44.37 137.345C44.7422 137.221 45.0954 137.1 45.4156 136.994C45.7573 137.06 46.0636 137.122 46.3618 137.182C46.4258 136.949 46.4612 136.798 46.5138 136.597C46.7619 136.566 47.0263 136.541 47.2635 136.515C47.9686 137.102 48.152 137.952 48.6299 138.613C48.7839 138.823 48.8716 139.091 48.935 139.351C49.0131 139.698 49.1581 139.959 49.5174 140.104C49.8743 140.075 50.2475 140.052 50.5552 140.033C51.4111 140.554 52.2026 141.025 52.9993 141.507L53.0509 141.517ZM119.675 28.857C119.345 28.6035 119.024 28.3256 119.071 27.649C119.756 27.8272 120.072 28.1485 120.109 28.8185C119.929 28.837 119.745 28.9181 119.672 28.8651L119.675 28.857ZM120.709 31.2753C120.58 31.2022 120.546 30.9622 120.659 30.9016C120.692 30.8859 120.751 30.8978 120.852 30.8969C120.844 31.0219 120.845 31.1498 120.837 31.2748C120.837 31.2748 120.747 31.2977 120.709 31.2753ZM107.089 32.0189C108.178 31.8806 109.061 31.998 109.738 32.3711C109.48 32.8181 109.024 32.7665 108.631 32.8193C108.26 32.8616 107.882 32.8739 107.509 32.8971C107.089 32.9222 106.67 32.9474 106.073 32.983C106.353 32.3976 106.748 32.2359 107.097 32.0218L107.089 32.0189ZM103.224 31.9579C103.25 31.4196 103.434 31.3385 104.442 31.3757C104.44 31.6395 104.438 31.9034 104.438 32.2408C104.284 32.3415 104.116 32.4554 103.832 32.6381C103.536 32.3144 103.36 32.1154 103.229 31.9688L103.224 31.9579ZM92.3805 38.9929L92.2703 39.0725L92.2727 38.9365L92.3724 38.99L92.3805 38.9929ZM93.5932 38.582C93.7763 38.1844 94.2086 37.8475 94.8901 37.5713C94.5539 38.2645 94.0877 38.3187 93.5932 38.582ZM98.7694 38.3672C98.6763 38.3982 98.5804 38.4373 98.4873 38.4683C98.4663 38.4244 98.4158 38.3609 98.4296 38.3476C98.4988 38.2808 98.5733 38.225 98.6506 38.1611C98.6902 38.2298 98.7298 38.2985 98.7613 38.3644L98.7694 38.3672ZM107.112 35.3116C107.112 35.3116 107.056 35.3922 107.048 35.3893C107.015 35.3779 106.981 35.3473 106.954 35.3196C106.973 35.29 107.01 35.239 107.018 35.2418C107.05 35.2533 107.082 35.292 107.12 35.3144L107.112 35.3116ZM109.053 35.3953C108.988 35.3996 108.922 35.4039 108.852 35.3971C108.901 35.3599 108.951 35.3227 109.009 35.2884C109.024 35.3213 109.04 35.3543 109.053 35.3953ZM98.7463 34.9467C98.354 35.1275 97.9302 35.2423 97.5169 35.3791C97.4758 35.392 97.4196 35.3447 97.3141 35.3075C97.3639 34.805 97.7558 34.4964 98.0074 34.12C97.7535 34.1671 97.5078 34.2171 97.2047 34.2743C97.0932 33.9703 97.0079 33.7211 96.9044 33.42C96.7713 33.4095 96.622 33.3932 96.4697 33.385C96.3609 33.3831 96.2574 33.3921 96.1457 33.3983C96.1529 33.3004 96.1172 33.1692 96.1697 33.1239C96.4852 32.8248 96.8141 32.5396 97.1903 32.1981C98.0555 31.8925 98.9728 31.5688 99.9769 31.4127C100.312 32.0146 99.7502 32.6738 100.185 33.174C100.388 33.3464 100.609 33.315 100.791 33.1877C101.105 32.9702 101.387 32.714 101.683 32.4717C101.729 32.4698 101.792 32.4465 101.841 32.4637C102.198 32.5898 102.555 32.7159 102.976 32.8649C102.933 32.9866 102.903 33.1765 102.809 33.2347C102.386 33.4774 101.964 33.7936 101.502 33.886C100.519 34.0861 99.6436 34.5248 98.7492 34.9386L98.7463 34.9467ZM107.407 73.335L107.332 73.2901L107.417 73.2291L107.415 73.3379L107.407 73.335ZM108.186 72.0865C108.021 71.8822 108.141 71.6966 108.204 71.5182L108.586 71.6529C108.564 71.9463 108.41 72.047 108.178 72.0836L108.186 72.0865ZM117.704 64.6196C117.704 64.6196 117.733 64.5385 117.747 64.498C117.787 64.5395 117.83 64.5729 117.87 64.6144C117.834 64.6383 117.804 64.6731 117.768 64.6969C117.741 64.6692 117.695 64.6439 117.696 64.6167L117.704 64.6196ZM112.812 79.6516C112.867 79.9084 112.85 80.1394 112.623 80.3149C112.519 80.0409 112.643 79.8472 112.812 79.6516ZM115.523 84.6331C115.264 84.204 115.258 84.193 115.778 83.9112C115.976 84.2548 115.811 84.4614 115.523 84.6331ZM110.719 83.3281C110.732 83.2412 110.82 83.1721 110.921 83.0161C110.969 83.1884 111.038 83.3038 111.033 83.4208C111.032 83.4752 110.89 83.5161 110.81 83.561C110.774 83.4841 110.704 83.3958 110.719 83.3281ZM112.744 83.6146C112.957 83.3981 113.131 83.0856 113.509 83.1005C113.528 83.1526 113.578 83.2161 113.567 83.2485C113.34 83.6063 112.956 83.7899 112.481 84.3337C112.635 83.8957 112.647 83.7081 112.744 83.6146ZM111.324 86.0325C111.194 85.8316 111.235 85.6636 111.479 85.5673C111.703 85.6829 111.743 85.8523 111.585 86.0427C111.551 86.0856 111.353 86.0793 111.324 86.0325ZM108.88 88.481C109.009 88.399 109.112 88.2893 109.405 88.0279C109.25 88.7761 108.889 89.0499 108.711 89.4249C108.643 89.5651 108.529 89.7073 108.4 89.7893C108.237 89.8871 108.043 89.9462 107.857 90.0081C108.209 89.5029 108.3 88.8325 108.88 88.481ZM107.781 90.1184C107.71 90.3211 107.617 90.5072 107.438 90.6264C107.552 90.4571 107.667 90.2877 107.781 90.1184ZM104.554 94.4247C104.348 94.6442 104.143 94.8636 103.893 95.1312C103.827 94.5967 104.076 94.3835 104.554 94.4247ZM103.326 98.3888C103.424 98.5782 103.304 98.5543 103.209 98.5662C103.248 98.5071 103.287 98.4479 103.326 98.3888ZM97.8955 98.0847C97.9566 98.0151 98.0845 98.0146 98.1804 97.9755C98.0881 98.5724 98.0824 98.5887 97.0424 99.0788C97.326 98.7411 97.5985 98.4086 97.8874 98.0818L97.8955 98.0847ZM96.87 99.2825L96.4221 100.137C96.4771 99.8006 96.6399 99.5205 96.87 99.2825ZM99.424 101.763C99.611 101.802 99.809 101.836 100.004 101.877C99.7045 102.054 99.3995 102.22 99.0997 102.397C98.816 101.986 99.2383 101.953 99.424 101.763ZM87.055 115.285C87.1115 114.867 87.3673 114.866 87.6178 114.854C87.4946 115.048 87.3738 115.261 87.055 115.285ZM87.6353 114.03C87.6353 114.03 87.5637 114.078 87.5198 114.099C87.485 114.068 87.4282 114.048 87.4234 114.01C87.4187 113.972 87.4578 113.913 87.4907 113.897C87.6196 113.842 87.684 113.892 87.6353 114.03ZM88.7432 110.507C89.4225 109.798 90.0617 109.048 90.7329 108.336C91.249 107.78 91.7812 107.229 92.3321 106.703C92.5259 106.516 92.7865 106.398 93.0775 106.555C93.0947 106.662 93.1605 106.785 93.1184 106.853C92.8969 107.221 92.6591 107.585 92.4132 107.945C92.2958 108.122 92.1826 108.365 92.007 108.449C91.0877 108.881 90.6298 109.842 89.7826 110.354C89.5048 110.521 89.2475 110.758 89.058 111.011C88.4865 111.776 87.6541 112.221 86.9576 112.823C86.8665 112.901 86.6875 112.865 86.5405 112.868C87.1846 112 87.9866 111.28 88.7322 110.513L88.7432 110.507ZM79.1915 116.366C79.3839 116.105 79.5553 115.801 79.8169 115.629C80.4226 115.231 80.8943 114.723 81.3182 114.143C81.9599 113.256 82.8048 112.569 83.6458 111.945C84.0314 111.99 84.0274 112.208 83.9205 112.407C83.7123 112.79 83.4745 113.153 83.3007 113.438C82.1551 114.511 81.2113 115.4 80.2595 116.287C79.9745 116.551 79.6604 116.768 79.2353 116.655C79.2182 116.548 79.1553 116.417 79.1944 116.357L79.1915 116.366ZM75.3768 119.105C75.5768 119.03 75.7057 118.975 75.8317 118.928C75.8611 119.258 75.706 119.258 75.3768 119.105ZM73.1637 121.443C73.1287 121.878 72.8853 121.947 72.5833 121.95C72.6616 121.677 72.7986 121.47 73.1637 121.443ZM71.0825 123.099C70.899 123.773 70.8771 123.783 69.6067 124.073C70.0144 123.643 70.4354 123.226 71.0825 123.099ZM67.3773 127.93C67.0652 127.883 66.7422 127.842 66.3514 127.786C66.4312 127.586 66.4503 127.429 66.5501 127.327C66.6608 127.22 66.8255 127.142 66.9787 127.095C68.7139 126.522 70.2542 125.598 71.5345 124.298C72.0443 123.785 72.7053 123.489 73.1956 123.006C73.7135 122.495 74.3316 122.166 74.9263 121.774C75.3674 121.301 75.8114 120.819 76.2634 120.34C77.0621 119.5 77.9724 118.809 78.9995 118.278C80.164 117.667 81.278 116.993 82.3105 116.163C82.7716 115.788 83.31 115.503 83.8188 115.2C83.8794 115.157 84.0087 115.23 84.1117 115.248C84.1846 115.739 83.7307 115.862 83.492 116.124C83.1951 116.448 82.8662 116.733 82.5774 117.06C82.322 117.344 82.1014 117.658 81.8202 118.015C80.8127 118.362 80.1434 119.275 79.3066 119.965C78.8011 120.388 78.2932 120.793 77.6928 121.046C77.4584 121.373 77.2378 121.688 77.0034 122.016C76.131 122.419 75.4431 123.152 74.501 123.494C74.26 123.583 74.0599 123.813 73.8528 123.986C73.322 124.456 72.7349 124.878 72.279 125.419C71.0253 126.901 69.3682 127.666 67.5127 128.269C67.4631 128.152 67.4216 128.037 67.3692 127.927L67.3773 127.93ZM68.23 129.235C68.3427 129.174 68.5054 129.204 68.6772 129.183C68.352 129.871 68.2341 129.92 67.3251 129.782C67.6196 129.594 67.9169 129.398 68.2219 129.232L68.23 129.235ZM67.2754 129.819C67.2754 129.819 67.2783 129.811 67.2893 129.805L67.274 129.9L67.2754 129.819ZM65.2593 91.2421C64.9338 91.337 64.9105 91.1189 64.9206 91.0129C64.9751 90.5487 65.0731 90.0906 65.1549 89.6268C65.5584 90.1891 65.342 90.7239 65.2593 91.2421ZM64.7457 79.966C64.7655 80.6846 64.6121 81.3512 64.1151 81.9055C64.0955 81.9351 64.0144 81.9064 63.8159 81.9001C63.9851 81.1114 64.1333 80.4339 64.2839 79.7754C64.5674 79.5927 64.742 79.7183 64.7457 79.966ZM65.952 69.8906C66.028 70.8116 66.3387 71.6878 66.5131 72.5888C66.5655 72.8537 66.5496 73.1309 66.5624 73.4821C66.1909 74.0169 65.7402 74.5693 65.3893 75.1752C65.0636 75.7353 64.9293 76.3996 64.5073 76.8709C64.4118 76.8828 64.335 76.9194 64.3083 76.8918C64.1957 76.7972 64.097 76.6894 63.9925 76.5977C64.0525 75.8342 64.4092 75.2121 64.6461 74.4382C64.6023 74.149 64.5519 73.7753 64.4791 73.2843C64.8168 72.1993 65.189 71.017 65.5721 69.8294C65.5865 69.7888 65.6494 69.7654 65.6962 69.7363C65.7878 69.787 65.9558 69.8281 65.9548 69.8825L65.952 69.8906ZM64.7668 68.0029C64.8774 68.3613 65.0562 68.7073 65.1973 69.0309C65.2132 69.9672 64.8017 70.6155 64.0556 71.1C63.8853 71.0398 63.745 70.972 63.6152 70.9261C63.342 70.3825 63.4501 69.8185 63.4813 69.2913C63.5063 68.8074 63.6239 68.3198 63.771 67.8517C63.8752 67.5053 64.0957 67.1909 64.451 66.4953C64.6058 67.2708 64.6562 67.6445 64.7668 68.0029ZM63.9547 64.1302L63.8468 64.2289L63.8521 64.0848L63.9575 64.1221L63.9547 64.1302ZM64.2357 62.7149C64.1441 62.8194 64.0119 62.9096 63.8749 62.9615C63.8339 62.9744 63.6712 62.7892 63.6741 62.7811C63.7605 62.6656 63.8632 62.5559 63.9739 62.449C64.0016 62.4223 64.0717 62.4562 64.1261 62.4572C64.1681 62.545 64.2553 62.6853 64.2357 62.7149ZM53.4061 37.6934C52.971 36.317 52.0891 35.1204 51.4025 33.8102C51.1421 33.3077 50.7624 32.9363 50.3722 32.5429C50.2119 32.3768 50.1667 32.1692 50.255 31.9449C51.2477 31.5111 51.5359 31.5217 53.6148 32.1194C53.8252 32.3762 54.0288 32.7037 54.3045 32.9562C54.5884 33.2116 54.9333 33.3973 55.2506 33.6098C55.4791 33.7635 55.7076 33.9173 55.9252 34.0763C56.916 34.8096 57.6725 35.7156 58.0729 36.9063C58.3827 37.8369 58.7198 38.7681 59.0678 39.6939C59.3171 40.3568 59.6485 40.994 59.8296 41.6693C60.1841 42.9898 60.4785 44.3256 60.7619 45.6666C61.0301 46.9475 61.2272 48.2488 61.5006 49.5406C61.7236 50.6139 61.9465 51.6872 62.1723 52.7524C62.5433 54.5167 62.7861 56.3086 63.1299 58.0725C63.2319 58.6103 63.3228 59.1534 63.4467 59.6807C63.6544 60.5388 63.499 61.3141 62.94 61.9925C62.7037 62.2739 62.454 62.5416 62.1652 62.8683C61.8814 62.4578 61.6349 62.097 61.4121 61.7719C61.1434 60.6733 60.8737 59.6292 60.9347 58.5011C60.9808 57.751 60.7005 56.995 60.6134 56.2344C60.4917 55.133 60.2081 54.1021 59.6049 53.1499C59.3826 52.7976 59.2931 52.3281 59.2355 51.8971C58.9381 49.6662 58.2226 47.5338 57.6026 45.3896C57.4539 44.8808 57.1248 44.4178 56.7619 43.7148C56.6588 42.4831 56.4103 41.0176 55.5375 39.7695C54.9723 38.9676 54.388 38.1681 53.398 37.6905L53.4061 37.6934ZM29.5633 45.9103C29.5862 45.8454 29.7093 45.8068 29.789 45.762C29.82 45.855 29.8944 45.9543 29.8767 46.0302C29.8538 46.0951 29.7388 46.1366 29.6643 46.1924C29.6333 46.0993 29.5508 45.9972 29.5685 45.9213L29.5633 45.9103ZM27.4382 52.7505C27.4659 52.5687 27.507 52.5558 27.9079 52.5059C28.0552 52.786 27.9616 52.9993 27.7354 53.1748C27.4309 53.1585 27.399 52.9647 27.4382 52.7505ZM27.1233 61.6719C27.4906 61.9751 27.5039 61.9889 27.2042 62.3209C26.99 62.1266 26.9256 61.9214 27.1233 61.6719ZM24.0931 65.7288C23.9319 65.3069 23.9368 64.8798 24.2734 64.4696C24.3856 64.4362 24.5388 64.39 24.6619 64.3513C25.0398 64.5214 25.127 64.8168 25.1025 65.2735C24.933 65.6241 24.7515 65.8794 24.427 66.0749C24.2906 65.9446 24.1398 65.8548 24.0931 65.7288ZM27.1736 67.3648C27.2953 67.5629 27.1621 67.7074 27.0995 67.8587C27.0509 67.6864 26.967 67.5107 27.1736 67.3648ZM24.5216 70.9713C24.4785 68.666 24.5188 68.2423 24.8029 67.7223C24.8806 67.7862 25.0075 67.8402 25.0171 67.9166C25.2366 69.1803 25.2453 70.0592 25.0636 71.0899C24.8378 71.2382 24.6651 71.1589 24.5216 70.9713ZM27.3075 71.8919C27.7237 71.5919 27.9785 71.8006 28.2122 71.9653C28.4524 72.8348 28.4524 72.8348 28.0756 73.6688C27.885 73.0722 27.1373 72.7351 27.3075 71.8919ZM24.6853 73.374C24.59 72.9207 24.7381 72.5533 25.1782 72.134C25.3543 72.178 25.4979 72.2105 25.6711 72.2626C25.6844 72.4315 25.7196 72.5899 25.6981 72.7283C25.6828 72.8233 25.6131 72.9172 25.5491 72.995C25.3716 73.1877 25.1887 73.3695 25.0307 73.5326C24.8742 73.4591 24.7879 73.4194 24.6934 73.3769L24.6853 73.374ZM24.6116 76.4228C24.544 75.9427 24.3557 75.5203 24.7295 75.1597C24.8459 75.1917 24.9767 75.1832 25.0382 75.2414C25.6984 75.9035 26.0149 76.7635 26.3405 77.572C26.2316 77.8803 26.0517 77.8988 25.7678 77.7984C25.4268 77.3951 25.0566 76.945 24.6226 76.4176L24.6116 76.4228ZM27.1787 91.0796C27.1797 91.0252 27.1644 90.9651 27.1898 90.9193C27.3879 90.4875 27.5833 90.0638 27.7758 89.6483C28.2257 89.7434 28.2494 90.0894 28.3757 90.4807C28.2974 90.7541 28.2066 91.1144 28.0833 91.4631C28.0346 91.601 27.91 91.7212 27.8236 91.8367C27.5224 91.7424 27.3084 91.4873 27.1816 91.0715L27.1787 91.0796ZM27.8694 93.0755C28.6696 93.3674 28.9581 93.9711 29.3897 94.4795C29.4177 94.8908 29.4429 95.3103 29.4775 95.8061C29.2666 95.8867 29.0857 95.9596 28.9076 96.0244C28.1769 95.2005 27.4724 94.4315 27.8694 93.0755ZM29.2088 98.5031C29.2088 98.5031 29.2899 98.5317 29.3386 98.5489C29.3433 98.5871 29.3667 98.6501 29.3471 98.6796C29.3357 98.7121 29.2536 98.7378 29.2321 98.7211C29.1081 98.6591 29.1043 98.5665 29.2198 98.4978L29.2088 98.5031ZM31.9394 104.641C31.6617 104.497 31.3869 104.346 31.0716 104.179C31.1744 103.604 31.26 103.078 31.3542 102.527C30.8517 101.264 30.762 99.8913 29.969 98.4432C30.4509 98.577 30.9587 99.1883 31.4925 100.277C31.501 100.408 31.5062 100.574 31.5114 100.74C31.5085 100.903 31.5055 101.066 31.5069 101.295C32.3164 101.973 32.7656 102.871 32.6368 103.984C32.9501 104.57 33.472 105.055 33.402 105.769C33.3915 105.902 33.2588 106.02 33.18 106.165C32.5336 105.8 32.2613 105.202 31.9504 104.636L31.9394 104.641ZM34.7073 109.305C35.121 109.296 35.1658 109.531 35.1499 109.808C35.0234 110.037 34.8225 110.012 34.6216 109.987C34.5959 109.75 34.554 109.507 34.7073 109.305ZM35.7324 119.366C35.5155 118.56 35.5184 118.552 35.9114 117.723C36.0867 118.725 36.3613 119.342 36.2971 120.04C35.7889 120.007 35.8091 119.64 35.7352 119.358L35.7324 119.366ZM65.0579 132.557C65.0579 132.557 64.9858 132.632 64.9476 132.637C64.9176 132.644 64.8694 132.6 64.8398 132.58L64.8828 132.459C64.9448 132.49 64.9958 132.526 65.0579 132.557ZM56.7977 131.326C57.4774 130.9 58.0145 130.232 58.7919 129.969C59.1861 129.834 59.506 129.446 59.9774 129.557C60.0008 129.62 60.0485 129.692 60.0318 129.714C59.4708 130.501 58.9231 131.302 58.126 131.905C58.0267 132.135 57.9216 132.38 57.8251 132.602C57.3268 133.082 56.705 133.009 56.1214 133.085C55.8623 133.122 55.5764 133.13 55.4295 132.823C55.4477 132.72 55.4287 132.567 55.4893 132.524C55.9876 132.199 56.2751 131.643 56.7896 131.323L56.7977 131.326ZM54.2445 131.993C54.3161 131.946 54.4273 131.967 54.5228 131.955C54.5265 132.047 54.5785 132.184 54.5341 132.232C54.4482 132.321 54.306 132.362 53.9022 132.575C54.1409 132.157 54.17 132.049 54.2416 132.001L54.2445 131.993ZM60.1619 135.207C60.1102 135.663 59.7704 135.798 59.2936 135.985C59.4393 135.444 59.6509 135.181 60.1619 135.207ZM60.6199 138.042C60.6653 137.939 60.6892 137.82 60.7636 137.764C61.283 137.327 61.9453 137.415 62.5542 137.293C62.4133 137.872 62.1167 138.324 61.5254 138.526C61.1088 138.543 60.7643 138.485 60.6199 138.042Z" fill="#EDEDED"/>
<path d="M83.7598 44.3321C83.7155 44.0701 83.6985 43.8086 83.6728 43.5714C83.8967 43.3768 84.0599 43.2246 84.2203 43.0806C85.3149 42.1261 86.4013 41.1688 87.5464 40.2779C87.3532 40.2826 87.1331 40.2596 86.9713 40.3302C86.5241 40.5371 86.1113 40.8018 85.875 40.9281C85.4022 40.8979 85.1903 40.8778 84.9837 40.8686C84.4009 41.201 83.8291 41.5282 83.3728 41.7866C82.3545 43.0417 81.686 44.3657 80.8724 45.5837C80.3401 46.1346 79.8212 46.6994 79.34 47.2866C79.212 47.4421 79.1451 47.6831 79.5679 47.7778C80.0281 47.3017 80.5107 46.788 80.9881 46.2632C81.3905 45.8215 81.8545 45.438 82.3185 45.0545C82.4206 44.972 82.6105 45.0026 82.736 44.9831C82.9249 45.2232 82.921 45.4408 82.7978 45.6345C82.6522 45.8659 82.4636 46.0638 82.2965 46.2785C81.537 47.2144 80.7803 48.1423 80.037 49.084C79.92 49.2343 79.7963 49.4552 80.0801 49.7106C81.453 48.4074 82.8607 47.1348 83.7704 45.4125C83.8463 45.2751 83.8765 45.1123 83.9395 44.9339C83.8804 44.7397 83.8051 44.5397 83.7627 44.324L83.7598 44.3321Z" fill="#EDEDED"/>
<path d="M88.0466 38.529C88.2337 38.4126 88.3754 38.2437 88.552 38.1054C88.7258 37.9752 88.9048 37.8559 89.0866 37.7286C89.2546 37.6146 89.4336 37.4954 89.574 37.4081C89.589 36.8751 88.8479 36.7775 89.0681 36.1801C89.3459 35.8586 89.6572 35.4942 89.9045 35.2075C89.9682 34.5366 89.1294 34.4317 89.3649 33.5843C90.0623 33.0826 90.804 32.5327 91.5696 32.0185C91.9882 31.7376 92.3529 31.4285 92.627 31.0144C92.6662 30.9553 92.6085 30.8345 92.5923 30.6737C92.0721 30.8549 91.5629 31.0307 91.1467 31.1757C90.4011 31.7881 89.7329 32.3366 89.1667 32.8026C88.7297 33.8069 88.4989 34.6925 88.5124 35.6097C88.2456 35.926 88.0064 36.2155 87.6784 36.6015C87.7917 37.2619 87.0404 37.8906 87.4352 38.7874C87.6791 38.6911 87.8814 38.6348 88.0494 38.5208L88.0466 38.529Z" fill="#EDEDED"/>
<path d="M36.9817 101.213C36.9352 100.622 36.8948 100.142 36.8573 99.6547C36.594 99.1602 36.3661 98.6691 36.0833 98.2042C35.9035 97.9126 35.6234 97.7498 35.2588 97.9038C35.0316 98.1337 35.0649 98.4009 35.1664 98.6558C35.4448 99.3655 35.8517 100.048 35.9855 100.779C36.1917 101.874 36.615 102.845 37.2093 103.848C37.4416 103.94 37.7279 104.059 38.017 104.17C38.0768 103.872 38.1366 103.574 38.1896 103.346C37.7413 102.549 37.3432 101.843 36.9846 101.205L36.9817 101.213Z" fill="#EDEDED"/>
<path d="M77.732 42.6478C76.6866 43.5922 75.6303 44.5419 74.9303 45.8C74.8964 45.8701 74.9488 45.9799 74.9674 46.1598C75.4776 45.9295 75.9577 45.7068 76.1195 45.6363C76.7659 44.9432 77.1416 44.4738 77.5783 44.0898C78.2361 43.5193 78.7889 42.8844 79.1648 42.1048C78.5922 42.0211 78.111 42.2982 77.7211 42.653L77.732 42.6478Z" fill="#EDEDED"/>
<path d="M107.874 79.0112C107.874 79.0112 107.825 78.8661 107.777 78.7673C107.437 78.9571 107.107 79.1417 106.711 79.3577C105.954 80.4678 105.137 81.4109 104.245 82.2819C103.896 82.6239 103.542 82.955 103.201 83.2999C103.146 83.3533 103.179 83.4927 103.18 83.5933C103.511 83.6555 103.883 83.6259 104.297 83.5045C105.212 82.5686 105.985 81.4642 106.484 80.363C107.015 79.8393 107.442 79.4333 107.857 79.0054L107.874 79.0112Z" fill="#EDEDED"/>
<path d="M91.8977 33.7222C91.4958 33.9817 91.0835 34.2192 90.6544 34.4781C90.764 34.7358 90.8642 34.9172 90.9152 35.1086C90.9685 35.3191 90.5585 35.5756 91.0013 35.7686C91.8437 35.2178 92.5279 34.392 93.5763 34.1876C93.7931 33.7807 93.9927 33.4224 94.1952 33.056C93.8425 32.9953 93.498 32.9374 93.1535 32.8795C92.702 33.1762 92.3053 33.4466 91.8953 33.7031L91.8977 33.7222Z" fill="#EDEDED"/>
<path d="M94.2015 33.0674C94.2015 33.0674 94.234 33.0789 94.2532 33.0765C94.2561 33.0683 94.2589 33.0602 94.2699 33.055C94.2536 33.0492 94.2402 33.0353 94.2268 33.0214C94.2211 33.0377 94.2153 33.054 94.2096 33.0702L94.2015 33.0674Z" fill="#EDEDED"/>
<path d="M92.8694 115.122C92.8061 115.921 92.1832 116.367 91.5885 116.759C91.4147 117.044 91.2691 117.276 91.1397 117.513C91.016 117.734 90.7329 117.889 90.8115 118.209C91.167 118.262 91.4162 118.021 91.6535 117.841C92.7322 117.008 93.5944 115.963 94.3597 114.855C94.5636 114.562 94.809 114.229 94.6131 113.622C94.2937 113.983 94.1066 114.255 93.8636 114.452C93.5791 114.689 93.2412 114.871 92.8694 115.122Z" fill="#EDEDED"/>
<path d="M33.7769 91.5684C33.578 91.2791 33.4087 91.0095 33.2204 90.7422C33 90.4362 33.0517 89.98 32.4453 89.6562C32.5234 90.0032 32.5396 90.164 32.5916 90.3009C32.9162 91.1638 33.1946 92.0286 33.3441 92.9482C33.5107 93.9743 34.0085 94.8892 34.6715 95.6983C34.7035 95.7369 34.8486 95.6878 34.9903 95.674C34.7412 94.5459 33.9685 93.6342 33.7327 92.5199C33.7466 92.1963 33.7687 91.8757 33.7798 91.5603L33.7769 91.5684Z" fill="#EDEDED"/>
<path d="M77.3932 57.2916C77.4519 57.358 77.5453 57.4549 77.6732 57.6095C78.2695 56.8257 78.4254 55.8681 79.0637 55.1721C79.6852 54.4976 80.2128 53.7534 80.7613 53.053C80.7433 52.8459 80.7271 52.6851 80.7133 52.5434C80.657 52.4961 80.5903 52.4269 80.5712 52.4293C79.5841 53.0021 79.388 54.2283 78.6248 54.7616C78.1702 55.6867 77.7943 56.4662 77.3851 57.2888L77.3932 57.2916Z" fill="#EDEDED"/>
<path d="M99.6745 28.7328C100.563 28.18 101.535 27.8574 102.528 27.5786C102.891 27.479 103.26 27.3903 103.621 27.2717C103.703 27.2459 103.757 27.119 103.866 26.9931C103.834 26.9272 103.803 26.8341 103.793 26.8122C103.639 26.7577 103.588 26.7214 103.541 26.7233C102.035 26.8025 100.758 27.5006 99.4957 28.2317C99.1879 28.4058 98.9058 28.6619 98.8145 29.0493C99.1485 29.0852 99.4129 28.9049 99.6745 28.7328Z" fill="#EDEDED"/>
<path d="M33.4608 122.022C33.3822 121.703 33.3017 121.337 33.2078 120.957C33.2662 120.585 33.3245 120.213 33.392 119.79C33.143 119.41 33.3246 118.845 32.942 118.481C32.868 118.51 32.7888 118.528 32.7802 118.552C32.6593 119.075 32.5464 119.601 32.4336 120.127C32.5443 120.33 32.6497 120.522 32.7026 120.605C32.7381 121.512 32.7564 122.157 32.802 122.802C32.8039 122.849 32.9637 122.887 33.0501 122.927C33.3503 122.722 33.4158 122.408 33.4608 122.022Z" fill="#EDEDED"/>
<path d="M77.6613 127.358L77.6484 127.316C77.6484 127.316 77.6369 127.349 77.6312 127.365C77.6393 127.368 77.6585 127.366 77.6695 127.36L77.6613 127.358Z" fill="#EDEDED"/>
<path d="M75.3874 128.424C74.6656 129.072 74.1805 129.877 73.7087 130.696C73.8996 130.672 74.0905 130.648 74.1859 130.636C74.9626 129.962 75.6724 129.373 76.334 128.74C76.7879 128.308 77.3225 127.931 77.6267 127.354C76.7386 127.414 76.0428 127.834 75.3902 128.416L75.3874 128.424Z" fill="#EDEDED"/>
<path d="M73.6726 130.747C73.6726 130.747 73.6869 130.706 73.7008 130.693C73.6846 130.687 73.6626 130.698 73.6515 130.703L73.6726 130.747Z" fill="#EDEDED"/>
<path d="M25.5576 80.69C25.5304 80.5345 25.478 80.2696 25.4156 79.9556C25.1847 79.9378 24.9919 79.9154 24.8426 79.8991C24.4864 80.3389 24.88 80.697 24.7915 81.0763C24.6721 81.3626 24.5389 81.6622 24.3627 82.0835C24.5172 82.2659 24.6102 82.3899 24.738 82.5446C25.0093 81.9835 25.2633 81.4711 25.5093 80.9558C25.5265 80.9071 25.5275 80.8527 25.5576 80.69Z" fill="#EDEDED"/>
<path d="M87.3436 120.743C87.1832 120.887 87.1382 121.117 87.2593 121.343C87.3624 121.361 87.4621 121.414 87.5604 121.394C87.664 121.385 87.7604 121.319 87.9465 121.257C88.4007 120.359 89.3986 119.936 90.1667 119.286C90.1066 119.146 90.0699 119.069 90.0069 118.938C89.385 119.329 88.8681 119.63 88.3698 119.956C88.0118 120.194 87.6562 120.452 87.3355 120.74L87.3436 120.743Z" fill="#EDEDED"/>
<path d="M79.4083 50.6856C79.0132 50.7193 78.8689 51.0242 78.7629 51.3243C78.4677 52.1597 78.1968 53.0038 77.9259 53.8478C78.6434 52.9791 79.1291 51.992 79.5098 50.9404C79.5327 50.8755 79.4502 50.7734 79.4083 50.6856Z" fill="#EDEDED"/>
<path d="M77.9264 53.8485C77.9264 53.8485 77.9068 53.8782 77.8929 53.8915C77.8843 53.9159 77.8786 53.9321 77.87 53.9565C77.881 53.9513 77.8919 53.946 77.9029 53.9408C77.9115 53.9164 77.923 53.8839 77.9317 53.8595L77.9264 53.8485Z" fill="#EDEDED"/>
<path d="M73.1451 51.8848C73.209 51.9621 73.2729 52.0395 73.4675 52.2633C73.6778 51.4617 74.3417 51.158 74.8506 50.6992C74.9971 50.5685 75.0606 50.3628 75.3381 49.9134C74.4453 50.2366 73.717 50.8947 73.1532 51.8876L73.1451 51.8848Z" fill="#EDEDED"/>
<path d="M72.019 113.557C71.9656 113.656 72.0251 113.823 72.0426 114.213C72.731 113.607 73.4669 113.384 73.9545 112.443C72.9619 112.567 72.3605 112.874 72.019 113.557Z" fill="#EDEDED"/>
<path d="M85.1389 49.4172C85.7088 49.0438 86.1775 48.6985 86.4001 48.1202C86.4402 48.0066 86.3749 47.8558 86.3426 47.6893C85.639 48.1827 85.2378 48.7587 85.1389 49.4172Z" fill="#EDEDED"/>
<path d="M85.418 46.4594C84.7606 47.3129 83.9731 47.8375 83.4555 48.6308C84.1131 48.5256 84.5699 48.0849 85.0105 47.6384C85.2626 47.3899 85.5342 47.1118 85.4261 46.4623L85.418 46.4594Z" fill="#EDEDED"/>
<path d="M110.284 73.8224C109.708 74.0842 109.451 74.4496 109.322 74.9697C109.399 75.0609 109.495 75.1768 109.663 75.373C110.107 74.864 110.321 74.4652 110.286 73.8143L110.284 73.8224Z" fill="#EDEDED"/>
<path d="M50.6931 105.584C50.4536 105.591 50.2603 105.595 50.1134 105.598C49.7611 105.975 49.6956 106.29 50.0133 106.63C50.2776 106.76 50.53 106.795 50.8694 106.376C50.8165 106.139 50.7613 105.882 50.6931 105.584Z" fill="#EDEDED"/>
<path d="M26.2227 94.2998C26.3701 95.6384 26.4283 95.7319 27.1649 96.0744C27.0483 95.4492 26.8891 94.9185 26.2227 94.2998Z" fill="#EDEDED"/>
<path d="M82.5213 125.919C82.5088 126.16 82.6013 126.312 82.9649 126.367C83.5246 125.902 83.676 125.603 83.419 125.469C82.8985 125.565 82.5966 125.714 82.5132 125.916L82.5213 125.919Z" fill="#EDEDED"/>
<path d="M85.076 121.172C85.076 121.172 85.0903 121.132 85.099 121.107C85.088 121.112 85.0659 121.123 85.0549 121.128L85.0679 121.169L85.076 121.172Z" fill="#EDEDED"/>
<path d="M86.7677 119.453C86.0822 119.896 85.4269 120.33 85.1055 121.111C85.7727 120.772 86.2458 120.181 86.8439 119.754C86.8687 119.735 86.8086 119.596 86.7677 119.453Z" fill="#EDEDED"/>
<path d="M49.6318 99.9903C50.142 99.6049 50.134 99.6021 49.987 98.3914C49.5945 99.0374 49.4761 99.5703 49.6318 99.9903Z" fill="#EDEDED"/>
<path d="M31.3643 112.102C31.3684 112.788 31.3663 113.207 31.3833 113.623C31.3881 113.661 31.5317 113.694 31.6911 113.759C31.7414 113.23 31.9706 112.736 31.3672 112.094L31.3643 112.102Z" fill="#EDEDED"/>
<path d="M75.2104 63.6463C75.2702 63.3481 75.36 63.0423 75.1721 62.7478C74.8804 63.0826 74.7734 63.4371 74.9503 63.8919C75.0748 63.7717 75.1927 63.7222 75.2104 63.6463Z" fill="#EDEDED"/>
<path d="M83.3373 48.781C83.3373 48.781 83.3875 48.7165 83.4099 48.6789C83.4185 48.6545 83.4323 48.6412 83.4491 48.6197C83.43 48.6221 83.4109 48.6245 83.3918 48.6268C83.3746 48.6755 83.3574 48.7242 83.3373 48.781Z" fill="#EDEDED"/>
<path d="M82.7858 50.1641C82.974 49.6831 83.1617 49.2294 83.3384 48.7809C82.9622 49.2775 82.5831 49.7823 82.1988 50.276C82.3763 50.2384 82.562 50.2036 82.7858 50.1641Z" fill="#EDEDED"/>
<path d="M104.919 85.7489C104.919 85.7489 104.954 85.7523 104.965 85.747C104.974 85.7227 104.985 85.6901 104.994 85.6657C104.98 85.6791 104.966 85.6925 104.944 85.703C104.938 85.7193 104.933 85.7355 104.919 85.7489Z" fill="#EDEDED"/>
<path d="M103.71 86.0974C103.909 86.4138 104.146 86.516 104.605 86.3039C104.678 86.1746 104.798 85.9618 104.916 85.7571C104.514 85.7608 104.103 85.7616 103.719 86.1002L103.71 86.0974Z" fill="#EDEDED"/>
<path d="M85.453 118.241C85.3899 118.419 85.335 118.6 85.2801 118.782C85.7889 118.478 86.1741 118.085 86.3208 117.489C85.8656 117.538 85.5968 117.808 85.4477 118.23L85.453 118.241Z" fill="#EDEDED"/>
<path d="M86.357 117.492L86.3359 117.448C86.3359 117.448 86.3244 117.481 86.3187 117.497C86.3268 117.5 86.3378 117.495 86.3488 117.489L86.357 117.492Z" fill="#EDEDED"/>
<path d="M82.1031 50.3887C82.1031 50.3887 82.1309 50.3619 82.1447 50.3486C82.1615 50.327 82.1782 50.3055 82.1978 50.2759C82.1677 50.2835 82.1486 50.2859 82.1185 50.2936C82.107 50.3261 82.0984 50.3505 82.095 50.3858L82.1031 50.3887Z" fill="#EDEDED"/>
<path d="M81.3311 51.3105C81.4876 51.3841 81.6575 51.4715 81.8354 51.5617C81.9267 51.1743 82.0127 50.7759 82.104 50.3884C81.8004 50.6278 81.3228 50.7145 81.3311 51.3105Z" fill="#EDEDED"/>
<path d="M27.8655 103.311C27.7089 103.547 27.7347 103.775 27.943 103.995C28.3464 103.654 28.344 103.635 27.8655 103.311Z" fill="#EDEDED"/>
<path d="M76.4618 48.7965C76.2232 48.9037 76.0981 49.0512 76.2411 49.421C76.6039 49.2207 76.7619 49.0576 76.4618 48.7965Z" fill="#EDEDED"/>
<path d="M79.0969 45.084C79.5216 45.0698 79.5923 44.7663 79.6201 44.4294C79.2813 44.5104 79.1543 44.7666 79.0969 45.084Z" fill="#EDEDED"/>
<path d="M80.4998 123.251C81.2944 123.094 81.3002 123.078 81.4254 122.62C80.9787 122.645 80.7605 122.978 80.4998 123.251Z" fill="#EDEDED"/>
<path d="M64.2859 124.182C64.6352 124.123 64.8848 124.011 64.6736 123.498C64.2923 123.674 64.0069 123.81 64.2859 124.182Z" fill="#EDEDED"/>
<path d="M86.2529 39.4458C86.2787 39.3728 86.2206 39.2793 86.2058 39.192C86.1318 39.2206 86.0497 39.2463 85.9786 39.2668C86.0044 39.3489 86.0272 39.4391 86.053 39.5211C86.1269 39.4925 86.2496 39.4812 86.2639 39.4406L86.2529 39.4458Z" fill="#EDEDED"/>
<path d="M83.2613 47.7866C83.3792 47.5819 83.4839 47.3634 83.5803 47.142C83.3245 47.2979 83.1087 47.4954 82.9864 47.7898C83.0871 47.7889 83.2389 47.8242 83.2642 47.7784L83.2613 47.7866Z" fill="#EDEDED"/>
<path d="M104.083 79.0214C104.083 79.0214 104.069 79.0621 104.063 79.0783C104.074 79.0731 104.093 79.0707 104.104 79.0655C104.11 79.0492 104.119 79.0248 104.124 79.0086C104.113 79.0138 104.094 79.0162 104.083 79.0214Z" fill="#EDEDED"/>
<path d="M103.381 79.8226C103.854 79.7985 103.874 79.7961 104.063 79.0785C103.702 79.1971 103.434 79.4127 103.381 79.8226Z" fill="#EDEDED"/>
<path d="M104.991 85.6739C105.57 85.2489 105.565 85.238 105.531 84.8973C105.164 85.0322 105.084 85.36 104.991 85.6739Z" fill="#EDEDED"/>
<path d="M85.3719 45.6313C84.8714 45.6278 84.7939 46.0018 84.6392 46.2847C85.0047 46.2314 85.2716 46.0703 85.3719 45.6313Z" fill="#EDEDED"/>
<path d="M26.2175 96.9991C26.2653 96.9156 26.2968 96.8264 26.315 96.7233C26.3236 96.699 26.2644 96.6598 26.2296 96.6293C26.1541 96.7395 26.0787 96.8497 26.0166 96.9737C26.0109 96.9899 26.0671 97.0372 26.0939 97.0649C26.1378 97.0439 26.1979 97.0287 26.2094 96.9962L26.2175 96.9991Z" fill="#EDEDED"/>
<path d="M106.792 83.162C106.814 83.0972 106.767 82.9984 106.758 82.922C106.689 82.9888 106.603 83.0499 106.566 83.1281C106.543 83.193 106.582 83.2889 106.597 83.3762C106.669 83.3013 106.755 83.2403 106.792 83.162Z" fill="#EDEDED"/>
<path d="M84.1904 124.373C84.2754 124.339 84.3575 124.313 84.4372 124.268C84.4482 124.263 84.4258 124.146 84.4229 124.154C84.2841 124.159 84.1342 124.17 84.1795 124.378L84.1904 124.373Z" fill="#EDEDED"/>
<path d="M50.6885 115.564C50.5649 115.63 50.5606 115.719 50.6875 115.773C50.72 115.785 50.7911 115.764 50.8135 115.727C50.8331 115.697 50.8179 115.637 50.8188 115.583C50.7783 115.568 50.7162 115.537 50.6914 115.556L50.6885 115.564Z" fill="#EDEDED"/>
<path d="M79.7603 41.7871C79.7603 41.7871 79.725 41.6286 79.6993 41.5465C79.3991 41.5955 79.3055 41.8088 79.2415 42.0417C79.4171 41.9577 79.598 41.8848 79.7603 41.7871Z" fill="#EDEDED"/>
<path d="M79.2337 42.0388C79.2337 42.0388 79.2007 42.0546 79.1897 42.0598C79.1839 42.0761 79.1782 42.0923 79.1753 42.1005C79.1916 42.1062 79.1997 42.1091 79.2188 42.1067C79.2274 42.0824 79.2332 42.0661 79.2418 42.0417L79.2337 42.0388Z" fill="#EDEDED"/>
<path d="M84.4448 40.3312C84.5947 40.0101 84.3738 39.8864 84.1777 39.7441C84.201 39.9622 84.0955 40.2351 84.4448 40.3312Z" fill="#EDEDED"/>
<path d="M84.1809 39.7361C84.1809 39.7361 84.1761 39.6979 84.1737 39.6787C84.1689 39.6405 84.1723 39.6051 84.1699 39.5859C84.1613 39.6103 84.1441 39.6591 84.1297 39.6997C84.146 39.7055 84.1646 39.7304 84.1809 39.7361Z" fill="#EDEDED"/>
<path d="M74.3488 132.036C74.3488 132.036 74.291 132.07 74.2661 132.089C74.2604 132.105 74.2384 132.115 74.2245 132.129C74.2407 132.135 74.257 132.14 74.2761 132.138C74.2986 132.1 74.3183 132.07 74.3408 132.033L74.3488 132.036Z" fill="#EDEDED"/>
<path d="M74.6132 131.645C74.5158 131.766 74.4317 131.901 74.3477 132.035C74.5267 131.916 74.6976 131.794 74.8904 131.661C74.7735 131.656 74.6437 131.611 74.6132 131.645Z" fill="#EDEDED"/>
<path d="M97.8048 28.6746C97.5758 28.548 97.4096 28.7083 97.2259 28.7894C97.4239 28.8228 97.6291 28.9136 97.8048 28.6746Z" fill="#EDEDED"/>
<path d="M95.7858 29.4844C95.5023 29.512 95.2637 29.6192 95.0961 29.8611C95.3901 29.8555 95.6234 29.7373 95.7858 29.4844Z" fill="#EDEDED"/>
<path d="M95.0411 29.86L95.0593 29.9122C95.0593 29.9122 95.0818 29.8744 95.0957 29.861C95.0794 29.8553 95.0574 29.8657 95.0411 29.86Z" fill="#EDEDED"/>
<path d="M65.3457 118.882C65.2874 119.098 65.2463 119.266 65.1999 119.423C65.2926 119.265 65.37 119.046 65.3457 118.882Z" fill="#EDEDED"/>
<path d="M94.526 30.2621C94.7633 30.0813 94.8902 29.9802 95.0033 29.8925C94.8492 29.838 94.6627 29.772 94.526 30.2621Z" fill="#EDEDED"/>
<path d="M95.042 29.8602C95.042 29.8602 95.0171 29.8789 95.0032 29.8922C95.0276 29.9009 95.0439 29.9066 95.0682 29.9152L95.0501 29.8631L95.042 29.8602Z" fill="#EDEDED"/>
<path d="M85.1375 43.7415C85.3278 43.9 85.4505 43.7335 85.5799 43.6514C85.4229 43.6051 85.2635 43.5397 85.1375 43.7415Z" fill="#EDEDED"/>
<path d="M81.8245 51.594C81.8245 51.594 81.8125 51.6538 81.812 51.6811C81.8264 51.6404 81.8407 51.5998 81.8603 51.5701C81.8522 51.5673 81.8441 51.5644 81.8359 51.5615C81.8302 51.5778 81.8273 51.5859 81.8216 51.6022L81.8245 51.594Z" fill="#EDEDED"/>
<path d="M81.7183 52.15C81.7455 51.9955 81.7728 51.8409 81.8082 51.6891C81.7404 51.8294 81.6806 51.9725 81.6128 52.1128C81.6453 52.1243 81.6858 52.1386 81.7183 52.15Z" fill="#EDEDED"/>
<path d="M85.369 37.9477C85.369 37.9477 85.359 38.0536 85.3776 38.0784C85.3962 38.1032 85.4563 38.088 85.5026 38.0861C85.5007 38.0398 85.5098 37.9883 85.4831 37.9606C85.4645 37.9357 85.4044 37.951 85.3581 37.9529L85.369 37.9477Z" fill="#EDEDED"/>
<path d="M74.4585 47.5959C74.4585 47.5959 74.405 47.5406 74.3673 47.5181C74.3396 47.5448 74.301 47.5768 74.2733 47.6035C74.3 47.6312 74.3372 47.6808 74.3563 47.6784C74.3945 47.6737 74.4198 47.6279 74.4475 47.6012L74.4585 47.5959Z" fill="#EDEDED"/>
<path d="M73.2706 47.9149C73.222 47.8977 73.1709 47.8614 73.1408 47.8691C73.0998 47.8819 73.0468 47.9544 73.0544 47.9845C73.0902 48.1157 73.1794 48.1473 73.2682 48.0509C73.2959 48.0242 73.2673 47.9502 73.2625 47.9121L73.2706 47.9149Z" fill="#EDEDED"/>
<path d="M69.832 51.627C69.832 51.627 69.8119 51.6839 69.8033 51.7083C69.8253 51.6978 69.8392 51.6844 69.8583 51.682L69.8373 51.638L69.832 51.627Z" fill="#EDEDED"/>
<path d="M69.5941 52.1993C69.6825 51.975 69.7422 51.8319 69.799 51.6969C69.6534 51.7732 69.5131 51.8604 69.5941 52.1993Z" fill="#EDEDED"/>
<path d="M113.695 70.6201L113.669 70.6933C113.669 70.6933 113.697 70.6665 113.719 70.656L113.695 70.6201Z" fill="#EDEDED"/>
<path d="M113.359 70.9498C113.267 71.0542 113.315 71.153 113.494 71.1889L113.668 70.6941C113.558 70.7738 113.44 70.8505 113.356 70.9579L113.359 70.9498Z" fill="#EDEDED"/>
<path d="M111.622 76.8221C111.622 76.8221 111.527 76.8339 111.499 76.8607C111.48 76.8902 111.49 76.9394 111.483 76.9828C111.524 76.9971 111.581 77.0172 111.611 77.0096C111.732 76.9519 111.741 76.8732 111.622 76.8221Z" fill="#EDEDED"/>
<path d="M26.9659 99.763C26.9659 99.763 26.8862 99.8079 26.8532 99.8236C26.8551 99.8699 26.8432 99.9295 26.8699 99.9572C26.8966 99.9849 26.9567 99.9696 27.0001 99.9758C26.9878 99.9076 26.9754 99.8394 26.9659 99.763Z" fill="#EDEDED"/>
<path d="M119.212 83.154C119.178 83.1969 119.169 83.2485 119.16 83.3C119.157 83.3081 119.233 83.3258 119.274 83.3401L119.328 83.186L119.214 83.1459L119.212 83.154Z" fill="#EDEDED"/>
<path d="M71.666 53.9538L71.5856 54.0259L71.6722 54.0657L71.666 53.9538Z" fill="#EDEDED"/>
<path d="M84.1617 39.583C84.1546 39.5256 84.1598 39.5366 84.1617 39.583V39.583Z" fill="#EDEDED"/>
<path d="M107.488 81.9401L107.411 82.0042L107.481 82.0381L107.488 81.9401Z" fill="#EDEDED"/>
<path d="M84.571 46.3785C84.454 46.5287 84.3261 46.6843 84.2091 46.8346C84.3986 46.7373 84.5103 46.576 84.571 46.3785Z" fill="#EDEDED"/>
<path d="M84.5695 46.3794C84.5695 46.3794 84.6001 46.3445 84.614 46.3311C84.6197 46.3148 84.6254 46.2986 84.6422 46.2771C84.6259 46.2713 84.6121 46.2847 84.5929 46.2871C84.5814 46.3196 84.57 46.3521 84.5613 46.3765L84.5695 46.3794Z" fill="#EDEDED"/>
<path d="M87.6646 39.9989C87.6646 39.9989 87.6417 40.0638 87.6302 40.0962C87.6159 40.1368 87.6068 40.1883 87.6006 40.2317C87.5868 40.2451 87.5648 40.2556 87.5481 40.277C87.5644 40.2828 87.5863 40.2723 87.6025 40.278C87.6259 40.186 87.6412 40.091 87.6618 40.007L87.6646 39.9989Z" fill="#EDEDED"/>
<path d="M62.1607 121.442L62.0742 121.402L62.0751 121.503L62.1607 121.442Z" fill="#EDEDED"/>
<path d="M69.6589 118.708C69.6589 118.708 69.5897 118.775 69.5315 118.837L69.5524 118.881C69.6002 118.797 69.6532 118.725 69.6589 118.708Z" fill="#EDEDED"/>
<path d="M80.3741 123.371C80.3741 123.371 80.4129 123.339 80.4267 123.326C80.4545 123.299 80.4793 123.28 80.499 123.25C80.4688 123.258 80.4416 123.258 80.4114 123.265C80.3999 123.298 80.3856 123.338 80.3741 123.371Z" fill="#EDEDED"/>
<path d="M80.3751 123.371C80.2314 123.494 80.0906 123.608 79.9469 123.731C80.1412 123.671 80.2848 123.549 80.3751 123.371Z" fill="#EDEDED"/>
<path d="M79.8095 123.937C79.8095 123.937 79.8381 123.856 79.8802 123.789C79.905 123.77 79.9298 123.752 79.9575 123.725C79.9355 123.736 79.9083 123.735 79.8864 123.746L79.8205 123.932L79.8095 123.937Z" fill="#EDEDED"/>
<path d="M75.6248 111.227C75.5718 111.3 75.5298 111.367 75.5131 111.388C75.5188 111.372 75.5823 111.322 75.6458 111.271L75.6248 111.227Z" fill="#EDEDED"/>
<path d="M98.7339 29.0937L98.7994 29.0894C98.7994 29.0894 98.8109 29.0569 98.8167 29.0406C98.8085 29.0377 98.7923 29.032 98.7813 29.0373L98.7368 29.0855L98.7339 29.0937Z" fill="#EDEDED"/>
<path d="M82.4291 123.805C82.3685 123.847 82.305 123.898 82.2692 123.922C82.3022 123.906 82.368 123.875 82.431 123.851L82.4411 123.745L82.421 123.802L82.4291 123.805Z" fill="#EDEDED"/>
<path d="M85.1841 118.821L85.2654 118.85C85.2654 118.85 85.2797 118.809 85.2883 118.785C85.2745 118.798 85.2553 118.8 85.2414 118.814L85.1841 118.821Z" fill="#EDEDED"/>
<path d="M96.3189 29.2442C96.4616 29.176 96.6015 29.116 96.7442 29.0478C96.8816 28.9686 97.0081 28.8947 97.1456 28.8156C97.1756 28.8079 97.2057 28.8003 97.2386 28.7846C97.2062 28.7731 97.168 28.7779 97.1327 28.7745C96.9953 28.8537 96.8606 28.9247 96.7313 29.0068C96.5886 29.0749 96.4488 29.135 96.3061 29.2032C96.1414 29.2819 95.9849 29.3634 95.8202 29.4421C95.8145 29.4583 95.8006 29.4717 95.7868 29.485C95.803 29.4908 95.8168 29.4774 95.8331 29.4831C95.9977 29.4045 96.1624 29.3258 96.3189 29.2442Z" fill="#EDEDED"/>
<path d="M96.4249 92.2003L96.4393 92.1597L96.4245 92.0722L96.4201 92.162L96.3709 92.1721L96.4249 92.2003Z" fill="#EDEDED"/>
<path d="M89.6286 42.2355C89.6787 42.1711 89.7288 42.1067 89.7455 42.0852C89.7207 42.1038 89.6682 42.1492 89.6076 42.1916C89.4458 42.2622 89.2759 42.3299 89.1141 42.4005C89.1112 42.4086 89.1055 42.4248 89.1026 42.4329C89.1107 42.4357 89.127 42.4415 89.1351 42.4443C89.2969 42.3738 89.4668 42.3061 89.6286 42.2355Z" fill="#EDEDED"/>
<path d="M89.6997 115.881L89.7519 115.863C89.7519 115.863 89.7605 115.839 89.7633 115.831C89.7471 115.825 89.7308 115.819 89.7227 115.816L89.6997 115.881Z" fill="#EDEDED"/>
<path d="M83.6225 47.0749C83.6225 47.0749 83.6053 47.1235 83.5857 47.1531C83.6077 47.1426 83.6215 47.1292 83.6435 47.1188C83.8053 47.0482 83.9723 46.9886 84.1341 46.9181C84.1537 46.8885 84.1814 46.8617 84.1981 46.8403C84.1733 46.8589 84.1432 46.8665 84.1131 46.8741C83.9432 46.9418 83.7843 47.0043 83.6144 47.072L83.6225 47.0749Z" fill="#EDEDED"/>
<path d="M38.0501 104.182C38.0501 104.182 38.0257 104.174 38.0176 104.171C38.0147 104.179 38.009 104.195 38.0061 104.203L38.2178 104.689C38.2178 104.689 38.2312 104.703 38.2445 104.716C38.2503 104.7 38.256 104.684 38.2617 104.668C38.1912 104.506 38.1206 104.344 38.0501 104.182Z" fill="#EDEDED"/>
<path d="M53.243 32.3712C53.1619 32.3425 53.0574 32.406 52.9591 32.426C52.9929 32.511 53.0187 32.593 53.0554 32.6699C53.1537 32.6499 53.2491 32.638 53.3474 32.618C53.3136 32.533 53.3079 32.3941 53.2511 32.3741L53.243 32.3712Z" fill="#EDEDED"/>
<path d="M67.4503 127.827C67.4503 127.827 67.4005 127.864 67.3727 127.891C67.378 127.902 67.3804 127.921 67.3938 127.935C67.411 127.886 67.4416 127.852 67.4531 127.819L67.4503 127.827Z" fill="#EDEDED"/>
<path d="M98.0898 34.0397L98.0319 34.0741C98.0319 34.0741 98.0233 34.0985 98.0094 34.1119C98.0094 34.1119 98.0286 34.1095 98.0396 34.1043L98.0898 34.0397Z" fill="#EDEDED"/>
</svg>
