<svg width="114" height="119" viewBox="0 0 114 119" fill="none" xmlns="http://www.w3.org/2000/svg">
<g filter="url(#filter0_d_138_1514)">
<path d="M105.978 49.5744C106.009 49.3608 106.103 49.153 106.168 48.9501C106.055 48.0459 106.179 47.1912 106.639 46.3976C106.679 46.3198 106.693 46.2286 106.733 46.1507C107.125 45.3486 107.15 44.5476 106.728 43.747C106.687 43.6735 106.691 43.577 106.658 43.4226C106.798 42.1558 106.346 40.9921 105.569 39.911C105.678 39.4815 105.787 39.0652 105.883 38.6878C105.742 37.9398 105.588 37.257 105.145 36.7276C104.857 36.5339 104.611 36.3616 104.45 36.2528C104.231 35.7468 104.058 35.343 103.875 34.9208C103.211 34.8092 102.798 34.3349 102.4 33.986C102.047 33.8569 101.766 33.7521 101.462 33.6418C101.412 33.2158 101.364 32.8238 101.313 32.4239C100.725 32.2531 100.207 31.9213 99.5749 31.977C99.4545 31.7643 99.3443 31.583 99.2674 31.4517C99.3467 31.1185 99.3602 30.8368 99.6693 30.7331C99.9084 30.8297 100.145 30.9315 100.41 31.0413C100.479 30.9325 100.54 30.8392 100.619 30.7226C100.162 30.2714 99.7312 29.8465 99.3387 29.4612C98.6006 29.4166 98.1663 29.9938 97.4295 30.0745C96.0612 29.4176 94.6265 28.6347 93.1394 28.3496C91.9791 28.4884 90.9443 28.6128 89.8833 28.7369C90.0271 28.9551 90.1479 29.1287 90.2403 29.268C90.2035 29.5312 90.0512 29.6235 89.8759 29.6582C89.5673 29.7227 89.2594 29.7088 89.0225 29.4166C88.975 29.2281 88.9251 29.0188 88.8576 28.7414C88.5009 28.6697 88.1207 28.5925 87.7873 28.5262C87.2128 28.8018 86.7725 29.212 86.1038 29.2621C85.4977 29.0754 84.8378 28.802 84.0512 28.903C83.7598 29.0617 83.4236 29.2564 83.0718 29.4431C82.7936 29.5888 82.5002 29.6874 82.1876 29.6318C82.0262 29.6013 81.8783 29.5188 81.7302 29.4623C81.7862 29.1106 81.8285 28.824 81.8707 28.5374C81.594 28.3099 81.3612 28.1117 81.1026 27.9001C80.7939 27.9646 80.4857 27.9899 80.2027 28.0938C79.1703 28.4688 78.1179 28.7679 77.0399 29.0145C76.4434 29.1542 75.8719 29.3854 75.2878 29.5774C74.5832 29.8125 73.8761 30.0396 73.1872 30.2696C72.9195 30.1649 72.6778 30.0735 72.4257 29.9768C71.8961 30.2033 71.3744 30.4143 70.9035 30.7562C70.4432 31.0905 69.9214 31.3145 69.3718 31.2093C69.0287 30.8428 69.3696 30.4603 69.1626 30.0587C69.0412 29.9373 68.8579 29.7579 68.6564 29.5626C68.5631 29.0291 68.7095 28.527 68.8872 28.0279C69.003 27.7003 69.1969 27.3866 69.1253 27.0152C69.1004 26.8975 69.0154 26.7948 68.9464 26.661C68.6277 26.6941 68.3298 26.7247 68.0007 26.7524C67.9005 26.6026 67.8029 26.4606 67.6924 26.3054C68.1356 25.1489 68.7789 24.0754 68.8712 22.7846C68.7892 22.4931 68.635 22.2696 68.4088 22.114C67.9404 22.4638 67.9304 23.1475 67.4439 23.4815C67.3872 23.413 67.3043 23.3573 67.2895 23.2841C67.1099 22.2799 67.6753 21.4092 67.8265 20.4635C67.7686 20.027 67.7238 19.5907 67.6502 19.1592C67.6356 19.0599 67.4903 18.9853 67.3974 18.8851C67.2787 19.0012 67.1631 19.073 67.0967 19.1767C66.537 20.011 66.31 20.9637 66.362 21.9351C66.4132 22.9848 66.1524 23.9267 65.7455 24.8592C65.7082 24.9319 65.7306 25.0287 65.7245 25.1174C65.9124 25.3517 66.0977 25.5912 66.2934 25.836C66.1824 26.2054 66.0952 26.5412 65.9715 26.8713C65.9339 26.97 65.7949 27.0364 65.6658 27.1472C65.3191 26.8642 64.8873 26.7342 64.6228 26.3424C64.7593 25.5531 64.8357 24.7658 65.0397 24.0112C65.4287 22.5643 65.6587 21.0949 65.8654 19.6069C65.5072 18.7079 65.9204 17.6737 65.3354 16.7565C64.8414 16.5814 64.311 16.4008 63.7884 16.2176C63.431 15.483 63.7059 14.6926 63.3958 13.9297C63.0902 13.7072 62.7381 13.4476 62.3187 13.1403C62.0069 12.534 61.5987 11.911 60.8655 11.4228C60.0913 11.3335 59.4418 10.8227 58.8455 10.2212C58.6286 10.0048 58.3854 9.81422 58.1424 9.59757C57.5785 9.38002 57.0093 9.15982 56.4843 8.95575C55.4705 9.30746 54.5274 9.63646 53.6341 9.94512C52.2849 9.45543 50.9744 9.49073 49.7103 9.57613C49.2173 9.7952 48.7767 9.98874 48.3072 10.2002C47.9582 11.0968 47.1791 11.4642 46.3326 11.7838C45.5517 12.078 44.781 12.3906 44.0383 12.7635C42.9389 13.3074 41.8648 13.9169 40.7781 14.487C40.3844 14.6915 40.0475 14.9514 39.7412 15.2796C39.4771 15.5638 39.1613 15.8082 38.8404 16.037C37.9539 16.6772 36.8675 16.9785 36.0118 17.6739C35.4134 17.7404 35.0757 18.3083 34.5179 18.4875C34.4093 18.3924 34.3188 18.3131 34.2645 18.2655C34.3279 17.4781 34.3934 16.7376 34.4595 15.9449C34.818 15.6174 35.1977 15.2613 35.5589 14.9286C35.8393 14.8168 36.0779 14.7229 36.3321 14.6239C36.3971 14.4079 36.4593 14.2103 36.5214 14.0126C36.2873 13.9448 36.0531 13.877 35.8111 13.8118C35.2422 14.2936 34.7126 14.7497 34.1752 15.2084C34.0821 15.8494 33.7892 16.3813 33.4054 16.873C33.2175 17.111 33.0943 17.402 32.9738 17.6877C32.7005 18.3346 32.4559 18.9896 32.1607 19.7302C32.1496 20.0328 32.0957 20.4315 32.1175 20.8232C32.1368 21.2071 32.2371 21.5866 32.2958 21.9448C31.4572 23.2197 30.7615 24.5484 29.7012 25.5781C29.4399 26.0868 29.2986 26.5916 29.2615 27.1236C29.2394 27.473 29.2303 27.8357 29.1431 28.1714C28.9638 28.8141 28.9671 29.4718 28.9 30.1261C28.8407 30.778 28.7188 31.4239 28.6283 32.0597C28.8241 32.2915 28.9943 32.4839 29.1747 32.6946C29.2512 33.3375 29.3302 33.9882 29.3962 34.6387C29.4226 34.8556 29.4462 35.0777 29.2323 35.3155C28.7328 35.4066 28.1836 35.505 27.6554 35.6011C27.3649 35.9111 27.2414 36.2281 27.3079 36.5969C27.3275 36.7119 27.4204 36.8121 27.4791 36.9276C27.9292 36.8176 28.1263 36.4596 28.4084 36.1913C28.4849 36.119 28.6207 36.1101 28.7962 36.0494C28.8345 36.3708 28.8552 36.6241 28.8994 36.883C28.9483 37.1836 29.0521 37.4797 29.0749 37.7801C29.1927 39.1855 29.1566 40.5839 29.0447 41.9894C29.0267 42.2032 29.0214 42.4433 28.9255 42.6301C28.6265 43.2376 28.5776 43.8947 28.5269 44.4788C28.3489 44.7613 28.2109 44.979 28.0569 45.2148C28.2684 45.927 28.1669 46.6227 27.8779 47.2746C27.7093 47.6538 27.645 48.0472 27.6983 48.4288C27.8192 49.3045 27.6192 50.1792 27.6906 51.049C27.6928 51.083 27.5748 51.1339 27.4617 51.2136C27.3469 50.9774 27.2345 50.7491 27.135 50.5471C27.18 50.2422 27.222 49.9817 27.2618 49.6873C27.1743 49.334 27.0897 48.9494 26.9738 48.5749C26.951 48.5042 26.7896 48.4737 26.6131 48.3831C26.5958 48.7744 26.5716 49.0768 26.5708 49.3848C26.5711 49.6014 26.5817 49.8234 26.6159 50.0377C26.7984 51.2533 27.0227 52.4641 26.9518 53.7004C26.9452 53.8282 26.9645 53.9693 26.9997 54.0924C27.3244 55.1973 27.3694 56.3357 27.401 57.5C27.3063 57.8121 27.2009 58.145 27.1226 58.3869C27.2104 59.1865 27.2864 59.8815 27.3675 60.5792C27.525 61.9328 27.604 63.2986 27.8714 64.63C28.0893 65.7128 28.1531 66.8018 28.2221 67.8935C28.2266 67.9614 28.1501 68.0336 28.1076 68.1036C27.948 68.1332 27.7617 67.985 27.579 68.2257C27.5987 69.2986 27.5784 70.4362 27.647 71.567C27.7082 72.6612 27.9364 73.7494 27.9402 74.8404C27.9459 75.9914 28.3699 77.0817 28.3474 78.1854C28.2378 78.4243 28.1547 78.6243 28.0772 78.7879C28.1789 79.037 28.2602 79.2362 28.3392 79.4145C28.2783 79.7375 28.2228 80.037 28.1838 80.2662C28.3748 80.6989 28.5379 81.0583 28.7162 81.4647C28.5689 82.0451 28.6094 82.6432 28.6965 83.2653C28.8228 84.1305 28.8367 85.0102 29.1277 85.8485C29.1834 86.0083 29.1787 86.1962 29.1873 86.3711C29.2207 86.8935 29.2463 87.4183 29.2765 87.998C29.2153 88.1044 29.1276 88.2496 29.0213 88.4311C28.8867 88.3226 28.7963 88.2433 28.7083 88.1719C28.7401 87.893 28.769 87.6323 28.795 87.403C28.1226 85.8767 28.1047 85.8478 27.6964 85.7103C27.5869 86.4216 28.2038 87.0468 27.9533 87.7644C27.7861 88.0131 27.6164 88.267 27.4544 88.5184C27.5873 89.0131 27.7075 89.4816 27.7954 89.7957C27.799 90.4273 27.8016 90.9076 27.8018 91.3669C28.2275 91.8152 29.0301 91.9258 28.8538 92.7799C28.6058 92.7902 28.3604 92.7953 28.1567 92.8088C27.9848 93.0157 27.79 93.1649 27.9752 93.4175C29.2414 93.8515 29.4436 93.9816 29.4503 94.3261C29.2396 94.7362 28.6443 94.2861 28.4454 94.8137C28.5733 95.05 28.7166 95.3073 28.8573 95.5698C28.9346 95.9047 28.5261 96.2656 28.9478 96.6069C29.29 96.5793 29.6844 96.5523 30.0685 96.5069C30.1443 96.4999 30.2078 96.4145 30.292 96.3527C30.3339 96.1053 30.3732 95.8499 30.4149 95.6155C30.6574 95.3989 30.8827 95.3178 31.1645 95.561C31.243 95.7785 31.3292 96.0195 31.3976 96.2056C32.2644 96.6509 33.1085 97.0254 33.8915 97.5063C34.4255 97.8332 34.9794 98.0193 35.5758 98.1354C36.0148 97.7661 36.5105 97.5375 37.063 97.4496C37.4917 97.8666 37.7439 98.4357 38.1832 98.832C38.904 98.31 38.9119 98.3075 39.304 98.4892C39.44 98.6969 39.6043 98.9519 39.7326 99.149C40.2069 99.4517 40.5331 98.9829 40.9238 99.0524C41.6555 99.1987 42.2472 99.7453 43.0529 99.8115C43.3278 99.4935 43.6079 99.1782 43.8537 98.8912C44.2237 98.95 44.5182 98.9898 44.7657 99.0316C45.1085 98.7091 45.3958 98.4434 45.6595 98.1984C45.9576 98.1416 46.214 98.0896 46.4833 98.0377C47.2268 97.1141 48.4268 96.6809 48.9857 95.6822C49.8225 95.292 50.5727 94.9427 51.1368 94.6748C51.7317 94.449 52.1637 94.3232 52.552 94.1291C53.0061 93.8965 53.483 93.9513 53.9295 93.9379C54.1324 93.7601 54.2882 93.5973 54.4669 93.4792C55.2922 92.9454 55.9985 92.3111 56.4364 91.4076C56.4844 91.3142 56.6466 91.2794 56.7306 91.2307C56.9573 91.2619 57.0631 91.3753 57.137 91.5379L57.0837 91.6417L57.1473 91.5563L57.145 91.5223C57.5341 91.5057 57.5773 91.1277 57.7912 90.903C57.9798 90.8424 58.1867 90.7716 58.4303 90.6934C59.0887 89.9098 59.928 89.2847 60.8497 88.7676C61.2357 88.5526 61.6088 88.3244 61.8789 87.9645C62.4323 87.232 63.1255 86.6106 63.4632 85.8C63.9846 85.3724 64.4507 84.9887 64.901 84.623C65.0153 84.6686 65.0906 84.7007 65.166 84.7329C65.3877 84.978 65.0183 85.3524 65.3968 85.5862C65.4939 85.5377 65.6273 85.5078 65.7091 85.4252C66.4582 84.6948 67.2512 84.0196 68.0545 83.3498C68.8314 82.7058 69.6031 82.0592 70.4726 81.5415C70.6618 81.4287 70.8485 81.295 70.9834 81.1347C71.3878 80.6667 71.8385 80.2619 72.3253 79.8888C72.499 79.755 72.5927 79.5472 72.4994 79.2434C72.2842 79.1132 72.0223 78.959 71.789 78.8129C71.356 79.03 70.9703 79.2189 70.6344 79.3875C70.2753 79.2949 69.9837 79.2238 69.6714 79.1421C69.2718 79.6519 68.8986 80.1359 68.5176 80.6093C68.4091 80.7438 68.2643 80.8597 68.0328 80.7867C67.8575 80.5917 67.664 80.3808 67.4758 80.1726C66.9321 80.4903 66.4614 80.8192 65.9473 81.0537C65.4725 81.2756 64.9134 81.3295 64.4694 81.5935C63.9493 81.9036 63.3532 81.7614 62.855 81.9778C62.5794 82.361 62.3276 82.7106 62.0599 83.0913C61.8114 83.1408 61.5629 83.1903 61.3118 83.245C61.23 83.0849 61.1686 82.9746 61.1175 82.8697C61.3666 82.0529 61.9102 81.5055 62.6117 81.0721C62.899 81.0492 63.1916 81.0289 63.471 81.0084C63.5526 80.7092 63.6205 80.462 63.6695 80.2772C64.6626 79.6721 65.5927 79.1003 66.465 78.5643C66.8486 78.5711 67.1487 78.5744 67.4697 78.5753C68.0575 78.2868 68.6504 78.0009 69.2356 77.7046C69.897 77.3621 70.5897 77.0225 71.0813 76.4616C71.7155 75.7377 72.5471 75.3449 73.3734 74.9624C73.8639 74.7355 74.3049 74.5028 74.6899 74.1364C74.7532 74.077 74.8396 74.0493 74.9289 74.0033C75.1327 73.9768 75.3521 73.9583 75.569 73.932C75.9549 73.73 76.3381 73.5332 76.6583 73.3697C77.0653 73.3819 77.3195 73.5256 77.5417 73.7316C77.5825 73.5755 77.6207 73.4245 77.6559 73.3048C77.4599 72.8564 77.4572 72.8616 77.0615 72.5337C76.5075 72.833 76.071 73.3763 75.3724 73.5357L75.0765 73.3837C75.1824 72.769 75.2015 72.6935 75.3807 72.5362C75.9102 72.0801 76.4502 71.6292 76.969 71.1938C77.303 71.2079 77.6029 71.2242 77.843 71.2295C78.4236 70.8782 78.5063 70.2319 78.7673 69.992C79.5544 69.3664 80.1731 68.8773 80.8154 68.3676C81.0267 68.3777 81.2405 68.3957 81.4545 68.4006C81.7076 68.406 81.9556 68.3957 82.2793 68.3914C82.1326 68.6768 81.9867 68.8971 81.9032 69.1363C81.8222 69.3833 81.8063 69.6441 81.7648 69.8655C81.4824 70.1469 81.237 70.3948 81.0048 70.6297C81.0214 71.0188 81.036 71.3608 81.0556 71.7186C80.8835 71.9385 80.7453 72.1693 80.5529 72.3395C80.2894 72.5715 79.9821 72.7482 79.7005 72.9644C79.6005 73.0442 79.5288 73.1582 79.4468 73.2539C79.4486 73.5697 79.4505 73.8725 79.453 74.1231C79.0472 74.7215 78.3536 75.1393 78.6319 75.9514C78.9116 76.1476 79.1433 76.1945 79.3628 75.9333C79.5709 75.7581 79.241 75.3787 79.6103 75.26C79.9272 75.3966 80.2494 75.5228 80.5583 75.6749C80.6517 75.7229 80.713 75.8462 80.8059 75.9464C80.4168 76.4485 79.8083 76.7263 79.5973 77.4052C79.8295 77.4129 80.0332 77.3995 80.2312 77.4356C80.489 77.4828 80.7334 77.5689 80.9051 77.6178C81.4562 77.5794 81.811 77.3484 82.169 77.0731C83.0666 76.373 83.99 75.6993 84.9184 75.0413C85.1999 74.8382 85.5175 74.6667 85.8477 74.5477C86.5735 74.2842 87.1576 73.8495 87.6055 73.2202C87.754 73.0078 87.9311 72.8036 88.1338 72.6387C88.3788 72.43 88.5096 72.1626 88.6457 71.8848C88.6804 71.8173 88.7773 71.7819 88.8483 71.7331C89.0592 71.7824 89.2649 71.8289 89.5305 71.8866C89.7439 71.7011 89.9938 71.5211 90.1894 71.2936C90.5938 70.8256 91.0497 70.4234 91.5005 70.0056C92.0515 69.4948 92.6668 69.0761 93.2229 68.5811C94.182 67.7355 94.9423 66.7025 95.7206 65.6984C96.1177 65.1807 96.4734 64.6287 96.8784 64.1085C97.4422 63.3813 97.9336 62.5907 98.5414 61.9057C99.0777 61.3087 99.4505 60.6211 99.8961 59.9709C100.466 59.142 100.992 58.2708 101.736 57.5769C102.654 56.723 103.304 55.6862 103.844 54.5725C103.98 54.2947 104.139 54.0354 104.275 53.7577C104.94 52.4261 105.724 51.1428 105.957 49.629L105.978 49.5744ZM30.9242 25.1895C30.9837 25.2398 31.0798 25.2826 31.0948 25.3428C31.1796 25.7012 31.1717 25.7038 30.9473 26.4216C30.7672 26.4275 30.6471 26.4314 30.5479 26.4329C30.3396 26.1488 30.4207 25.8887 30.9215 25.1947L30.9242 25.1895ZM30.0141 28.2383C29.9913 28.1676 29.9399 28.1018 29.9458 28.0392C29.9663 27.8333 30.005 27.6302 30.0782 27.1429C30.3378 27.7486 30.2931 28.0143 30.0167 28.2331L30.0141 28.2383ZM29.63 29.4712L29.6495 29.3566L29.7298 29.4175L29.6352 29.4739L29.63 29.4712ZM34.0714 20.1869C33.7364 20.0344 33.8096 19.7769 33.879 19.3992C34.3229 19.3779 34.6989 19.3612 35.101 19.3447C35.1518 19.4757 35.1898 19.5805 35.2355 19.6959C34.8976 20.0471 34.4538 20.0553 34.0714 20.1869ZM32.1246 30.464C32.059 30.2597 31.956 30.1281 31.991 30.0346C32.1718 29.4911 32.2768 28.9546 32.2805 28.3726C32.2809 27.8611 32.4482 27.3567 32.7202 26.8272C32.8571 26.9566 33.0155 27.0314 33.0121 27.1018C32.9981 27.6654 32.9945 28.2343 32.9049 28.7918C32.8377 29.2165 32.6558 29.6216 32.4948 30.0244C32.4359 30.1647 32.2885 30.2727 32.1273 30.4589L32.1246 30.464ZM96.3633 31.1538C96.4048 31.1751 96.4194 31.2745 96.4475 31.3348C96.3794 31.3523 96.2954 31.401 96.2329 31.3821C96.1914 31.3607 96.1768 31.2614 96.1515 31.1959C96.2247 31.181 96.3036 31.1297 96.3633 31.1538ZM94.8003 33.5196C94.727 33.5475 94.6322 33.6169 94.5803 33.5903C94.3856 33.4968 94.1962 33.3929 94.028 33.2606C93.896 33.16 93.8037 33.0076 93.5846 32.7573C94.5711 32.7654 94.6721 32.837 94.8003 33.5196ZM92.1942 38.4524C91.8426 38.3834 91.832 38.3911 91.6551 37.6245C91.8404 37.6213 91.9239 37.6248 92.0101 37.6231C92.2554 37.8607 92.3177 38.1354 92.1993 38.4551L92.1942 38.4524ZM92.8667 29.4298C93.3682 29.3856 93.9665 29.3321 94.5829 29.2814C94.9915 29.3929 95.4159 29.4863 95.8293 29.6265C96.0321 29.6913 96.2186 29.8265 96.1552 30.1285C95.8268 30.3337 95.5144 30.0223 95.1851 30.0631C94.8401 30.1089 94.4883 30.066 94.1508 30.1354C93.8161 30.1996 93.4986 30.3579 93.1606 30.4795L92.6052 30.1942C92.4519 29.8924 92.5378 29.6741 92.8667 29.4298ZM90.9372 37.6427C90.8383 37.6182 90.7422 37.5754 90.4926 37.4865C90.7438 37.4318 90.8434 37.3912 90.9451 37.3975C90.9712 37.3978 91.0039 37.513 91.0214 37.581C91.0264 37.5967 90.9606 37.6482 90.9372 37.6427ZM90.6911 33.1668C90.6911 33.1668 90.7507 33.204 90.7844 33.2279C90.7292 33.2586 90.6793 33.292 90.6241 33.3227C90.5905 33.2988 90.562 33.2776 90.5283 33.2538C90.5835 33.2231 90.6361 33.1845 90.6938 33.1616L90.6911 33.1668ZM91.8763 29.5442C91.4695 29.9913 91.4304 29.9909 91.1533 29.5468C91.3339 29.2591 91.5524 29.3319 91.8763 29.5442ZM68.7155 31.3248C68.6655 31.6009 68.6397 31.8173 68.34 31.7748C68.1397 31.4751 68.3536 31.2504 68.4684 31.0142C68.5611 31.1274 68.6511 31.2458 68.7155 31.3248ZM68.4606 30.2886C68.7607 30.5346 68.5575 30.7385 68.4614 30.9384C68.3713 30.82 68.2734 30.7041 68.1652 30.5698C68.2918 30.4511 68.3736 30.3685 68.4606 30.2886ZM65.3497 28.3756C65.3802 28.4438 65.4368 28.5253 65.4257 28.5852C65.4121 28.6372 65.3151 28.6727 65.2546 28.7138C65.2267 28.6404 65.1623 28.5614 65.1734 28.5015C65.1844 28.4547 65.2865 28.4218 65.347 28.3808L65.3497 28.3756ZM62.9729 18.4819C63.1979 19.1551 63.4718 19.6435 63.2804 20.2077C62.8384 20.289 62.6688 20.0445 62.5651 19.7484C62.4007 19.2638 62.4789 19.035 62.9703 18.4871L62.9729 18.4819ZM53.6845 27.8282C53.7128 27.8625 53.7672 27.897 53.7669 27.9231C53.7636 27.9935 53.7289 28.061 53.7046 28.1338C53.6451 28.0836 53.5935 28.0308 53.534 27.9806C53.5868 27.929 53.6396 27.8773 53.6845 27.8282ZM51.5435 26.9515L50.6767 26.5062C50.9451 26.4604 51.2341 26.6088 51.5435 26.9515ZM52.3583 10.3853C52.3671 10.5342 52.4305 10.7045 52.3725 10.7535C52.1905 10.929 51.9673 11.057 51.7806 11.1907C51.1697 11.2049 50.7638 11.0883 50.3747 10.8752C50.3496 10.7836 50.3192 10.7024 50.3096 10.6188C50.3022 10.5821 50.3366 10.5408 50.35 10.5018C50.9895 10.0233 51.6551 10.2472 52.3558 10.3775L52.3583 10.3853ZM44.6289 24.9083C44.7091 24.7265 44.7894 24.5447 45.0247 24.5081C45.0685 24.5634 45.1096 24.6239 45.1585 24.6818C45.0336 24.8866 44.8428 24.9133 44.6289 24.9083ZM44.5501 24.9466C44.4738 25.0058 44.4 25.0728 44.3185 25.1294C44.2974 25.1448 44.2429 25.1233 44.2064 25.1177C44.2253 25.0553 44.2397 24.938 44.2658 24.9383C44.3624 24.9289 44.4615 24.9404 44.5553 24.9493L44.5501 24.9466ZM36.3986 55.6929C36.3002 55.6161 36.1755 55.5652 36.1322 55.4708C35.9667 55.0905 35.9916 54.7228 36.2799 54.3658C36.5914 54.8407 36.6309 55.2831 36.3986 55.6929ZM56.6662 79.9008C56.5034 79.7581 56.4414 79.7 56.3819 79.6497C56.3906 79.5689 56.3656 79.4642 56.4107 79.4021C56.8857 78.6817 57.538 78.2165 58.3589 78.0871C58.6426 78.1607 58.8084 78.2721 58.734 78.634C58.234 79.2497 57.3611 79.3655 56.6662 79.9008ZM54.4779 87.4428C54.2473 87.2915 54.2491 87.1219 54.3448 86.9612C54.4035 86.847 54.4988 86.7253 54.6062 86.6821C55.1384 86.4635 55.5574 86.0949 55.9817 85.7158C56.1899 85.5276 56.4635 85.327 56.8374 85.5059C56.7056 85.8647 56.5713 86.2155 56.4207 86.6236C55.7534 87.0287 55.1342 87.3273 54.4806 87.4376L54.4779 87.4428ZM60.3407 76.5663C60.4063 76.7706 60.3137 76.887 60.1177 76.911C60.0759 76.9157 59.9676 76.7945 59.9759 76.7528C60.0145 76.5627 60.1406 76.4832 60.3407 76.5663ZM58.854 84.8624C58.4162 85.0377 58.1331 85.1547 57.8357 85.1462C57.8052 85.065 57.7668 84.9993 57.78 84.9864C58.2689 84.4306 58.8503 84.0011 59.5597 83.5652C59.5757 83.7768 59.6394 83.921 59.5865 83.9857C59.3534 84.2989 59.0893 84.5831 58.854 84.8624ZM60.7489 83.6512C60.7567 83.8914 60.6397 84.0085 60.3979 84.0023C60.3695 83.7384 60.483 83.6196 60.7489 83.6512ZM66.0134 73.786C66.1412 73.3203 66.3411 73.1737 66.7021 73.3394C66.6284 73.7127 66.3989 73.8616 66.0134 73.786ZM70.4089 71.3468C70.0039 71.8669 69.3346 71.7396 68.8638 72.0685C68.4036 72.3897 67.8868 72.6294 67.422 72.8958C67.1689 72.8904 67.0894 72.7643 67.0796 72.464C67.6085 71.8304 68.3066 71.2377 68.7589 70.4467C69.0228 70.4182 69.2329 70.29 69.4382 70.133C69.8857 69.7856 70.3204 69.4119 70.9563 69.2466C71.063 69.2817 71.219 69.3356 71.3828 69.387C71.3836 69.5514 71.3901 69.6794 71.3882 69.849C71.1354 70.0602 70.8693 70.2844 70.5639 70.5342C70.5115 70.7894 70.4587 71.0837 70.4036 71.3572L70.4089 71.3468ZM68.3476 70.3404C68.5268 70.1832 68.5975 70.4032 68.7145 70.4436C68.5786 70.4656 68.445 70.5085 68.3476 70.3404ZM72.3327 69.1598C72.2968 69.102 72.253 69.0467 72.2119 68.9863C72.2751 68.94 72.3434 68.8964 72.4065 68.8501C72.4424 68.9079 72.5302 68.9923 72.5169 69.0183C72.4849 69.0806 72.3958 69.1135 72.3327 69.1598ZM73.0547 72.8371C72.905 72.9242 72.745 72.9929 72.603 73.0906C72.4953 73.1599 72.4132 73.2686 72.3053 73.3509C72.1658 73.4564 72.0211 73.5592 71.8689 73.6384C71.7167 73.7177 71.5514 73.7968 71.3363 73.6535C71.3347 73.5674 71.2895 73.3999 71.3476 73.3379C71.894 72.7723 72.4689 72.2279 73.3328 72.219C73.372 72.2194 73.4107 72.259 73.4417 72.2881C73.4434 72.3742 73.4477 72.4551 73.4538 72.6092C73.3409 72.6758 73.1938 72.7577 73.0547 72.8371ZM76.196 69.5699C75.7891 69.7873 75.3402 70.0226 74.9203 70.2398C74.6636 70.0882 74.6862 69.9293 74.8013 69.6669C75.1979 69.4312 75.5911 69.0362 76.1117 68.9166C76.4201 69.1209 76.3397 69.3157 76.1908 69.5673L76.196 69.5699ZM81.194 65.4852C81.1038 65.3798 81.0265 65.2876 80.9673 65.2113C81.0178 64.883 81.2593 64.7578 81.4799 64.6349C81.711 64.5043 81.9544 64.4391 82.2223 64.7605C82.0595 65.3328 81.6334 65.396 81.194 65.4852ZM83.9266 65.7081C83.9443 65.5204 84.0852 65.5272 84.2054 65.5102C84.1472 65.5853 84.0916 65.6551 84.0282 65.7275C84.0202 65.7431 83.9656 65.7216 83.9292 65.716L83.9266 65.7081ZM91.5752 50.2186C91.2927 50.9985 90.6473 51.5526 90.1575 52.1867C89.1319 52.9062 88.153 53.6368 87.2281 54.454C85.8763 55.6424 84.473 56.765 83.0877 57.9165C82.9507 58.0298 82.8036 58.1248 82.6795 58.2513C81.5368 59.4159 80.2034 60.3513 78.9035 61.3237C78.693 61.478 78.498 61.6533 78.3505 61.7744C78.2036 62.3287 78.7315 62.5014 78.8056 62.8807C78.7579 62.948 78.7177 63.052 78.66 63.0748C78.3718 63.1761 78.0683 63.2432 77.7827 63.3523C77.67 63.3929 77.5801 63.5041 77.4511 63.6019C77.5932 63.9766 77.7354 64.3383 77.8902 64.7393C77.7921 64.8792 77.6967 65.0138 77.588 65.1745C77.0975 65.1587 76.6252 65.1457 76.2052 65.1333C75.887 65.3569 76.048 65.6692 75.888 65.9807C75.4006 66.6357 74.5977 66.7939 73.7769 66.9102C73.373 67.3391 72.8795 67.5973 72.2818 67.5986C71.8225 67.5988 71.4343 67.7799 71.0406 67.9844C69.6493 68.7261 68.2555 69.4599 66.8539 70.1832C66.4681 70.3852 66.0542 70.5268 65.6452 70.6972C65.6358 70.8432 65.6241 70.9553 65.6203 71.0649C66.3212 71.1691 66.8936 70.6168 67.5699 70.82C67.6037 70.8308 67.6319 70.878 67.6629 70.9071C67.7612 71.2266 67.5634 71.4202 67.3272 71.535C66.9808 71.7113 66.601 71.8377 66.2209 71.9901C66.0339 72.1499 65.8311 72.3147 65.6125 72.4976C65.2486 72.6059 64.8664 72.7113 64.4501 72.8321C63.4765 73.5652 62.5274 74.4422 61.2149 74.6602C61.0711 74.1993 61.079 74.1968 61.4332 73.5456C61.7467 73.2802 62.0785 73.0046 62.3788 72.7521C62.3143 72.4434 62.1445 72.4546 61.8959 72.5171C61.6662 72.76 61.3685 73.0203 61.125 73.3282C60.7969 73.737 60.4898 74.1434 59.9963 74.4016C59.7075 74.555 59.5133 74.8948 59.2676 75.1688C58.971 75.3247 58.6613 75.4806 58.3149 75.6569C58.0302 76.4028 57.4787 76.9527 56.8599 77.4548C56.4202 77.8128 56.0242 78.2261 55.6076 78.6156C55.5443 78.6749 55.4861 78.75 55.4151 78.7988C54.4687 79.4279 53.5403 80.0859 52.5605 80.6651C51.9195 81.0443 51.2326 81.3344 50.7864 81.8071C49.8225 82.1254 49.2102 81.3123 48.2465 81.3749C47.6593 81.6112 46.9281 81.8981 46.1915 82.1955C45.9232 82.1429 45.6654 82.0958 45.3658 82.0403C45.1603 82.2234 44.9388 82.4245 44.6226 82.7082C43.9162 82.8701 43.1129 83.0544 42.2861 83.2464C42.2122 83.0838 42.156 82.9762 42.1103 82.8609C42.0798 82.7796 42.0703 82.696 42.0378 82.5678C41.8932 82.6575 41.7514 82.7421 41.5569 82.8653C41.2706 82.7969 40.9374 82.7176 40.5625 82.63C40.4865 82.4204 40.4156 82.2264 40.3344 82.0142C40.5044 81.7342 40.6664 81.4828 40.8099 81.2416C40.7589 81.1367 40.7206 81.058 40.6593 80.9346C40.4351 80.9113 40.1796 80.885 39.932 80.8562C39.8805 80.7904 39.803 80.7243 39.7829 80.6484C39.6737 80.1331 39.4623 79.6506 39.2981 79.1529C38.8711 77.8643 38.5175 76.5477 38.1376 75.2438C38.0948 75.0972 38.0237 74.9164 38.2213 74.7489C38.526 75.0497 38.5005 75.4696 38.6507 75.8157C38.7882 76.1356 38.8994 76.4683 39.2999 76.5953C39.5173 76.2871 39.4247 75.9181 39.4753 75.5898C39.5202 75.298 39.4375 74.9866 39.41 74.6313C39.133 74.43 38.8454 74.2363 38.5737 74.0246C38.1028 73.6514 37.8076 73.1915 37.9033 72.5583C38.0989 72.5735 38.2866 72.5912 38.4873 72.6091C38.4887 72.1637 38.3627 71.6682 38.1094 71.1226C38.0045 71.1736 37.9048 71.2273 37.8103 71.2707C37.748 71.2387 37.7065 71.2174 37.6755 71.1883C37.6445 71.1593 37.6031 71.1249 37.5957 71.0883C37.303 69.4487 37.0155 67.8118 36.7011 66.0102C36.6497 65.9314 36.5138 65.7107 36.3418 65.4452C36.3747 64.3468 36.2957 63.2107 35.9742 62.3042C35.9101 61.2413 35.8596 60.369 35.812 59.4655C35.8987 59.4117 35.9986 59.3449 36.0932 59.2885C36.1811 59.3599 36.2772 59.4027 36.3078 59.4709C36.5861 60.0403 36.6657 60.6388 36.5936 61.2644C36.5678 61.4807 36.5498 61.6945 36.5233 61.963C36.9827 62.9206 37.6039 63.8696 37.38 65.0207C37.5306 65.3277 37.6608 65.5979 37.786 65.8394C38.0729 65.8599 38.3457 65.8055 38.6047 65.6761C38.7282 64.8736 38.6616 64.0455 38.5453 63.2248C38.4385 62.4876 38.3133 61.7607 38.3659 61.0071C38.3869 60.7489 38.3063 60.4845 38.2831 60.2232C38.1955 59.3976 38.1106 58.5667 38.0257 57.7358C38.0141 57.6052 37.9816 57.477 37.9722 57.3803C37.6804 57.3354 37.4719 57.307 37.2764 57.2788C37.0017 56.6259 37.605 56.3454 37.8557 55.8575C37.7827 55.6036 37.7683 55.2485 37.5879 55.0377C36.9257 54.258 36.769 53.3115 36.565 52.3933C36.648 52.2063 36.7176 52.0452 36.814 51.8192C36.5349 51.0854 36.2278 50.2913 36.7139 49.511C36.6859 49.208 36.6626 48.9467 36.6324 48.6097C36.9817 47.6871 37.3552 46.7046 37.7717 45.6C37.7616 44.8535 37.6851 43.9679 38.0934 43.1476C37.8214 41.7615 38.1987 40.4267 38.3465 39.079C38.3728 38.8236 38.475 38.5481 38.6285 38.3514C39.256 37.5257 39.2874 36.5578 39.3162 35.5951C39.3328 35.0263 39.313 34.4519 39.3114 33.8803C39.3091 33.6167 39.2781 33.345 39.3278 33.095C39.4353 32.5664 39.4384 32.0496 39.224 31.5984C39.3424 31.2787 39.4285 31.0343 39.493 30.8706C39.6751 30.6821 39.7824 30.6519 40.3728 30.6009C40.6066 30.4651 40.9112 30.2936 41.2185 30.1169C41.31 29.8621 41.3988 29.6125 41.5039 29.3057C41.9409 28.966 42.3708 28.5505 42.7469 28.0483C43.6156 26.8807 44.8169 26.3301 46.3006 26.4559C47.4009 26.5488 48.4767 26.7406 49.5356 27.0418C49.9987 27.1748 50.4591 27.3129 50.9326 27.4511C51.823 27.8889 52.4652 28.5927 53.0201 29.4025C53.2153 29.6865 53.3814 30.0146 53.7429 30.1281C53.8268 30.0925 53.9029 30.0594 53.9789 30.0263C54.0059 29.9483 54.0537 29.8679 54.0572 29.7845C54.0617 29.6097 54.0402 29.4345 54.0312 29.2987C54.2019 28.9665 54.4102 28.7653 54.7748 28.8345C55.1343 29.6161 55.163 29.8539 55.1869 31.9786C55.3855 32.1921 55.6228 32.4453 55.9711 32.8145C56.0359 33.097 56.1304 33.5261 56.2249 33.9551L56.3165 33.93C56.3029 34.9399 56.2868 35.9419 56.2714 37.1083C56.373 37.3704 56.5303 37.7792 56.6926 38.2168C56.6999 38.9816 56.6678 39.772 56.7297 40.5583C56.7826 41.2087 56.9531 41.8473 57.0961 42.6162C56.8341 43.1901 56.5266 43.8653 56.2083 44.5743C56.3066 44.8938 56.4126 45.2238 56.536 45.6349C56.1532 47.2357 55.3094 48.7507 54.8695 50.3222C54.7289 51.2472 54.5969 52.1044 54.4451 53.1023C54.3595 53.2945 54.2099 53.6113 54.0521 53.9566C54.1372 54.289 54.2197 54.6266 54.2923 54.9066C54.2402 55.3784 53.8114 55.4468 53.6056 55.656C53.5833 55.7889 53.5431 55.8798 53.5632 55.9557C53.6525 56.382 53.76 56.8112 53.8646 57.2717C53.7887 57.5345 53.7073 57.8207 53.623 58.1251L54.4328 58.541C54.7545 58.9491 55.0532 59.3255 55.3929 59.7625C55.3082 60.3488 54.8791 60.686 54.3825 61.0016C54.0209 60.888 53.6932 60.7853 53.3603 60.6799C53.2343 60.7464 53.124 60.8078 53.0137 60.8692C52.8972 61.262 53.1133 61.5567 53.266 61.9107L53.8733 62.2226C54.2232 62.2056 54.3586 61.9931 54.4913 61.7857C54.5305 62.0289 54.5747 62.2747 54.6188 62.5466L55.361 62.9279C55.6505 63.4243 55.6016 63.8387 55.3728 64.246C55.0175 64.5161 54.6244 64.4257 54.2332 64.3953C53.863 64.3626 53.5459 64.4818 53.3337 64.7927C53.3533 65.3931 53.9115 65.4175 54.1487 65.6837C55.11 65.8429 56.0003 66.051 56.9983 65.96C57.3109 65.7729 57.684 65.5447 58.0308 65.3293C58.4069 65.5422 58.346 65.8651 58.3375 66.1626C58.3295 66.4208 58.2796 66.6839 58.2511 66.9054C58.4873 67.5057 58.7508 67.9887 59.5239 67.9397C59.6604 67.6228 59.7943 67.3111 59.931 66.9811C60.1263 66.7797 60.2602 66.468 60.6408 66.5061C60.7002 66.5694 60.7858 66.6199 60.8137 66.6932C60.8468 66.7693 60.8249 66.863 60.8396 66.9493C60.8518 67.0277 60.877 67.1063 60.8971 67.1822C61.0568 67.1396 61.2216 67.0996 61.4048 67.0494C61.5827 67.2523 61.7529 67.4447 61.9282 67.6397C62.3771 67.8769 62.8386 67.9237 63.3888 67.7209C63.8686 67.0423 64.5711 66.5176 65.2247 65.9349C66.1497 65.1177 66.8803 64.1678 67.3682 62.9883C67.7461 62.0737 68.1269 61.1409 68.7103 60.2991C69.4315 59.2526 69.8572 58.028 70.3113 56.8377C70.6069 56.0579 70.8089 55.2433 71.1018 54.4687C71.3168 53.8969 71.6175 53.3626 71.9781 52.6096C72.0171 52.1377 72.1185 51.455 72.3867 50.7924C72.6496 50.1402 72.7043 49.4336 72.6049 48.733C73.1744 47.7266 73.7203 46.7278 74.3025 45.7476C74.7731 44.9594 75.2851 44.1924 75.7816 43.4175C76.0258 43.0443 76.3551 42.7609 76.7541 42.546C77.7124 42.0214 78.6632 41.4733 79.6215 40.9487C79.9261 40.7772 80.2537 40.6503 80.5737 40.4998C81.2112 40.204 81.8459 39.9134 82.4046 39.6559C82.7443 39.135 83.0257 38.7022 83.3017 38.2798C83.742 38.3551 83.5697 38.8308 83.8474 38.98C84.3398 38.9749 84.7873 38.8615 85.1899 38.6397C85.236 38.2435 85.1565 37.8746 84.9127 37.4935C84.6107 37.4302 84.28 37.3588 83.8946 37.2789C83.9696 37.1075 84.0177 37.001 84.063 36.9127C84.5558 36.7198 84.9298 37.1284 85.3066 37.0333C85.6086 37.3394 85.8513 37.5821 86.125 37.8539C86.5647 37.7386 86.9808 37.6309 87.4545 37.5134C87.6052 37.5777 87.8 37.6581 87.9818 37.7384C87.9573 38.3097 87.9075 38.8155 87.6519 39.2746C88.4686 39.2939 89.2879 39.3081 90.1046 39.3275C90.1043 39.3536 90.1092 39.3823 90.1089 39.4084C90.4517 39.3286 90.7866 39.2514 91.0325 39.194C91.692 39.2639 92.2604 39.3196 92.8521 39.3809C92.9454 39.4419 93.0675 39.4981 93.1552 39.5956C93.2403 39.6852 93.2832 39.8188 93.3396 39.9134C93.1984 40.6609 93.0626 41.3849 92.9268 42.109C92.6792 43.038 92.078 43.8379 91.9603 44.8205C91.946 44.9378 91.9864 45.0635 92.0008 45.1759C92.3942 45.2402 92.4086 44.8802 92.5774 44.7176C92.733 44.5679 92.8551 44.3814 92.9979 44.2054C93.3836 44.0165 93.7772 43.8251 94.1578 43.6204C94.5096 43.4338 94.8637 43.268 95.369 43.357C95.4672 43.4468 95.6223 43.592 95.7902 43.7504C95.7434 44.2119 95.6969 44.6472 95.6645 44.9783C94.6706 47.0919 93.2693 48.7599 91.5698 50.2421L91.5752 50.2186ZM85.2609 65.1668C85.2304 65.0986 85.2056 64.9809 85.2399 64.9395C85.2982 64.8644 85.4108 64.8239 85.5632 64.7316C85.5637 64.9221 85.5912 65.0347 85.5563 65.1282C85.5078 65.2608 85.3145 65.2796 85.2609 65.1668Z" fill="#EDEDED"/>
<path d="M36.5508 13.9688C36.5508 13.9688 36.5401 13.9895 36.54 14.0026C36.5452 14.0052 36.5555 14.0106 36.5659 14.0159L36.5481 13.9739L36.5508 13.9688Z" fill="#EDEDED"/>
<path d="M73.754 66.8925L73.7775 66.8849C73.7672 66.8795 73.7541 66.8794 73.7359 66.8766C73.7305 66.887 73.7279 66.8922 73.7277 66.9052C73.7408 66.9054 73.7487 66.9028 73.7565 66.9003C73.7592 66.8951 73.7618 66.8899 73.7645 66.8847L73.7409 66.8923L73.754 66.8925Z" fill="#EDEDED"/>
<path d="M87.2228 26.7143C87.0437 26.6288 86.8619 26.5486 86.7321 26.4819C85.0765 26.8058 84.9611 26.8645 84.3921 27.5891C84.8852 27.8424 85.3291 27.5784 85.5616 27.5601C86.2387 27.2125 86.7322 26.9543 87.2203 26.7064L87.2228 26.7143Z" fill="#EDEDED"/>
<path d="M87.2566 26.6991C87.2566 26.6991 87.2382 26.7094 87.2225 26.7144C87.2381 26.7224 87.2485 26.7278 87.264 26.7358L87.2566 26.6991Z" fill="#EDEDED"/>
<path d="M26.3522 54.1277C26.1724 54.3372 26.0384 54.4192 26.0269 54.5183C25.97 54.9483 25.9366 55.3837 25.9292 55.8195C25.9246 56.0074 26.0483 56.1497 26.3213 56.0013C26.4273 55.6162 26.5466 55.2051 26.6554 54.8018C26.5662 54.6051 26.4948 54.4503 26.3522 54.1277Z" fill="#EDEDED"/>
<path d="M89.4926 26.5097C89.3868 26.3963 89.2732 26.2854 89.1907 26.1906C88.6118 26.1425 88.1456 26.2966 87.7094 26.5711C88.2265 26.7777 88.7555 26.8461 89.3023 26.7268C89.3677 26.7145 89.4079 26.6105 89.4952 26.5045L89.4926 26.5097Z" fill="#EDEDED"/>
<path d="M25.7388 60.3788C25.7124 60.4046 25.6625 60.438 25.6622 60.4641C25.6898 60.8063 25.7252 61.146 25.7671 61.6136C25.9433 61.0918 25.9312 60.6811 25.7309 60.3814L25.7388 60.3788Z" fill="#EDEDED"/>
<path d="M78.1446 74.2183C78.4018 74.0836 78.5012 73.9029 78.4428 73.6761C78.166 73.6913 77.8813 73.7091 77.5993 73.7217C77.7908 73.8725 77.8369 74.1914 78.1394 74.2156L78.1446 74.2183Z" fill="#EDEDED"/>
<path d="M77.5994 73.7218C77.5994 73.7218 77.589 73.7165 77.5838 73.7138C77.5734 73.7085 77.5683 73.7058 77.5605 73.6953C77.5552 73.7057 77.5499 73.7161 77.5497 73.7291C77.5628 73.7293 77.5837 73.7269 77.5967 73.727L77.5994 73.7218Z" fill="#EDEDED"/>
<path d="M26.0513 52.2998C26.0609 52.6131 25.9503 52.9433 26.1662 53.251C26.2689 53.166 26.3738 53.115 26.3823 53.0602C26.4275 52.7423 26.2578 52.5108 26.0513 52.2998Z" fill="#EDEDED"/>
<path d="M28.0828 83.0818C28.0327 83.1282 27.9853 83.1694 27.9352 83.2159C28.0102 83.2741 28.0826 83.3376 28.1758 83.4117C28.2029 83.3206 28.2347 83.2713 28.2245 83.253C28.1886 83.1952 28.1318 83.1397 28.0853 83.0896L28.0828 83.0818Z" fill="#EDEDED"/>
<path d="M27.3141 77.694C27.3082 77.7566 27.3437 77.8536 27.3981 77.8881C27.45 77.9148 27.5339 77.8791 27.6045 77.8695C27.5794 77.7779 27.5543 77.6862 27.5294 77.5816C27.4244 77.6326 27.3198 77.6576 27.3193 77.6967L27.3141 77.694Z" fill="#EDEDED"/>
<path d="M56.961 91.8942L57.1103 91.6036L56.9066 91.8597L56.9637 91.8891L56.961 91.8942Z" fill="#EDEDED"/>
<path d="M68.2703 79.3278C68.3016 79.3307 68.3355 79.3285 68.3668 79.3314C68.3749 79.3028 68.3779 79.2715 68.386 79.2429C68.3548 79.2399 68.3131 79.2317 68.2947 79.2419C68.2763 79.2521 68.2784 79.2991 68.2755 79.3304L68.2703 79.3278Z" fill="#EDEDED"/>
<path d="M25.7547 56.7332C25.6525 56.7791 25.6464 56.8547 25.737 56.9209C25.763 56.9343 25.8257 56.9271 25.8442 56.9038C25.8602 56.8727 25.8529 56.823 25.8534 56.7839C25.8222 56.7679 25.7783 56.7256 25.7547 56.7332Z" fill="#EDEDED"/>
<path d="M27.7183 79.6529C27.705 79.6788 27.7176 79.7181 27.7198 79.752C27.767 79.7369 27.8168 79.7166 27.8587 79.6988C27.8408 79.6698 27.8202 79.6461 27.797 79.6146C27.7656 79.6247 27.7238 79.6294 27.7131 79.6502L27.7183 79.6529Z" fill="#EDEDED"/>
<path d="M27.9927 81.3026C27.9611 81.3257 27.9374 81.3463 27.9058 81.3695L27.9701 81.4615C27.9965 81.4357 28.0463 81.4154 28.0491 81.3971C28.052 81.3659 28.0158 81.3342 27.9927 81.3026Z" fill="#EDEDED"/>
<path d="M72.4013 78.183C72.4326 78.186 72.4718 78.1864 72.503 78.1894C72.506 78.1581 72.5168 78.1243 72.5198 78.093C72.4885 78.0901 72.4416 78.0791 72.4205 78.0945C72.4022 78.1048 72.4095 78.1544 72.3987 78.1882L72.4013 78.183Z" fill="#EDEDED"/>
<path d="M26.1108 52.0947L26.0229 52.266C26.0229 52.266 26.0435 52.2897 26.0564 52.3029C26.0592 52.2847 26.0541 52.269 26.0518 52.248C26.0786 52.1831 26.1002 52.1155 26.1108 52.0947Z" fill="#EDEDED"/>
<path d="M87.673 26.5915C87.673 26.5915 87.6941 26.5761 87.7019 26.5736C87.6864 26.5656 87.676 26.5603 87.6604 26.5523C87.5242 26.6004 87.3879 26.6485 87.2596 26.694L87.267 26.7306C87.4032 26.6825 87.5395 26.6345 87.6757 26.5864L87.673 26.5915Z" fill="#EDEDED"/>
<path d="M56.074 75.5626C55.7091 75.7622 55.3536 76.0454 54.9479 76.1584C54.0578 76.4097 53.4512 76.9903 52.9058 77.7072C52.9672 77.8175 53.0235 77.9251 53.126 78.0959C53.6837 77.8532 54.2012 77.4586 54.6787 76.9123C55.0614 76.7546 55.5019 76.5742 55.9187 76.4012C56.3891 75.8687 56.3839 75.8661 56.074 75.5626Z" fill="#EDEDED"/>
<path d="M52.989 62.4246C52.9554 62.4008 52.9057 62.4081 52.864 62.3998C52.3802 62.7286 52.2806 63.012 52.5464 63.2863C52.7281 63.3796 52.8722 63.329 52.9886 63.1789C53.1158 63.008 53.2456 62.8319 53.1698 62.5962C53.1078 62.5381 53.0537 62.4775 52.989 62.4246Z" fill="#EDEDED"/>
<path d="M50.1344 80.5602C50.176 80.5685 50.2304 80.603 50.2542 80.5824C50.533 80.3844 50.8041 80.176 51.0725 79.9727C50.3832 79.9992 50.3857 80.007 50.1292 80.5575L50.1344 80.5602Z" fill="#EDEDED"/>
<path d="M72.9256 66.7291C72.9256 66.7291 72.9362 66.7083 72.9442 66.6928C72.9338 66.6874 72.9235 66.6821 72.9104 66.682L72.9231 66.7212L72.9256 66.7291Z" fill="#EDEDED"/>
<path d="M73.6232 66.2019C73.5292 66.2061 73.4117 66.2179 73.2655 66.2215C73.1594 66.3769 73.0585 66.535 72.9497 66.6956C73.2126 66.7585 73.4782 66.8162 73.7359 66.8765C73.7828 66.6447 73.8767 66.4108 73.6232 66.2019Z" fill="#EDEDED"/>
<path d="M37.931 66.8987C38.2182 67.3742 38.2286 67.3796 38.6197 67.4099C38.5766 67.2894 38.5413 67.1794 38.4982 67.0589C38.3031 67.0046 38.1158 66.9477 37.9337 66.8935L37.931 66.8987Z" fill="#EDEDED"/>
<path d="M37.8768 66.8765C37.8768 66.8765 37.9158 66.89 37.934 66.8928C37.9263 66.8823 37.9238 66.8744 37.9161 66.8639L37.8768 66.8765Z" fill="#EDEDED"/>
<path d="M44.5862 81.2724C44.5985 81.3378 44.6108 81.4031 44.6284 81.4712C44.6702 81.4664 44.7093 81.4669 44.7459 81.4594C44.7336 81.3941 44.7239 81.3235 44.6985 81.258C44.696 81.2501 44.6228 81.2649 44.5862 81.2724Z" fill="#EDEDED"/>
<path d="M72.4621 67.0944C72.6895 67.0603 72.7852 66.8996 72.8809 66.7388C72.7368 66.7894 72.5928 66.8401 72.4616 66.9039C72.438 66.9115 72.4603 67.0213 72.4648 67.0892L72.4621 67.0944Z" fill="#EDEDED"/>
<path d="M72.8784 66.7436C72.8784 66.7436 72.9098 66.7335 72.9255 66.7285L72.9129 66.6892C72.9129 66.6892 72.8916 66.7307 72.8809 66.7515L72.8784 66.7436Z" fill="#EDEDED"/>
<path d="M87.1359 39.4496C87.0388 39.4982 87.056 39.5923 87.152 39.6482C87.387 39.6377 87.4853 39.4717 87.5785 39.3031C87.4292 39.3511 87.2749 39.3833 87.1359 39.4496Z" fill="#EDEDED"/>
<path d="M87.5786 39.3028C87.5786 39.3028 87.6074 39.2979 87.6179 39.2902C87.6259 39.2746 87.6312 39.2643 87.6392 39.2487C87.6288 39.2433 87.6131 39.2484 87.6053 39.2509C87.5973 39.2665 87.5866 39.2873 87.5786 39.3028Z" fill="#EDEDED"/>
<path d="M38.2084 69.2316C38.1069 69.1992 38.0699 69.2457 38.1079 69.3506C38.1155 69.3741 38.165 69.3799 38.1961 69.3959C38.2225 69.3701 38.2619 69.3444 38.2622 69.3183C38.2652 69.287 38.2318 69.2371 38.2084 69.2316Z" fill="#EDEDED"/>
<path d="M64.3131 71.9753C64.3131 71.9753 64.248 71.9616 64.2115 71.956C64.211 72.0082 64.2156 72.063 64.2177 72.11C64.2518 72.0947 64.2832 72.0846 64.3173 72.0693C64.3151 72.0354 64.3339 71.986 64.3158 71.9701L64.3131 71.9753Z" fill="#EDEDED"/>
<path d="M38.0736 71.0781L38.1046 71.1071C38.1046 71.1071 38.1045 71.1071 38.1097 71.1098C38.1203 71.1021 38.1281 71.0995 38.1438 71.0945L38.0762 71.0729L38.0736 71.0781Z" fill="#EDEDED"/>
</g>
<defs>
<filter id="filter0_d_138_1514" x="20.6621" y="7.95605" width="91.374" height="100.855" filterUnits="userSpaceOnUse" color-interpolation-filters="sRGB">
<feFlood flood-opacity="0" result="BackgroundImageFix"/>
<feColorMatrix in="SourceAlpha" type="matrix" values="0 0 0 0 0 0 0 0 0 0 0 0 0 0 0 0 0 0 127 0" result="hardAlpha"/>
<feOffset dy="4"/>
<feGaussianBlur stdDeviation="2.5"/>
<feComposite in2="hardAlpha" operator="out"/>
<feColorMatrix type="matrix" values="0 0 0 0 0 0 0 0 0 0 0 0 0 0 0 0 0 0 0.5 0"/>
<feBlend mode="normal" in2="BackgroundImageFix" result="effect1_dropShadow_138_1514"/>
<feBlend mode="normal" in="SourceGraphic" in2="effect1_dropShadow_138_1514" result="shape"/>
</filter>
</defs>
</svg>
