<svg width="167" height="57" viewBox="0 0 167 57" fill="none" xmlns="http://www.w3.org/2000/svg">
<path d="M68.8702 10.2683C68.8737 10.4007 68.8489 10.5323 68.7976 10.6543C68.7463 10.7764 68.6695 10.8861 68.5725 10.9762C68.4816 11.0666 68.3736 11.138 68.2548 11.1863C68.1361 11.2347 68.0089 11.259 67.8807 11.2578H64.8438V16.9977C64.8484 17.1287 64.8257 17.2593 64.7772 17.3811C64.7287 17.503 64.6556 17.6134 64.5623 17.7056C64.4696 17.7981 64.359 17.8708 64.2373 17.9192C64.1156 17.9676 63.9853 17.9907 63.8543 17.9872C63.7229 17.9903 63.5921 17.967 63.4698 17.9187C63.3475 17.8703 63.2361 17.7978 63.1424 17.7056C63.0504 17.6127 62.9784 17.502 62.9307 17.3802C62.8829 17.2585 62.8605 17.1283 62.8649 16.9977V11.2578H59.8602C59.7292 11.2617 59.5988 11.2388 59.4769 11.1904C59.3551 11.1421 59.2445 11.0693 59.1518 10.9767C59.0592 10.884 58.9864 10.7733 58.9381 10.6515C58.8897 10.5297 58.8668 10.3993 58.8707 10.2683C58.8662 10.1372 58.8887 10.0065 58.9369 9.8844C58.985 9.76232 59.0577 9.65144 59.1505 9.55864C59.2433 9.46585 59.3542 9.39313 59.4763 9.34499C59.5983 9.29685 59.729 9.27433 59.8602 9.27881H62.897V5.51391C62.897 5.25148 63.0013 4.9998 63.1868 4.81423C63.3724 4.62866 63.6241 4.52441 63.8865 4.52441C64.149 4.52441 64.4006 4.62866 64.5862 4.81423C64.7718 4.9998 64.876 5.25148 64.876 5.51391V9.27881H67.8807C68.1388 9.27674 68.3874 9.37645 68.5725 9.55635C68.6694 9.64741 68.746 9.75789 68.7973 9.88057C68.8486 10.0033 68.8735 10.1354 68.8702 10.2683Z" fill="#EDEDED"/>
<path d="M76.1471 9.24086C76.6893 9.46868 77.1824 9.79921 77.5991 10.2143C78.0125 10.6324 78.3428 11.1251 78.5726 11.6663C78.8132 12.2224 78.9365 12.8222 78.9346 13.4281V16.9959C78.938 17.1283 78.9133 17.2599 78.8619 17.3819C78.8106 17.504 78.7339 17.6137 78.6369 17.7039C78.4524 17.8852 78.2038 17.9864 77.9451 17.9854C77.675 17.9899 77.4138 17.8889 77.217 17.7039C77.1206 17.6135 77.0445 17.5037 76.9938 17.3816C76.9432 17.2595 76.9192 17.128 76.9234 16.9959V13.4281C76.9239 13.0943 76.8585 12.7637 76.7309 12.4553C76.6033 12.1468 76.416 11.8666 76.1798 11.6308C75.9436 11.395 75.6631 11.2081 75.3544 11.081C75.0458 10.9539 74.7151 10.889 74.3813 10.89H74.0836C73.7471 10.8859 73.4132 10.9493 73.1017 11.0764C72.7901 11.2035 72.5071 11.3918 72.2696 11.6301C72.0246 11.8604 71.8305 12.1392 71.6995 12.4488C71.5686 12.7584 71.5038 13.092 71.5093 13.4281V16.9959C71.5138 17.127 71.4912 17.2575 71.4427 17.3794C71.3942 17.5012 71.3211 17.6117 71.2278 17.7039C71.0365 17.8849 70.7832 17.9858 70.5198 17.9858C70.2565 17.9858 70.0031 17.8849 69.8119 17.7039C69.7186 17.6117 69.6454 17.5012 69.597 17.3794C69.5485 17.2575 69.5258 17.127 69.5303 16.9959V6.40109C69.5269 6.26777 69.55 6.1351 69.5984 6.0108C69.6467 5.8865 69.7193 5.77305 69.8119 5.67707C69.9041 5.58269 70.0142 5.50769 70.1358 5.45649C70.2573 5.40528 70.3879 5.37891 70.5198 5.37891C70.6518 5.37891 70.7823 5.40528 70.9039 5.45649C71.0255 5.50769 71.1356 5.58269 71.2278 5.67707C71.3204 5.77305 71.393 5.8865 71.4413 6.0108C71.4896 6.1351 71.5128 6.26777 71.5093 6.40109V9.66723C72.2636 9.13939 73.163 8.85834 74.0836 8.86276H74.3813C74.9898 8.86431 75.5913 8.9931 76.1471 9.24086Z" fill="#EDEDED"/>
<path d="M88.9981 13.4292C89.0022 13.5622 88.9777 13.6946 88.9263 13.8174C88.875 13.9402 88.798 14.0506 88.7005 14.1412C88.516 14.3225 88.2673 14.4237 88.0086 14.4227C87.9186 14.4297 87.8281 14.4173 87.7432 14.3865L81.77 14.4066C81.9697 14.8675 82.2961 15.2622 82.7112 15.545C83.1297 15.8466 83.6314 16.011 84.1472 16.0156H84.4448C84.8037 16.019 85.1586 15.9406 85.4826 15.7863C85.8089 15.6293 86.1056 15.417 86.3595 15.1588C86.4437 15.062 86.5475 14.9839 86.6639 14.9299C86.7803 14.8758 86.9069 14.8469 87.0352 14.8451C87.1639 14.837 87.2929 14.855 87.4145 14.8978C87.5362 14.9407 87.6479 15.0075 87.7432 15.0945C87.8503 15.1725 87.9375 15.2747 87.9976 15.3929C88.0578 15.511 88.0891 15.6417 88.0891 15.7742C88.0955 16.0398 88.0023 16.2981 87.8276 16.4983C87.4062 16.9734 86.8873 17.3523 86.3064 17.6091C85.7255 17.8659 85.096 17.9946 84.4609 17.9865H84.1633C83.5501 17.9924 82.9426 17.8676 82.3814 17.6205C81.8451 17.3905 81.3576 17.0601 80.9454 16.6471C80.5285 16.2347 80.1928 15.7476 79.9559 15.2111C79.7169 14.6503 79.5938 14.0469 79.5938 13.4373C79.5938 12.8276 79.7169 12.2243 79.9559 11.6634C80.4174 10.5767 81.2826 9.71149 82.3693 9.25001C82.9308 9.00417 83.5383 8.88076 84.1512 8.888H84.4489C85.049 8.88438 85.6439 9.00061 86.1986 9.22989C86.7338 9.45463 87.2212 9.77956 87.6346 10.1872C88.4761 11.0385 88.9647 12.1765 89.0021 13.3729V13.4373L88.9981 13.4292ZM84.1472 10.8911C83.6365 10.8855 83.1361 11.0341 82.7112 11.3175C82.2953 11.5924 81.9682 11.9823 81.77 12.4397L86.7858 12.3955C86.5824 11.9511 86.2575 11.5732 85.8486 11.3054C85.4344 11.0251 84.9451 10.8765 84.4448 10.8791L84.1472 10.8911Z" fill="#EDEDED"/>
<path d="M52.6483 25.7896H49.0725C48.9086 24.4974 48.6093 23.2261 48.1795 21.9965C45.1949 14.1329 39.7045 9.40262 31.6075 7.91838V4.25806C31.6075 3.32248 31.2358 2.42523 30.5743 1.76368C29.9127 1.10212 29.0155 0.730469 28.0799 0.730469C27.1443 0.730469 26.2471 1.10212 25.5855 1.76368C24.924 2.42523 24.5523 3.32248 24.5523 4.25806V7.89827C23.6433 8.04457 22.7435 8.24333 21.8574 8.49357C18.0017 9.67427 14.5614 11.9275 11.9383 14.99C9.3151 18.0526 7.61731 21.7983 7.04311 25.7896H3.52759C2.59201 25.7896 1.69476 26.1613 1.03321 26.8228C0.371655 27.4844 0 28.3816 0 29.3172C0 30.2528 0.371655 31.15 1.03321 31.8116C1.69476 32.4731 2.59201 32.8448 3.52759 32.8448H7.21205C7.37041 33.8035 7.61544 34.7459 7.94411 35.6604C10.9407 43.5361 16.4393 48.2785 24.5604 49.7386V53.4029C24.5604 54.3385 24.932 55.2358 25.5936 55.8973C26.2551 56.5589 27.1524 56.9305 28.088 56.9305C29.0235 56.9305 29.9208 56.5589 30.5823 55.8973C31.2439 55.2358 31.6155 54.3385 31.6155 53.4029V49.7828C32.7303 49.6276 33.8261 49.358 34.8857 48.9784C42.5925 46.0581 47.2825 40.7205 48.8794 32.889H52.6483C53.5839 32.889 54.4812 32.5174 55.1427 31.8558C55.8043 31.1943 56.1759 30.297 56.1759 29.3614C56.1759 28.4259 55.8043 27.5286 55.1427 26.8671C54.4812 26.2055 53.5839 25.8339 52.6483 25.8339V25.7896ZM28.0437 45.9656C18.5993 45.9375 10.8321 38.1382 10.9206 28.7138C10.9421 25.3271 11.9662 22.0226 13.8638 19.2173C15.7614 16.412 18.4475 14.2316 21.583 12.9514C24.7185 11.6711 28.163 11.3482 31.4818 12.0235C34.8006 12.6988 37.845 14.3421 40.2309 16.7459C42.6167 19.1497 44.2371 22.2063 44.8875 25.5301C45.538 28.8538 45.1894 32.2958 43.8856 35.4216C42.5819 38.5475 40.3815 41.2171 37.562 43.0936C34.7426 44.9702 31.4305 45.9695 28.0437 45.9656Z" fill="#EDEDED"/>
<path d="M28.2931 36.714C28.2203 36.7838 28.1438 36.8496 28.0639 36.9111C27.9839 36.8496 27.9074 36.7838 27.8346 36.714C26.0849 35.2579 20.1117 30.0208 20.3611 26.2036C20.6145 21.9279 26.1452 20.7775 28.0639 25.2061C30.0026 20.7815 35.5132 21.9279 35.7707 26.2036C36.012 30.0208 30.0429 35.2579 28.2931 36.714Z" fill="#EDEDED"/>
<path d="M105.473 42.7277C104.892 42.7396 104.325 42.5522 103.865 42.1968C103.408 41.8494 103.103 41.3394 103.012 40.7729C101.145 42.0652 98.9232 42.748 96.6525 42.7277H95.9205C94.4069 42.7411 92.9076 42.4355 91.52 41.8307C88.8508 40.6791 86.7226 38.5509 85.571 35.8817C84.979 34.4972 84.6738 33.0071 84.6738 31.5014C84.6738 29.9956 84.979 28.5055 85.571 27.1211C86.7047 24.4303 88.837 22.2836 91.52 21.1318C92.9083 20.5295 94.4072 20.224 95.9205 20.2348H96.6525C98.9232 20.2145 101.145 20.8973 103.012 22.1897C103.124 21.6424 103.426 21.1525 103.865 20.806C104.315 20.4285 104.886 20.2257 105.473 20.2348C106.118 20.2492 106.731 20.5114 107.187 20.967C107.642 21.4225 107.905 22.0363 107.919 22.6804V40.2821C107.928 40.6096 107.867 40.9352 107.741 41.2375C107.615 41.5398 107.426 41.8119 107.187 42.0359C106.961 42.2581 106.693 42.4336 106.399 42.5523C106.105 42.671 105.791 42.7306 105.473 42.7277ZM95.9406 25.2064C95.1087 25.1947 94.283 25.3511 93.513 25.6663C92.743 25.9815 92.0446 26.4489 91.4597 27.0406C90.8581 27.6083 90.3809 28.2946 90.0583 29.0562C89.7356 29.8178 89.5746 30.6381 89.5853 31.4652C89.5969 33.1471 90.2702 34.7569 91.4595 35.9462C92.6488 37.1356 94.2586 37.8089 95.9406 37.8205H96.6726C97.5125 37.827 98.3448 37.6614 99.1182 37.3338C99.8691 37.0183 100.552 36.5608 101.129 35.9863C101.708 35.4036 102.164 34.7118 102.473 33.951C102.798 33.1628 102.964 32.3178 102.96 31.4652C102.962 30.6404 102.802 29.8233 102.487 29.0608C102.173 28.2983 101.711 27.6055 101.128 27.0223C100.544 26.4391 99.8516 25.977 99.0891 25.6626C98.3266 25.3482 97.5095 25.1877 96.6847 25.1903L95.9406 25.2064Z" fill="#EDEDED"/>
<path d="M132.773 20.2348C134.017 20.2251 135.25 20.4744 136.393 20.9669C138.628 21.9575 140.414 23.7439 141.405 25.9787C141.897 27.1217 142.146 28.3544 142.137 29.5988V40.2821C142.146 40.6096 142.085 40.9352 141.959 41.2375C141.833 41.5398 141.644 41.8119 141.405 42.0359C141.178 42.2581 140.911 42.4336 140.617 42.5523C140.323 42.671 140.008 42.7306 139.691 42.7277C139.362 42.7359 139.034 42.679 138.727 42.5602C138.42 42.4415 138.139 42.2633 137.901 42.0359C137.66 41.8131 137.469 41.5414 137.342 41.239C137.214 40.9365 137.152 40.6103 137.161 40.2821V29.6069C137.172 29.0258 137.067 28.4485 136.849 27.9094C136.632 27.3703 136.309 26.8806 135.898 26.4697C135.487 26.0588 134.997 25.7351 134.458 25.518C133.919 25.3009 133.342 25.1949 132.761 25.2064C132.173 25.194 131.59 25.2994 131.044 25.5163C130.498 25.7333 130.001 26.0573 129.583 26.4694C129.159 26.8728 128.824 27.3602 128.6 27.9005C128.375 28.4408 128.266 29.022 128.28 29.6069V40.2821C128.291 40.6063 128.235 40.9294 128.116 41.2311C127.997 41.5329 127.818 41.807 127.588 42.0364C127.359 42.2658 127.085 42.4455 126.783 42.5644C126.481 42.6834 126.158 42.739 125.834 42.7277C125.51 42.7384 125.188 42.6824 124.886 42.5632C124.585 42.444 124.311 42.2642 124.083 42.0349C123.854 41.8056 123.674 41.5317 123.556 41.2302C123.437 40.9287 123.381 40.606 123.393 40.2821V29.6069C123.403 29.026 123.297 28.4489 123.08 27.9101C122.863 27.3712 122.539 26.8818 122.128 26.471C121.717 26.0601 121.228 25.7364 120.689 25.5191C120.15 25.3019 119.573 25.1955 118.992 25.2064C118.41 25.1999 117.831 25.3084 117.291 25.5259C116.751 25.7433 116.258 26.0653 115.843 26.4735C115.419 26.8768 115.084 27.3642 114.86 27.9045C114.635 28.4448 114.526 29.026 114.539 29.6109V40.2821C114.548 40.6096 114.488 40.9352 114.361 41.2375C114.235 41.5398 114.046 41.8119 113.807 42.0359C113.581 42.2581 113.313 42.4336 113.019 42.5523C112.725 42.671 112.411 42.7306 112.094 42.7277C111.765 42.7359 111.437 42.679 111.13 42.5602C110.823 42.4415 110.542 42.2633 110.304 42.0359C110.063 41.8128 109.873 41.5409 109.747 41.2385C109.62 40.936 109.559 40.61 109.568 40.2821V22.6804C109.567 22.3597 109.632 22.0422 109.759 21.7475C109.885 21.4528 110.071 21.1871 110.304 20.9669C110.537 20.7294 110.815 20.542 111.123 20.4161C111.431 20.2902 111.761 20.2285 112.094 20.2348C112.523 20.2388 112.942 20.3658 113.301 20.6009C113.671 20.8357 113.979 21.1574 114.198 21.5381C115.656 20.6689 117.326 20.218 119.024 20.2348C120.336 20.2249 121.633 20.5181 122.813 21.0916C123.958 21.6476 124.993 22.4067 125.866 23.332C126.741 22.4057 127.777 21.6464 128.923 21.0916C130.124 20.5146 131.441 20.2214 132.773 20.2348Z" fill="#EDEDED"/>
<path d="M166.999 31.4812C167.008 31.8086 166.947 32.1342 166.821 32.4365C166.695 32.7388 166.506 33.0109 166.267 33.2349C166.041 33.4571 165.773 33.6326 165.479 33.7513C165.185 33.87 164.871 33.9296 164.554 33.9267C164.333 33.9429 164.111 33.9142 163.902 33.8423L149.152 33.9267C149.642 35.067 150.447 36.0438 151.473 36.7424C152.513 37.4676 153.753 37.8514 155.021 37.8405H155.753C156.641 37.8491 157.519 37.6537 158.319 37.2693C159.127 36.8834 159.861 36.3608 160.491 35.7247C160.7 35.4866 160.956 35.2948 161.244 35.1618C161.531 35.0288 161.844 34.9575 162.16 34.9524C162.479 34.9335 162.797 34.9777 163.098 35.0827C163.399 35.1876 163.677 35.3511 163.914 35.5638C164.173 35.7654 164.381 36.0253 164.521 36.3224C164.661 36.6194 164.728 36.9452 164.719 37.2733C164.737 37.9323 164.504 38.5736 164.067 39.0673C163.024 40.2379 161.742 41.1712 160.308 41.8041C158.874 42.4369 157.32 42.7546 155.753 42.7356H155.021C153.507 42.7494 152.008 42.4437 150.62 41.8387C147.949 40.6902 145.82 38.561 144.671 35.8896C144.079 34.5051 143.774 33.015 143.774 31.5093C143.774 30.0036 144.079 28.5135 144.671 27.129C145.239 25.7909 146.058 24.5742 147.085 23.5451C148.106 22.5261 149.309 21.7075 150.632 21.1317C152.02 20.5285 153.519 20.2229 155.033 20.2347H155.765C158.709 20.2243 161.536 21.3815 163.628 23.4526C164.647 24.474 165.466 25.6773 166.042 27.0003C166.629 28.3603 166.954 29.8193 166.999 31.3001V31.4651V31.4812ZM155.021 25.2063C153.775 25.1991 152.554 25.5582 151.511 26.239C150.468 26.9199 149.647 27.8923 149.152 29.0356L161.541 28.9551C161.038 27.8553 160.231 26.9218 159.216 26.2642C158.195 25.5706 156.987 25.2019 155.753 25.2063H155.021Z" fill="#EDEDED"/>
<path d="M71.4531 44.2407C69.7743 44.2495 68.1119 43.9112 66.57 43.2471C63.5669 41.9653 61.1748 39.5732 59.8929 36.5701C59.2343 35.0323 58.8975 33.3759 58.9034 31.7031V31.5743C58.8931 29.8906 59.23 28.2229 59.8929 26.6751C61.1748 23.672 63.5669 21.2799 66.57 19.9981C68.8803 19.0259 71.4274 18.7627 73.8877 19.2419C76.3479 19.721 78.6101 20.9209 80.3867 22.689C80.6412 22.9179 80.8464 23.1962 80.9899 23.507C81.1334 23.8178 81.2121 24.1545 81.2212 24.4967C81.2303 24.8389 81.1697 25.1793 81.0431 25.4973C80.9164 25.8153 80.7263 26.1042 80.4844 26.3464C80.2425 26.5885 79.9538 26.7789 79.636 26.906C79.3181 27.033 78.9778 27.094 78.6356 27.0852C78.2934 27.0765 77.9566 26.9981 77.6456 26.855C77.3347 26.7119 77.0562 26.507 76.827 26.2528C76.1359 25.5264 75.3022 24.9506 74.3782 24.5616C73.4541 24.1726 72.4596 23.9788 71.4571 23.9922C70.4545 23.9833 69.4615 24.189 68.545 24.5956C67.6529 24.9959 66.8364 25.547 66.1316 26.2246C65.4328 26.9081 64.8847 27.7301 64.5226 28.638C64.1434 29.5647 63.9507 30.557 63.9555 31.5582V31.7031C63.9481 32.7187 64.1451 33.7255 64.5347 34.6635C64.9054 35.555 65.4527 36.3623 66.1436 37.0367C66.8417 37.7082 67.6516 38.2527 68.5369 38.6456C69.4544 39.0537 70.449 39.2595 71.4531 39.249C73.1494 39.2866 74.803 38.7159 76.115 37.64C77.2347 36.7322 78.0835 35.5342 78.5686 34.1768H71.4531C71.1175 34.1903 70.7825 34.1358 70.4684 34.0167C70.1544 33.8975 69.8676 33.7161 69.6253 33.4834C69.3831 33.2507 69.1903 32.9714 69.0587 32.6624C68.927 32.3533 68.8591 32.0209 68.8591 31.685C68.8591 31.349 68.927 31.0166 69.0587 30.7075C69.1903 30.3985 69.3831 30.1192 69.6253 29.8865C69.8676 29.6538 70.1544 29.4724 70.4684 29.3532C70.7825 29.2341 71.1175 29.1796 71.4531 29.1931C71.4531 29.1931 82.4059 28.8834 83.2908 29.7723C83.5251 30.0049 83.7091 30.283 83.8315 30.5895C83.954 30.896 84.0123 31.2243 84.0028 31.5542V31.7031C84.0106 33.3813 83.6738 35.0433 83.0133 36.5862C81.735 39.5917 79.3417 41.9849 76.3362 43.2632C74.7932 43.9218 73.1308 44.2545 71.4531 44.2407Z" fill="#EDEDED"/>
</svg>
