<svg width="195" height="54" viewBox="0 0 195 54" fill="none" xmlns="http://www.w3.org/2000/svg">
<rect width="195" height="54" rx="10" fill="#141414"/>
<path d="M76.64 27.62V29.66H74.08C74.88 30.1 75.34 30.8 75.34 31.74C75.34 33.72 73.22 35.28 70.06 35.28C65.74 35.28 62.92 32.36 62.92 27.96C62.92 23.66 65.62 20.72 69.92 20.72C73.32 20.72 75.72 22.54 75.42 25.9H72.94C73.18 23.84 71.82 22.84 69.9 22.84C67.14 22.84 65.42 24.88 65.42 27.96C65.42 31.1 67.22 33.16 70.02 33.16C71.68 33.16 72.84 32.46 72.84 31.36C72.84 30.32 71.76 29.66 69.84 29.66V27.62H76.64ZM82.9353 35.28C79.8753 35.28 77.8353 33.16 77.8353 30C77.8353 26.84 79.8753 24.72 82.9353 24.72C85.9753 24.72 88.0353 26.84 88.0353 30C88.0353 33.16 85.9753 35.28 82.9353 35.28ZM82.9353 33.28C84.5553 33.28 85.6553 31.98 85.6553 30C85.6553 28.02 84.5553 26.72 82.9353 26.72C81.2953 26.72 80.2153 28.02 80.2153 30C80.2153 31.98 81.2953 33.28 82.9353 33.28ZM94.4002 35.28C91.3402 35.28 89.3002 33.16 89.3002 30C89.3002 26.84 91.3402 24.72 94.4002 24.72C97.4402 24.72 99.5002 26.84 99.5002 30C99.5002 33.16 97.4402 35.28 94.4002 35.28ZM94.4002 33.28C96.0202 33.28 97.1202 31.98 97.1202 30C97.1202 28.02 96.0202 26.72 94.4002 26.72C92.7602 26.72 91.6802 28.02 91.6802 30C91.6802 31.98 92.7602 33.28 94.4002 33.28ZM106.665 32.76C108.845 33.02 110.245 34.2 110.245 35.92C110.245 37.92 108.285 39.28 105.605 39.28C102.985 39.28 100.985 37.96 100.565 35.82H103.145C103.325 36.72 104.265 37.28 105.585 37.28C106.905 37.28 107.865 36.74 107.865 35.84C107.865 34.94 106.945 34.3 105.245 34.3C104.345 34.3 103.245 34.48 102.285 34.72V33.02C103.885 32.8 105.165 32.36 106.105 31.78C105.745 31.86 105.345 31.9 104.905 31.9C102.465 31.9 100.845 30.54 100.845 28.44C100.845 26.24 102.665 24.74 105.385 24.74C106.785 24.74 107.925 25.14 108.725 25.8C108.925 25.24 108.865 24.4 108.725 23.76H110.585C110.785 24.92 110.405 26.2 109.585 26.9C109.805 27.34 109.925 27.86 109.925 28.4C109.925 30.14 108.745 31.7 106.665 32.76ZM103.225 28.48C103.225 29.54 104.085 30.24 105.385 30.24C106.685 30.24 107.545 29.54 107.545 28.48C107.545 27.42 106.705 26.72 105.385 26.72C104.105 26.72 103.225 27.42 103.225 28.48ZM112.243 35V21H114.523V35H112.243ZM123.85 31.84H126.33C125.75 33.94 123.97 35.28 121.47 35.28C118.35 35.28 116.37 33.18 116.37 30C116.37 26.82 118.37 24.72 121.53 24.72C125.05 24.72 126.87 27.36 125.91 30.64H118.79C118.99 32.3 119.91 33.28 121.51 33.28C122.63 33.28 123.51 32.76 123.85 31.84ZM121.49 26.64C119.99 26.64 119.07 27.48 118.83 29.02H123.75C123.89 27.58 123.07 26.64 121.49 26.64ZM139.805 21C142.785 21 144.505 22.5 144.505 25.16C144.505 27.84 142.785 29.42 139.785 29.42H135.865V35H133.445V21H139.805ZM139.805 27.38C141.225 27.38 142.005 26.58 142.005 25.18C142.005 23.78 141.225 23.04 139.805 23.04H135.865V27.38H139.805ZM146.207 35V21H148.487V35H146.207ZM155.015 24.72C157.935 24.72 159.415 26.54 159.415 29.32V35H157.315V33.26C156.575 34.54 155.355 35.28 153.715 35.28C151.595 35.28 150.275 34.04 150.275 32.3C150.275 30.28 152.035 29.06 154.855 29.06C155.635 29.06 156.435 29.16 157.135 29.32C157.135 27.8 156.595 26.7 154.995 26.7C153.795 26.7 153.055 27.3 153.295 28.42H150.995C150.455 26.2 152.415 24.72 155.015 24.72ZM154.175 33.46C155.635 33.46 156.835 32.52 157.215 31.06C156.555 30.84 155.755 30.72 155.035 30.72C153.395 30.72 152.595 31.32 152.595 32.24C152.595 33.04 153.195 33.46 154.175 33.46ZM167.645 25H170.025L166.365 35.76C165.845 37.32 164.825 39.22 162.325 39.22C161.785 39.22 161.205 39.14 160.685 38.94V36.96C161.185 37.14 161.645 37.24 162.085 37.24C163.345 37.24 163.885 36.38 164.205 35.56L160.185 25H162.605L165.225 32.82L167.645 25Z" fill="#EDEDED"/>
<path d="M24.3888 37.994C24.1641 37.6427 24.0566 37.2319 24.0144 36.8009C24.0019 36.6742 24.0019 36.5455 24.0019 36.4179C24.001 30.3178 24.0019 24.2168 24 18.1167C24 17.5389 24.1085 16.9927 24.4387 16.46C28.1765 19.9069 31.9037 23.3452 35.6175 26.7701C31.8672 30.5184 28.1313 34.2524 24.3888 37.994Z" fill="#EDEDED"/>
<path d="M36.8122 27.8701C38.3144 29.2562 39.8387 30.6624 41.3812 32.085C40.4751 32.5841 39.5958 33.0698 38.7156 33.5546C35.3829 35.3927 32.0502 37.2299 28.7194 39.072C27.7125 39.6287 26.695 39.7026 25.6526 39.1862C25.6122 39.166 25.5739 39.1401 25.5527 39.1286C29.304 35.3783 33.0466 31.6357 36.8122 27.8701Z" fill="#EDEDED"/>
<path d="M40.4541 21.9493C39.2015 23.203 37.9671 24.4402 36.7125 25.6958C33.0093 22.2795 29.2964 18.8547 25.5625 15.4106C25.9753 15.1591 26.4062 15.0478 26.8583 15.0103C27.4899 14.9575 28.0793 15.1092 28.6293 15.4125C32.5341 17.5656 36.438 19.7205 40.3418 21.8754C40.3822 21.8975 40.4196 21.9263 40.4541 21.9493Z" fill="#EDEDED"/>
<path d="M37.8652 26.757C37.9343 26.684 37.9862 26.6255 38.0419 26.5698C39.2667 25.345 40.4944 24.1231 41.7144 22.8935C41.844 22.7629 41.9323 22.7466 42.0954 22.8378C43.1868 23.4511 44.2878 24.0472 45.3811 24.6568C46.4831 25.2711 47.0724 26.1993 46.9937 27.4759C46.9285 28.5376 46.365 29.3141 45.4512 29.8334C44.619 30.3057 43.7781 30.7626 42.9363 31.2176C42.8749 31.2512 42.7434 31.2483 42.6963 31.2051C41.0895 29.7336 39.4894 28.2554 37.8652 26.757Z" fill="#EDEDED"/>
</svg>
